<?xml version="1.0" encoding="UTF-8" standalone="no"?>
<!DOCTYPE svg PUBLIC "-//W3C//DTD SVG 1.1//EN" "http://www.w3.org/Graphics/SVG/1.1/DTD/svg11.dtd">
<svg width="100%" height="100%" viewBox="0 0 512 512" version="1.1" xmlns="http://www.w3.org/2000/svg" xmlns:xlink="http://www.w3.org/1999/xlink" xml:space="preserve" xmlns:serif="http://www.serif.com/" style="fill-rule:evenodd;clip-rule:evenodd;stroke-linecap:round;stroke-linejoin:round;stroke-miterlimit:1.5;">
  <style>
    path {
      fill: #4338ca;
    }
    @media (prefers-color-scheme: dark) {
        path {
            fill: #6366f1;
        }
    }
  </style>
    <path d="M256,19.534C386.509,19.534 492.466,125.491 492.466,256C492.466,386.509 386.509,492.466 256,492.466C125.491,492.466 19.534,386.509 19.534,256C19.534,125.491 125.491,19.534 256,19.534ZM275.185,196.544L275.185,369.858L313.295,369.858L313.295,307.717L353.346,307.717C364.188,307.717 373.412,306.139 381.018,302.984C388.624,299.828 394.814,295.661 399.587,290.483C404.361,285.304 407.84,279.357 410.025,272.642C412.21,265.926 413.302,259.089 413.302,252.13C413.302,245.01 412.21,238.133 410.025,231.498C407.84,224.863 404.361,218.956 399.587,213.778C394.814,208.6 388.624,204.433 381.018,201.277C373.412,198.121 364.188,196.544 353.346,196.544L275.185,196.544ZM117.784,134.411L117.784,307.725L201.771,307.725C209.538,307.725 217.104,306.754 224.467,304.812C231.83,302.87 238.384,299.876 244.128,295.831C249.873,291.785 254.445,286.566 257.843,280.174C261.241,273.782 262.94,266.217 262.94,257.478C262.94,246.636 260.311,237.372 255.051,229.685C249.792,221.998 241.822,216.618 231.142,213.543C238.91,209.821 244.776,205.047 248.74,199.222C252.705,193.396 254.687,186.114 254.687,177.375C254.687,169.284 253.352,162.488 250.682,156.986C248.012,151.483 244.25,147.074 239.395,143.756C234.54,140.439 228.715,138.052 221.918,136.596C215.121,135.139 207.597,134.411 199.343,134.411L117.784,134.411ZM155.894,278.111L155.894,230.535L197.402,230.535C205.655,230.535 212.289,232.436 217.306,236.239C222.323,240.042 224.831,246.393 224.831,255.294C224.831,259.825 224.062,263.547 222.525,266.46C220.987,269.372 218.924,271.678 216.335,273.378C213.746,275.077 210.752,276.29 207.354,277.019C203.955,277.747 200.395,278.111 196.673,278.111L155.894,278.111ZM313.295,278.103L313.295,226.158L342.908,226.158C347.278,226.158 351.485,226.481 355.531,227.129C359.576,227.776 363.136,229.03 366.211,230.891C369.286,232.752 371.754,235.382 373.615,238.78C375.476,242.178 376.406,246.628 376.406,252.13C376.406,257.632 375.476,262.083 373.615,265.481C371.754,268.879 369.286,271.509 366.211,273.37C363.136,275.231 359.576,276.485 355.531,277.132C351.485,277.78 347.278,278.103 342.908,278.103L313.295,278.103ZM155.894,204.562L155.894,164.025L191.576,164.025C194.974,164.025 198.251,164.308 201.407,164.874C204.562,165.441 207.354,166.452 209.781,167.909C212.208,169.365 214.15,171.388 215.607,173.977C217.063,176.566 217.791,179.884 217.791,183.929C217.791,191.211 215.607,196.471 211.238,199.707C206.868,202.944 201.285,204.562 194.489,204.562L155.894,204.562Z"/>
</svg>