<?xml version='1.0' encoding='utf-8'?>
<!-- Generator: imaengine 6.0   -->
<svg xmlns:xlink="http://www.w3.org/1999/xlink" xmlns="http://www.w3.org/2000/svg" viewBox="0,0,1504,1444" style="enable-background:new 0 0 1504 1444;" version="1.1">
<defs>
<linearGradient y1="0" id="LinearGradient" x1="752" y2="1444" x2="752" gradientUnits="userSpaceOnUse" gradientTransform="matrix(1 0 0 1 0 0)">
<stop stop-opacity="0.987915" stop-color="#250000" offset="0"/>
<stop stop-color="#1380D1" offset="1"/>
</linearGradient>
</defs>
<g id="layer0">
<path d="M914,1438L915,1438L914,1437L914,1438Z" fill-rule="evenodd" fill="#FFEBCA"/>
<path d="M914.509,1438C960.25,1438.47 1004.26,1438.17 1049.01,1436.49L1050,1435L1050,1433L1049,1433L1049.49,1432C1046.45,1422.69 1041.66,1413.78 1038.45,1405.81C1035.17,1400.16 1031.12,1393.64 1027.38,1389.68C1025.19,1384.99 1020.33,1381.28 1017.35,1378.66C1015.37,1374.79 1009.64,1372.81 1007.3,1370.61C995.293,1364.53 973.258,1367.09 956.858,1366.53C951.641,1370.85 960.051,1382.54 960.513,1388.07C961.834,1388.32 961.947,1389.59 961.537,1390.78C961.128,1391.96 960.972,1392.6 960.29,1391.6L960.491,1391C954.851,1383.28 949.041,1374.02 941.274,1369.59C935.684,1364.53 927.149,1360.92 919.104,1359.52C910.679,1357.3 898.644,1357.31 889.003,1357.51C876.598,1357.11 864.792,1358.51 854.964,1359.51C843.295,1360.05 834.229,1360.97 824.068,1359.51C816.51,1358.47 809.904,1355.21 804.2,1353.55C800.376,1350.84 795.823,1347.28 792.27,1345.59C789.897,1342.84 792.014,1341.36 794.907,1339.28C797.8,1337.2 801.642,1335.13 802.443,1333.21C847.988,1290.43 889.955,1243.86 895.487,1161.07L895.491,1159C896.461,1143.99 893.392,1131.82 890.471,1121.86C887.461,1111.85 882.904,1102.09 878.411,1094.73C872.723,1088.41 866.634,1080.98 859.227,1077.56C852.038,1073.09 842.375,1069.69 832.073,1069.51C823.953,1067.11 812.766,1070.08 805.941,1070.51C798.953,1071.78 791.429,1074.09 785.856,1075.53C777.332,1078.67 767.823,1082.12 760.78,1085.56C754.907,1088.63 747.824,1091.92 742.765,1094.57C738.618,1096.96 733.536,1100.06 729.785,1101.56C718.912,1108.44 707.947,1116.23 697.701,1122.61C690.772,1131.11 689.308,1131.15 689.288,1127.35C689.268,1123.55 691.383,1116.59 693.392,1111.3L694.491,1110C717.307,1050.94 784.264,1012.87 871.85,1035.47C889.327,1042.47 903.098,1053.39 912.592,1067.27C921.602,1082.41 927.509,1101.01 929.511,1122.05C931.79,1132.11 931.055,1146.36 932.514,1156.07C932.415,1160.35 932.139,1165.96 932.526,1169.08C932.913,1172.2 934.894,1172.96 937.443,1167.21C946.706,1155.69 955.696,1143.35 965.354,1133.34C975.949,1122.14 986.578,1110.45 1000.24,1103.43C1010.8,1096.56 1022.48,1089.68 1029.39,1080.3C1036.55,1073.23 1036.37,1054.8 1034.49,1042.92C1034.49,1031.26 1034.49,1018.48 1034.49,1008C1034.49,999.06 1034.49,988.708 1034.49,981C1034.49,974.12 1034.49,965.6 1034.49,960C1034.49,953.465 1034.49,945.246 1034.49,940C1034.49,932.432 1034.49,923.307 1034.49,917C1034.49,909.776 1034.49,900.954 1034.49,895C1034.49,889.502 1034.49,882.175 1034.49,878C1034.76,873.618 1032.18,870.137 1033.11,866.479C1056.98,905.818 1083.52,940.872 1101.54,987.177C1106.45,1001.04 1111.16,1015.79 1113.51,1031.07C1113.3,1033.78 1114.64,1040.98 1115.23,1046.55C1115.83,1052.11 1116.56,1055.65 1113.38,1051.69C1100.38,1036.19 1087.81,1019.68 1075.38,1004.69C1070.97,998.455 1064.74,992.168 1060.95,986.511C1057.06,998.446 1054.6,1018.3 1055.51,1031.04C1053.31,1060.8 1071.11,1078.69 1081.72,1089.4C1068.68,1092.98 1064.96,1102.92 1066.71,1113.17C1068.46,1123.41 1075.74,1133.97 1083.77,1137.43C1093.7,1144.6 1087.96,1147.63 1084.54,1156.83C1082.06,1168.05 1086.29,1181.8 1088.53,1190.13C1093.73,1205.71 1099.46,1221.68 1106.57,1234.24C1111.8,1246.76 1117.58,1259.48 1121.53,1272.15C1126.16,1282.92 1129.6,1295.75 1131.51,1308.08C1131.03,1321.59 1131.96,1334.78 1133.51,1345.07C1133.81,1355.42 1137.87,1363.51 1141.58,1369.25C1143.02,1375.11 1146.02,1373.31 1148.27,1370.9C1150.53,1368.49 1152,1365.42 1153.55,1369.2C1157.01,1373.99 1160.66,1380.23 1163.61,1384.29C1167.92,1389.6 1171.15,1397.44 1175.65,1401.35C1179.03,1407.25 1183.26,1413.68 1187.65,1417.34C1189.71,1422.51 1195.45,1425.49 1197.6,1429.29C1201.34,1431.39 1206.87,1433.95 1209.88,1435.48C1277.59,1435.47 1349.63,1439.12 1422.01,1435.49L1422.49,1434C1417.85,1425.95 1413.24,1416.49 1409.44,1408.78C1406.27,1403.35 1402.38,1397.14 1399.42,1392.74C1390.12,1358.67 1343.54,1365.09 1303.01,1363.51L1302,1364L1302.49,1363C1284.81,1355.86 1274.1,1340.69 1267.39,1323.7L1266,1324L1266.49,1323C1263.76,1313.39 1261.02,1302.55 1259.49,1292.92C1257.71,1171.28 1276.98,1065.24 1306.42,972.263L1305,972L1305,971L1302.51,972C1275.27,983.757 1244.35,991.536 1229.57,1015.75C1218.67,1047.55 1212.16,1085.07 1209.51,1123.97C1207.53,1162.98 1206.12,1202.6 1205.51,1242.99C1205.31,1278.47 1205.95,1304.12 1208.51,1338.04C1210.87,1351.17 1210.44,1354.33 1208.05,1353.37C1205.67,1352.42 1202.24,1347.08 1199.43,1341.77C1192.64,1330.13 1188.18,1315.55 1186.49,1299.95C1183.17,1274.76 1183.34,1245.55 1182.49,1218.98C1181.94,1194.97 1183.36,1172.26 1184.49,1151.03C1186.17,1132.26 1187.06,1112.02 1190.48,1096.1C1191.98,1079.17 1196.14,1064.03 1198.49,1049.08C1202.41,1035.58 1206.17,1021.16 1210.46,1009.16C1214.02,997.33 1218.6,985.553 1222.46,975.173C1226.05,967.094 1229.92,958.179 1233.44,951.218C1235.98,944.82 1239.24,937.802 1242.41,933.27C1244.36,928.338 1247.82,923.15 1249.45,919.186C1251.92,912.11 1252.57,911.918 1253.24,914.496C1253.91,917.074 1253.68,922.096 1252.53,925.858C1251,933.27 1251,943.662 1249.52,949.888C1249.4,957.33 1248.57,965.538 1247.54,970.819C1255.28,970.656 1263.5,964.822 1270.22,962.439C1275.47,958.405 1282.78,954.921 1287.3,951.388C1294.89,945.613 1303.89,940.081 1309.35,933.344C1315.83,929.52 1320.99,923.053 1325.36,918.331C1328.86,914.256 1333.27,909.382 1335.43,905.239C1343.53,895.252 1349.89,882.613 1355.44,871.208C1356.96,865.056 1358.99,859.158 1361.43,856.799C1363.87,854.441 1365.81,855.586 1368.54,864.172C1371.75,867.053 1375.03,863.41 1376.91,858.368C1378.79,853.327 1380.18,846.914 1381.45,844.2C1382.03,834.136 1383.42,823.374 1383.49,814.004C1381.59,807.649 1383.3,796.014 1381.46,790.84C1381.26,784.505 1379.89,777.805 1379.49,772.959C1377.98,768.629 1378.27,760.421 1376.42,757.74C1376.4,753.108 1377.04,754.672 1378.64,756.836C1380.24,759 1382.2,762.473 1382.8,762.45C1386.02,769.715 1389.65,769.419 1391.48,766.185C1393.3,762.95 1393.99,756.193 1392.47,750.867C1391.07,742.642 1389.32,733.423 1387.47,726.865C1385.51,721.607 1382.73,715.552 1381.47,710.859C1378.48,707.314 1377.2,700.053 1374.35,697.655C1368.74,685.513 1361.57,674.294 1356.45,662.793C1357.29,661.499 1359.91,663.627 1363.71,665.44C1367.51,667.252 1372.04,669.447 1375,669.491L1376.49,669C1366.45,643.187 1344.17,619.203 1325.35,598.66C1304.81,580.21 1283.97,561.904 1261.28,545.596C1242.74,533.625 1224.85,520.503 1208.31,507.619C1196.01,496.45 1184.24,484.272 1175.41,470.734C1168.69,459.504 1161.22,445.706 1164.48,428.09C1167.48,411.644 1178,402.532 1190.22,396.438C1202.76,389.806 1221.14,383.861 1239.91,387.484C1253.39,389.736 1262.09,397.13 1267.57,406.239C1268.17,415.762 1270.91,419.128 1273.62,418.559C1276.33,417.989 1279.87,413.469 1282.44,408.222C1286.91,401.37 1290.94,392.683 1292.48,384.09C1295.44,377.424 1295.66,366.625 1296.49,359.054C1295.75,348.124 1292.45,338.177 1288.41,331.737C1284.24,325.609 1278.95,318.813 1271.14,317.528C1265.23,314.835 1256.52,313.486 1250.12,312.524C1241.24,309.056 1234.43,302.784 1229.37,296.678C1166.51,234.736 1036.84,238.465 944.081,207.515L942.509,209C944.616,216.517 948.794,223.751 952.628,228.321C956.16,232.014 959.728,237.293 962.64,240.335C965.159,243.314 970.368,245.248 971.564,248.227C974.83,250.114 978.609,253.691 980.716,255.401C984.524,257.437 988.053,261.65 991.791,262.445C994.7,265.38 999.52,267.978 1001.67,270.363C1006.79,273.158 1012.75,276.708 1016.72,279.402C987.583,301.511 950.183,318.772 935.607,357.706L938.491,360C949.362,359.202 958.305,355.999 968.223,355.438C968.644,353.934 968.832,354.056 969.247,354.555C969.662,355.054 969.98,355.01 968.9,354.519C949.411,379.745 924.979,401.861 922.511,442.953C926.079,443.856 936.792,438.424 944.285,434.986C951.778,431.548 956.113,429.905 949.574,440.755C945.001,453.601 939.898,467.058 938.511,481.954C935.81,495.413 939.337,511.141 943.589,519.27C946.14,520.839 950.001,518.112 953.024,514.459C956.047,510.807 958.982,506.315 961.338,504.356C966.674,496.646 966.375,500.835 965.93,508.299C965.486,515.764 964.096,526.315 965.538,530.168C966.656,542.076 968.895,554.001 972.55,562.198C975.851,570.905 982.113,577.98 986.613,584.303C992.602,589.642 1000,594.999 1005.73,599.408C1012.78,603.003 1020.31,607.508 1026.81,610.452C1033.47,613.07 1040.39,616.794 1045.79,619.445C1054.18,623.061 1062.91,627.398 1068.72,632.405C1074.06,634.632 1078.8,639.056 1082.74,641.42C1085.71,643.263 1088.52,647.151 1090.72,648.407C1093.58,651.053 1098.4,653.266 1099.58,656.262C1103.18,657.124 1105.49,661.545 1107.72,662.407C1106.48,665.031 1102.44,663.196 1097.52,661.433C1092.59,659.669 1087.16,657.09 1084.11,656.521C1069.58,652.62 1054.66,648.026 1041.86,643.53C1045.18,650.851 1051.34,657.141 1055.62,662.306C1059.73,668.502 1065.49,674.352 1069.62,679.314C1073.65,684.228 1078.34,689.877 1081.62,694.307C1084.47,696.952 1087.61,701.191 1089.64,703.333C1094.78,709.522 1100.7,716.152 1104.64,722.339C1094.16,725.465 1074.35,723.111 1060,723.509C1005.29,721.992 957.643,714.412 915.161,699.536C877.297,686.658 845.037,667.483 817.305,645.614C790.943,624.709 769.467,600.144 752.431,568.764C737.596,543.603 727.195,514.223 722.487,478.935C719.785,447.088 721.558,413.513 728.471,387.139C730.843,384.443 728.791,382.981 726.493,382.612C724.196,382.242 721.642,382.653 721.46,381.828C712.407,380.234 701.543,378.272 693.832,376.538C688.127,390.945 684.346,408.753 681.516,424.916C677.163,458.786 681.293,493.873 688.523,523.119C696.481,550.157 706.459,575.406 720.59,596.271C732.537,616.842 747.512,635.03 762.644,651.339C775.607,663.859 789.88,675.846 803.714,686.4C815.894,693.995 827.802,702.779 840.791,708.445C850.903,713.727 861.188,719.847 871.822,723.458C879.834,727.114 888.993,730.848 896.852,733.468C904.538,735.747 912.667,738.913 919.861,740.471C927.501,743.479 937.679,745.215 944.865,747.473C954.188,749.818 965.086,751.825 973.907,753.483C981.668,755.005 990.278,757.101 997.948,757.489C1003.86,758.46 1010.58,760.325 1016.01,760.491C1021.31,760.127 1021.37,760.921 1020.29,762.778C1019.21,764.636 1016.63,766.719 1015.65,767.654C974.158,818.297 933.382,867.599 865.904,894.518L864.509,896C830.815,912.043 770.511,902.035 752.598,932.717C726.63,950.745 700.724,968.629 675.706,987.607C653.869,1003.45 632.319,1020.81 613.66,1038.65C598.338,1053.5 582.386,1068.38 569.611,1084.7C559.626,1098.52 549.315,1112.82 541.565,1127.77C534.578,1139.55 528.723,1153.35 523.545,1165.82C520.533,1177.86 515.719,1189.26 514.511,1201.95C510.492,1215.01 509.61,1232.08 507.514,1245.93C506.679,1265.2 504.871,1284.33 503.51,1301.96C502.188,1317.38 499.673,1332.07 491.65,1339.65C485.179,1347.9 474.916,1353.11 465.797,1357.55C456.797,1361.24 447.304,1365.46 437.86,1367.53C428.753,1371.11 416.789,1372.88 406.916,1374.52C394.473,1376.79 378.766,1376.68 365.029,1376.51C353.559,1375.29 341.517,1373.63 332.118,1371.52C323.497,1369.16 314.584,1365.96 308.204,1362.55C300.852,1359.94 293.821,1355.74 288.239,1352.57C245.858,1329.73 213.465,1266.22 237.396,1201.29L238.491,1200C250.321,1168.54 269.651,1145.97 287.407,1119.27C304.442,1095.61 320.369,1069.5 326.483,1036.09C332.03,997.674 316.247,972.421 295.304,957.614C272.9,935.064 236.261,956.24 227.554,975.795C215.223,996.317 205.279,1019.95 202.511,1048.95C202.803,1055 206.197,1053.01 209.26,1049.2C212.323,1045.39 215.661,1040.28 218.117,1040.48C229.639,1032.48 243.569,1041.69 244.511,1052.04C249.259,1076.75 235.347,1094.51 227.56,1110.78C217.592,1125.96 206.719,1140.88 198.565,1156.77C189.204,1172.22 182.824,1191.48 178.52,1210.89C174.415,1231.58 174.052,1256.76 177.516,1277.08C180.212,1294.83 185.511,1310.92 191.553,1324.2C197.128,1336.38 204.43,1347.87 211.615,1357.3C219.153,1365.5 225.61,1375.91 234.709,1381.4C241.492,1388.99 251.033,1394.87 258.719,1400.4C266.165,1405.3 275.291,1409.77 282.788,1413.44C289.846,1416.69 298.077,1420.12 304.837,1422.46C391.607,1453.76 484.507,1415.95 548.104,1388.48L548.509,1387C556.273,1392.26 560.612,1402.5 566.636,1408.33C570.016,1414.92 576.254,1419.89 579.605,1425.29C584.466,1428.69 590.193,1433.15 594.879,1435.48C696.893,1436.47 806.284,1435.71 913.996,1437.49L914.509,1438ZM630.992,1394.51C622.911,1395.22 624.212,1393.33 627.457,1390.17C630.702,1387 636.238,1383.4 637.338,1382.36C647.494,1372.74 657.847,1362.57 668.314,1354.38C680.955,1342.21 694.214,1329.98 707.319,1319.37C717.137,1309.75 727.911,1300.29 738.312,1292.38C746.359,1284.36 755.599,1276.6 764.307,1270.38C772.521,1261.85 782.596,1254.19 790.35,1246.34C798.78,1237.69 808.827,1229.69 815.387,1220.3C823.169,1213.7 829.093,1204.25 835.378,1197.31C839.408,1190.02 845.246,1183.13 848.448,1176.2C850.961,1167.54 852.437,1166.2 853.979,1168.67C855.521,1171.13 856.192,1177.15 855.511,1183.95C854.43,1195.9 851.916,1207.25 847.57,1214.76C844.445,1223.64 839.018,1231.29 834.608,1237.7C776.237,1290.99 725.919,1351.91 651.879,1389.52L650.509,1391C643.761,1392.16 638.051,1394.91 630.992,1394.51ZM1300.64,850.67C1297.7,849.04 1297.9,838.053 1295.41,834.725C1293.08,824.029 1290.09,813.102 1287.47,803.865C1285.17,797.571 1283.87,788.726 1281.45,783.793C1281.37,778.373 1278.39,774.288 1278.49,770.014C1276.71,768.368 1276.79,762.078 1275.27,761.592C1273.9,756.123 1272,749.192 1271.54,745.42C1271.08,741.647 1271.36,741.697 1276.58,750.256C1282.94,760.645 1289.16,771.952 1293.54,783.178C1300.42,800.969 1305.85,827.776 1300.64,850.67ZM1120,463L1118.49,463C1099.07,459.623 1085.2,449.262 1074.22,438.558L1073,439L1073.49,438C1070.52,434.089 1065.85,430.043 1064.46,425.831C1061.95,422.848 1059.8,417.62 1058.45,414.794C1057.19,410.211 1054.9,405.182 1055.49,400.056C1054.49,392.527 1056.76,386.768 1058.45,383.206C1060.87,376.008 1066.03,370.43 1070.35,366.344C1072.44,363.649 1074.02,362.33 1075.14,362.525C1076.25,362.72 1076.09,363.908 1074.54,367.824C1064.51,418.079 1091.46,443.224 1117.82,463.459L1120,463ZM1173,318L1171.51,319C1162.74,319.856 1156.57,316.825 1152.19,314.546C1148.16,313.419 1143.89,310.679 1141.2,309.552C1138.45,308.19 1134.48,306.226 1133.33,304.639C1122.77,301.688 1122.2,299.009 1126.23,296.762C1130.27,294.515 1138.48,293.547 1145.92,295.485C1153.83,295.948 1162.8,295.533 1169.57,297.214C1176.35,298.895 1180.53,302.077 1179.52,310.89L1178.51,312C1177.74,313.973 1176.34,316.561 1175.01,316.509L1174,318L1173,318Z" fill-rule="evenodd" fill="#1AB58A"/>
<path d="M1049,1436L1050,1435L1049,1436Z" fill-rule="evenodd" fill="#FFEBCA"/>
<path d="M1422,1435L1422,1434L1422,1435Z" fill-rule="evenodd" fill="#FFEBCA"/>
<path d="M1049,1433L1050,1433L1049,1432L1049,1433Z" fill-rule="evenodd" fill="#FFEBCA"/>
<path d="M959.509,1392C960.191,1393 962.057,1392.28 962.466,1391.1C962.876,1389.91 962.367,1387.76 961.047,1387.51L960,1391L959.509,1392Z" fill-rule="evenodd" fill="#FFEBCA"/>
<path d="M651,1391L652,1390L651,1391Z" fill-rule="evenodd" fill="#FFEBCA"/>
<path d="M548,1388L549,1387L548,1388Z" fill-rule="evenodd" fill="#FFEBCA"/>
<path d="M1302,1364L1303,1364L1302,1363L1302,1364Z" fill-rule="evenodd" fill="#FFEBCA"/>
<path d="M1266,1324L1267,1324L1266,1323L1266,1324Z" fill-rule="evenodd" fill="#FFEBCA"/>
<path d="M237,1201L238,1200L237,1201Z" fill-rule="evenodd" fill="#FFEBCA"/>
<path d="M282,1169L283,1168L283,1167L282,1169Z" fill-rule="evenodd" fill="#FFEBCA"/>
<path d="M283.491,1168C293.129,1161.91 304.456,1157.43 315.09,1153.48L316.491,1152C326.594,1149.42 336.22,1146.05 345.146,1143.47C353.1,1140.78 362.226,1137.97 369.165,1135.46C375.281,1133.32 382.189,1130.46 387.191,1128.45C401.082,1122.23 414.386,1114.36 424.358,1105.34C425.461,1102.96 429.8,1099.02 432.809,1095.4C435.818,1091.78 437.207,1087.67 433.068,1086.51L431.509,1088C416.531,1094.39 416.597,1090.78 419.529,1084.15C422.462,1077.53 429.242,1067.91 429.491,1063.03C435.267,1048.69 440.191,1032.76 442.487,1016.07C445.877,998.828 443.939,977.501 439.467,963.847C434.915,949.297 427.686,936.348 419.375,926.682C412.194,917.793 402.698,910.077 393.264,904.586C386.016,899.147 376.088,895.101 367.148,892.531C359.508,889.864 349.56,888.115 341.063,887.513C334.644,886.278 323.045,885.711 317.935,887.513C311.188,886.956 305.003,888.694 300.932,889.513C296.141,889.874 290.73,891.528 287.904,892.518C282.971,892.737 279.336,896.101 274.933,895.513C268.035,898.581 260.06,902.063 253.797,904.553C249.099,907.079 244.625,911.258 239.927,912.514C284.176,913.985 314.658,931.036 338.809,951.453L340.491,951C343.889,944.642 354.002,938.447 361.779,943.439C369.82,946.045 374.559,952.894 378.605,958.292C382.826,964.378 387.15,971.363 388.518,979.093C392.298,984.416 392.245,999.348 390.525,1005.88C389.433,1013.38 387.205,1021.05 384.566,1025.77C383.155,1030.89 379.433,1035.55 378.523,1039.88C375.995,1042.16 373.978,1046.63 372.601,1048.71C370.527,1050.75 368.543,1054.65 366.742,1055.58C364.493,1057.45 363.057,1062.06 360.808,1062.55C359.174,1063.83 356.725,1067.42 354.609,1069.48C352.493,1071.53 351.381,1072.38 350.479,1067.89C348.232,1065.6 345.764,1067.61 344.298,1070.38C342.832,1073.14 341.672,1076.32 339.783,1076.56C321.171,1106.94 301.365,1136.3 282.69,1166.62L283.491,1168Z" fill-rule="evenodd" fill="#1AB58A"/>
<path d="M895,1161L895,1159L895,1161Z" fill-rule="evenodd" fill="#FFEBCA"/>
<path d="M315,1153L316,1152L315,1153Z" fill-rule="evenodd" fill="#FFEBCA"/>
<path d="M693,1111L694,1110L693,1111Z" fill-rule="evenodd" fill="#FFEBCA"/>
<path d="M432,1088L433,1087L432,1088Z" fill-rule="evenodd" fill="#FFEBCA"/>
<path d="M872,1036L872,1035L872,1036Z" fill-rule="evenodd" fill="#FFEBCA"/>
<path d="M1102,988L1102,987L1102,988Z" fill-rule="evenodd" fill="#FFEBCA"/>
<path d="M1303,972L1304,971L1303,972Z" fill-rule="evenodd" fill="#FFEBCA"/>
<path d="M1305,972L1306,972L1305,971L1305,972Z" fill-rule="evenodd" fill="#FFEBCA"/>
<path d="M339,952L340,951L339,951L339,952Z" fill-rule="evenodd" fill="#FFEBCA"/>
<path d="M865,896L866,895L865,896Z" fill-rule="evenodd" fill="#FFEBCA"/>
<path d="M809,886L812,885L811,885L811,884L809,886Z" fill-rule="evenodd" fill="#FFEBCA"/>
<path d="M811,885L812.491,885C828.795,883.886 842.486,880.069 854.164,875.463C864.401,872.335 874.54,867.933 882.234,863.432C891.038,859.209 899.434,853.397 906.288,848.398C914.669,842.398 923.444,835.705 930.327,829.367C937.67,823.345 944.395,815.579 950.353,809.341C955.506,804.188 960.988,798.055 965.363,793.331C969.039,789.096 973.017,783.619 976.374,780.318C975.35,775.631 961.158,774.719 955.101,773.519C868.761,754.228 801.44,718.311 746.215,664.558L745,665L745.491,664C735.374,654.006 725.737,642.343 717.388,631.699C708.175,619.12 699.224,605.679 692.44,591.782C686.116,580.687 679.843,568.84 677.484,554.916C673.41,544.272 669.39,531.785 658.094,529.518C642.096,526.483 624.709,530.558 610.971,531.51C446.961,539.723 297.125,526.268 161.834,501.538C189.832,555.722 240.904,585.994 309.891,601.479C366.058,614.363 439.048,615.223 507.093,611.483C512.451,609.617 523.057,611.388 527.103,609.48C539.251,609.961 550.481,608.441 560.01,607.491C571.319,608.152 580.553,605.427 591.058,606.488C596.123,604.673 606.576,606.497 610.147,604.469C622.835,603.792 636.858,603.642 647.891,602.479C638.304,608.941 620.976,611.5 608.838,616.536C562.256,629.174 512.073,637.274 454.967,640.51C406.76,644.298 354.049,643.563 302,643.509C293.402,643.509 283.352,643.509 275.993,643.509C273.52,643.582 269.405,643.262 266.73,643.457C264.055,643.653 262.525,645.244 265.698,647.388C285.947,669.134 312.87,684.396 341.809,697.453C381.55,712.706 427.783,721.724 484.009,720.491C526.605,719.801 564.256,715.093 602.094,708.482C630.584,702.313 660.402,696.243 684.105,686.48C690.833,686.328 696.14,683.384 702.809,684.453C699.22,687.744 693.742,690.066 690.693,692.617C681.399,699.393 669.688,704.589 660.751,710.577C643.573,718.547 625.065,725.694 606.852,731.532C588.698,737.185 568.562,741.475 549.901,745.519C529.935,749.359 508.368,752.246 488.931,755.513C470.258,757.624 451.22,760.159 433.909,762.517C431.403,763.128 425.012,763.466 420.69,764.233C416.369,765 414.012,767.129 419.804,769.451C429.039,773.919 439.754,777.993 448.825,781.459C465.126,787.622 483.472,792.574 501.917,795.484C518.901,798.612 539.691,798.829 559.021,798.491C576.264,797.304 592.692,794.382 607.093,791.482C619.531,789.202 632.058,785.955 643.137,783.472C651.389,780.395 662.195,778.624 669.167,775.462C676.291,773.645 684.283,771.277 690.174,769.459C694.839,767.244 702.04,765.938 706.165,764.463C710.225,763.025 715.309,760.805 719.148,760.468C722.486,758.308 728.985,757.378 731.221,755.439C736.813,754.841 741.401,751.682 746.091,751.483C753.192,748.96 761.195,745.923 768.146,744.469C771.765,742.871 773.14,742.338 773.552,742.79C773.964,743.242 772.962,743.825 770.695,745.615C742.83,767.744 710.669,785.277 673.913,798.516L672.509,800C660.738,803.285 649.813,807.586 638.854,810.531C628.794,814.174 617.694,817.842 607.847,820.533C600.214,823.547 590.323,825.593 583.826,828.541C581.071,829.339 575.46,830.474 572.098,831.841C568.736,833.207 567.677,835.739 573.878,837.476C583.081,839.601 593.179,842.09 601.92,843.485C613.605,845.503 629.934,844.047 642.029,844.49C652.714,842.828 664.953,841.488 673.11,838.479C681.965,837.71 689.697,834.454 696.124,832.476C703.249,831.003 710.26,827.941 716.146,826.469C724.786,823.101 734.354,819.49 742.154,816.467C779.25,806.745 801.343,778.051 844.901,778.481C848.777,780.187 847.833,780.89 846.128,782.366C844.424,783.842 841.566,785.586 841.509,786.975C799.982,820.441 748.276,842.907 695.896,865.52L694.509,867C686.495,868.208 684.999,870.392 686.672,871.874C688.345,873.355 693.634,874.623 698.957,874.489C709.211,876.608 723.122,877.191 733.073,875.486C749.977,873.287 766.031,869.275 778.188,863.454C789.479,859.688 800.068,854.164 809.238,849.43C816.679,844.863 825.158,840.124 831.269,835.411C837.816,832.334 844.228,827.769 849.272,824.409C854.029,821.254 860.303,817.998 863.329,814.365C868.67,812.138 873.333,807.77 877.276,805.407C881.54,801.759 886.925,797.631 890.323,794.37C894.612,791.435 900.497,788.666 904.223,786.438C908.183,784.899 914.165,783.931 918.888,784.478C920.511,785.085 922.925,785.352 924.869,785.964C926.813,786.576 927.921,786.942 927.521,788.889C894.363,826.314 853.269,853.058 810.834,883.538L811,885Z" fill-rule="evenodd" fill="#1AB58A"/>
<path d="M695,867L696,866L695,867Z" fill-rule="evenodd" fill="#FFEBCA"/>
<path d="M1369,865L1369,864L1369,865Z" fill-rule="evenodd" fill="#FFEBCA"/>
<path d="M673,800L674,799L673,800Z" fill-rule="evenodd" fill="#FFEBCA"/>
<path d="M1294,784L1294,783L1294,784Z" fill-rule="evenodd" fill="#FFEBCA"/>
<path d="M845,779L845,778L845,779Z" fill-rule="evenodd" fill="#FFEBCA"/>
<path d="M1035,689L1036,689L1035,688L1035,689Z" fill-rule="evenodd" fill="#FFEBCA"/>
<path d="M1036.49,689C1043.11,687.866 1042.56,684.501 1040.29,681.242C1038.03,677.983 1034.03,674.684 1033.47,672.854C1018.6,633.968 978.697,618.457 931.025,613.509L930,614L930.491,613C878.933,592.609 839.807,560.37 818.378,508.686L817,509L817.491,508C810.329,487.863 805.528,458.249 810.482,433.095C814.442,413.584 821.768,396.883 828.45,381.198C838.257,364.723 828.551,343.432 817.271,337.59C806.834,326.907 793.374,318.357 779.182,312.543C616.317,250.212 459.773,182.19 312.128,102.526L310.509,103C323.733,124.892 349.247,144.087 372.723,160.406C393.572,174.215 417.351,186.396 439.776,197.437C463.901,210.632 490.651,220.064 515.781,233.44C543.151,245.76 570.421,259.295 596.789,271.444C618.049,282.031 640.377,292.076 660.783,302.441C677.195,310.17 694.179,317.935 709.739,325.417C714.051,329.58 725.993,331.109 726.515,335.079C722.809,337.877 712.971,332.608 708.073,332.514C467.253,261.537 281.72,135.872 102.172,1.53981L100.509,2C96.9652,33.2037 103.159,61.4611 112.555,81.2089C120.816,101.448 133.285,118.281 146.643,132.337C158.526,145.267 172.558,156.875 186.734,166.413C351.821,264.821 565.535,314.029 761.741,383.417C767.615,392.471 759.048,407.403 760.512,419.061C753.99,601.485 873.947,666.73 1034.97,688.49L1036.49,689Z" fill-rule="evenodd" fill="#1AB58A"/>
<path d="M1375,670L1376,669L1375,669L1375,670Z" fill-rule="evenodd" fill="#FFEBCA"/>
<path d="M745,665L746,665L745,664L745,665Z" fill-rule="evenodd" fill="#FFEBCA"/>
<path d="M1041,645L1042,644L1041,645Z" fill-rule="evenodd" fill="#FFEBCA"/>
<path d="M930,614L931,614L930,613L930,614Z" fill-rule="evenodd" fill="#FFEBCA"/>
<path d="M501,511L502,511L501,510L501,511Z" fill-rule="evenodd" fill="#FFEBCA"/>
<path d="M502.491,511C553.047,508.807 608.551,511.644 658.011,509.491L659.491,508C663.586,479.908 647.312,471.252 625.622,468.942C603.931,466.631 576.419,470.183 557.088,465.517C523.104,461.504 488.365,458.217 455.072,453.514C428.67,449.407 401.394,445.637 377.088,440.517C355.807,437.32 335.075,432.929 316.106,428.52C298.329,424.841 280.843,420.137 264.114,416.522C246.865,411.979 229.467,406.877 213.135,402.528C196.744,397.463 179.537,392.477 164.141,387.529C150.731,383.858 137.76,378.862 125.147,375.531C115.69,371.963 104.489,368.804 95.9256,365.514C90.312,370.246 101.701,390.815 105.566,398.23C112.369,409.52 120.851,420.217 129.667,428.362C137.735,435.688 146.377,443.572 155.763,448.43C239.911,499.614 365.03,508.943 500.997,510.491L502.491,511Z" fill-rule="evenodd" fill="#1AB58A"/>
<path d="M658,509L659,508L658,509Z" fill-rule="evenodd" fill="#FFEBCA"/>
<path d="M817,509L818,509L817,508L817,509Z" fill-rule="evenodd" fill="#FFEBCA"/>
<path d="M161,503L162,502L161,503Z" fill-rule="evenodd" fill="#FFEBCA"/>
<path d="M628,451L629,451L628,450L628,451Z" fill-rule="evenodd" fill="#FFEBCA"/>
<path d="M629,451C637.255,451 646.991,451.491 654,451.491L655.491,450C655.491,441.06 655.491,430.708 655.491,423L654,423L654,422L652,422L651,422L651.491,421C630.161,417.853 608.991,412.999 589.095,409.518C573.428,406.082 557.428,402.176 542.106,399.52C530.57,396.338 517.772,393.429 507.117,390.523C497.217,388.415 487.447,385.024 478.124,383.525C468.685,379.938 457.076,377.457 448.148,374.532C437.123,371.177 425.927,366.987 415.158,364.535C407.095,360.589 396.472,358.08 389.184,354.544C382.326,352.463 375.147,349.228 369.138,347.529C364.462,346.1 362.643,345.39 362.863,344.706C363.083,344.022 365.1,344.316 369.897,345.48C465.459,363.04 561.987,380.445 656.956,397.489L658.491,396C659.973,388.542 661.385,379.779 662.467,373.153L661,373L661.491,372C629.296,362.495 595.482,352.736 565.151,342.532C540.026,334.806 514.386,327.081 491.157,318.534C470.801,312.401 450.574,305.523 432.164,298.537C416.18,293.4 400.278,287.435 385.168,282.538C372.648,277.303 359.076,272.262 347.175,267.541C334.87,263.101 322.599,257.734 311.184,253.544C299.905,248.416 287.064,243.962 277.207,238.554C266.094,234.611 254.999,229.66 245.202,225.552C237.427,221.66 228.4,217.873 221.228,214.565C215.747,211.106 207.396,209.163 203.265,205.586C198.608,204.053 193.042,201.761 190.301,199.612C187.14,197.215 183.936,196.644 182.777,197.349C181.618,198.054 181.841,200.753 184.637,203.331C186.878,209.344 190.412,215.323 192.549,220.195C194.439,225.53 197.667,231.147 199.557,235.211C201.594,238.672 203.535,244.003 204.54,247.173C206.126,248.535 207.103,250.425 207.086,251.744C207.069,253.064 206.772,253.22 204.255,251.58C160.503,228.06 117.302,205.96 71.1208,182.524L69.5087,183C70.1254,207.531 75.9145,227.752 82.5413,245.176C158.464,419.229 405.396,423.089 627.97,450.49L629,451Z" fill-rule="evenodd" fill="#1AB58A"/>
<path d="M654,451L655,450L654,451Z" fill-rule="evenodd" fill="#FFEBCA"/>
<path d="M923,444L923,443L923,444Z" fill-rule="evenodd" fill="#FFEBCA"/>
<path d="M1073,439L1074,439L1073,438L1073,439Z" fill-rule="evenodd" fill="#FFEBCA"/>
<path d="M654,423L655,423L654,422L654,423Z" fill-rule="evenodd" fill="#FFEBCA"/>
<path d="M651,422L652,422L651,421L651,422Z" fill-rule="evenodd" fill="#FFEBCA"/>
<path d="M657,397L658,396L657,397Z" fill-rule="evenodd" fill="#FFEBCA"/>
<path d="M762,384L762,383L762,384Z" fill-rule="evenodd" fill="#FFEBCA"/>
<path d="M661,373L662,373L661,372L661,373Z" fill-rule="evenodd" fill="#FFEBCA"/>
<path d="M935,361L938,360L936,358L935,361Z" fill-rule="evenodd" fill="#FFEBCA"/>
<path d="M968,355L969,355L968,355Z" fill-rule="evenodd" fill="#FFEBCA"/>
<path d="M1172,319L1173,318L1172,319Z" fill-rule="evenodd" fill="#FFEBCA"/>
<path d="M1174,318L1175,317L1174,318Z" fill-rule="evenodd" fill="#FFEBCA"/>
<path d="M1179,312L1180,311L1179,312Z" fill-rule="evenodd" fill="#FFEBCA"/>
<path d="M943,209L944,208L943,209Z" fill-rule="evenodd" fill="#FFEBCA"/>
<path d="M70,183L71,183L70,183Z" fill-rule="evenodd" fill="#FFEBCA"/>
<path d="M311,103L312,103L311,103Z" fill-rule="evenodd" fill="#FFEBCA"/>
<path d="M101,2L102,2L101,2Z" fill-rule="evenodd" fill="#FFEBCA"/>
</g>
<g id="layer1">
<path d="M875,1436.87C853.275,1436.44 782.37,1436.18 717.434,1436.28L599.368,1436.46L592.731,1433.19C584.606,1429.19 576.672,1421.56 566.9,1408.35C554.341,1391.37 551.732,1387.95 550.946,1387.47C550.526,1387.21 545.754,1388.83 540.341,1391.06C445.196,1430.4 394.188,1440.14 337.043,1429.89C266.413,1417.22 210.504,1373.53 187.543,1313.07C179.572,1292.08 175.975,1271.92 175.932,1248C175.899,1229.22 177.54,1216.19 182.101,1199.02C188.37,1175.42 195.624,1160.21 214.51,1131.06C235.861,1098.12 242.694,1084.45 245.718,1068.63C247.61,1058.73 246.44,1051.29 242.034,1045.21C239.017,1041.04 232.047,1037 227.881,1037C223.218,1037 215.181,1042 209.012,1048.73L203,1055.29L203,1050.2C203,1037.18 210.804,1009.36 219.144,992.656C229.08,972.752 241.727,958.213 254.63,951.862C260.805,948.822 262.275,948.505 269.98,948.551C277.754,948.598 279.196,948.937 286.444,952.432C300.546,959.23 315.94,976.533 321.784,992.151C331.172,1017.24 327.496,1046.11 310.531,1080.5C303.623,1094.5 294.391,1109.12 277.221,1133.24C247.317,1175.24 234.916,1200.24 230.435,1227.55C228.279,1240.69 228.974,1261.93 231.955,1274C245.203,1327.64 285.513,1363.22 346,1374.65C360.563,1377.4 396.253,1377.17 412.523,1374.21C439.904,1369.24 466.306,1359.64 482.14,1348.9C492.581,1341.82 498.39,1333.11 501.415,1320C502.69,1314.47 505.386,1286.53 507.541,1256.5C510.274,1218.41 515.52,1190.95 525.026,1164.99C537.93,1129.76 561.008,1093.19 588.921,1063.75C597.094,1055.13 597.289,1055 601.992,1055C605.926,1055 606.859,1054.65 607.29,1053C607.673,1051.53 607.32,1051 605.965,1051C602.211,1051 603.254,1049.11 611.282,1041.36C634.348,1019.08 658.646,999.956 718.397,957.033C738.804,942.374 759.1,927.77 763.5,924.581C773.258,917.508 782.72,912.636 790.587,910.635C793.839,909.808 803.925,908.425 813,907.562C822.075,906.699 833.1,905.079 837.5,903.963C879.105,893.408 917.491,871.78 951.568,839.693C958.56,833.109 961.423,831.056 964.068,830.729C967.121,830.35 967.253,830.219 965.26,829.538C963.177,828.826 963.66,828.097 972.149,819.136C980.67,810.143 993.666,795.268 1012.35,773.12C1018.33,766.029 1021.41,763.256 1025.26,761.472L1030.31,759.131L1022.91,759.683C1006.21,760.927 944.228,748.21 905.377,735.569C833.469,712.17 776.969,673.354 736.968,619.87C686.24,552.044 668.444,468.889 688.63,394C692.281,380.456 693.441,378.002 696.199,377.991C697.465,377.986 704.962,379.203 712.861,380.697C722.568,382.533 727.402,383.884 727.779,384.866C728.086,385.666 727.353,391.087 726.152,396.915C720.876,422.494 719.46,455.052 722.536,480.03C733.814,571.623 794.38,647.709 889.308,689.538C943.206,713.287 1002.77,724.176 1077.5,723.942C1095.98,723.884 1107.52,724.24 1109.32,724.925C1113.77,726.625 1113.57,726.268 1107.6,721.75C1103.96,718.995 1091.25,704.702 1071.46,681.114C1054.67,661.102 1041.12,644.551 1041.33,644.334C1041.55,644.118 1044.83,645.047 1048.61,646.398C1061.76,651.087 1107.82,665 1110.15,664.985C1111.44,664.976 1113.17,664.533 1114,664C1115.24,663.201 1115.14,663.028 1113.45,663.015C1110.57,662.994 1104.23,658.723 1092,648.583C1077.4,636.475 1062.71,626.819 1048.55,620.019C1041.92,616.836 1031.33,611.753 1025,608.722C990.738,592.305 974.196,574.086 968.505,546.5C966.377,536.188 965.333,510.716 966.797,504.864C968.679,497.345 969.267,491 968.082,491C967.487,491 966.996,491.788 966.992,492.75C966.978,495.771 961.794,503.6 953.607,512.969C949.266,517.936 945.392,522 944.998,522C943.847,522 940.121,509.657 938.889,501.763C938.258,497.72 938.029,490.953 938.372,486.5C939.628,470.207 947.995,443.049 955.016,432.476C957.165,429.239 958.751,426.417 958.539,426.205C958.327,425.993 955.756,427.594 952.827,429.762C948.526,432.945 938.721,437.72 924.105,443.75C922.949,444.227 922.833,443.072 923.43,437.016C924.986,421.219 932.365,403.038 943.525,387.5C953.95,372.986 965.783,359.557 972.945,354.112C976.825,351.162 980,348.602 980,348.424C980,348.245 976.737,349.645 972.75,351.535C967.789,353.887 960.793,355.924 950.594,357.986C942.396,359.644 935.533,361 935.344,361C933.714,361 940.8,346.135 946.307,338C950.835,331.31 965.44,316.586 974.19,309.888C983.54,302.731 1012.01,284.138 1017.39,281.677L1021.29,279.896L1015.14,276.99C1006.65,272.976 984.48,257.818 972.724,247.993C967.347,243.5 960.23,236.601 956.908,232.662C951.134,225.816 942.027,209.639 943.256,208.411C943.578,208.089 946.465,208.355 949.671,209.003C960.057,211.1 1022.68,224.869 1054,231.941C1085.75,239.109 1086.84,239.346 1119.5,246.078C1160.64,254.558 1185.16,262.468 1202.79,272.946C1210.89,277.757 1215.97,282.344 1227.77,295.5C1239.16,308.198 1244.05,311.194 1258.66,314.424C1272.41,317.465 1277.97,320.019 1282.8,325.516C1291.27,335.127 1295.32,346.803 1295.29,361.5C1295.25,380.984 1289.83,397.404 1278.34,412.78C1273.1,419.798 1271,421 1271,416.978C1271,412.904 1266.69,403.87 1262.54,399.261C1247.7,382.75 1218.26,381.57 1189.56,396.335C1160.28,411.401 1154.99,440.482 1175.84,471.776C1189.88,492.85 1207.67,508.934 1250.5,539.285C1311,582.157 1346.4,616.729 1371.44,657.396C1378.94,669.581 1378.85,671.093 1370.78,667.912C1362.48,664.641 1358.59,662.335 1353.2,657.488C1350.34,654.918 1348,653.157 1348,653.576C1348,653.994 1350.31,657.507 1353.14,661.383C1359.54,670.148 1372.84,694.063 1379.07,708C1384.94,721.123 1388.58,732.589 1390.62,744.364C1392.07,752.802 1392.22,766.117 1390.86,767.47C1388.97,769.367 1382.48,761.784 1376.75,750.973C1372.56,743.065 1372.03,744.141 1375,754.522C1377.73,764.076 1380.71,784.477 1382.02,802.574C1383.23,819.217 1382.17,837.686 1379.41,848.356C1377.52,855.627 1372.5,867 1371.17,867C1370.15,867 1362,851.234 1362,849.272C1362,848.637 1361.66,847.912 1361.25,847.66C1360.84,847.408 1360.37,849.477 1360.21,852.258C1359.81,859.098 1356.88,867.427 1350.39,880.12C1333.57,913.026 1309.16,938.235 1273.92,959.088C1262.33,965.945 1249.2,972.565 1248.57,971.867C1248.09,971.339 1252.68,927.436 1254.51,915C1255.36,909.225 1256.21,903.487 1256.39,902.25C1257.11,897.356 1255.24,900.413 1253.02,907.75C1251.73,912.013 1247.42,921.802 1243.44,929.505C1216.53,981.639 1199.63,1032.94 1190.56,1090C1184.51,1128.01 1182.51,1159.89 1182.6,1216.5C1182.7,1280.62 1184.67,1304.91 1191.37,1324.61C1194.22,1333.01 1196.4,1337.35 1204.59,1351.06C1208.06,1356.87 1211.37,1362.83 1211.93,1364.31C1213.08,1367.33 1214.02,1367.92 1213.42,1365.25C1213.21,1364.29 1212.16,1359.67 1211.1,1355C1207.66,1339.96 1206.55,1314.63 1206.6,1252.5C1206.69,1138.74 1211.53,1079.84 1224.64,1033.01C1230.02,1013.8 1235.43,1005.66 1248.68,996.804C1257.71,990.775 1262.4,988.479 1284.15,979.442C1306.9,969.993 1306,970.267 1306,972.787C1306,978.199 1301.54,995.783 1296.48,1010.32C1288.61,1032.93 1287.56,1036.71 1282.42,1061C1268.91,1124.94 1259.88,1196.42 1258.43,1251C1257.67,1279.81 1258.66,1293.86 1262.56,1309.37C1269.62,1337.47 1282.59,1354.86 1303,1363.58C1307.08,1365.32 1310.18,1365.51 1336,1365.56C1360.69,1365.61 1365.24,1365.85 1370,1367.42C1385.01,1372.35 1394.57,1383.19 1411.44,1414.4C1415.93,1422.71 1420.4,1430.71 1421.38,1432.19L1423.15,1434.88L1419.33,1435.69C1417.22,1436.13 1370.72,1436.47 1316,1436.44C1225.63,1436.4 1215.98,1436.24 1210.88,1434.7C1198.04,1430.85 1189.12,1421.5 1167.75,1389.5C1160.04,1377.95 1153.34,1368.07 1152.87,1367.55C1152.34,1366.98 1150.63,1367.94 1148.5,1370C1145.1,1373.29 1144.96,1373.33 1143.5,1371.44C1140.19,1367.15 1135.9,1357.1 1134.5,1350.35C1133.68,1346.42 1132.61,1333.82 1132.11,1322.35C1131.42,1306.68 1130.67,1299.51 1129.1,1293.5C1125.66,1280.4 1116.48,1256.18 1107.55,1236.64C1097.49,1214.63 1089.76,1194.33 1086.87,1182.33C1083.15,1166.89 1084.21,1152.99 1089.57,1146.95C1090.77,1145.61 1089.72,1144.06 1081.43,1134.95C1069.92,1122.31 1065.4,1114.17 1066.4,1107.91C1066.76,1105.64 1067.7,1102.55 1068.49,1101.03C1070.46,1097.21 1079.42,1089.34 1083.44,1087.89L1086.76,1086.68L1081.63,1084.13C1070.18,1078.44 1060.89,1064.36 1057.47,1047.5C1055.37,1037.17 1055.34,1017.77 1057.4,1003.5C1060.19,984.088 1057.06,982.54 1085.02,1017.18C1104.89,1041.79 1110.39,1049.29 1114.25,1056.99C1116.86,1062.21 1119,1065.97 1119,1065.35C1119,1064.73 1118.14,1059.78 1117.09,1054.36C1116.05,1048.94 1114.9,1041.35 1114.55,1037.5C1113.01,1020.67 1106.58,997.406 1097.85,977.039C1088.86,956.061 1080.14,940.486 1053.63,898C1045.78,885.414 1037.63,870.976 1035.15,865.232C1032.7,859.585 1030.52,855.148 1030.29,855.373C1030.07,855.597 1030.78,860.443 1031.88,866.141C1033.78,875.993 1033.88,881.229 1034.09,973.178L1034.3,1069.86L1031.61,1075.36C1028.03,1082.69 1019.82,1090.12 1005.46,1099.03C981.609,1113.82 966.617,1128.59 938.819,1164.66L933.302,1171.82L932.623,1154.41C930.526,1100.68 921.488,1072.62 899.782,1052.45C888.605,1042.07 873.641,1034.78 855,1030.66C842.125,1027.81 808.068,1027.6 795,1030.29C780.605,1033.26 770.044,1036.88 756.5,1043.5C724.52,1059.14 702.835,1083.5 691.934,1116.04C690.208,1121.19 687.763,1127.74 686.501,1130.59C685.24,1133.45 683.901,1137.29 683.526,1139.14C682.854,1142.45 682.878,1142.44 685.21,1138.21C688.973,1131.38 696.483,1124.51 710.481,1115.08C744.821,1091.95 777.962,1076.56 804.5,1071.41C816.286,1069.13 833.312,1069.1 842.435,1071.35C862.209,1076.22 877.315,1090 886.084,1111.17C902.987,1151.97 896.276,1204.49 867.813,1254.19C854.396,1277.62 842.57,1293.24 823.006,1313.37C811.336,1325.38 792.157,1342 789.967,1342C787.558,1342 789.577,1343.97 796.75,1348.63C814.926,1360.44 825.547,1362.05 865.629,1359.06C876.567,1358.24 890.055,1357.93 899.629,1358.28C921.602,1359.06 929.882,1361.46 941.823,1370.5C949.481,1376.29 954.875,1383.24 960.652,1394.75C963.044,1399.51 965,1403.12 965,1402.75C965,1399.78 961.988,1389.6 958.366,1380.33C955.965,1374.18 954,1368.67 954,1368.08C954,1366.63 987.643,1366.63 995.464,1368.08C1008.68,1370.52 1019.64,1378.59 1029.83,1393.36C1037.92,1405.11 1051.88,1434.76 1049.68,1435.53C1049.03,1435.76 1033.42,1436.41 1015,1436.97C978.346,1438.1 935.886,1438.06 875,1436.87ZM636.792,1394.41C651.917,1391.3 669.755,1383.22 686.959,1371.71C704.869,1359.72 718.827,1348.05 749.407,1319.52C759.256,1310.33 775.231,1296.04 784.907,1287.76C826.4,1252.26 844.91,1229.16 852.6,1203.28C854.955,1195.36 855.24,1192.59 855.514,1175L855.818,1155.5L852.466,1165.29C848.678,1176.36 839.972,1190.41 826.013,1208C815.787,1220.88 789.141,1247.54 771,1263.03C763.575,1269.38 749.625,1281.29 740,1289.51C712.624,1312.89 624.166,1392.3 622.505,1394.99C621.578,1396.49 627.947,1396.23 636.792,1394.41ZM1301.99,816.676C1300.01,798.372 1294.3,780.722 1285,764.137C1265.96,730.154 1260.3,722.463 1268.66,741.929C1273.42,753.016 1296.39,836.8 1298.5,850.756C1299.39,856.665 1300.4,862.175 1300.75,863C1302.14,866.301 1303.17,827.59 1301.99,816.676ZM1124.5,463.713C1120.1,461.923 1114.01,458.804 1110.97,456.78C1098.73,448.634 1082.77,429.016 1078,416.257C1073.67,404.693 1072.75,398.365 1073.33,384C1073.8,372.3 1074.28,369.367 1076.92,362C1080.63,351.672 1080.94,347.73 1077.5,354.634C1076.12,357.398 1072.47,362.549 1069.38,366.08C1061.77,374.802 1059.42,378.479 1057.03,385.408C1048.77,409.421 1066.7,440.543 1098,456.533C1106.62,460.936 1124.09,466.893 1128.5,466.932C1132.32,466.965 1132.14,466.821 1124.5,463.713ZM1174.03,317.483C1179.91,314.444 1182,305.226 1177.72,301.208C1172.67,296.459 1168.01,295.649 1145.29,295.572C1127.09,295.51 1123.85,295.728 1122.47,297.105C1120.99,298.58 1121.66,299.161 1130.68,304.24C1155.66,318.309 1166.21,321.53 1174.03,317.483ZM282.198,1167.91C283.217,1164.85 347.673,1066.15 348.5,1066.38C349.05,1066.54 349.939,1067.91 350.476,1069.42C351.276,1071.69 350.963,1073.1 348.738,1077.27C344.84,1084.58 346.143,1084.3 350.484,1076.89C352.501,1073.45 357.104,1067.45 360.712,1063.57C370.175,1053.37 376.528,1044.02 382.506,1031.5C389.944,1015.91 391.429,1009.95 391.468,995.5C391.497,984.694 391.222,982.791 388.711,976.376C383.708,963.599 375.299,951.402 367.694,945.893C359.335,939.838 351.832,940.028 344.288,946.486C342.03,948.418 339.33,950 338.289,950C337.248,950 330.419,945.728 323.113,940.506C299.85,923.881 288.196,919.625 257.25,916.454C247.762,915.482 240,914.41 240,914.073C240,913.04 260.07,902.373 267.5,899.457C288.269,891.307 307.264,887.676 329,887.7C346.748,887.72 359.48,889.887 374.091,895.375C399.633,904.969 420.533,923.97 432.528,948.5C446.268,976.599 447.139,1006.03 435.378,1044.83C430.527,1060.84 419.619,1085.02 414.757,1090.54C412.511,1093.09 411.617,1094.66 412.666,1094.2C413.675,1093.76 416.525,1092.48 419,1091.37C423.996,1089.11 435.729,1086.4 436.621,1087.29C437.341,1088.01 432.509,1095.04 427.054,1101.22C417.603,1111.92 397.42,1124.22 376,1132.33C370.775,1134.31 356.6,1139.14 344.5,1143.07C316.861,1152.03 299.699,1158.71 289.687,1164.42C285.39,1166.87 282.02,1168.44 282.198,1167.91ZM809.5,885.244C810.05,884.743 819.275,878.095 830,870.471C881.07,834.165 906.522,813.175 924.156,792.82L929.181,787.019L926.341,785.914C924.778,785.306 920.993,784.572 917.928,784.282C907.299,783.276 899.273,787.128 879.381,802.781C862.648,815.948 824.225,840.594 802.779,851.917C768.661,869.929 733.969,878.316 707,875.071C694.865,873.611 684.994,871.817 685.021,871.077C685.032,870.76 695.945,865.825 709.271,860.11C768.381,834.763 803.69,815.482 836.127,790.835C842.523,785.976 848.234,782 848.818,782C849.403,782 850.134,781.592 850.443,781.092C851.254,779.779 839.356,776 834.411,776C827.909,776 817.514,779.633 806,785.929C770.729,805.217 709.73,829.728 678,837.365C655.518,842.776 649.833,843.437 625.5,843.469C604.956,843.497 601.379,843.25 592,841.155C580.259,838.534 569,835.061 569,834.061C569,833.699 580.362,829.858 594.25,825.525C624.489,816.09 658.746,804.702 672.5,799.512C708.05,786.097 738.056,770.281 763.13,751.743C771.189,745.784 777.197,742.453 783.446,740.479L787.5,739.198L783.218,739.099C780.677,739.04 775.796,740.198 771.218,741.945C764.23,744.611 716.923,760.278 688.017,769.499C577.831,804.65 514.177,806.835 441.5,777.962C424.067,771.037 415.614,766.98 416.619,766.022C417.104,765.56 434.825,762.878 456,760.061C522.934,751.157 547.143,747.095 578.759,739.464C620.938,729.283 660.728,712.97 687.865,694.734C696.042,689.238 703.946,685.365 710.899,683.448L715.5,682.179L710.888,682.089C704.285,681.961 684.27,686.293 672,690.506C641.062,701.128 581.95,712.565 531.5,717.691C506.933,720.188 447.094,720.185 427.5,717.687C374.944,710.986 335.543,697.761 301,675.228C289.937,668.011 275.521,656.373 268.042,648.621L263.584,644L330.042,643.974C425.418,643.936 471.892,641.55 526,633.912C556.035,629.672 592.369,621.641 618.5,613.466C626.75,610.885 637.47,607.699 642.322,606.387C650.328,604.221 660.723,599.39 659.662,598.329C659.426,598.093 656.397,598.856 652.93,600.024C647.701,601.785 641.157,602.472 614.563,604.051C596.928,605.098 571.925,606.647 559,607.494C510.676,610.659 503.774,611.029 473,612.101C418.273,614.007 366.935,611.432 329,604.876C308.952,601.412 295.015,597.953 276.572,591.865C224.895,574.806 187.894,547.475 165.167,509.576C162.884,505.767 161.124,502.545 161.258,502.415C161.391,502.284 172.075,503.711 185,505.585C370.456,532.474 385.757,533.683 527.008,532.604C590.868,532.116 614.691,531.601 624.508,530.498C654.369,527.144 663.929,529.198 670.478,540.373C671.866,542.741 675.212,551.498 677.914,559.835C687.942,590.771 710.246,626.919 736.433,654.674C743.953,662.644 745.65,664.947 744.266,665.308C742.959,665.648 743.105,665.798 744.825,665.884C746.283,665.957 750.942,669.534 757.325,675.484C770.901,688.137 786.209,699.993 805,712.409C850.323,742.354 901.62,762.829 960.427,774.446C967.537,775.851 974.174,777 975.177,777C976.18,777 976.997,777.337 976.994,777.75C976.981,779.491 955.65,803.564 942.609,816.555C905.19,853.83 868.114,875.032 826.5,882.955C811.084,885.89 808.394,886.252 809.5,885.244ZM1026,687.324C995.874,682.456 984.205,680.374 973,677.864C900.786,661.691 849.252,633.103 810.32,587.618C767.332,537.394 752.17,477.386 763.078,400.645C764.24,392.475 764.81,385.418 764.345,384.963C763.412,384.049 714.115,367.737 628.5,340.013C393.085,263.78 286.259,224.212 226.662,191.173C154.298,151.056 114.699,105.911 102.972,50.1586C100.683,39.2768 99.191,9.63579 100.656,4.14874L101.55,0.797487L118.525,13.4194C262.016,120.114 324.941,161.23 433.599,219.293C552.362,282.756 631.143,315.105 712.907,333.981C722.48,336.192 730.468,338 730.657,338C730.845,338 731,337.319 731,336.487C731,335.652 728.872,334.007 726.25,332.815C723.638,331.627 709.52,324.9 694.877,317.865C634.599,288.906 495.327,223.013 469,210.997C397.722,178.464 357.38,153.246 324.25,120.515C315.863,112.228 309,104.946 309,104.331C309,103.717 309.563,103.015 310.25,102.771C310.938,102.527 338.275,115.959 371,132.62C463.958,179.946 516.153,204.889 571,228.196C594.782,238.302 704.774,282.485 736.5,294.676C782.177,312.228 804.844,324.681 819.831,340.459C828.937,350.046 831.524,355.413 831.419,364.5C831.346,370.72 830.535,373.545 824.134,389.853C811.616,421.751 808.572,435.019 808.616,457.5C808.649,474.658 810.409,485.831 815.586,501.756C830.795,548.538 868.542,587.014 921.143,609.351C935.811,615.58 945.892,618.452 964,621.562C972.525,623.027 982.232,625.068 985.572,626.098C999.034,630.25 1008.99,639.47 1027.64,665.066C1043.6,686.962 1043.93,688.091 1034.28,687.864C1031.1,687.789 1027.38,687.546 1026,687.324ZM464.5,509.921C408.839,508.781 365.041,505.468 319.771,498.973C235.672,486.906 182.706,469.182 144.127,440.197C128.471,428.434 112.529,410.239 103.638,393.985C99.9529,387.247 91.597,366.07 92.3334,365.333C92.5627,365.104 94.494,365.602 96.6252,366.44C101.884,368.508 152.646,384.667 178.5,392.502C275.67,421.952 350.899,438.887 442.5,451.931C501.6,460.347 573.113,468 592.659,468C598.287,468 608.653,468.486 615.696,469.08C649.406,471.922 655.615,475.981 658.255,496.898C659.237,504.673 659.189,506.239 657.935,507.494C656.705,508.723 649.794,509.052 615.981,509.487C532.257,510.566 500.458,510.657 464.5,509.921ZM610.937,449.476C584.427,447.552 556.753,444.36 507.5,437.546C501.45,436.708 482.55,434.235 465.5,432.049C420.579,426.289 406.947,424.346 384,420.428C268.678,400.739 199.774,374.162 145,328.244C101.314,291.621 74.1243,241.657 70.3881,191.133C69.7229,182.138 69.7709,181.806 71.5977,182.758C72.644,183.304 98.025,196.458 128,211.989C202.951,250.826 200.905,249.734 206.5,253.902C209.25,255.95 212.132,258.005 212.905,258.468C214.643,259.509 214.001,258.375 208.961,251.5C205.382,246.619 181.598,198.068 182.396,197.271C182.617,197.05 185.431,198.194 188.649,199.814C200.654,205.856 244.41,225.627 271,237.024C369.995,279.457 485.722,320.12 628.165,362.521C653.967,370.201 660.931,372.626 661.306,374.064C661.568,375.065 661.403,377.822 660.939,380.192C660.475,382.561 659.592,387.087 658.977,390.25L657.858,396L653.478,396C651.069,396 646.939,395.569 644.299,395.043C636.898,393.567 622.63,390.964 553.5,378.479C425.73,355.402 384.222,347.825 369.777,344.94C354.267,341.843 349,341.351 349,343C349,343.55 349.808,344 350.795,344C354.081,344 372.306,349.109 382.973,353.021C425.794,368.723 461.474,379.598 510.5,391.891C547.07,401.061 603.108,412.988 638,419.027C655.691,422.089 655,421.387 655,436.323C655,444.538 654.603,448.997 653.8,449.8C652.266,451.334 634.712,451.202 610.937,449.476Z" fill-rule="evenodd" fill="url(#LinearGradient)"/>
</g>
</svg>
