<?xml version="1.0" encoding="UTF-8"?>
<svg width="512px" height="512px" viewBox="0 0 512 512" version="1.1" xmlns="http://www.w3.org/2000/svg" xmlns:xlink="http://www.w3.org/1999/xlink">
    <title>Brighteon Social [2 color]</title>
    <g id="Brighteon-Social-[2-color]" stroke="none" stroke-width="1" fill="none" fill-rule="evenodd">
        <g id="Brighteon-Social-logo">
            <g id="Group" transform="translate(0.000000, 16.000000)" fill-rule="nonzero">
                <path d="M311.751111,0 L268.976042,30.4071167 C263.833684,30.254112 260.083624,30.121508 256.252262,30.121508 C206.851071,30.121508 162.043449,39.8832023 123.800972,59.37599 C117.550873,61.7628619 112.886165,65.0575612 106.951111,68.433863 L250.876161,104.675556 L311.751111,0 Z" id="Path" fill="#232659"></path>
                <path d="M323.128889,38.6844444 L362.73401,151.393372 L466.298657,213.32035 L398.315624,291.569011 L418.849731,430.08 C464.774602,396.858069 497.236983,349.933234 508.250824,296.502056 C510.689312,283.195013 512,269.441357 512,255.149735 C512,245.638905 511.359897,236.35138 510.272737,227.236411 C496.982974,136.350628 421.958804,62.4158451 323.128889,38.6844444 Z" id="Path" fill="#DF213D"></path>
                <path d="M159.247381,433.85262 L202.43036,233.785323 L98.3488285,77.3688889 C38.5054993,118.655033 0,182.685093 0,254.641524 C0,359.440129 81.5870144,447.543625 192.091202,472.824791 C212.901421,477.584673 234.71613,480.142222 257.210647,480.142222 C288.187535,480.142222 317.875833,475.321446 345.372514,466.52226 L425.528889,463.46741 L309.971806,359.247298 L159.247381,433.85262 Z" id="Path" fill="#232659"></path>
            </g>
            <rect id="Rectangle" x="0" y="0" width="512" height="512"></rect>
        </g>
    </g>
</svg>