<?xml version="1.0" encoding="UTF-8"?>
<svg width="512px" height="512px" viewBox="0 0 512 512" version="1.1" xmlns="http://www.w3.org/2000/svg" xmlns:xlink="http://www.w3.org/1999/xlink">
    <title>Chirp [2 color]</title>
    <g id="Chirp-[2-color]" stroke="none" stroke-width="1" fill="none" fill-rule="evenodd">
        <g id="Chirp-logo" transform="translate(0.000000, 71.000000)" fill-rule="nonzero">
            <path d="M447.572123,260.592085 C447.513771,260.790923 447.386124,261.275365 447.349653,261.716424 C447.207418,263.542118 447.484594,266.495766 448.053535,270.255611 C451.569296,293.472657 466.336222,346.497324 469.253866,357.516564 C469.625865,358.922891 469.79363,359.739934 469.79363,359.84116 C469.79363,360.293065 469.596689,360.611206 469.264807,360.83535 C469.097042,360.943807 468.82716,361.081186 468.415043,361.023343 C468.32022,361.008882 468.123279,360.961884 467.857044,360.831735 C467.437632,360.625667 466.489398,360.058075 465.092576,359.179572 C448.513064,348.738771 365.936443,292.735149 354.801984,284.958776 C353.886573,285.16123 350.600577,285.902353 346.417404,286.994154 C305.891329,297.57595 139.14943,344.794548 66.633576,363.257559 C48.3497949,367.910367 35.999043,370.726636 33.0679049,370.726636 C28.2107569,370.726636 23.9203614,371.08816 20.1908829,370.979703 C16.2101223,370.864015 12.8387846,370.206042 10.0484228,368.199586 C6.39917949,365.57854 3.67774701,360.589514 2.07705454,351.070598 C-1.73776504,328.377761 0.798761747,76.5841628 1.16383196,32.0759073 C1.28017301,17.8893595 5.00053387,10.0294748 10.6436222,5.61780228 C16.2681105,1.22095221 23.9043143,0.234715812 32.1379058,0.00478679998 C48.0675129,-0.439887233 370.921967,30.2437056 375.411492,30.6883797 C378.190548,30.9642222 384.820894,32.8784897 390.273241,36.1661853 C394.047943,38.4416149 397.23547,41.3891168 398.391586,44.8250372 C401.075819,52.817601 498.452188,199.859735 508.390413,215.980073 C511.479469,220.99079 512.292762,225.217001 511.913469,228.712934 C511.340881,234.009255 508.000179,237.68595 505.264887,239.945472 C502.730184,242.042309 497.551366,244.511515 491.194549,246.995183 C476.792328,252.616875 456.263056,258.426559 447.572123,260.592085 Z" id="Path" fill="#14DAC3"></path>
            <path d="M17.3257564,45.0115834 C16.9898627,82.3367264 18.4373788,301.852774 21.9462105,320.879762 C25.4550421,339.906749 34.5365739,336.55181 49.3975939,336.55181 C64.2582491,336.55181 359.732802,258.292795 361.286448,259.286985 C371.020438,265.519652 446.674948,331.624243 446.674948,330.695128 C446.674948,329.762397 417.699095,248.343666 423.476031,247.038565 C434.690725,244.504285 475.694565,232.758383 483.291381,227.031849 C487.197377,224.089047 492.627842,218.109447 485.931848,208.207315 C476.774093,194.661026 393.475356,66.3291842 390.999005,59.6135217 C388.522655,52.8978593 373.551494,44.362287 369.423028,43.9891946 C365.294561,43.6161022 61.9613338,18.708572 47.3067372,19.0816644 C32.6525053,19.4547567 17.5321797,22.0664032 17.3257564,45.0115834 Z" id="Path" fill="#001717"></path>
        </g>
    </g>
</svg>