<?xml version="1.0" encoding="UTF-8"?>
<svg width="512px" height="512px" viewBox="0 0 512 512" version="1.1" xmlns="http://www.w3.org/2000/svg" xmlns:xlink="http://www.w3.org/1999/xlink">
    <title>*diaspora</title>
    <g id="*diaspora" stroke="none" stroke-width="1" fill="none" fill-rule="evenodd">
        <path d="M275.805506,398.547589 C262.525851,379.98562 251.722103,365.498608 251.153634,365.491272 C250.56949,365.483764 229.676417,393.568962 201.733902,431.923073 C175.109627,468.467745 153.104632,498.367931 152.833909,498.367931 C152.076703,498.367931 56.8472158,431.29196 56.6021067,430.58597 C56.4835186,430.244404 78.0116504,398.641867 104.442405,360.358114 C130.873153,322.074368 152.498316,290.147993 152.498316,289.410628 C152.498316,288.221551 143.933428,285.214582 76.7511782,262.81727 C35.0902525,248.928288 0.596069774,237.405308 0.0974383268,237.210651 C-0.596123728,236.939888 3.37021899,223.669102 16.9764062,180.736163 C26.75847,149.869855 34.9832012,124.363595 35.2535879,124.055576 C35.5239739,123.747558 71.7322127,135.334206 115.716336,149.80367 C159.70046,164.27314 196.055531,176.111481 196.505376,176.111083 C196.955221,176.110691 197.464069,175.437617 197.636141,174.615362 C197.80822,173.793107 198.187674,136.343124 198.479367,91.3931782 C198.771059,46.443232 199.251615,9.292251 199.547268,8.83544261 C199.970582,8.18138601 212.325797,8.00704135 257.686519,8.01454885 C289.367453,8.02037019 315.618302,8.24490729 316.021735,8.51339103 C316.530231,8.85180133 317.399303,33.5638797 318.854658,89.0676081 C321.244347,180.204631 321.295849,181.42596 322.749144,181.42596 C323.312703,181.42596 358.171296,169.757871 400.212692,155.496871 C442.254081,141.235871 476.856556,129.79905 477.107086,130.081713 C477.956398,131.039974 512.438807,243.299571 512.014251,243.724127 C511.782352,243.956026 476.695327,255.97222 434.043091,270.42678 C375.36991,290.310723 356.442467,296.978597 356.283638,297.820361 C356.166356,298.441899 376.343347,328.594748 401.999553,366.13903 C427.258765,403.102377 447.832718,433.620779 447.719443,433.957695 C447.459264,434.731531 352.948285,504.347968 352.15791,504.347968 C351.836995,504.347968 339.845399,487.977616 325.509921,467.969408 C311.174443,447.961201 288.807456,416.72138 275.805506,398.547589 Z" id="Diaspora" fill="#FFFFFF" fill-rule="nonzero"></path>
    </g>
</svg>