<?xml version="1.0" encoding="UTF-8"?>
<svg width="512px" height="512px" viewBox="0 0 512 512" version="1.1" xmlns="http://www.w3.org/2000/svg" xmlns:xlink="http://www.w3.org/1999/xlink">
    <title>f2ap [3 color]</title>
    <g id="f2ap-[3-color]" stroke="none" stroke-width="1" fill="none" fill-rule="evenodd">
        <g id="f2ap">
            <path d="M251.822792,190.692492 C265.817245,190.655236 279.243245,195.930085 289.09606,205.33653 C299.034924,214.761871 304.593769,227.548551 304.541593,240.864977 L326.237485,240.864977 C326.237485,201.858572 292.832163,170.140903 251.813997,170.140903 L251.822792,190.692492 Z" id="path320" fill="#BF6100" fill-rule="nonzero"></path>
            <path d="M251.849166,154.273748 C302.044998,154.273748 342.887367,193.147033 342.887367,240.906579 L364.583232,240.906579 C364.583232,181.831176 314.018172,133.73048 251.849166,133.73048 L251.849166,154.273748 Z" id="path322" fill="#BF6100" fill-rule="nonzero"></path>
            <g id="layer2" transform="translate(23.029057, 140.041001)" fill="#007EA5" fill-rule="nonzero">
                <path d="M31.8451161,74.0953193 C28.9875989,79.5907709 24.5101321,84.0662125 19.0244739,86.9101624 L89.407989,157.865459 L106.37669,149.229773 L31.8451161,74.0953193 Z M124.68303,167.683971 L107.714329,176.319654 L143.377747,212.273077 C146.235655,206.776609 150.714085,202.3005 156.200943,199.456525 L124.68303,167.683971 Z" id="path9722"></path>
                <path d="M206.057553,102.131386 L166.007461,122.392988 L168.960376,141.248503 L214.275653,118.32225 C209.931407,113.898882 207.061315,108.244378 206.057553,102.131386 Z M142.757445,134.154985 L48.0618287,182.062473 C52.4070094,186.486075 55.2777319,192.141243 56.281634,198.255043 L145.71036,153.011351 L142.757445,134.154985 Z" id="path9729"></path>
                <path d="M112.117154,17.0218977 L66.7896811,105.86248 L80.1725312,119.350244 L128.164877,25.2889478 C122.095286,24.2581796 116.490763,21.3709867 112.117154,17.0218977 L112.117154,17.0218977 Z M55.0006737,128.969045 L32.0412191,173.968237 C38.1101065,174.9991 43.7139823,177.885966 48.0872501,182.234434 L68.3826778,142.455959 L55.0006737,128.969045 Z" id="path9713"></path>
                <path d="M17.7127936,87.1120645 C13.1163937,89.4406426 8.00170582,90.522778 2.86845102,90.2527426 C1.90801008,90.1986224 0.950732486,90.0973379 0,89.949247 L13.3288239,176.226705 C17.9252225,173.898128 23.0399088,172.815993 28.1731622,173.086027 C29.1330406,173.140202 30.0897555,173.241487 31.039931,173.389523 L17.7127936,87.1120645 Z" id="path1015"></path>
                <path d="M56.9270111,199.256332 C57.2357243,201.277157 57.3411126,203.324293 57.2415681,205.366509 C57.0115178,209.53333 55.9316666,213.607444 54.0695573,217.334019 L140.326749,231.297551 C140.017692,229.276473 139.912017,227.229048 140.011336,225.186519 C140.241767,221.019927 141.321906,216.946113 143.184198,213.219864 L56.9270111,199.256332 Z" id="path1674"></path>
                <path d="M214.117994,119.153284 L174.224129,196.969358 C180.343481,198.003371 185.99395,200.90025 190.40325,205.26406 L230.296263,127.448838 C224.177113,126.414422 218.526953,123.51725 214.117994,119.153284 L214.117994,119.153284 Z" id="path1676"></path>
                <path d="M159.979051,9.01159288 C157.128609,14.5313102 152.661877,19.0263534 147.18935,21.882358 L208.495819,84.1082003 C211.346038,78.5886094 215.812459,74.093579 221.28467,71.2374308 L159.979051,9.01159288 Z" id="path1678"></path>
                <path d="M103.945799,0 L26.0334906,39.7731654 C30.3676709,44.2259549 33.2312112,49.918224 34.2328135,56.0721335 L112.144267,16.2972541 C107.810709,11.8448114 104.947496,6.15319798 103.945799,0 L103.945799,0 Z" id="path1680"></path>
                <path d="M147.014589,22.0283382 C142.315043,24.4397112 137.063157,25.5650334 131.790134,25.2904843 C130.91186,25.2371369 130.036356,25.1450847 129.166165,25.0145951 L136.050363,69.1749218 L154.834643,72.1943869 L147.014589,22.0283382 Z M140.05134,94.8480445 L156.328103,199.256332 C160.910554,197.005284 165.990769,195.963347 171.087604,196.229202 C172.13843,196.288925 173.185388,196.404038 174.224129,196.574062 L158.836469,97.8666552 L140.05134,94.8480445 Z" id="path9758"></path>
                <path d="M34.8333631,56.0721335 C35.1537209,58.1109624 35.2644657,60.1774104 35.1638539,62.2389432 C34.9369318,66.3463848 33.8742394,70.3637484 32.0412191,74.0436388 L76.2496232,81.1666175 L84.938661,64.144443 L34.8333631,56.0721335 Z M110.602043,68.2784372 L101.91215,85.3023222 L206.367186,102.131386 C206.067042,100.145884 205.96546,98.1352605 206.063952,96.1294904 C206.296359,91.9651914 207.387796,87.8946044 209.269213,84.1752587 L110.602043,68.2784372 Z" id="path9760"></path>
            </g>
            <path d="M155.152,162.74627 C170.21155,163.566563 183.084707,152.023365 183.905,136.963814 C184.725293,121.904264 173.182094,109.031107 158.122544,108.210814 C143.062994,107.390521 130.189837,118.93372 129.369544,133.99327 C128.549251,149.052821 140.09245,161.925977 155.152,162.74627 Z" id="path817" fill="#007EA5" fill-rule="nonzero"></path>
            <path d="M257.121534,265.11043 C272.181084,265.930723 285.054241,254.387524 285.874534,239.327974 C286.694827,224.268424 275.151628,211.395267 260.092078,210.574974 C245.032528,209.754681 232.159371,221.29788 231.339078,236.35743 C230.518785,251.41698 242.061984,264.290137 257.121534,265.11043 Z" id="path819" fill="#BF6100" fill-rule="nonzero"></path>
            <path d="M191.256064,393.694546 C206.315614,394.514839 219.188771,382.97164 220.009064,367.91209 C220.829357,352.85254 209.286158,339.979383 194.226608,339.15909 C179.167058,338.338797 166.293901,349.881996 165.473608,364.941546 C164.653315,380.001096 176.196514,392.874253 191.256064,393.694546 Z" id="path823" fill="#007EA5" fill-rule="nonzero"></path>
            <path d="M48.5794044,370.79977 C63.6389547,371.620063 76.5121112,360.076865 77.3324043,345.017314 C78.1526974,329.957764 66.6094987,317.084607 51.5499485,316.264314 C36.4903982,315.444021 23.6172416,326.98722 22.7969486,342.04677 C21.9766555,357.10632 33.5198541,369.979477 48.5794044,370.79977 Z" id="path825" fill="#007EA5" fill-rule="nonzero"></path>
            <path d="M26.2658701,228.065872 C41.3254204,228.886165 54.1985769,217.342966 55.01887,202.283416 C55.8391631,187.223866 44.2959644,174.350709 29.2364141,173.530416 C14.1768639,172.710123 1.30370732,184.253322 0.483414238,199.312872 C-0.336878847,214.372422 11.2063198,227.245579 26.2658701,228.065872 Z" id="path827" fill="#007EA5" fill-rule="nonzero"></path>
            <path d="M421.360482,319.779207 C421.360482,324.132792 421.534625,327.789803 421.88291,330.750241 C422.231195,333.536534 423.101918,335.800398 424.495077,337.541832 C425.888218,339.283266 428.152082,340.676412 431.286668,341.721272 C434.595378,342.766133 439.123106,343.63685 444.869849,344.333423 C445.914705,344.507565 446.698347,345.029996 447.220775,345.900715 C447.743203,346.597287 448.004417,347.468004 448.004417,348.512865 C448.004417,349.383582 447.743203,350.167227 447.220775,350.863799 C446.698347,351.734516 446.001777,352.169875 445.131063,352.169875 C438.165321,352.169875 431.896158,351.821589 426.323575,351.125016 C420.925134,350.602585 415.613756,350.341369 410.38944,350.341369 C404.816857,350.341369 399.244274,350.602585 393.671691,351.125016 C388.099107,351.821589 382.700658,352.169875 377.476342,352.169875 C376.431486,352.169875 375.647844,351.734516 375.125416,350.863799 C374.602988,350.167227 374.341774,349.383582 374.341774,348.512865 C374.341774,347.468004 374.602988,346.597287 375.125416,345.900715 C375.647844,345.029998 376.518566,344.507567 377.737583,344.333423 C382.439453,343.810993 386.009386,343.11442 388.447384,342.243703 C391.059542,341.198843 392.97512,339.805696 394.194119,338.064263 C395.413117,336.322829 396.109688,334.058964 396.283831,331.272669 C396.632116,328.486376 396.806259,324.916437 396.806259,320.562852 L396.806259,248.989926 C396.806259,246.551918 396.632116,245.158771 396.283831,244.810483 C395.935545,244.288054 394.629475,244.026839 392.365621,244.026839 L379.304867,244.026839 C378.260011,244.026839 377.47636,243.59148 376.953914,242.720763 C376.431486,241.675904 376.170272,240.631043 376.170272,239.586182 C376.170272,238.36718 376.431486,237.235248 376.953914,236.190387 C377.650503,235.145527 378.521225,234.536025 379.566081,234.361881 L393.671691,233.055805 C394.368261,233.055805 394.890689,232.968734 395.238975,232.794591 C395.761403,232.620449 396.109688,232.272161 396.283831,231.74973 C396.632116,231.053157 396.806259,230.008298 396.806259,228.615151 C396.806259,227.04786 396.806259,224.958139 396.806259,222.345988 C396.806259,214.683681 397.938195,207.630874 400.202068,201.187568 C402.640065,194.57012 406.122936,188.91046 410.650681,184.208589 C415.178408,179.332574 420.750992,175.588492 427.368431,172.976341 C433.985888,170.190048 441.561121,168.796901 450.094129,168.796901 C454.447714,168.796901 458.714227,169.232259 462.893669,170.102976 C467.247254,170.973693 471.07841,172.453912 474.387139,174.543633 C477.87001,176.45921 480.656302,179.07136 482.746014,182.380085 C484.835743,185.514666 485.880608,189.432891 485.880608,194.134761 C485.880608,197.269341 484.661601,199.968564 482.223586,202.23243 C479.785588,204.496293 476.825154,205.628225 473.342283,205.628225 C470.38184,205.628225 467.682619,204.931652 465.244622,203.538505 C462.980749,201.971214 461.848813,199.707349 461.848813,196.746912 C461.848813,194.134761 462.197098,192.480399 462.893669,191.783827 C463.7644,190.91311 464.199766,189.868249 464.199766,188.649245 C464.199766,185.166378 462.719544,182.554227 459.759101,180.812793 C456.798658,179.071359 453.054573,178.200642 448.526845,178.200642 C441.735263,178.200642 436.510966,179.680861 432.853952,182.641299 C429.196938,185.601737 426.497718,189.34582 424.756291,193.873547 C423.014846,198.401274 421.969981,203.364361 421.621696,208.762807 C421.4475,213.987106 421.360402,218.950192 421.360402,223.652064 L421.360402,228.615151 C421.360402,230.70487 421.534545,232.010946 421.88283,232.533377 C422.231116,232.881663 423.363052,233.055805 425.278639,233.055805 L450.616504,233.055805 C451.66136,233.055805 452.445002,233.665307 452.96743,234.884311 C453.489858,235.929173 453.751072,237.148177 453.751072,238.541323 C453.751072,239.93447 453.489858,241.240545 452.96743,242.459549 C452.445002,243.504409 451.66136,244.026839 450.616504,244.026839 L425.278639,244.026839 C423.363052,244.026839 422.231116,244.288054 421.88283,244.810483 C421.534545,245.158771 421.360402,246.551918 421.360402,248.989926 L421.360482,319.779207 Z" id="path7220" fill="#BF6100" fill-rule="nonzero"></path>
            <path d="M453.01588,403.106819 C452.223528,403.106819 451.600969,402.880427 451.148201,402.427642 C450.695434,401.974874 450.355858,401.408915 450.129475,400.729764 C450.016185,400.050595 450.016185,399.371435 450.129475,398.692284 C450.355858,398.013115 450.695434,397.447147 451.148201,396.99438 C459.07172,390.542382 465.693518,385.05252 471.013597,380.524793 C476.446859,375.997065 480.748194,371.922113 483.917601,368.299934 C487.200209,364.677756 489.520673,361.281963 490.878993,358.112556 C492.237295,354.943149 492.916446,351.490759 492.916446,347.755387 C492.916446,345.378334 492.746663,343.057876 492.407096,340.794014 C492.067512,338.530151 491.388352,336.549271 490.369616,334.851375 C489.350881,333.153478 487.93597,331.795161 486.124882,330.776424 C484.426978,329.644493 482.163114,329.078527 479.333291,329.078527 C476.616651,329.078527 474.296187,329.474703 472.371899,330.267055 C470.447629,330.946213 468.806334,331.851758 467.448014,332.983689 C466.202895,334.002428 465.297351,335.134359 464.731383,336.379481 C464.165415,337.511412 463.882431,338.473554 463.882431,339.265906 C463.882431,339.605485 463.882431,340.058257 463.882431,340.624224 C463.995543,341.190188 464.165335,341.756154 464.391807,342.32212 C464.731374,342.774893 465.240742,343.227665 465.919911,343.680436 C466.599062,344.020016 467.561197,344.189807 468.806316,344.189807 C470.730604,344.189807 471.975732,344.755772 472.541701,345.887703 C473.220852,347.019634 473.560427,348.264758 473.560427,349.623074 C473.560427,350.981391 472.881276,352.226514 471.522974,353.358445 C470.277837,354.490376 468.523341,355.056342 466.259486,355.056342 C464.108815,355.056342 462.354319,354.660166 460.995999,353.867814 C459.637679,353.075464 458.562343,352.113323 457.769991,350.981392 C456.977639,349.736268 456.41168,348.434547 456.072113,347.076228 C455.84573,345.604718 455.732538,344.246402 455.732538,343.001279 C455.732538,340.397838 456.298497,337.90759 457.430416,335.530535 C458.675535,333.153479 460.430031,331.116004 462.693903,329.418108 C464.957758,327.607017 467.730989,326.192103 471.013597,325.173366 C474.409388,324.154629 478.314547,323.64526 482.729073,323.64526 C487.1436,323.64526 491.048759,324.267821 494.44455,325.512944 C497.953541,326.644875 500.839973,328.229579 503.103846,330.267055 C505.367701,332.304531 507.065596,334.738183 508.197532,337.568009 C509.442652,340.284644 510.065211,343.171068 510.065211,346.227281 C510.065211,350.641812 508.820083,354.886553 506.329827,358.961506 C503.839589,363.036457 500.670181,366.885021 496.821605,370.507199 C492.973047,374.016188 488.728312,377.298785 484.087402,380.354991 C479.559675,383.298015 475.20174,386.014655 471.013597,388.504911 C470.447629,388.731295 470.164645,389.127471 470.164645,389.693439 C470.164645,390.146206 470.447629,390.37259 471.013597,390.37259 L495.463303,390.37259 C496.934806,390.37259 498.179925,390.259398 499.198661,390.033014 C500.330597,389.69343 501.292741,389.184062 502.085093,388.504911 C502.990645,387.712559 503.839597,386.637223 504.631949,385.278904 C505.537484,383.807383 506.443028,381.883095 507.34858,379.506039 C507.574964,379.053272 507.97114,378.713696 508.537108,378.487313 C509.103076,378.147728 509.669044,378.034536 510.235012,378.147737 C510.800963,378.147737 511.31033,378.317529 511.763116,378.657114 C512.215883,378.99668 512.442267,379.449448 512.442267,380.015416 C511.536714,383.863992 510.631171,387.599367 509.725636,391.221542 C508.820083,394.730516 508.423907,398.692275 508.537108,403.106819 L453.01588,403.106819 Z" id="path7222" fill="#524200" fill-rule="nonzero"></path>
            <rect id="Rectangle" x="0" y="0" width="512" height="512"></rect>
        </g>
    </g>
</svg>