<?xml version="1.0" encoding="UTF-8" standalone="no"?>
<!-- Created with Inkscape (http://www.inkscape.org/) -->

<svg
   width="25.4mm"
   height="25.399998mm"
   viewBox="0 0 25.400001 25.399997"
   version="1.1"
   id="svg1"
   xml:space="preserve"
   xmlns="http://www.w3.org/2000/svg"
   xmlns:svg="http://www.w3.org/2000/svg"><defs
     id="defs1" /><g
     id="layer1"
     transform="translate(-152.08649,-131.23332)"><path
       d="m 152.08632,131.23333 v 25.4 h 25.4 v -25.4 z m 11.92486,1.64538 h 1.55081 v 0.65164 l -0.26769,4.24935 3.54656,-2.35644 0.5643,-0.32557 0.77515,1.34307 -0.56379,0.32557 -3.81424,1.89342 3.81424,1.89291 0.56379,0.32556 -0.77515,1.34307 -0.5643,-0.32556 -3.54656,-2.35645 0.26769,4.24987 v 0.65113 h -1.55081 v -0.65113 l 0.26768,-4.24987 -3.54707,2.35645 -0.56379,0.32556 -0.77566,-1.34307 0.5643,-0.32556 3.81372,-1.89291 -3.81372,-1.89342 -0.5643,-0.32557 0.77566,-1.34307 0.56379,0.32557 3.54707,2.35644 -0.26768,-4.24935 z m -5.60431,9.7069 h 1.55081 v 0.65112 l -0.26717,4.24987 3.54655,-2.35644 0.56379,-0.32608 0.77567,1.34359 -0.56431,0.32556 -3.81424,1.8929 3.81424,1.89343 0.56431,0.32556 -0.77567,1.34307 -0.56379,-0.32556 -3.54655,-2.35696 0.26717,4.24987 v 0.65164 h -1.55081 v -0.65164 l 0.26768,-4.24936 -3.54655,2.35645 -0.56431,0.32556 -0.77514,-1.34307 0.56378,-0.32556 3.81476,-1.89343 -3.81476,-1.8929 -0.56378,-0.32556 0.77514,-1.34359 0.56431,0.32608 3.54655,2.35644 -0.26768,-4.24987 z m 11.2081,0 h 1.55133 v 0.65112 l -0.26769,4.24987 3.54656,-2.35644 0.56379,-0.32608 0.77566,1.34359 -0.56431,0.32556 -3.81424,1.8929 3.81424,1.89343 0.56431,0.32556 -0.77566,1.34307 -0.56379,-0.32556 -3.54656,-2.35696 0.26769,4.24987 v 0.65164 h -1.55133 v -0.65164 l 0.26768,-4.24936 -3.54655,2.35645 -0.56379,0.32556 -0.77566,-1.34307 0.56379,-0.32556 3.81475,-1.89343 -3.81475,-1.8929 -0.56379,-0.32556 0.77566,-1.34359 0.56379,0.32608 3.54655,2.35644 -0.26768,-4.24987 z"
       style="opacity:1;fill:#ffffff;stroke-width:0.264583;stroke-linecap:square;stroke-opacity:0.979147"
       id="path122" /><g
       id="g26"
       transform="matrix(0.61537888,0,0,0.61537888,457.51155,20.980246)"
       style="stroke-width:1.62501"><path
         id="path121"
         style="-inkscape-font-specification:'Fungal @grow=542,TCHK=321';stroke-linecap:square;stroke-linejoin:round"
         d="m -476.94255,181.83669 v 1.05893 l 0.43499,6.90526 -5.76404,-3.82926 -0.91617,-0.52904 -1.26047,2.18251 0.91701,0.52904 6.19736,3.07685 -6.19736,3.076 -0.91701,0.52904 1.26047,2.18251 0.91617,-0.52904 5.76404,-3.82926 -0.43499,6.9061 v 1.05809 h 2.52009 v -1.05809 l -0.43499,-6.9061 5.7632,3.82926 0.91701,0.52904 1.25962,-2.18251 -0.91616,-0.52904 -6.1982,-3.076 6.1982,-3.07685 0.91616,-0.52904 -1.25962,-2.18251 -0.91701,0.52904 -5.7632,3.82926 0.43499,-6.90526 v -1.05893 z m -9.10709,15.77387 v 1.05808 l 0.43499,6.9061 -5.7632,-3.82926 -0.91701,-0.52988 -1.25962,2.18335 0.91616,0.52904 6.19904,3.07601 -6.19904,3.07684 -0.91616,0.52904 1.25962,2.18251 0.91701,-0.52904 5.7632,-3.82926 -0.43499,6.90526 v 1.05893 h 2.52009 v -1.05893 l -0.43415,-6.9061 5.7632,3.8301 0.91617,0.52904 1.26046,-2.18251 -0.917,-0.52904 -6.1982,-3.07684 6.1982,-3.07601 0.917,-0.52904 -1.26046,-2.18335 -0.91617,0.52988 -5.7632,3.82926 0.43415,-6.9061 v -1.05808 z m 18.21334,0 v 1.05808 l 0.43499,6.9061 -5.76321,-3.82926 -0.91616,-0.52988 -1.26047,2.18335 0.91617,0.52904 6.19903,3.07601 -6.19903,3.07684 -0.91617,0.52904 1.26047,2.18251 0.91616,-0.52904 5.76321,-3.82926 -0.43499,6.90526 v 1.05893 h 2.52093 v -1.05893 l -0.435,-6.9061 5.76321,3.8301 0.91616,0.52904 1.26047,-2.18251 -0.91701,-0.52904 -6.19819,-3.07684 6.19819,-3.07601 0.91701,-0.52904 -1.26047,-2.18335 -0.91616,0.52988 -5.76321,3.82926 0.435,-6.9061 v -1.05808 z" /></g></g></svg>
