<?xml version="1.0" encoding="UTF-8"?>
<svg width="512px" height="512px" viewBox="0 0 512 512" version="1.1" xmlns="http://www.w3.org/2000/svg" xmlns:xlink="http://www.w3.org/1999/xlink">
    <title>ForgeFed [4 color]</title>
    <g id="ForgeFed-[4-color]" stroke="none" stroke-width="1" fill="none" fill-rule="evenodd">
        <path d="M0,512 L255.999923,256.000194 L255.999923,512 L0,512 Z M511.999884,512 L255.999961,256.000194 L255.999961,512 L511.999884,512 Z" id="path1575-2" fill="#FF851B" fill-rule="nonzero"></path>
        <path d="M255.999961,256.000194 L511.999884,512 L511.999884,256.000194 L255.999961,256.000194 Z M3.87023647e-05,255.999806 L255.999961,0 L255.999961,255.999806 L3.87023647e-05,255.999806 Z" id="path1573-2" fill="#808080" fill-rule="nonzero"></path>
        <path d="M511.999884,255.999806 L255.999961,0 L255.999961,255.999806 L511.999884,255.999806 Z M255.999923,256.000194 L0,512 L0,256.000194 L255.999923,256.000194 Z" id="path1569-2" fill="#C8C8C8" fill-rule="nonzero"></path>
        <path d="M256.451773,96.7730456 C284.72873,96.7730456 307.651734,119.696058 307.651734,147.973026 C307.651734,168.899528 295.097243,186.893771 277.10924,194.834773 L277.109385,341.288955 L340.128414,278.269833 C336.871267,271.536861 335.045182,263.98236 335.045182,256.001355 C335.045182,227.724386 357.968185,204.801374 386.245143,204.801374 C414.522101,204.801374 437.445104,227.724386 437.445104,256.001355 C437.445104,284.278323 414.522101,307.201335 386.245143,307.201335 C379.204257,307.201335 372.495314,305.780116 366.389542,303.208906 L277.109385,392.488297 L277.109385,512 L234.890615,512 L149.824234,430.329797 C143.203841,433.453965 135.805837,435.200851 127.999826,435.200851 C99.722868,435.200851 76.7998645,412.277839 76.7998645,384.000871 C76.7998645,355.723902 99.722868,332.80089 127.999826,332.80089 C156.276784,332.80089 179.199787,355.723902 179.199787,384.000871 C179.199787,390.952101 177.814534,397.579787 175.305024,403.622934 L234.890615,460.871096 L234.889574,194.42478 C217.386734,186.286464 205.251811,168.546877 205.251811,147.973026 C205.251811,119.696058 228.174815,96.7730456 256.451773,96.7730456 Z" id="path1090-4-9-2" fill="#FFFFFF" fill-rule="nonzero"></path>
    </g>
</svg>