<?xml version="1.0" encoding="UTF-8"?>
<svg width="512px" height="512px" viewBox="0 0 512 512" version="1.1" xmlns="http://www.w3.org/2000/svg" xmlns:xlink="http://www.w3.org/1999/xlink">
    <title>Friendica logo</title>
    <g id="All-Fediverse-Symbols" stroke="none" stroke-width="1" fill="none" fill-rule="evenodd">
        <g id="Friendica-[3-color]" fill-rule="nonzero">
            <g id="Friendica-logo">
                <path d="M76.6467066,0 L435.353293,0 C477.684101,0 512,34.3158994 512,76.6467066 L512,435.353293 C512,477.684101 477.684101,512 435.353293,512 L76.6467066,512 C34.3158994,512 0,477.684101 0,435.353293 L0,76.6467066 C0,34.3158994 34.3158994,0 76.6467066,0 Z" id="black" fill="#000000"></path>
                <path d="M84.4554455,20 C49.1584158,20 20,47.6116505 20,84.4271845 L20,429.572816 C20,464.854369 47.6237624,494 84.4554455,494 L164.257426,494 L164.257426,370.514563 L330,370.514563 L330,266.970874 L164.257426,266.970874 L164.257426,123.543689 L329.232673,123.543689 L329.232673,20 L84.4554455,20 Z" id="yellow" fill="#FEBF19"></path>
                <path d="M347.929408,20 L347.929408,143.485437 L184,143.485437 L184,247.029126 L347.929408,247.029126 L347.929408,390.456311 L184,390.456311 L184,494 L429.128087,494 C464.365249,494 493.47421,466.38835 491.942159,429.572816 L491.942159,84.4271845 C491.942159,49.1456311 464.365249,20 427.596036,20 L347.929408,20 Z" id="blue" fill="#0687B3"></path>
            </g>
        </g>
    </g>
</svg>