<?xml version="1.0" encoding="UTF-8"?>
<svg width="512px" height="512px" viewBox="0 0 512 512" version="1.1" xmlns="http://www.w3.org/2000/svg" xmlns:xlink="http://www.w3.org/1999/xlink">
    <title>Funkwhale [2 color]</title>
    <g id="Funkwhale-[2-color]" stroke="none" stroke-width="1" fill="none" fill-rule="evenodd">
        <g id="Funkwhale" transform="translate(0.000000, 25.000000)" fill-rule="nonzero">
            <path d="M37.5577131,202.27619 C40.0431499,202.27619 42.2524272,204.485714 42.2524272,206.971429 C42.2524272,324.904762 138.079827,420.466667 255.72384,420.466667 C373.091694,420.466667 469.195254,324.628571 469.195254,206.971429 C469.195254,204.485714 471.404531,202.27619 473.889968,202.27619 L507.305286,202.27619 C509.790723,202.27619 512,204.485714 512,206.971429 C512,348.104762 397.117584,463 256,463 C114.882416,463 0,348.104762 0,206.971429 C0,204.485714 2.20927724,202.27619 4.69471413,202.27619 Z M121.510248,202.27619 C123.995685,202.27619 126.204962,204.485714 126.204962,206.971429 C126.204962,278.504762 184.19849,336.504762 255.72384,336.504762 C327.249191,336.504762 385.242718,278.504762 385.242718,206.971429 C385.242718,204.485714 387.451996,202.27619 389.937433,202.27619 L423.352751,202.27619 C425.838188,202.27619 428.047465,204.485714 428.047465,206.971429 C428.047465,301.704762 350.722762,379.038095 256,379.038095 C160.724919,379.038095 83.4002157,301.704762 83.9495945,206.971429 C83.9495945,204.485714 86.1618123,202.27619 88.6472492,202.27619 Z M205.462783,202 C207.94822,202 210.157497,204.209524 210.157497,206.695238 C210.157497,232.104762 230.869471,252.542857 256,252.542857 C281.406688,252.542857 301.842503,231.828571 301.842503,206.695238 C301.842503,204.209524 304.05178,202 306.537217,202 L339.952535,202 C342.437972,202 344.647249,204.209524 344.647249,206.695238 C344.647249,255.580952 304.880259,295.352381 256,295.352381 C207.119741,295.352381 167.352751,255.857143 167.352751,206.695238 C167.352751,204.209524 169.562028,202 172.047465,202 Z" id="stripes" fill="#00AFE9"></path>
            <path d="M140.36467,91.2082774 C157.507878,100.018446 176.033604,101.670352 192.623805,111.306474 C203.407437,117.638783 210.320021,124.521727 216.956101,134.983802 C227.463229,150.676914 226.910222,170.499793 226.910222,170.499793 L228.292739,192.249897 C228.292739,192.249897 236.58784,214 255.113565,214 C274.745304,214 281.934391,192.249897 281.934391,192.249897 L283.316908,170.499793 C283.316908,170.499793 282.763902,150.952232 293.271029,134.983802 C299.90711,124.521727 306.543191,117.088147 317.603325,111.306474 C334.193527,101.670352 352.719252,100.018446 369.862461,91.2082774 C387.005669,82.398109 403.595871,71.1100807 414.932509,55.4169681 C426.269147,39.7238556 431.522711,18.7997056 425.439637,0.353415402 C392.81224,-1.29849118 355.207782,2.55595751 326.451433,17.9737523 C286.358445,39.1732201 262.026149,31.7396405 254.837062,63.4011833 L254.284055,63.4011833 C247.094968,31.4643227 223.039175,39.1732201 182.669684,17.9737523 C153.913335,2.55595751 116.308877,-1.29849118 83.6814807,0.353415402 C77.3219034,18.7997056 82.8519706,39.4485378 94.1886085,55.4169681 C106.354756,71.3853984 123.221462,82.6734267 140.36467,91.2082774 L140.36467,91.2082774 Z" id="tail" fill="#3C3C3B"></path>
        </g>
    </g>
</svg>