<?xml version="1.0" encoding="UTF-8"?>
<svg width="512px" height="512px" viewBox="0 0 512 512" version="1.1" xmlns="http://www.w3.org/2000/svg" xmlns:xlink="http://www.w3.org/1999/xlink">
    <title>Gath.io [2 color]</title>
    <g id="Gath.io-[2-color]" stroke="none" stroke-width="1" fill="none" fill-rule="evenodd">
        <g id="Gath.io" transform="translate(50.000000, -0.000000)">
            <path d="M311,110.736187 L412,110.736187 L412,392 L311,392 L311,110.736187 Z M311,0 L412,0 L412,85.111284 L311,85.111284 L311,0 Z" id="i" fill="#969696"></path>
            <path d="M129.252699,104 C159.653875,104 187.603618,115.833123 209.675975,135.63691 L209.673209,110.706823 L311,110.706823 L311,391.783669 C305.004991,417.306382 298.494032,435.089624 291.467125,445.133396 C271.267179,474.00579 228.900883,509.457924 141.613346,511.896768 C83.4216552,513.522665 37.1328099,495.94266 2.7468106,459.156753 L55.8518155,403.673037 C81.6921819,425.825876 109.363755,436.902295 138.866536,436.902295 C181.672933,437.4552 205.070274,413.272865 209.058557,364.355293 C187.08378,383.827786 159.371274,395.441936 129.252699,395.441936 C57.8684043,395.441936 0,330.200437 0,249.720968 C0,169.2415 57.8684043,104 129.252699,104 Z M157.134231,186.311007 C126.818307,186.311007 102.242395,214.700614 102.242395,249.720968 C102.242395,284.741323 126.818307,313.130929 157.134231,313.130929 C181.905039,313.130929 202.843618,294.17705 209.674668,268.139114 L209.674668,231.302822 C202.843618,205.264886 181.905039,186.311007 157.134231,186.311007 Z" id="g" fill="#000000"></path>
        </g>
    </g>
</svg>