<?xml version='1.0' encoding='utf-8'?>
<!-- Generator: imaengine 6.0   -->
<svg xmlns:xlink="http://www.w3.org/1999/xlink" xmlns="http://www.w3.org/2000/svg" viewBox="0,0,1533,1533" style="enable-background:new 0 0 1533 1533;" version="1.1">
<defs/>
<g id="layer0">
<path d="M726.542,1532.77C756.381,1532.77 787.472,1533.46 816.228,1533.46C815.667,1515.48 832.873,1513.95 838.45,1503.24C844.947,1493.33 856.086,1487.24 862.41,1478.3C869.429,1470.6 878.089,1463.64 884.365,1456.36C892.227,1450.86 897.419,1441.65 904.341,1436.38C909.002,1429.71 916.562,1424.62 921.398,1419.32C924.015,1412.66 933.489,1411.25 935.478,1405.18C942.132,1398.81 949.606,1392.47 954.354,1385.37C961.534,1383.61 962.467,1374.54 968.128,1372.49C974.11,1371.6 975.33,1363.96 978.348,1361.37C981.333,1357.82 989.242,1356.89 988.502,1350.91C998.89,1347.25 1002.39,1335.82 1003.51,1324.06C1011.99,1317.62 1019.6,1305.88 1025.22,1300.46L1024.51,1300C1023.77,1298 1020.46,1296.37 1020.51,1295.04C847.005,1297.88 667.239,1295.57 493.994,1299.49L493,1299L490,1299L488.489,1298C487.518,1307.91 498.42,1307.57 500.521,1313.18C502.853,1321.15 513.367,1322.22 515.518,1329.17C516.709,1330.38 518.662,1333.8 519.88,1333.5C561.938,1375.54 602.46,1415.99 646.626,1459.35C648.267,1461.82 650.543,1465.96 652.778,1466.46C669.668,1484.23 688.556,1501.19 704.76,1518.45L705.489,1519C711.12,1519.2 717.553,1519.7 721.826,1521.4C726.098,1523.11 728.264,1525.81 726.542,1532.77Z" fill-rule="evenodd" fill="#CC85E0"/>
<path d="M815.643,1533.37C820.51,1520.14 834.231,1514.15 842.384,1505.34C849.394,1495.6 859.222,1487.8 867.374,1480.35C872.156,1470.07 884.435,1466.17 888.436,1456.27C898.145,1453.29 899.862,1441.53 908.276,1438.43C912.398,1431.56 919.877,1426.66 925.365,1422.36C926.584,1414.64 936.596,1413.97 938.487,1408.16C939.624,1402.07 947.975,1401.61 949.483,1397.17C952.719,1390.1 961.005,1387.02 965.4,1382.32C966.661,1374.98 975.73,1373.88 978.449,1369.24C979.026,1362.6 986.806,1361.7 989.392,1358.33C992.304,1355.74 992.717,1349.31 996.09,1348.5C1006.24,1347.32 1001.81,1330 1007.33,1325.39C1016.6,1316.89 1026.13,1307.9 1033.28,1298.43L1031,1296L1028,1297L1026.49,1297C1026.46,1297.69 1025.96,1297.9 1025.37,1298.4C1024.79,1298.9 1024.3,1300.07 1024.66,1300.38C1019.04,1305.81 1011.12,1317.2 1002.64,1323.64C1001.52,1335.4 998.094,1346.93 987.706,1350.58C988.445,1356.57 980.607,1357.11 977.622,1360.66C974.604,1363.24 973.859,1370.61 967.877,1371.5C962.216,1373.55 960.933,1382.79 953.754,1384.55C949.005,1391.66 941.271,1398.29 934.616,1404.66C932.628,1410.73 923.149,1412.13 920.532,1418.8C915.696,1424.09 908.263,1429.01 903.602,1435.68C896.68,1440.95 891.54,1450.1 883.678,1455.6C877.402,1462.89 868.632,1469.97 861.614,1477.67C855.289,1486.61 844.066,1492.82 837.569,1502.73C831.991,1513.43 815.081,1515.39 815.643,1533.37Z" fill-rule="evenodd" fill="#FBFAF8"/>
<path d="M706,1520L706,1519L706,1520Z" fill-rule="evenodd" fill="#FBFAF8"/>
<path d="M705,1519L706,1519L705,1518L705,1519Z" fill-rule="evenodd" fill="#FBFAF8"/>
<path d="M655,1468L656,1467L655,1468Z" fill-rule="evenodd" fill="#FBFAF8"/>
<path d="M653,1467L653,1466L653,1467Z" fill-rule="evenodd" fill="#FBFAF8"/>
<path d="M648,1462L649,1461L648,1462Z" fill-rule="evenodd" fill="#FBFAF8"/>
<path d="M647,1460L647,1459L647,1460Z" fill-rule="evenodd" fill="#FBFAF8"/>
<path d="M520,1334L520,1333L520,1334Z" fill-rule="evenodd" fill="#FBFAF8"/>
<path d="M516,1330L516,1329L516,1330Z" fill-rule="evenodd" fill="#FBFAF8"/>
<path d="M502,1316L503,1315L502,1316Z" fill-rule="evenodd" fill="#FBFAF8"/>
<path d="M501,1314L501,1313L501,1314Z" fill-rule="evenodd" fill="#FBFAF8"/>
<path d="M494.511,1300C667.756,1296.08 846.5,1298.35 1020,1295.51L1021.51,1294C846.324,1292.91 667.892,1292.49 492.771,1292.54C492.771,1294.29 492.489,1298.78 492.489,1299L494.511,1300Z" fill-rule="evenodd" fill="#89ACEC"/>
<path d="M1023.59,1300.3L1025.51,1300C1025.54,1299.31 1026.04,1299.1 1026.63,1298.6C1027.21,1298.1 1027.48,1296.81 1027.12,1296.5C1023.27,1297.62 1022.59,1293.12 1020.94,1293.49L1019.49,1295C1019.43,1296.33 1022.85,1298.3 1023.59,1300.3Z" fill-rule="evenodd" fill="#79A8E9"/>
<path d="M490,1299L493.511,1299C493.511,1298.78 493.511,1294.75 493.511,1293L492.511,1293C492.31,1292.33 491.498,1291.16 490.848,1290.55C490.199,1289.95 488.887,1289.5 488.686,1289.6C488.686,1292 488.489,1297.08 488.489,1298L490,1299Z" fill-rule="evenodd" fill="#407FC1"/>
<path d="M1033.51,1298C1117.06,1216.27 1198.68,1134.33 1282.23,1050.46L1281.51,1050C1281.22,1049.33 1280.32,1048.23 1279.87,1047.62C1279.42,1047.02 1279.12,1047.37 1280.21,1047.46C1280.19,1046.77 1279.62,1045.33 1279.04,1044.83C1278.45,1044.33 1277.82,1044.79 1278.18,1044.48C1227.6,1048.09 1183.09,1047.69 1122.01,1047.49C1048.92,1044.53 971.563,1041.39 902.782,1037.54C902.741,1038.53 902.585,1040.72 902.539,1042.1C902.492,1043.47 902.928,1044 902.155,1043.51L898.489,1044C898.489,1060.07 898.489,1077.08 898.489,1092C898.489,1106.38 898.489,1121.78 898.489,1135C898.878,1147.74 900.91,1162.27 890.96,1163.49C880.326,1163.84 888.662,1184.56 881.827,1187.52C874.524,1189.5 871.558,1197.37 867.712,1201.58C860.467,1202.93 858.379,1210.85 854.731,1214.57C848.179,1215.58 845.897,1222.58 842.645,1225.63C837.283,1231.26 818.814,1225.52 818.489,1234.98C818.59,1239.72 815.705,1240.88 811.387,1241.4C807.069,1241.91 801.816,1241.29 797.987,1241.49C789.732,1241.49 780.009,1241.49 773,1241.49C765.776,1241.49 756.894,1241.49 750.94,1241.49C731.943,1246.11 726.732,1236.29 720.247,1229.55C705.548,1228.86 688.086,1230.41 685.466,1218.79L683.511,1220C673.153,1212.81 658.668,1204.44 658.511,1190.99C653.986,1187.26 648.565,1182.95 648.511,1175.99L645.511,1176C643.424,1169.49 645.029,1157.76 644.505,1150.92L643,1150L643.511,1149C627.274,1129.21 637.883,1079.01 635.505,1048.92L632.511,1049C634.675,1042.91 641.938,1040.96 644.352,1036.37L643.489,1035C533.507,1052.38 387.891,1040.59 255.769,1045.54C256.19,1047.4 253.786,1049.61 254.682,1050.4C266.312,1057.78 268.735,1067.41 279.72,1074.43C288.826,1080.72 293.986,1091.82 302.663,1097.38C306.468,1107.28 320.238,1107.93 322.522,1118.18C332.776,1119.94 332.777,1133.6 341.756,1135.45C345.805,1142.39 352.531,1147.73 358.663,1151.38C359.644,1160.03 370.25,1160.04 372.52,1166.17C374.047,1173.24 383.616,1173.7 385.516,1179.16C386.159,1186.43 395.878,1186.13 397.514,1191.16C400.208,1200.47 413.255,1200.49 414.495,1210.08C440.829,1237.49 471.327,1262.17 492.698,1293.41C667.819,1293.36 845.867,1293.42 1021.05,1294.51C1022.7,1294.14 1023.22,1298.62 1027.07,1297.51L1028.51,1297C1029.36,1293.84 1031.22,1292.99 1032.57,1292.98C1033.91,1292.96 1034.06,1293.29 1030.83,1295.52L1033.51,1298ZM630.489,1127L630.511,1128C630.511,1111.38 630.511,1092.76 630.511,1075C630.931,1068.76 629.292,1058.75 630.966,1052.51C630.966,1058.46 630.489,1066.78 630.489,1074C630.489,1076.73 630.489,1082.89 630.489,1087C630.489,1090.46 630.489,1097.19 630.489,1102C630.489,1109.01 630.489,1118.74 630.489,1127Z" fill-rule="evenodd" fill="#52C9F4"/>
<path d="M1027.55,1296.76L1031.51,1296C1034.74,1293.78 1033.9,1291.94 1032.55,1291.95C1031.21,1291.97 1028.4,1293.6 1027.55,1296.76Z" fill-rule="evenodd" fill="#48A8E1"/>
<path d="M491.562,1293.26L493.511,1293C472.139,1261.75 441.732,1237.1 415.397,1209.68C414.158,1200.09 401.185,1200.17 398.491,1190.86C396.855,1185.83 387.152,1186.22 386.509,1178.95C384.609,1173.49 375.027,1172.96 373.499,1165.89C371.229,1159.75 360.486,1159.57 359.505,1150.92C353.373,1147.27 346.42,1141.59 342.371,1134.65C333.392,1132.8 333.51,1119.31 323.257,1117.56C320.972,1107.3 307.264,1106.68 303.459,1096.78C294.782,1091.21 289.391,1079.86 280.285,1073.58C269.3,1066.56 266.784,1056.89 255.154,1049.51L254,1050L253.489,1049C251.09,1057.4 266.628,1061.01 268.51,1069.14C271.388,1071.07 275.551,1073.72 276.528,1076.19C281.289,1083.78 290.972,1087.83 294.626,1095.35C295.316,1095.38 295.897,1096.04 296.397,1096.63C296.897,1097.21 297.708,1097.88 298.017,1097.51C344.971,1146.01 392.632,1191.68 440.649,1241.37C448.521,1247.2 453.798,1256.72 461.67,1261.39C462.545,1263.94 465.106,1267.14 466.786,1267.46C474.215,1275.09 482.835,1282.6 488.847,1290.49C489.049,1290.4 489.502,1290.7 490.152,1291.3C490.801,1291.91 491.36,1292.59 491.562,1293.26Z" fill-rule="evenodd" fill="#3497CE"/>
<path d="M469,1269L470,1268L469,1269Z" fill-rule="evenodd" fill="#FBFAF8"/>
<path d="M467,1268L467,1267L467,1268Z" fill-rule="evenodd" fill="#FBFAF8"/>
<path d="M462,1262L462,1261L462,1262Z" fill-rule="evenodd" fill="#FBFAF8"/>
<path d="M443,1243L444,1242L443,1243Z" fill-rule="evenodd" fill="#FBFAF8"/>
<path d="M441,1242L441,1241L441,1242Z" fill-rule="evenodd" fill="#FBFAF8"/>
<path d="M682.833,1220.48L685.511,1219C675.42,1210.66 664.445,1201.28 657.93,1190.49C658.086,1203.94 672.475,1213.3 682.833,1220.48Z" fill-rule="evenodd" fill="#379CD2"/>
<path d="M644.57,1176.28L648.511,1176C647.992,1166.89 649.88,1152.88 643.836,1150.52C644.359,1157.35 642.483,1169.77 644.57,1176.28Z" fill-rule="evenodd" fill="#3394C9"/>
<path d="M643,1150L643,1149L643,1150Z" fill-rule="evenodd" fill="#FBFAF6"/>
<path d="M629.489,1128L631.511,1127C631.511,1118.74 631.511,1109.01 631.511,1102C631.511,1097.19 631.511,1090.46 631.511,1087C631.511,1082.89 631.511,1076.73 631.511,1074C631.511,1066.78 631.511,1057.95 631.511,1052C629.837,1058.24 629.91,1068.73 629.49,1074.97C629.49,1092.72 629.489,1111.38 629.489,1128Z" fill-rule="evenodd" fill="#3EB1E1"/>
<path d="M298,1098L298,1097L298,1098Z" fill-rule="evenodd" fill="#FBFAF8"/>
<path d="M295,1096L295,1095L295,1096Z" fill-rule="evenodd" fill="#FBFAF8"/>
<path d="M278,1079L279,1078L278,1079Z" fill-rule="evenodd" fill="#FBFAF8"/>
<path d="M277,1077L277,1076L277,1077Z" fill-rule="evenodd" fill="#FBFAF8"/>
<path d="M269,1070L269,1069L269,1070Z" fill-rule="evenodd" fill="#FBFAF8"/>
<path d="M250.872,1051.49C251.562,1051.47 252.674,1050.62 253.174,1050.04C253.674,1049.45 253.431,1049.08 253.74,1049.44L253,1046L252.511,1046C251.806,1043.63 247.985,1041.82 247.436,1040.73C234.182,1031.34 225.082,1006.11 201.905,1015.5C230.785,1014.78 233.561,1041.73 250.872,1051.49Z" fill-rule="evenodd" fill="#2FB988"/>
<path d="M254,1050L255.511,1050C255.09,1048.14 257.088,1046.31 256.191,1045.53C255.108,1045.58 254.35,1045.13 253.85,1044.89C253.35,1044.64 252.414,1045.17 252.497,1046.09L254,1049L254,1050Z" fill-rule="evenodd" fill="#3BC6CD"/>
<path d="M1280.61,1050.33L1282,1050L1283,1048L1282,1046L1280.51,1047C1279.41,1046.91 1278.6,1047.63 1279.05,1048.23C1279.5,1048.84 1280.32,1049.66 1280.61,1050.33Z" fill-rule="evenodd" fill="#33A1BD"/>
<path d="M631.583,1048.7L635.511,1049C638.755,1043.99 647.038,1042.82 648.456,1037.23L646,1037L643.489,1036C641.074,1040.59 633.747,1042.61 631.583,1048.7Z" fill-rule="evenodd" fill="#34A1C3"/>
<path d="M1121.99,1048.51C1183.07,1048.71 1227.64,1048.07 1278.22,1044.46C1278.46,1043.98 1279.29,1043.7 1280.2,1043.53C1281.11,1043.36 1281.81,1043.35 1281.91,1043.5C1283.94,1041.77 1286.93,1038.58 1289.19,1038.47C1292.4,1034.8 1296.79,1030.39 1299.36,1027.36C1305.89,1023.24 1309.62,1015.21 1316.28,1012.42C1319.02,1007.94 1322.22,1002.59 1328.08,1002.5C1333.23,1000.77 1342.9,1001.96 1348.05,1001.51C1353.36,1000.98 1359.36,998.4 1359.51,994.018C1363.71,983.658 1381.58,992.034 1384.47,983.197C1394.08,976.98 1399.44,961.536 1412.2,962.471C1416.93,951.807 1434.95,953.042 1438.43,942.277L1437.51,942C1436.61,934.914 1437.9,928.881 1440.32,926.402C1448.61,923.029 1451.19,912.908 1458.22,909.462C1464.38,906.681 1464.62,896.702 1472.12,896.496C1476.87,894.024 1476.74,884.272 1477.5,879.086C1494.95,860.201 1498.56,828.984 1516.4,809.314C1516.65,807.682 1516.5,804.682 1516.43,802.38C1516.36,800.078 1516.01,798.668 1517.04,798.509L1517.51,797C1516.18,793.267 1519.8,793.027 1521.17,793.481C1521.14,785.876 1525.35,780.931 1533.19,782.473C1533.19,778.36 1533.51,771.732 1533.51,769C1438.29,769.232 1343.35,768.13 1247,769.489L1245.49,768C1246.2,780.721 1246.51,793.239 1237.94,795.493C1234.95,795.424 1233.19,797.876 1232.65,800.542C1232.11,803.207 1232.35,806.622 1232.49,809.03C1231.9,818.404 1233.65,831.234 1231.51,837.846C1231.72,847.681 1221.12,847.977 1218.53,853.798C1216.67,860.874 1207.15,861.791 1205.51,867.855C1202.46,872.029 1197.89,875.792 1193.72,877.572C1187.26,886.509 1178.41,893.98 1170.75,900.556C1160.93,902.747 1144.29,899.56 1139.59,905.69C1125.99,923.936 1081.5,911.22 1055,915.489C1048.98,914.622 1043.23,912.803 1042.51,907.925C1040.72,898.046 1020.47,905.298 1017.47,897.81C1014.51,890.809 1006.64,887.195 1002.4,882.682C1001.66,876.537 994.296,875.452 992.428,871.72C988.853,869.796 987.888,863.86 988.507,859.065C987.36,845.156 969.254,847.294 974.486,828.159C966.736,821.528 957.856,814.972 961.5,798.107C962.46,790.957 960.86,783.598 957.074,782.494L955.511,783C949.633,780.622 948.415,771.934 947.489,765.851C946.053,765.851 941.905,766.511 942.016,766.511C917.113,764.924 888.744,765.16 865.018,763.489L862.489,764C859.074,765.044 853.557,765.002 850.952,765.491L850,765L846,765L845.489,767C848.012,784.182 851.012,816.576 844.532,830.796C845.936,842.166 840.393,847.826 837.558,853.743C832.761,857.201 831.854,866.396 832.491,874.042C832.491,880.922 832.489,889.4 832.489,895C832.489,904.966 832.489,916.248 832.489,925C832.489,933.598 832.489,943.641 832.489,951C833.097,957.96 831.493,968.96 833.539,973.221C835.406,977.199 841.136,979.325 843.636,981.358C852.045,1006.3 888.801,1001.54 898.59,1026.3C901.497,1026.48 902.005,1030.68 901.533,1032.79L902,1035L902.489,1038C971.27,1041.85 1048.89,1045.56 1121.99,1048.51Z" fill-rule="evenodd" fill="#3EE1AA"/>
<path d="M1283.51,1048C1286.17,1044.82 1292.04,1043.51 1293.39,1040.33L1292,1040L1288.49,1039C1287.67,1041.26 1284.74,1042.57 1283.01,1042.49L1282,1046L1283.51,1048Z" fill-rule="evenodd" fill="#2DA795"/>
<path d="M1279.8,1046.53L1282,1046L1283,1043L1282.51,1043C1280.18,1042.1 1278.23,1043.92 1277.92,1043.5C1277.95,1044.19 1278.38,1045.67 1278.96,1046.17C1279.55,1046.67 1280.17,1046.22 1279.8,1046.53Z" fill-rule="evenodd" fill="#34C4AB"/>
<path d="M251.561,1046.26L253.511,1046C253.384,1044.73 253.285,1045.53 254.039,1046.02C254.793,1046.52 256.377,1046.88 256.489,1046.15L256,1043L253.511,1044C252.753,1043.5 251.093,1041.78 249.811,1040.87C248.529,1039.97 246.605,1039.83 246.492,1040.95C247.041,1042.04 250.856,1043.89 251.561,1046.26Z" fill-rule="evenodd" fill="#34CD9E"/>
<path d="M256.511,1046C388.633,1041.05 534.276,1052.82 644.258,1035.44C644.258,1033.7 644.511,1029.22 644.511,1029L644.511,1027C635.98,1026.73 636.986,1028.08 624.961,1027.49C519.101,1049.47 376.687,1036.61 255.988,1042.49L256.511,1046Z" fill-rule="evenodd" fill="#42DBCC"/>
<path d="M252.841,1044.49L256.511,1043C377.21,1037.12 519.181,1050.49 625.04,1028.51C637.065,1029.1 635.691,1027.19 644.222,1027.46C643.675,1020.03 649.4,1017.13 652.29,1014.42C657.675,1012.58 658.624,1004.91 663.151,1003.49C669.225,1001.65 671.148,993.921 675.299,991.414C678.675,987.91 685.083,985.229 685.508,980.054C688.418,978.158 690.584,974.282 694.219,974.462C699.153,909.698 696.316,835.357 697.511,768.02C677.296,769.597 653.367,768.124 633.054,768.492C626.096,766.852 614.762,767.929 607.804,767.528C606.751,769.554 599.916,767.92 598.863,768.508L599,768L594.489,768C590.075,769.776 581.387,768.014 576.973,768.49C385.072,768.49 193.804,768.543 -0.228526,768.543C-0.228526,779.871 -0.511,792.865 -0.511,803C8.7269,801.674 13.6718,806.38 15.524,811.186C18.4317,817.528 14.5511,827.626 19.8639,828.493C24.9643,830.617 28.4182,835.472 30.5692,839.275C35.6079,843.86 43.6152,846.413 42.4925,855.94C41.2802,864.721 46.1967,869.606 50.6977,871.412C56.0518,908.574 97.1678,917.979 107.512,952.15C109.398,956.799 113.21,962.029 117.974,962.51L118.489,962C146.565,967.578 151.409,1003.3 184.034,1005.51C196.147,1003.02 196.233,1013.86 201.988,1016.51C225.165,1007.12 233.872,1032.1 247.126,1041.5C247.24,1040.38 247.939,1040.8 249.221,1041.71C250.503,1042.61 252.083,1043.99 252.841,1044.49Z" fill-rule="evenodd" fill="#3EE2AA"/>
<path d="M898.489,1044L902.511,1044C902.511,1041.93 902.511,1037.56 902.511,1037L898.489,1037C898.489,1039.07 898.489,1043.44 898.489,1044Z" fill-rule="evenodd" fill="#33A1BD"/>
<path d="M901.489,1044C902.262,1044.49 903.513,1043.51 903.56,1042.13C903.606,1040.76 903.468,1039.04 903.509,1038.04L902,1035L901.489,1037C901.489,1037.56 901.489,1041.93 901.489,1044Z" fill-rule="evenodd" fill="#3DBED4"/>
<path d="M1281.8,1042.53L1282.49,1043C1284.21,1043.08 1288.59,1041.56 1289.41,1039.3L1288.49,1038C1286.23,1038.11 1283.83,1040.8 1281.8,1042.53Z" fill-rule="evenodd" fill="#34C4AB"/>
<path d="M1292,1040L1293.51,1040C1296.09,1034.33 1301.89,1030.99 1306.31,1028.4C1308.98,1024.19 1311.68,1018.45 1316.26,1017.44C1319.83,1003.58 1336.95,1002.58 1355.14,1004.49C1361.97,998.295 1364.66,987.086 1380.93,991.506L1382.51,990C1392.47,980.516 1401.39,969.993 1412.19,962.476C1399.43,961.541 1393.27,976.401 1383.66,982.618C1380.76,991.456 1362.72,983.454 1358.52,993.814C1358.37,998.196 1353.27,999.961 1347.95,1000.49C1342.8,1000.94 1333.06,999.765 1327.91,1001.5C1322.05,1001.59 1318.34,1007.18 1315.61,1011.67C1308.95,1014.45 1305.22,1022.48 1298.69,1026.59C1296.12,1029.62 1291.95,1033.88 1288.75,1037.56L1289,1039L1292,1040Z" fill-rule="evenodd" fill="#2FB97F"/>
<path d="M646,1037L648.511,1037C648.511,1033.23 648.511,1027.37 648.511,1025C646.287,1025.18 644.85,1028.67 643.795,1028.53C643.795,1028.75 643.489,1033.25 643.489,1035L644,1036L646,1037Z" fill-rule="evenodd" fill="#2DA29A"/>
<path d="M899,1037L902,1037L902,1035L902,1033L899,1033L899,1037Z" fill-rule="evenodd" fill="#31A7AC"/>
<path d="M898.489,1033L902.511,1033C902.983,1030.89 901.69,1025.71 898.782,1025.54C898.782,1027.61 898.489,1032.44 898.489,1033Z" fill-rule="evenodd" fill="#31B19E"/>
<path d="M643.489,1029C644.545,1029.14 646.019,1025.63 648.243,1025.45C648.578,1018.9 656.974,1018.28 658.477,1014.18C661.398,1009.19 666.086,1004.9 670.277,1002.43C674.778,999.019 676.665,991.674 682.141,990.491C686.65,988.81 687.759,981.896 691.216,980.463C694.324,978.765 698.441,975.617 699.473,973.193C700.943,905.735 700.21,837.97 700.511,767.004L696.489,768C695.295,835.338 698.429,909.155 693.495,973.919C689.86,973.74 687.564,977.728 684.654,979.624C684.228,984.799 678.036,987.115 674.66,990.619C670.509,993.126 668.924,1000.67 662.849,1002.51C658.322,1003.94 657.145,1011.71 651.76,1013.55C648.87,1016.26 642.947,1019.65 643.494,1027.07L643.489,1029Z" fill-rule="evenodd" fill="#2CB880"/>
<path d="M179.994,1005.51L184.511,1005C151.885,1002.79 147.127,967.07 119.051,961.492L120.489,963C143.946,973.195 148.259,1004.79 179.994,1005.51Z" fill-rule="evenodd" fill="#2CB480"/>
<path d="M1381,991L1382,990L1381,991Z" fill-rule="evenodd" fill="#FBFAF8"/>
<path d="M121,964L121,963L121,964Z" fill-rule="evenodd" fill="#FBFAF8"/>
<path d="M118,963L119,962L118,962L118,963Z" fill-rule="evenodd" fill="#FBFAF8"/>
<path d="M108.032,952.51C97.688,918.339 56.8542,908.057 51.5002,870.895C46.9991,869.09 42.2938,864.851 43.5062,856.07C44.6289,846.542 36.4077,843.232 31.3689,838.646C29.218,834.843 25.2452,829.634 20.1448,827.51C14.832,826.643 19.3733,817.132 16.4656,810.789C14.6133,805.983 9.01308,801.215 -0.22482,802.541C2.69335,806.847 12.3198,806.23 12.4892,812.015C12.7986,814.973 12.3079,819.145 12.3602,822.62C12.4126,826.095 13.3085,829.324 15.7897,829.466C18.3243,833.466 24.9642,834.341 25.4924,839.059C28.1062,845.385 37.1757,846.843 39.529,852.198C39.8449,855.495 39.2588,859.875 39.4066,863.58C39.5544,867.284 40.7518,870.603 43.8448,870.487C46.8983,873.278 51.5433,875.562 52.5065,879.133C60.531,913.814 94.6878,924.311 108.032,952.51Z" fill-rule="evenodd" fill="#2FB97F"/>
<path d="M1436.5,942.125L1438.51,942C1445.2,912.697 1479.99,911.527 1481.51,877.045L1482.51,876C1490.91,872.735 1496.36,865.168 1493.47,851.797L1494.51,851C1503.63,846.413 1510.34,838.279 1508.5,823.908C1518.14,819.841 1523.5,810.41 1520.49,794.867C1519.12,794.209 1517.69,795.02 1517.43,795.85C1517.18,796.679 1517.85,797.21 1517.24,796.552L1516.49,798C1516.24,799.632 1516.5,802.318 1516.57,804.62C1516.64,806.922 1516.81,808.375 1515.79,808.534C1497.94,828.205 1494.04,859.8 1476.6,878.684C1475.83,883.871 1476.62,893.035 1471.86,895.507C1464.36,895.713 1463.94,905.757 1457.78,908.537C1450.75,911.983 1448.04,922.187 1439.74,925.56C1437.33,928.039 1435.61,935.039 1436.5,942.125Z" fill-rule="evenodd" fill="#2CB480"/>
<path d="M1055,916.511C1081.5,912.242 1126.68,924.67 1140.28,906.424L1137,906L1136.49,905C1134.6,911.713 1126.64,912.737 1118.04,911.49C1109.44,911.49 1099.36,911.489 1092,911.489C1083.74,911.489 1074.04,911.49 1067.03,911.49C1060.85,910.793 1050.39,913.394 1048.44,909.745C1043.78,904.439 1040.79,895.372 1028.91,898.497C1018.22,899.564 1018.27,888.85 1013.19,885.527C1006.22,884.586 1004.79,876.716 1001.28,873.571C996.812,872.191 993.198,868.516 991.44,865.741C995.864,846.599 977.731,849.369 978.51,835.028C983.84,815.656 960.922,823.647 965.453,806.236L964.511,806C963.536,805.265 963.563,802.957 963.446,801.002C963.33,799.047 962.265,797.026 960.708,797.581C957.064,814.446 965.878,821.72 973.628,828.35C968.396,847.485 986.344,845.133 987.491,859.042C986.872,863.836 988.112,870.48 991.687,872.404C993.555,876.136 1000.76,876.925 1001.49,883.07C1005.73,887.583 1013.56,891.197 1016.53,898.199C1019.52,905.687 1039.71,898.212 1041.5,908.091C1042.22,912.969 1048.99,915.644 1055,916.511Z" fill-rule="evenodd" fill="#2FBD83"/>
<path d="M1137,906L1140.51,906C1145.2,899.87 1161.39,903.657 1171.21,901.467C1178.88,894.891 1187.91,887.294 1194.37,878.356C1198.54,876.577 1203.37,872.457 1206.43,868.283C1208.07,862.219 1217.63,861.21 1219.49,854.134C1222.08,848.314 1232.72,847.823 1232.51,837.989C1234.65,831.376 1232.63,818.835 1233.22,809.46C1231.17,814.975 1233.38,825.944 1228.71,827.581C1230.81,838.961 1226.49,845.219 1219.76,846.547C1215.8,852.55 1210.78,858.916 1204.7,861.586C1202.44,866.892 1197.84,871.398 1193.71,873.577C1185.3,882.578 1176.46,891.904 1166.8,898.529C1161.48,899.215 1154.4,898.19 1148.34,898.277C1142.28,898.363 1136.94,899.941 1136.5,904.91L1137,906Z" fill-rule="evenodd" fill="#2FBD83"/>
<path d="M1481,877L1482,876L1481,877Z" fill-rule="evenodd" fill="#FBFAF8"/>
<path d="M1493,852L1494,851L1493,852Z" fill-rule="evenodd" fill="#FBFAF8"/>
<path d="M844.788,830.535C851.269,816.315 848.505,783.672 845.982,766.489C845.491,787.79 846.574,811.639 844.788,830.535Z" fill-rule="evenodd" fill="#2CB480"/>
<path d="M1228.55,827.758C1233.22,826.121 1231.43,814.689 1233.48,809.173C1233.34,806.765 1233.11,803.409 1233.65,800.744C1234.19,798.079 1235.23,796.391 1238.22,796.459C1238.2,795.769 1237.62,794.326 1237.04,793.826C1236.45,793.326 1235.78,793.798 1236.15,793.489C1224.29,795.674 1230.5,816.83 1228.55,827.758Z" fill-rule="evenodd" fill="#2BB27A"/>
<path d="M1515.52,808.825C1516.55,808.666 1517.66,806.892 1517.59,804.589C1517.52,802.287 1517.23,799.807 1517.48,798.175C1516.45,798.334 1515.34,800.108 1515.41,802.411C1515.48,804.713 1515.77,807.193 1515.52,808.825Z" fill-rule="evenodd" fill="#33CA90"/>
<path d="M963.82,806.478L965.511,806C964.932,799.355 966.464,788.453 964.342,784.621L963,785L963.511,784C962.54,781.549 958.211,779.582 957.24,778.549L956.489,783C960.276,784.103 961.487,790.657 960.527,797.808C962.084,797.253 962.309,799.108 962.426,801.063C962.543,803.018 962.844,805.743 963.82,806.478Z" fill-rule="evenodd" fill="#28AD7A"/>
<path d="M1516.72,797.429C1517.17,797.163 1518.32,796.265 1518.82,795.681C1519.32,795.096 1519.21,794.844 1519.75,795.448L1521.51,793C1520.14,792.546 1515.39,793.696 1516.72,797.429Z" fill-rule="evenodd" fill="#33CA90"/>
<path d="M1237.87,795.505C1246.44,793.251 1247.22,780.664 1246.51,767.943L1245,767L1243,767L1241.49,766C1241.27,771.27 1241.96,777.733 1241.61,783.038C1241.26,788.343 1240.14,792.046 1235.75,792.554C1235.78,793.245 1236.38,794.674 1236.96,795.174C1237.55,795.674 1238.24,795.196 1237.87,795.505Z" fill-rule="evenodd" fill="#31BE83"/>
<path d="M963,785L964,785L963,784L963,785Z" fill-rule="evenodd" fill="#FBFAF6"/>
<path d="M954.899,783.501L957,783L957.511,779C952.468,777.853 951.695,770.859 952.475,765.188C949.923,765.994 947.837,762.719 946.813,763.524L946.489,766C947.415,772.083 949.021,781.123 954.899,783.501Z" fill-rule="evenodd" fill="#31BE83"/>
<path d="M1247.51,770C1343.86,768.641 1437.78,769.743 1533,769.511L1533,765C1441.1,765 1350.03,764.489 1257,764.489L1257.51,764C1254.89,761.334 1250.73,766.444 1247.13,764.507L1246,765L1246,764L1245,764L1245,767L1246,768L1247.51,770Z" fill-rule="evenodd" fill="#B2E8A2"/>
<path d="M0,769C194.033,769 385.099,769.511 577,769.511L577,768C385.099,768 194.033,767.489 0,767.489L0,769Z" fill-rule="evenodd" fill="#78E6A5"/>
<path d="M577.511,769C581.925,768.524 590.687,770.277 595.101,768.501C589.256,768.501 581.533,767.489 577,767.489L577.511,769Z" fill-rule="evenodd" fill="#82E6A5"/>
<path d="M599.511,769C600.564,768.412 607.302,770.394 608.354,768.368C605.617,768.368 600.278,767.489 599,767.489L599.511,769Z" fill-rule="evenodd" fill="#8AE6A5"/>
<path d="M632.945,769.508C653.258,769.14 676.805,770.088 697.02,768.511L700.511,767C700.511,757.718 700.511,747.057 700.511,739C700.511,730.06 700.511,719.708 700.511,712C700.511,697.958 700.511,682.88 700.511,670C700.511,660.376 700.511,649.405 700.511,641C700.511,633.776 700.511,624.954 700.511,619C701.441,599.641 702.979,578.143 688.261,575.561C689.231,562.243 685.291,552.363 673.997,552.489L673,553L673.511,552C668.393,548.863 663.644,542.869 657.015,542.489L656,543L656.511,542C649.953,531.814 634.282,529.848 634.511,514.015L633.511,514C633.511,510.233 633.511,504.368 633.511,502L631,502L629.489,501C512.308,505.473 388.931,502.603 268.205,503.532C267.556,502.298 264.759,502.41 262.391,502.545C260.022,502.681 258.381,503.384 258.505,502.077C255.28,501.251 253.045,503.413 251.302,502.587C247.148,494.331 241.984,495.822 237.603,501.678C224.996,513.207 209.295,529.871 195.783,542.537L194.489,542C150.712,588.549 110.076,631.213 63.6498,673.628C60.4741,676.877 55.1023,683.089 51.589,687.696C49.3275,691.279 42.3023,692.303 42.4896,697.024C40.0731,699.413 38.0285,703.266 34.8264,703.519C32.9619,705.077 29.1661,707.74 29.4941,710.072C29.293,710.744 28.8011,711.094 28.1517,711.699C27.5023,712.304 27.1337,712.586 26.9325,712.493C23.2642,715.705 19.2546,720.159 13.984,720.489L13.489,720C11.0109,724.402 6.84696,727.966 -0.193081,726.527C-0.193081,738.874 -0.511,752.833 -0.511,764C45.4844,764 92.0046,764.511 138,764.511C173.996,764.511 210.004,764.511 246,764.511C273.83,764.511 302.259,764.511 329,764.511C353.142,764.511 377.959,764.511 401,764.511C427.825,764.511 455.267,764.511 481,764.511C509.165,764.511 537.923,764.511 565,764.511C586.792,764.511 609.319,764.511 630,764.511C646.407,764.511 663.73,764.511 678.995,764.511C691.87,764.772 690.044,764.157 684.297,764.419C678.549,764.682 668.913,764.801 666.028,764.49C444.272,764.49 222.813,764.489 0,764.489L0,768C194.033,768 385.099,768.511 577,768.511C581.533,768.511 589.156,768.511 595,768.511L599,768C600.278,768 605.248,768.511 607.985,768.511C614.944,768.912 625.987,767.868 632.945,769.508ZM696.489,763L696.511,764C696.511,708.365 696.511,650.762 696.511,594C697.081,588.55 696.366,590.602 696.503,594.481C696.639,598.361 696.605,604.037 696.49,605.97C696.49,609.786 696.489,616.848 696.489,622C696.489,627.6 696.489,636.12 696.489,643C696.489,648.246 696.489,656.465 696.489,663C696.489,667.533 696.489,675.156 696.489,681C696.489,686.6 696.489,695.12 696.489,702C696.489,709.708 696.489,720.06 696.489,729C696.489,739.135 696.489,751.672 696.489,763ZM693.812,585.475L692.511,586C687.79,583.185 685.762,581.416 686.253,580.929C686.745,580.442 689.057,581.712 693.812,585.475ZM649.741,543.44L648.511,544C646.391,542.063 645.559,540.748 645.989,540.277C646.42,539.806 647.344,540.619 649.741,543.44Z" fill-rule="evenodd" fill="#F9F395"/>
<path d="M1243,767L1245,767L1244.49,764C1242.62,764.832 1243.45,763.414 1243.45,761.998C1243.44,760.583 1242.75,758.807 1241.64,759.638C1241.64,761.384 1241.49,765.782 1241.49,766L1243,767Z" fill-rule="evenodd" fill="#5CB86F"/>
<path d="M851.511,766C854.116,765.511 859.588,765.555 863.002,764.511C850.8,768.116 848.239,760.733 850.498,751.115C850.498,744.235 850.511,735.6 850.511,730C850.511,724.502 850.511,717.175 850.511,713C850.511,705.776 850.511,696.954 850.511,691C850.511,683.088 850.511,673.658 850.511,667C850.511,660.12 850.511,651.6 850.511,646C852.076,642.438 850.504,641.652 849.645,642.574C848.785,643.495 847.659,646.332 848.533,648.207C848.845,687.203 848.002,726.043 849.49,765.039L851.511,766Z" fill-rule="evenodd" fill="#DDDB83"/>
<path d="M941.984,766.511C943.42,766.511 947.111,765.489 947,765.489L946.489,764C924.859,764.325 890.972,763.354 864.981,763.489C888.707,765.16 917.081,764.924 941.984,766.511Z" fill-rule="evenodd" fill="#E4ED9E"/>
<path d="M0,765C222.813,765 444.217,765.51 665.973,765.51C668.858,765.822 678.596,765.703 684.343,765.44C690.091,765.178 691.88,763.75 679.005,763.489C663.74,763.489 646.407,763.489 630,763.489C609.319,763.489 586.792,763.489 565,763.489C537.923,763.489 509.165,763.489 481,763.489C455.267,763.489 427.825,763.489 401,763.489C377.959,763.489 353.142,763.489 329,763.489C302.259,763.489 273.83,763.489 246,763.489C210.004,763.489 173.996,763.489 138,763.489C92.0046,763.489 45.9954,763.489 0,763.489L0,765Z" fill-rule="evenodd" fill="#E4EE99"/>
<path d="M845.489,765L850.511,765C849.023,726.004 849.823,686.992 849.511,647.996C848.637,646.121 849.532,644.192 850.392,643.271C851.252,642.349 851.094,642.24 849.529,645.802C849.529,651.403 849.489,660.12 849.489,667C849.489,673.658 849.489,683.088 849.489,691C849.489,696.954 849.489,705.776 849.489,713C849.489,717.175 849.489,724.502 849.489,730C849.489,735.6 849.489,744.12 849.489,751C847.23,760.618 850.872,768.11 863.075,764.506L865.511,764C891.502,763.864 925.525,764.812 947.154,764.487C948.178,763.681 949.736,766.228 952.288,765.422C952.288,751.38 952.511,735.88 952.511,723C949.767,713.057 937.62,711.179 935.476,701.813C926.899,700.424 925.593,689.88 919.194,687.527C913.801,685.008 911.513,678.013 908.289,674.579C903.198,673.48 900.036,669.098 898.462,665.782C897.002,662.437 891.863,660.63 890.379,658.657C887.639,656.939 884.979,653.492 884.497,650.88C879.37,647.752 873.501,643.795 871.475,638.812C870.076,632.643 859.335,633.376 852.906,633.498C849.177,634.921 845.108,638.847 845.491,643.046C845.491,683.742 845.489,725.474 845.489,765ZM944.802,717.471L943.511,718C938.121,714.705 935.853,712.622 936.393,712.097C936.934,711.571 939.575,713.073 944.802,717.471Z" fill-rule="evenodd" fill="#F3ED96"/>
<path d="M1246,765L1247.51,765C1245.63,755.812 1242.65,751.544 1241.85,751.824C1241.04,752.103 1241.57,757.317 1245.67,764.387L1246,765Z" fill-rule="evenodd" fill="#E0DD82"/>
<path d="M1246.51,765.136C1250.1,767.074 1254.15,761.79 1256.77,764.455C1348.66,764.455 1440.2,764.457 1533.23,764.457C1533.23,753.129 1533.51,740.135 1533.51,730C1530.77,730 1525.4,729.504 1524.12,729.504C1518.9,726.477 1515.16,721.433 1516.5,713.084C1511.51,701.331 1500.72,693.676 1493.24,685.551L1492.51,686C1490.49,681.828 1486.87,676.739 1484.19,674.528L1482.51,676C1476.97,675.353 1477.69,665.782 1474.09,664.497L1473.51,665C1463.83,663.354 1463.87,649.836 1456.08,647.495L1453.51,648C1434.87,624.904 1410.36,606.123 1393.38,582.656C1391.61,581.688 1388.14,580.803 1388.47,579.194L1385.51,579C1382.09,570.072 1368.75,569.993 1369.51,558.065L1369.51,556C1362.62,553.949 1360.78,544.632 1356.18,541.521C1349.03,541.103 1348.97,532.157 1344.26,530.561C1342.11,527.562 1336.16,527.205 1336.51,523.042C1335.61,512.276 1318.07,516.302 1311.3,512.589C1302.46,499.98 1289.32,490.864 1280.27,479.567L1276.49,481C1272.22,481.238 1264.86,473.019 1263.02,469.489C1257.82,478.104 1250.49,481.744 1239.77,481.541C1239.79,484.244 1235.57,484.74 1230.61,484.963C1225.65,485.186 1220.01,485.109 1217.84,486.514C1208.55,486.499 1199.96,488.372 1191.02,487.49C1113.4,488.189 1044.19,497.296 968.062,499.493C955.166,495.857 951.847,503.762 942.951,505.491L941.489,505C940.369,509.542 944.575,511.494 945.677,512.396C956.085,520.754 965.809,530.698 974.72,539.427C979.136,540.509 981.182,545.174 981.491,549.041C985.571,573.85 1006.55,580.329 1020.62,597.337C1022.38,598.994 1026.4,600.129 1026.49,602.045C1027.18,602.073 1027.9,603.043 1028.4,603.627C1028.9,604.211 1029.88,604.841 1030.19,604.476C1050.53,609.949 1049.67,637.017 1076.91,634.502C1081.42,636.872 1083.58,642.811 1086.63,645.356C1088.31,650.214 1099.41,647.819 1103.96,648.51C1108.42,648.51 1114.68,648.458 1117.77,648.458C1121.46,673.939 1171.54,653.385 1187.64,665.365C1189.26,672.001 1196.43,674.692 1200.71,677.419C1204.28,680.379 1201.94,690.367 1202.49,695.061C1203.86,699.193 1210.26,700.311 1211.53,703.21C1216.66,712.462 1214.64,730.338 1226.76,731.449C1225,747.919 1234.76,754.167 1241.98,760.511C1243.09,759.679 1242.42,760.587 1242.42,762.002C1242.43,763.418 1243.25,765.33 1245.11,764.499L1246.51,764C1242.41,756.93 1241.38,753.069 1242.18,752.789C1242.99,752.51 1244.63,755.948 1246.51,765.136ZM1232.62,733.337L1232.51,734C1229.81,729.944 1228.71,726.837 1228.97,726.088C1229.23,725.339 1229.96,727.286 1232.62,733.337ZM1192.54,665.224L1192.51,666C1191.46,661.448 1185.88,657.577 1180.08,656.496C1186.61,655.572 1191.19,659.693 1192.54,665.224ZM1177.98,656.51C1164.42,658.217 1145.99,656.045 1130.02,656.49C1143.58,654.783 1162.01,656.955 1177.98,656.51ZM1086.69,638.405L1086.51,639C1083.79,636.11 1082.53,633.69 1082.72,633.011C1082.9,632.332 1083.7,633.798 1086.69,638.405ZM1077.8,630.47C1077.8,631.473 1076.26,630.628 1074.13,630.57C1072,630.512 1069.68,630.302 1068.2,630.53C1068.2,629.527 1069.74,630.372 1071.87,630.43C1074,630.488 1076.32,630.698 1077.8,630.47ZM1047.52,613.169L1047.51,614C1046.31,609.95 1041.26,605.899 1037.12,603.503C1041.96,603.906 1046.54,607.608 1047.52,613.169ZM1336.74,530.44L1335.51,531C1333.39,529.063 1332.56,527.748 1332.99,527.277C1333.42,526.806 1334.34,527.619 1336.74,530.44ZM1323.8,519.47C1323.95,520.441 1322.58,519.611 1320.63,519.569C1318.68,519.526 1316.54,519.331 1315.2,519.53C1315.05,518.559 1316.42,519.389 1318.37,519.431C1320.32,519.474 1322.46,519.669 1323.8,519.47Z" fill-rule="evenodd" fill="#F9F395"/>
<path d="M1257,765C1350.03,765 1441.1,765.511 1533,765.511L1533,764C1439.97,764 1348.9,763.489 1257,763.489L1257,765Z" fill-rule="evenodd" fill="#E4ED9E"/>
<path d="M695.489,764L697.511,763C697.511,751.672 697.511,739.135 697.511,729C697.511,720.06 697.511,709.708 697.511,702C697.511,695.12 697.511,686.6 697.511,681C697.511,675.156 697.511,667.533 697.511,663C697.511,656.465 697.511,648.246 697.511,643C697.511,636.12 697.511,627.6 697.511,622C697.511,616.848 697.511,609.816 697.511,606C697.626,604.067 697.66,598.325 697.524,594.445C697.388,590.566 696.061,588.497 695.492,593.947C695.492,650.709 695.489,708.365 695.489,764Z" fill-rule="evenodd" fill="#E3DA7D"/>
<path d="M1231.69,734.409L1233.51,733C1230.86,726.949 1228.26,725.002 1228,725.751C1227.74,726.5 1228.99,730.353 1231.69,734.409Z" fill-rule="evenodd" fill="#E0DB82"/>
<path d="M1523.86,730.491C1525.14,730.491 1530.44,730.48 1533.18,730.48C1529.05,726.01 1517.99,727.057 1520.46,717.229L1519.51,717C1519.15,716.323 1518.61,714.934 1518.08,714.038C1517.55,713.142 1516.23,712.338 1515.68,712.599C1514.34,720.948 1518.63,727.463 1523.86,730.491Z" fill-rule="evenodd" fill="#D8CC72"/>
<path d="M14.511,721C19.7816,720.67 23.5367,716.68 27.2049,713.468L25,713L23.489,711C20.085,713.786 13.8233,715.366 13.4942,719.927L14.511,721Z" fill-rule="evenodd" fill="#D3CA70"/>
<path d="M942.851,718.489L945.511,717C940.284,712.602 936.222,710.838 935.681,711.364C935.14,711.89 937.461,715.194 942.851,718.489Z" fill-rule="evenodd" fill="#E0D882"/>
<path d="M1518.65,717.371L1520.51,717C1519.88,698.195 1503.52,693.627 1495.27,683.564L1494,684L1492.49,686C1499.97,694.125 1510.74,701.68 1515.73,713.434C1516.27,713.173 1516.67,713.659 1517.2,714.555C1517.72,715.451 1518.29,716.694 1518.65,717.371Z" fill-rule="evenodd" fill="#C9C26C"/>
<path d="M25,713L26.489,713C26.6902,713.092 28.199,713.052 28.8484,712.447C29.4978,711.842 30.2372,710.934 30.4384,710.263L29.511,710C29.876,708.917 29.2113,707.737 28.6271,707.237C28.0428,706.737 26.5488,706.739 26.5208,706.823C25.5812,707.951 23.628,710.336 23.5295,710.801L25,713Z" fill-rule="evenodd" fill="#D4C66F"/>
<path d="M28.8382,709.515L30.511,710C30.1829,707.667 33.5085,705.906 35.3731,704.349C35.3453,703.659 34.622,702.326 34.0377,701.826C33.4534,701.326 32.7724,701.802 33.1373,701.492C30.0663,702.188 26.6179,704.69 26.4933,706.934C27.3384,706.807 27.9605,707.772 28.2909,708.526C28.6214,709.28 29.005,709.404 28.8382,709.515Z" fill-rule="evenodd" fill="#D0C76F"/>
<path d="M34.8218,703.521C38.0239,703.267 40.81,699.847 43.2265,697.458L42,697L40,695L38.489,695C37.2748,697.553 33.7559,699.467 32.601,700.681C32.6288,701.371 33.378,702.674 33.9623,703.174C34.5466,703.674 35.1867,703.212 34.8218,703.521Z" fill-rule="evenodd" fill="#D0C76F"/>
<path d="M42,697L43.511,697C43.3238,692.279 50.0558,691.983 52.3173,688.401L50,686L49,686L47.489,687C43.4822,687.799 39.9626,690.849 39.5107,693.853L40,695L42,697Z" fill-rule="evenodd" fill="#D0C76F"/>
<path d="M39,695L40,695L40,694L39,695Z" fill-rule="evenodd" fill="#FBFAF6"/>
<path d="M52.511,688C56.0243,683.392 61.0571,677.704 64.2327,674.455L62,674L61.489,673C55.2113,674.634 52.1639,680.441 49.6722,684.608L50,686L52.511,688Z" fill-rule="evenodd" fill="#D0C36F"/>
<path d="M48,687L49,686L48,687Z" fill-rule="evenodd" fill="#FBFAF6"/>
<path d="M49,686L50,686L50,685L49,686Z" fill-rule="evenodd" fill="#FBFAF6"/>
<path d="M1491.63,686.355L1493,686L1494,684L1494.51,683C1493.45,678.566 1489.36,674.375 1486.07,673.494L1485,675L1483.49,675C1486.17,677.211 1489.61,682.183 1491.63,686.355Z" fill-rule="evenodd" fill="#CDC470"/>
<path d="M1494,684L1495,684L1494,683L1494,684Z" fill-rule="evenodd" fill="#FBFAF8"/>
<path d="M1481.97,676.51L1484,675L1485,675L1485.51,673C1481.19,671.13 1479.95,663.499 1476.07,662.493L1475,663L1473.49,665C1477.09,666.286 1476.43,675.863 1481.97,676.51Z" fill-rule="evenodd" fill="#CDC470"/>
<path d="M1485,675L1486,674L1485,673L1485,675Z" fill-rule="evenodd" fill="#FBFAF8"/>
<path d="M62,674L64.511,674C110.938,631.585 151.463,589 195.24,542.451L194.489,540C149.636,583.718 105.49,626.569 61.7622,672.548L62,674Z" fill-rule="evenodd" fill="#FBFAF6"/>
<path d="M1188,666L1188,665L1188,666Z" fill-rule="evenodd" fill="#FBFAF6"/>
<path d="M1191.54,666.214L1193.51,665C1192.16,659.469 1186.44,655.572 1179.92,656.496C1185.72,657.577 1190.49,661.662 1191.54,666.214Z" fill-rule="evenodd" fill="#E5DC81"/>
<path d="M1472.96,665.509L1474,665L1475,663L1475.51,662C1467.21,659.649 1466.71,647.244 1458.02,646.489L1456,647L1455.49,648C1463.28,650.341 1463.27,663.863 1472.96,665.509Z" fill-rule="evenodd" fill="#D0C36F"/>
<path d="M1475,663L1476,663L1475,662L1475,663Z" fill-rule="evenodd" fill="#FBFAF8"/>
<path d="M1129.98,656.49C1145.94,656.045 1164.47,658.217 1178.02,656.51C1162.06,656.955 1143.53,654.783 1129.98,656.49Z" fill-rule="evenodd" fill="#E3DD81"/>
<path d="M1452.73,648.434L1456,648L1456,647L1456,645L1455,645L1455.51,644C1436.77,622.746 1415.5,603.284 1396.24,582.55L1392.49,583C1409.47,606.467 1434.09,625.338 1452.73,648.434Z" fill-rule="evenodd" fill="#D0C36F"/>
<path d="M1456,647L1458,647L1456,645L1456,647Z" fill-rule="evenodd" fill="#FBFAF8"/>
<path d="M1455,645L1456,645L1455,644L1455,645Z" fill-rule="evenodd" fill="#FBFAF8"/>
<path d="M1085.76,639.451L1087.51,638C1084.53,633.394 1081.91,632.066 1081.73,632.745C1081.55,633.425 1083.04,636.562 1085.76,639.451Z" fill-rule="evenodd" fill="#E3DA81"/>
<path d="M1077,635L1077,634L1077,635Z" fill-rule="evenodd" fill="#FBFAF6"/>
<path d="M1067.49,631.001C1068.97,630.773 1071.97,631.534 1074.1,631.592C1076.23,631.65 1078.51,631.002 1078.51,629.999C1077.03,630.227 1074.03,629.466 1071.9,629.408C1069.77,629.35 1067.49,629.998 1067.49,631.001Z" fill-rule="evenodd" fill="#E3DA81"/>
<path d="M1046.56,614.26L1048.51,613C1047.54,607.439 1041.74,603.902 1036.9,603.5C1041.04,605.895 1045.36,610.21 1046.56,614.26Z" fill-rule="evenodd" fill="#E3DA81"/>
<path d="M1030,605L1030,604L1030,605Z" fill-rule="evenodd" fill="#FBFAF6"/>
<path d="M1027,603L1027,602L1027,603Z" fill-rule="evenodd" fill="#FBFAF6"/>
<path d="M1021,598L1021,597L1021,598Z" fill-rule="evenodd" fill="#FBFAF6"/>
<path d="M1021.11,597.5C1007.04,580.492 986.565,573.65 982.485,548.84L981.511,549C980.958,544.401 976.95,540.976 975.412,538.698C966.502,529.969 956.598,519.884 946.19,511.526L944.489,515C950.07,516.987 951.372,525.598 955.804,527.472C960.708,529.448 964.114,533.979 965.52,538.174C981.306,559.384 992.677,585.933 1021.11,597.5Z" fill-rule="evenodd" fill="#FBFAF6"/>
<path d="M691.854,586.49L694.511,585C689.756,581.237 686.025,579.716 685.534,580.203C685.042,580.69 687.133,583.675 691.854,586.49Z" fill-rule="evenodd" fill="#E2DB7E"/>
<path d="M1392.87,583.493L1396.51,583C1393.7,581.002 1389.44,578.055 1388.38,575.661L1387.49,579C1387.16,580.609 1391.1,582.525 1392.87,583.493Z" fill-rule="evenodd" fill="#FBFAF8"/>
<path d="M1384.59,579.311L1388,579L1388.51,576C1384.59,568.249 1374.38,565.186 1371.4,557.682L1368.49,558C1367.73,569.928 1381.17,570.383 1384.59,579.311Z" fill-rule="evenodd" fill="#D0C36F"/>
<path d="M1369,558L1371,558L1369,556L1369,558Z" fill-rule="evenodd" fill="#FBFAF8"/>
<path d="M673,553L674,553L673,552L673,553Z" fill-rule="evenodd" fill="#FBFAF6"/>
<path d="M980.503,549.12L982.511,549C982.202,545.133 979.268,539.593 974.851,538.511C976.39,540.789 979.95,544.521 980.503,549.12Z" fill-rule="evenodd" fill="#E7DF85"/>
<path d="M647.788,544.465L650.511,543C648.114,540.179 645.666,539.116 645.235,539.587C644.804,540.058 645.668,542.528 647.788,544.465Z" fill-rule="evenodd" fill="#E5DC81"/>
<path d="M196.511,543C210.023,530.334 225.542,514.018 238.149,502.489C233.089,503.652 236.935,499.037 234.786,499.536C221.054,511.957 207.161,524.924 195.738,538.561L195,540L195,542L196.511,543Z" fill-rule="evenodd" fill="#D0C36F"/>
<path d="M656,543L657,543L656,542L656,543Z" fill-rule="evenodd" fill="#FBFAF6"/>
<path d="M195,540L196,539L195,540Z" fill-rule="evenodd" fill="#FBFAF6"/>
<path d="M1334.79,531.465L1337.51,530C1335.11,527.179 1332.67,526.116 1332.24,526.587C1331.8,527.058 1332.67,529.528 1334.79,531.465Z" fill-rule="evenodd" fill="#E8DF81"/>
<path d="M1314.52,520.175C1315.86,519.977 1318.66,520.548 1320.61,520.59C1322.56,520.633 1324.63,519.796 1324.48,518.825C1323.14,519.023 1320.34,518.452 1318.39,518.41C1316.44,518.367 1314.37,519.204 1314.52,520.175Z" fill-rule="evenodd" fill="#E5DC81"/>
<path d="M942.781,515.462L945,515L946.511,512C945.409,511.098 941.376,509.663 942.497,505.121C942.551,502.329 938.618,500.044 937.881,499.503C936.126,507.793 940.09,512.906 942.781,515.462Z" fill-rule="evenodd" fill="#CAB96D"/>
<path d="M632.489,514L634.511,514C634.511,510.233 634.511,504.368 634.511,502L632.489,502C632.489,504.368 632.489,510.233 632.489,514Z" fill-rule="evenodd" fill="#CBB069"/>
<path d="M943.511,506C952.408,504.271 955.076,496.875 967.972,500.51C1050.76,486.645 1150.85,490.005 1240.02,482.511C1250.73,482.714 1258.23,478.893 1263.43,470.278C1242.64,447.783 1220.76,426.713 1199.37,403.649C1156.03,360.583 1111.75,317.546 1071.38,272.654C1058.36,259.513 1046.09,244.356 1031.88,233.504C1031.7,239.953 1020.56,235.821 1012.87,240.506C996.775,239.47 983.303,241.881 969.007,241.489C956.999,241.489 943.762,241.493 932.938,241.493C924.694,243.555 911.527,242.003 902.92,242.495C895.33,244.529 882.345,242.556 875.886,244.502C863.406,246.402 849.559,247.903 835.929,247.494C828.152,250.023 813.287,246.794 806.894,249.5C799.67,249.5 790.96,249.489 785.006,249.489C779.014,249.341 771.115,249.263 767.835,250.516C753.503,254.707 738.305,250.369 726.041,248.412C713.777,246.456 704.107,247.293 702.494,260.928C712.378,269.811 722.476,279.809 730.603,289.321C733.272,293.533 745.861,289.572 748.656,292.378C752.698,295.216 754.041,302.759 758.9,303.501C786.838,310.56 839.165,292.752 850.598,316.315C879.604,322.643 894.373,341.802 903.522,369.18C919.003,386.215 906.868,431.355 912.512,457.152C913.121,457.415 913.648,458.487 914.111,459.278C914.574,460.07 915.639,460.91 916.179,460.479C916.869,460.506 916.897,461.043 917.397,461.627C917.898,462.211 918.913,462.825 919.223,462.46C927.686,463.621 923.356,478.008 925.542,484.227C926.151,484.49 926.648,485.487 927.111,486.278C927.574,487.07 928.48,487.941 929.02,487.511C933.323,490.432 938.983,492.444 937.504,499.877C938.241,500.418 941.544,502.189 941.489,504.98L943.511,506Z" fill-rule="evenodd" fill="#F9D396"/>
<path d="M267.65,504.372C388.376,503.443 512.829,505.984 630.01,501.511L629.489,500C505.325,500.639 378.469,498.542 257.768,501.545C257.644,502.853 260.081,503.701 262.449,503.566C264.818,503.43 267,503.138 267.65,504.372Z" fill-rule="evenodd" fill="#F9E596"/>
<path d="M250.577,503.287C252.321,504.113 254.716,501.682 257.942,502.508C378.643,499.505 506.065,501.095 630.229,500.457C630.575,476.996 629.97,451.204 631.509,430.039C630.676,428.473 627.859,425.574 627.026,425.49L626,426L626.511,425C623.609,422.404 621.226,417.492 621.51,413.032C621.51,408.227 621.511,401.456 621.511,398C626.217,379.591 604.393,386.763 608.496,370.122C604.671,354.509 590.513,347.633 582.266,337.564L581,338L581.511,337C577.64,327.168 559.94,329.684 556.402,320.684L555,321L555,320L553,320L553.511,319C544.475,318.071 542.455,308.087 537.241,304.549C531.606,302.616 528.888,296.465 526.384,292.663C521.902,290.61 517.397,287.051 515.448,283.754C514.826,278.186 507.846,276.456 501.916,277.496C493.339,278.848 491.145,272.912 488.409,269.694C487.104,264.808 480.355,263.637 478.408,260.693C475.766,258.53 474.72,252.368 471.128,252.505C467.873,250.345 465.099,252.993 463.054,256.125C461.008,259.257 459.34,262.907 456.777,263.54C429.548,290.55 402.464,316.866 374.772,344.543L374,346L373,347L372,348L371,349L370,351L369,353L368,354L367,355L366.511,356C365.602,355.963 363.771,355.888 362.962,356.334C362.153,356.779 361.518,358.13 361.664,358.385L361,359L360,360L359,361L358,362L357,364L356,366L355,367L354,368L353.511,369C352.602,368.963 350.771,368.888 349.962,369.334C349.153,369.779 348.518,371.13 348.664,371.385L348,372L347,373L346,374L345,375L344,377L343,379L342,380L341,381L340,382L338,383L337,384L335,385L334,386L333,387L332,388L331,390L330,391L329,393L328,394L327,395L326.511,396C325.602,395.963 323.771,395.888 322.962,396.334C322.153,396.779 321.518,398.13 321.664,398.385L320.489,399C316.63,405.788 309.252,409.875 304.607,414.674C302.556,421.563 293.676,423.135 290.564,427.733C290.146,434.883 281.115,435.113 279.52,439.825C264.796,460.098 255.486,485.096 234.894,499.5C237.043,499.001 233.178,503.616 238.238,502.452C242.619,496.597 246.424,495.031 250.577,503.287ZM582.734,344.436L581.511,345C580.689,344.11 580.389,343.35 580.752,342.905C581.116,342.461 581.365,342.769 582.734,344.436ZM530.741,305.44L529.511,306C527.391,304.063 526.559,302.748 526.989,302.277C527.42,301.806 528.344,302.619 530.741,305.44Z" fill-rule="evenodd" fill="#F9D396"/>
<path d="M631,502L633,502L634.511,502C632.905,478.458 636.899,447.604 630.961,429.49C629.422,450.655 629.835,476.524 629.489,499.985L630,501L631,502Z" fill-rule="evenodd" fill="#D6AD74"/>
<path d="M967.965,499.49C1044.09,497.294 1113.35,489.21 1190.98,488.51C1199.92,489.393 1208.84,487.479 1218.13,487.493C1220.3,486.089 1225.7,486.207 1230.66,485.984C1235.62,485.761 1240.53,484.697 1240.51,481.994C1151.35,489.488 1050.76,485.625 967.965,499.49Z" fill-rule="evenodd" fill="#F9E796"/>
<path d="M931,489L932,488L931,489Z" fill-rule="evenodd" fill="#FBFAF6"/>
<path d="M929,488L929,487L929,488Z" fill-rule="evenodd" fill="#FBFAF6"/>
<path d="M926,485L926,484L926,485Z" fill-rule="evenodd" fill="#FBFAF6"/>
<path d="M1277.01,481.511L1280.51,480C1254.5,455.273 1229.43,427.911 1203.21,404.533L1201,405L1198.49,404C1219.87,427.064 1241.82,447.833 1262.61,470.328C1264.46,473.858 1272.74,481.749 1277.01,481.511Z" fill-rule="evenodd" fill="#D2A471"/>
<path d="M919,463L919,462L919,463Z" fill-rule="evenodd" fill="#FBFAF6"/>
<path d="M916,461L916,460L916,461Z" fill-rule="evenodd" fill="#FBFAF6"/>
<path d="M913,458L913,457L913,458Z" fill-rule="evenodd" fill="#FBFAF6"/>
<path d="M626,426L627,426L626,425L626,426Z" fill-rule="evenodd" fill="#FBFAF6"/>
<path d="M1201,405L1203.51,405C1160.26,360.169 1115.43,314.987 1070.98,272.489C1111.36,317.381 1155.43,361.392 1198.77,404.458L1201,405Z" fill-rule="evenodd" fill="#FBFAF8"/>
<path d="M321,399L322,398L321,399Z" fill-rule="evenodd" fill="#FBFAF6"/>
<path d="M326,396L327,395L326,396Z" fill-rule="evenodd" fill="#FBFAF6"/>
<path d="M327,395L328,394L327,395Z" fill-rule="evenodd" fill="#FBFAF6"/>
<path d="M328,394L329,393L328,394Z" fill-rule="evenodd" fill="#FBFAF6"/>
<path d="M329,393L330,391L329,393Z" fill-rule="evenodd" fill="#FBFAF6"/>
<path d="M330,391L331,390L330,391Z" fill-rule="evenodd" fill="#FBFAF6"/>
<path d="M331,390L332,388L331,390Z" fill-rule="evenodd" fill="#FBFAF6"/>
<path d="M332,388L333,387L332,388Z" fill-rule="evenodd" fill="#FBFAF6"/>
<path d="M333,387L334,386L333,387Z" fill-rule="evenodd" fill="#FBFAF6"/>
<path d="M334,386L335,385L334,386Z" fill-rule="evenodd" fill="#FBFAF6"/>
<path d="M337,384L338,383L337,384Z" fill-rule="evenodd" fill="#FBFAF6"/>
<path d="M340,382L341,381L340,382Z" fill-rule="evenodd" fill="#FBFAF6"/>
<path d="M341,381L342,380L341,381Z" fill-rule="evenodd" fill="#FBFAF6"/>
<path d="M342,380L343,379L342,380Z" fill-rule="evenodd" fill="#FBFAF6"/>
<path d="M343,379L344,377L343,379Z" fill-rule="evenodd" fill="#FBFAF6"/>
<path d="M344,377L345,375L344,377Z" fill-rule="evenodd" fill="#FBFAF6"/>
<path d="M345,375L346,374L345,375Z" fill-rule="evenodd" fill="#FBFAF6"/>
<path d="M346,374L347,373L346,374Z" fill-rule="evenodd" fill="#FBFAF6"/>
<path d="M347,373L348,372L347,373Z" fill-rule="evenodd" fill="#FBFAF6"/>
<path d="M348,372L349,371L348,372Z" fill-rule="evenodd" fill="#FBFAF6"/>
<path d="M906,371L907,370L906,371Z" fill-rule="evenodd" fill="#FBFAF6"/>
<path d="M904,370L904,369L904,370Z" fill-rule="evenodd" fill="#FBFAF6"/>
<path d="M353,369L354,368L353,369Z" fill-rule="evenodd" fill="#FBFAF6"/>
<path d="M354,368L355,367L354,368Z" fill-rule="evenodd" fill="#FBFAF6"/>
<path d="M355,367L356,366L355,367Z" fill-rule="evenodd" fill="#FBFAF6"/>
<path d="M356,366L357,364L356,366Z" fill-rule="evenodd" fill="#FBFAF6"/>
<path d="M357,364L358,362L357,364Z" fill-rule="evenodd" fill="#FBFAF6"/>
<path d="M358,362L359,361L358,362Z" fill-rule="evenodd" fill="#FBFAF6"/>
<path d="M359,361L360,360L359,361Z" fill-rule="evenodd" fill="#FBFAF6"/>
<path d="M360,360L361,359L360,360Z" fill-rule="evenodd" fill="#FBFAF6"/>
<path d="M361,359L362,358L361,359Z" fill-rule="evenodd" fill="#FBFAF6"/>
<path d="M366,356L367,355L366,356Z" fill-rule="evenodd" fill="#FBFAF6"/>
<path d="M367,355L368,354L367,355Z" fill-rule="evenodd" fill="#FBFAF6"/>
<path d="M368,354L369,353L368,354Z" fill-rule="evenodd" fill="#FBFAF6"/>
<path d="M369,353L370,351L369,353Z" fill-rule="evenodd" fill="#FBFAF6"/>
<path d="M370,351L371,349L370,351Z" fill-rule="evenodd" fill="#FBFAF6"/>
<path d="M371,349L372,348L371,349Z" fill-rule="evenodd" fill="#FBFAF6"/>
<path d="M372,348L373,347L372,348Z" fill-rule="evenodd" fill="#FBFAF6"/>
<path d="M373,347L374,346L373,347Z" fill-rule="evenodd" fill="#FBFAF6"/>
<path d="M374,346L375,345L374,346Z" fill-rule="evenodd" fill="#FBFAF6"/>
<path d="M580.757,345.449L583.511,344C582.142,342.332 580.324,341.814 579.961,342.259C579.598,342.703 579.934,344.56 580.757,345.449Z" fill-rule="evenodd" fill="#E3BE83"/>
<path d="M581,338L582,338L581,337L581,338Z" fill-rule="evenodd" fill="#FBFAF6"/>
<path d="M555,321L556,321L555,320L555,321Z" fill-rule="evenodd" fill="#FBFAF6"/>
<path d="M553,320L553,319L553,320Z" fill-rule="evenodd" fill="#FBFAF6"/>
<path d="M851,317L851,316L851,317Z" fill-rule="evenodd" fill="#FBFAF6"/>
<path d="M528.788,306.465L531.511,305C529.114,302.179 526.666,301.116 526.235,301.587C525.804,302.058 526.668,304.528 528.788,306.465Z" fill-rule="evenodd" fill="#E2BB7F"/>
<path d="M759,304L759,303L759,304Z" fill-rule="evenodd" fill="#FBFAF6"/>
<path d="M749,293L749,292L749,293Z" fill-rule="evenodd" fill="#FBFAF6"/>
<path d="M733,291L734,290L733,291Z" fill-rule="evenodd" fill="#FBFAF6"/>
<path d="M731,290L731,289L731,290Z" fill-rule="evenodd" fill="#FBFAF6"/>
<path d="M700.503,261.118L703.511,261C705.124,247.365 713.616,247.465 725.88,249.422C738.144,251.378 753.83,255.676 768.161,251.485C771.441,250.231 779.001,250.363 784.994,250.511C790.948,250.511 799.873,250.502 807.098,250.502C813.49,247.796 828.297,251.035 836.074,248.506C849.704,248.915 863.631,247.399 876.111,245.499C882.57,243.553 895.492,245.538 903.082,243.504C911.689,243.012 924.819,244.569 933.063,242.507C943.887,242.507 956.985,242.511 968.993,242.511C983.289,242.903 997.021,240.462 1013.11,241.498C1020.8,236.813 1032.34,240.463 1032.51,234.014C1031.67,229.873 1031.93,224.21 1031.27,219.708C1030.61,215.206 1028.69,211.369 1024.17,211.518C1018.09,204.911 1012.26,197.204 1005.34,192.618C1002.18,184.787 991.781,183.29 989.473,175.808C982.685,171.949 978.087,164.224 973.288,159.578C966.399,157.527 964.902,148.701 960.304,145.59C921.54,110.743 887.841,71.4019 845.984,38.4893C859.416,50.541 871.138,65.4786 883.641,77.3633C893.297,88.1542 905.299,97.2999 913.605,108.324C921.911,115.75 930.794,123.664 937.66,131.382C945.981,135.408 948.975,145.971 956.7,149.414C960.113,157.309 970.451,161.539 975.606,169.325C985.119,174.869 989.604,186.572 998.68,191.399C1001.81,200.616 1013.84,201.715 1016.53,210.195C1023.02,214.006 1029.44,218.831 1026.51,230.867C1021.18,237.791 1003.49,233.147 990.952,235.491C976.234,235.491 960.561,235.489 946.999,235.489C934.044,235.56 919.242,234.918 908.961,236.49C897.293,236.49 884.5,236.489 874.021,236.489C862.81,235.586 854.15,238.498 844.044,237.491C829.262,236.412 817.257,239.172 804.037,238.49C793.408,237.486 785.345,240.385 776.047,239.491C768.118,238.786 760.586,240.145 754.977,240.49C742.662,240.862 727.346,239.601 717.775,241.541C718.708,242.634 719.06,244.376 718.755,245.208C718.45,246.04 717.942,245.962 715.228,244.543C706.203,240.37 683.878,237.899 679.57,246.724C687.208,250.754 699.389,251.753 700.503,261.118Z" fill-rule="evenodd" fill="#FBFAF6"/>
<path d="M679,247L680,247L679,246L679,247Z" fill-rule="evenodd" fill="#FBFAF6"/>
<path d="M680.511,247C684.819,238.175 705.751,241.287 714.776,245.46C717.49,246.879 719.41,246.392 719.714,245.56C720.019,244.728 719.236,242.682 718.304,241.589C727.874,239.649 742.709,241.883 755.023,241.51C760.633,241.166 768.024,239.804 775.953,240.509C785.251,241.402 793.334,238.505 803.963,239.51C817.182,240.191 829.174,237.43 843.956,238.509C854.062,239.516 862.769,236.607 873.979,237.511C884.459,237.511 897.37,237.51 909.039,237.51C919.319,235.937 934.047,236.582 947.001,236.511C960.564,236.511 976.329,236.509 991.047,236.509C1003.58,234.164 1022.09,238.215 1027.42,231.291C1030.36,219.255 1023.83,213.42 1017.33,209.61C1014.64,201.129 1002.6,200.006 999.465,190.789C990.389,185.962 985.825,174.14 976.313,168.596C971.158,160.81 960.851,156.633 957.438,148.737C949.714,145.295 946.601,134.599 938.281,130.573C931.414,122.855 922.664,115.061 914.358,107.636C906.052,96.6111 894.031,87.4429 884.374,76.652C871.871,64.7674 859.808,50.7055 846.376,38.6537C845.854,37.1073 840.525,37.5724 840.043,37.4908L839,38L839.511,37C835.591,35.422 834.046,28.4412 829.767,28.5452C829.784,29.5967 828.538,29.642 827.03,29.5544C825.521,29.4668 823.977,30.2121 823.994,30.511C822.456,10.2569 784.602,25.7393 789.477,0.182168C778.49,0.182168 765.739,-0.508488 755.949,-0.508488C747.1,1.28912 729.824,-3.39208 726.543,2.77125C727.118,8.32942 724.789,10.7428 720.826,11.9401C716.863,13.1375 711.577,12.8581 706.853,12.5105C700.733,18.0588 696.056,26.4666 688.698,29.588C686.449,37.3045 677.728,40.0705 673.594,44.6891C672.818,52.168 663.2,52.5196 661.514,57.8423C657.737,66.0734 646.4,67.9117 644.512,76.8472C637.701,79.3185 633.649,85.6326 630.619,90.6596C624.858,92.467 620.894,97.5531 618.656,101.622C603.614,101.636 611.161,125.201 602.668,130.612C600.65,134.927 593.97,139.012 589.009,143.226C584.048,147.44 580.852,152.596 585.715,157.424C593.896,159.549 596.039,168.277 594.495,178.919C595.809,180.684 598.468,184.28 599.89,184.499C606.516,186.471 607.887,195.194 612.934,197.507C635.042,193.491 634.768,212.441 646.734,217.436C656.477,228.141 669.332,236.552 678.763,246.452L680.511,247ZM591.95,156.509L590.511,157C588.635,156.472 586.636,154.414 586.114,152.457C585.592,150.501 585.861,149.126 589.824,148.48C589.724,148.669 585.494,155.239 591.95,156.509Z" fill-rule="evenodd" fill="#F9A6A9"/>
<path d="M647,218L647,217L647,218Z" fill-rule="evenodd" fill="#FBFAF6"/>
<path d="M613,198L613,197L613,198Z" fill-rule="evenodd" fill="#FBFAF6"/>
<path d="M600,185L600,184L600,185Z" fill-rule="evenodd" fill="#FBFAF6"/>
<path d="M595,180L595,179L595,180Z" fill-rule="evenodd" fill="#FBFAF6"/>
<path d="M588,159L589,158L588,159Z" fill-rule="evenodd" fill="#FBFAF6"/>
<path d="M586,158L586,157L586,158Z" fill-rule="evenodd" fill="#FBFAF6"/>
<path d="M589.929,157.506L592.511,156C586.055,154.73 590.211,148.594 590.311,148.405C586.348,149.051 584.605,150.764 585.127,152.721C585.649,154.677 588.053,156.978 589.929,157.506Z" fill-rule="evenodd" fill="#DD888F"/>
<path d="M839,38L840,38L839,37L839,38Z" fill-rule="evenodd" fill="#FBFAF8"/>
<path d="M824.004,30.511C823.987,30.2122 825.462,30.4871 826.971,30.5747C828.479,30.6622 830.528,30.0375 830.511,28.9859C821.98,27.2103 819.739,17.0453 814.168,13.5175C808.638,13.2141 802.466,13.2733 798.132,11.6264C793.797,9.97947 791.583,7.34672 793.452,0.237835L788.489,0C783.613,25.5571 822.466,10.257 824.004,30.511Z" fill-rule="evenodd" fill="#CC7C85"/>
</g>
<g id="layer1">
<path d="M727,1529.58C727,1527.35 726.093,1525.08 724.411,1523.08C721.998,1520.21 721.37,1520 715.161,1520C707.394,1519.99 703.452,1518.09 700.146,1512.74C698.967,1510.83 696.205,1508.08 694.01,1506.62C691.814,1505.17 688.805,1502.15 687.323,1499.91C685.841,1497.67 682.728,1494.53 680.405,1492.93C678.081,1491.34 675.199,1488.44 674,1486.5C672.801,1484.56 669.876,1481.63 667.5,1480C665.124,1478.37 662.199,1475.44 661,1473.5C659.801,1471.56 656.876,1468.63 654.5,1467C652.124,1465.37 649.199,1462.44 648,1460.5C646.801,1458.56 643.848,1455.62 641.438,1453.96C639.029,1452.3 635.7,1448.97 634.043,1446.56C632.385,1444.15 629.44,1441.2 627.5,1440C625.56,1438.8 622.635,1435.88 621,1433.5C619.365,1431.12 616.44,1428.2 614.5,1427C612.56,1425.8 609.664,1422.92 608.066,1420.6C606.467,1418.27 603.379,1415.19 601.203,1413.75C599.027,1412.31 596.25,1409.52 595.033,1407.55C593.816,1405.58 590.821,1402.6 588.377,1400.92C585.934,1399.23 582.789,1396.13 581.388,1394.01C579.987,1391.89 577.108,1389.01 574.99,1387.61C572.873,1386.21 569.765,1383.07 568.084,1380.62C566.403,1378.18 563.44,1375.2 561.5,1374C559.56,1372.8 556.635,1369.88 555,1367.5C553.365,1365.12 550.44,1362.2 548.5,1361C546.56,1359.8 543.635,1356.88 542,1354.5C540.365,1352.12 537.44,1349.2 535.5,1348C533.56,1346.8 530.664,1343.92 529.066,1341.6C527.467,1339.27 524.327,1336.16 522.088,1334.68C519.849,1333.2 516.852,1330.22 515.429,1328.07C514.005,1325.92 511.108,1323.01 508.99,1321.61C506.873,1320.21 503.738,1317.03 502.023,1314.53C500.309,1312.04 497.557,1309.31 495.909,1308.45C491.171,1306 489.008,1301.51 489.004,1294.1C489,1287.87 488.887,1287.59 484.834,1283.85C482.542,1281.73 480.314,1280 479.882,1280C479.45,1280 477.693,1277.96 475.978,1275.47C474.263,1272.97 471.127,1269.79 469.01,1268.39C466.892,1266.99 463.995,1264.08 462.571,1261.93C461.148,1259.78 458.223,1256.85 456.071,1255.43C453.92,1254 450.995,1251.08 449.571,1248.93C448.148,1246.78 445.25,1243.87 443.133,1242.47C441.015,1241.07 437.866,1237.95 436.135,1235.54C434.404,1233.13 431.409,1230.18 429.48,1228.99C427.55,1227.8 424.597,1224.82 422.916,1222.38C421.235,1219.93 418.127,1216.79 416.01,1215.39C413.892,1213.99 410.995,1211.08 409.571,1208.93C408.148,1206.78 405.223,1203.85 403.071,1202.43C400.92,1201 397.995,1198.08 396.571,1195.93C395.148,1193.78 392.223,1190.85 390.071,1189.43C387.92,1188 384.995,1185.08 383.571,1182.93C382.148,1180.78 379.151,1177.8 376.912,1176.32C374.673,1174.84 371.533,1171.73 369.934,1169.4C368.336,1167.08 365.44,1164.2 363.5,1163C361.56,1161.8 358.597,1158.82 356.916,1156.38C355.235,1153.93 352.127,1150.79 350.01,1149.39C347.892,1147.99 344.995,1145.08 343.571,1142.93C342.148,1140.78 339.223,1137.85 337.071,1136.43C334.92,1135 331.995,1132.08 330.571,1129.93C329.148,1127.78 326.223,1124.85 324.071,1123.43C321.92,1122 319.013,1119.11 317.612,1116.99C316.211,1114.87 313.066,1111.77 310.623,1110.08C308.179,1108.4 305.205,1105.45 304.013,1103.52C302.82,1101.59 299.872,1098.6 297.462,1096.87C295.051,1095.13 291.932,1091.99 290.531,1089.87C289.13,1087.75 286.223,1084.85 284.071,1083.43C281.92,1082 278.995,1079.08 277.571,1076.93C276.148,1074.78 273.223,1071.85 271.071,1070.43C268.92,1069 265.995,1066.08 264.571,1063.93C263.148,1061.78 260.223,1058.85 258.073,1057.43C255.922,1056.01 252.912,1053.04 251.385,1050.83C249.857,1048.63 246.711,1045.52 244.394,1043.93C242.077,1042.33 239.217,1039.47 238.039,1037.56C236.861,1035.66 234.027,1032.72 231.74,1031.04C229.454,1029.36 225.974,1025.85 224.007,1023.24C220.574,1018.69 220.208,1018.49 214.965,1018.25C204.311,1017.76 202.915,1017.2 197.032,1010.98L191.5,1005.13L177.791,1004.25L164.082,1003.38L151.248,990.438C144.189,983.322 137.533,976.78 136.457,975.9C135.381,975.02 132.875,972.309 130.89,969.876C128.038,966.383 126.042,965.063 121.39,963.598C114.16,961.321 109.944,957.14 107.032,949.355C105.285,944.686 103.073,941.88 94.415,933.347C88.6408,927.656 83.5719,923 83.1507,923C82.7296,923 80.971,920.994 79.2429,918.542C77.5147,916.09 74.5526,913.07 72.6606,911.829C70.7685,910.589 67.7537,907.425 65.9611,904.798C64.1684,902.171 61.1717,899.119 59.3018,898.016C55.087,895.529 53,890.753 53,883.595C53,877.752 52.9502,877.677 44.0746,870.188C40.9416,867.544 40.6172,866.751 40.2757,860.899C39.7036,851.095 39.3577,850.327 33.6005,846.074C30.6459,843.892 27.2543,840.53 26.0638,838.603C24.8733,836.677 22.3005,834.113 20.3466,832.905C14.9137,829.547 13.0081,825.637 13.0037,817.839C13.0003,811.63 12.7909,811.002 9.92327,808.589C7.92452,806.907 5.64716,806 3.42327,806C0.666667,806 0,805.611 0,804C0,800.089 9.25143,802.303 13.878,807.322C15.7353,809.337 16.4163,811.539 16.9883,817.38L17.7205,824.859L29.8103,836.733C36.4596,843.263 42.3725,849.85 42.95,851.368C43.5275,852.887 44,856.408 44,859.193C44,864.067 44.2197,864.466 49.9156,869.919C56.0025,875.747 56.2225,876.247 57.3659,886.843C57.759,890.485 58.6946,892.028 63.1673,896.407C66.1003,899.28 75.7,908.942 84.5,917.88C93.3,926.818 102.015,935.51 103.866,937.195C105.717,938.881 108.698,943.464 110.489,947.38C114.359,955.841 115.711,957.179 123.225,959.986C126.867,961.347 130.323,963.59 132.725,966.152C143.976,978.156 165.342,998.594 167.271,999.199C168.497,999.583 175.091,1000.29 181.924,1000.77L194.349,1001.65L199.424,1007.37L204.5,1013.09L212.677,1013.91L220.854,1014.73L356.358,1150.24C472.889,1266.78 491.935,1286.22 492.38,1289.13C492.664,1290.98 493.093,1294.34 493.332,1296.59C493.749,1300.51 498.014,1304.92 601.404,1408.34L709.042,1516L714.62,1516C717.688,1516 721.708,1516.72 723.555,1517.59C729.338,1520.34 733.813,1533 729,1533C727.389,1533 727,1532.33 727,1529.58ZM815,1530.57C815,1529.23 815.445,1526.96 815.99,1525.53C816.534,1524.09 855.572,1484.25 902.74,1436.99C949.908,1389.73 990.835,1348.43 993.69,1345.21C998.308,1340 999.012,1338.59 1000.08,1332.45L1001.28,1325.56L1163.09,1163.77C1252.08,1074.79 1326.07,1001.54 1327.51,1001C1328.95,1000.45 1335.36,1000 1341.76,1000L1353.38,1000L1358.44,994.553C1364.19,988.368 1367.03,987 1374.13,987C1379.63,987 1377.09,988.978 1400.63,966.385C1413.63,953.916 1418.92,949.862 1425.5,947.318C1432.71,944.533 1433.63,943.383 1436.38,933.83C1437.58,929.659 1439.09,927.147 1442.11,924.33C1447.71,919.092 1459.72,907.076 1468.62,897.813C1475.78,890.351 1476,889.981 1476,885.128C1476,878.027 1477.37,875.185 1483.55,869.44C1488.57,864.776 1489,864.032 1489,859.933C1489,852.206 1490.54,848.866 1496.59,843.438L1502.23,838.376L1503,830.438L1503.78,822.5L1509.57,817.229L1515.37,811.957L1516.11,800.067C1517.13,783.843 1519.74,779.235 1528.46,778.252C1532.59,777.787 1533,777.934 1533,779.87C1533,781.616 1532.4,782 1529.67,782C1523.17,782 1520.05,788.581 1519.96,802.5C1519.9,812.483 1518.78,815.087 1512.5,819.81L1507.5,823.573L1506.96,831.142C1506.34,839.82 1504.78,842.854 1499.06,846.463C1493.87,849.741 1493.62,850.256 1492.93,859.407C1492.37,866.864 1492.14,867.478 1488.92,870.196C1480.03,877.691 1480.25,877.321 1479.84,885.428L1479.46,892.951L1472.48,899.909C1468.64,903.737 1464.76,907.624 1463.86,908.547C1462.96,909.471 1459.96,912.465 1457.2,915.201C1454.44,917.937 1451.8,920.613 1451.34,921.146C1450.88,921.679 1448.33,924.002 1445.68,926.308C1441.88,929.616 1440.66,931.448 1439.92,935C1437.85,944.827 1436.34,946.78 1427.57,950.969C1423.13,953.09 1418.38,956.051 1417,957.549C1415.62,959.046 1412.1,961.822 1409.17,963.716C1406.24,965.61 1402.44,969.149 1400.73,971.58C1399.02,974.011 1397.19,976 1396.68,976C1396.16,976 1392.64,979.254 1388.85,983.232L1381.95,990.464L1374.43,990.843C1366.31,991.253 1366.71,991.015 1359.12,1000L1356.17,1003.5L1341.68,1004C1325.83,1004.55 1325.14,1004.8 1320.97,1011.55C1319.89,1013.3 1317.21,1015.92 1315.01,1017.38C1312.81,1018.83 1309.87,1021.75 1308.47,1023.87C1307.07,1025.99 1303.95,1029.13 1301.54,1030.87C1299.13,1032.6 1296.18,1035.59 1294.99,1037.52C1293.8,1039.45 1290.92,1042.33 1288.61,1043.93C1286.29,1045.52 1283.14,1048.63 1281.62,1050.83C1280.09,1053.04 1277.08,1056.01 1274.93,1057.43C1272.78,1058.85 1269.85,1061.78 1268.43,1063.93C1267,1066.08 1264.08,1069 1261.93,1070.43C1259.78,1071.85 1256.85,1074.78 1255.43,1076.93C1254,1079.08 1251.08,1082 1248.93,1083.43C1246.78,1084.85 1243.87,1087.75 1242.47,1089.87C1241.07,1091.99 1237.95,1095.13 1235.54,1096.87C1233.13,1098.6 1230.18,1101.59 1228.99,1103.52C1227.8,1105.45 1224.82,1108.4 1222.38,1110.08C1219.93,1111.77 1216.79,1114.87 1215.39,1116.99C1213.99,1119.11 1211.08,1122 1208.93,1123.43C1206.78,1124.85 1203.85,1127.78 1202.43,1129.93C1201,1132.08 1198.08,1135 1195.93,1136.43C1193.78,1137.85 1190.85,1140.78 1189.43,1142.93C1188,1145.08 1185.11,1147.99 1182.99,1149.39C1180.87,1150.79 1177.77,1153.93 1176.08,1156.38C1174.4,1158.82 1171.44,1161.8 1169.5,1163C1167.56,1164.2 1164.66,1167.08 1163.07,1169.4C1161.47,1171.73 1158.33,1174.84 1156.09,1176.32C1153.85,1177.8 1150.85,1180.78 1149.43,1182.93C1148,1185.08 1145.08,1188 1142.93,1189.43C1140.78,1190.85 1137.85,1193.78 1136.43,1195.93C1135,1198.08 1132.08,1201 1129.93,1202.43C1127.78,1203.85 1124.85,1206.78 1123.43,1208.93C1122,1211.08 1119.11,1213.99 1116.99,1215.39C1114.87,1216.79 1111.77,1219.93 1110.08,1222.38C1108.4,1224.82 1105.45,1227.8 1103.52,1228.99C1101.59,1230.18 1098.6,1233.13 1096.87,1235.54C1095.13,1237.95 1091.99,1241.07 1089.87,1242.47C1087.75,1243.87 1084.85,1246.78 1083.43,1248.93C1082,1251.08 1079.08,1254 1076.93,1255.43C1074.78,1256.85 1071.85,1259.78 1070.43,1261.93C1069,1264.08 1066.11,1266.99 1063.99,1268.39C1061.87,1269.79 1058.77,1272.93 1057.08,1275.38C1055.4,1277.82 1052.44,1280.8 1050.5,1282C1048.56,1283.2 1045.63,1286.12 1044,1288.5C1042.37,1290.88 1039.45,1293.8 1037.52,1294.99C1035.59,1296.18 1032.57,1299.16 1030.81,1301.62C1029.04,1304.07 1026.07,1307.03 1024.2,1308.18C1022.34,1309.34 1019.47,1312.13 1017.84,1314.39C1016.2,1316.65 1012.76,1320.09 1010.19,1322.03C1005.31,1325.72 1004.83,1326.71 1003.11,1336.5C1002.21,1341.63 1001.48,1343.01 998.063,1346C995.865,1347.92 992.702,1351.65 991.034,1354.28C989.367,1356.91 986.411,1360 984.467,1361.15C982.523,1362.3 979.604,1365.17 977.981,1367.53C976.357,1369.89 973.44,1372.8 971.5,1374C969.56,1375.2 966.597,1378.18 964.916,1380.62C963.235,1383.07 960.127,1386.21 958.01,1387.61C955.892,1389.01 953.013,1391.89 951.612,1394.01C950.211,1396.13 947.066,1399.23 944.623,1400.92C942.179,1402.6 939.199,1405.56 938,1407.5C936.801,1409.44 933.876,1412.37 931.5,1414C929.124,1415.63 926.199,1418.56 925,1420.5C923.801,1422.44 920.919,1425.34 918.595,1426.93C916.272,1428.53 913.193,1431.62 911.753,1433.8C910.313,1435.97 907.523,1438.75 905.553,1439.97C903.584,1441.18 900.615,1444.15 898.957,1446.56C897.3,1448.97 893.971,1452.3 891.562,1453.96C889.152,1455.62 886.199,1458.56 885,1460.5C883.801,1462.44 880.876,1465.37 878.5,1467C876.124,1468.63 873.199,1471.56 872,1473.5C870.801,1475.44 867.919,1478.34 865.595,1479.93C863.272,1481.53 860.193,1484.62 858.753,1486.8C857.313,1488.97 854.523,1491.75 852.553,1492.97C850.584,1494.18 847.597,1497.18 845.916,1499.62C844.235,1502.07 841.127,1505.21 839.01,1506.61C836.892,1508.01 834.013,1510.89 832.612,1513.01C831.211,1515.13 828.032,1518.26 825.547,1519.97C820.37,1523.53 819,1525.62 819,1529.93C819,1532.33 818.565,1533 817,1533C815.548,1533 815,1532.33 815,1530.57ZM731,1244.89C729.625,1244.35 726.223,1241.45 723.44,1238.45L718.38,1233L707.94,1232.88C691.404,1232.69 694.849,1234.76 668.25,1209.02C662.062,1203.03 657,1197.62 657,1196.99C657,1196.36 654.484,1193.21 651.409,1189.99C644.955,1183.22 644.059,1180.53 644.024,1167.82C643.995,1157.21 643.14,1154.78 637.387,1148.91C633.285,1144.72 632.764,1143.62 631.479,1136.41C629.463,1125.09 629.38,1053.42 631.378,1048.64C632.136,1046.82 635.025,1043.57 637.797,1041.42C643.228,1037.2 643.965,1035.75 643.986,1029.32C643.994,1027.01 644.457,1023.93 645.016,1022.46C645.574,1020.99 657.162,1008.7 670.766,995.144L695.5,970.5L695.758,779.714L696.015,588.928L690.868,584.214C684.926,578.772 683,574.917 683,568.466C683,562.142 681.828,560.447 675.111,557.056C671.914,555.442 667.896,552.942 666.181,551.499C664.467,550.057 660.32,547.801 656.965,546.486C652.014,544.546 649.093,542.324 641.463,534.694C636.292,529.523 631.598,524.072 631.031,522.581C630.385,520.884 629.998,504.842 629.994,479.685C629.991,454.722 629.591,438.069 628.94,435.722C628.362,433.644 625.915,429.719 623.5,427C618.02,420.829 617.013,417.234 617.006,403.815C616.999,391.541 616.37,389.413 611.768,386.085C606.226,382.076 604.768,379.343 604.003,371.529L603.297,364.32L588.191,349.256C574.116,335.22 572.648,334.046 566.685,332.061C563.164,330.89 559.208,328.777 557.892,327.367C556.576,325.956 553.25,323.668 550.5,322.282C547.04,320.538 539.704,313.945 526.687,300.881C508.257,282.384 507.789,282 503.687,281.994C501.384,281.991 497.735,281.499 495.579,280.9C491.879,279.873 490.186,278.504 483.874,271.439C482.43,269.823 478.717,266.268 475.624,263.541C472.531,260.813 470,258.017 470,257.328C470,256.063 285.119,440.753 275.083,452.045C270.257,457.474 269.52,458.906 268.34,465.148L267.015,472.157L138.551,600.586C67.8968,671.223 8.9142,729.462 7.47909,730.008C3.07685,731.682 0,731.267 0,729C0,727.396 0.666667,727 3.36514,727C7.30177,727 10.9756,724.394 14.0496,719.42C15.2554,717.469 17.983,714.773 20.1109,713.43C22.2388,712.087 25.1453,709.226 26.5699,707.074C27.9944,704.921 30.955,701.972 33.149,700.52C35.343,699.068 38.0604,696.317 39.1876,694.407C40.3148,692.496 43.2229,689.567 45.65,687.897C48.0771,686.227 51.1596,683.123 52.5,681C53.8404,678.877 56.8928,675.794 59.283,674.149C61.6732,672.505 64.8419,669.326 66.3245,667.086C67.8072,664.845 70.7843,661.899 72.9404,660.538C75.0966,659.176 78.2269,656.077 79.8968,653.65C81.5667,651.223 84.5326,648.293 86.4877,647.14C88.4428,645.986 90.9668,643.476 92.0966,641.561C93.2264,639.646 96.3478,636.501 99.0332,634.572C101.718,632.642 104.626,629.691 105.494,628.012C106.362,626.334 108.968,623.617 111.286,621.976C113.604,620.334 116.884,617.081 118.576,614.746C120.267,612.411 123.528,609.234 125.821,607.687C128.114,606.14 131.364,602.878 133.042,600.438C134.721,597.999 137.437,595.308 139.079,594.459C140.721,593.61 143.642,590.718 145.572,588.033C147.501,585.348 150.646,582.226 152.561,581.097C154.476,579.967 156.986,577.443 158.14,575.488C159.293,573.533 162.223,570.567 164.65,568.897C167.077,567.227 170.16,564.123 171.5,562C172.84,559.877 175.893,556.794 178.283,555.149C180.673,553.505 183.842,550.326 185.325,548.086C186.807,545.845 189.784,542.899 191.94,541.538C194.097,540.176 197.227,537.077 198.897,534.65C200.567,532.223 203.533,529.293 205.488,528.14C207.443,526.986 209.986,524.443 211.14,522.488C212.293,520.533 215.223,517.567 217.65,515.897C220.077,514.227 223.16,511.123 224.5,509C225.84,506.877 228.936,503.764 231.378,502.084C233.821,500.403 236.816,497.416 238.033,495.447C239.25,493.477 242.035,490.682 244.222,489.235C246.408,487.788 249.272,485.005 250.586,483.052C251.899,481.098 255.342,477.675 258.237,475.445C263.713,471.227 263.73,471.189 265.54,459.592C265.999,456.648 267.428,454.406 271.325,450.514C274.171,447.672 277.4,443.822 278.5,441.959C279.6,440.096 282.381,437.31 284.68,435.767C286.98,434.224 289.833,431.389 291.021,429.467C292.209,427.545 295.124,424.635 297.5,423C299.876,421.365 302.801,418.44 304,416.5C305.199,414.56 308.164,411.607 310.589,409.939C313.014,408.271 315.692,405.563 316.541,403.921C317.39,402.279 320.255,399.377 322.907,397.471C325.56,395.566 328.901,392.237 330.333,390.073C331.764,387.91 334.934,384.765 337.377,383.084C339.821,381.403 342.801,378.44 344,376.5C345.199,374.56 348.124,371.635 350.5,370C352.876,368.365 355.801,365.44 357,363.5C358.199,361.56 361.124,358.635 363.5,357C365.876,355.365 368.816,352.416 370.033,350.447C371.25,348.477 374.027,345.687 376.203,344.247C378.379,342.807 381.505,339.673 383.15,337.282C384.795,334.891 387.945,331.741 390.15,330.282C392.355,328.823 395.505,325.673 397.149,323.283C398.794,320.893 401.854,317.855 403.949,316.532C406.044,315.21 408.753,312.518 409.969,310.55C411.185,308.582 414.124,305.635 416.5,304C418.876,302.365 421.801,299.44 423,297.5C424.199,295.56 427.164,292.607 429.589,290.939C432.014,289.271 434.692,286.563 435.541,284.921C436.39,283.279 439.296,280.347 442,278.405C444.703,276.462 447.898,273.284 449.098,271.341C450.299,269.398 453.131,266.471 455.391,264.835C457.651,263.2 461.091,259.755 463.036,257.181C467.52,251.246 469.797,250.866 473.769,255.39C475.454,257.309 477.208,259.472 477.667,260.196C478.125,260.92 480.233,262.804 482.35,264.383C484.468,265.962 487.393,268.955 488.85,271.033C492.555,276.317 495.819,278 502.357,278C509.294,278 512.479,279.421 515.119,283.693C516.258,285.535 518.834,288.26 520.845,289.748C522.855,291.236 525.4,293.585 526.5,294.967C528.673,297.699 534.236,303.274 538.083,306.574C539.412,307.715 541.798,310.355 543.385,312.44C544.972,314.526 548.251,317.108 550.673,318.179C553.094,319.25 556.52,321.386 558.287,322.925C562.268,326.391 566.438,328.541 571,329.478C575.905,330.485 578.613,332.427 581.51,337.015C582.886,339.196 585.774,342.145 587.926,343.57C590.079,344.994 593.006,347.921 594.43,350.074C595.855,352.226 598.85,355.143 601.087,356.555C606.074,359.703 608,363.975 608,371.89C608,377.642 608.142,377.966 612.18,381.422C614.479,383.39 616.752,385 617.231,385C619.544,385 621,392.339 621,404C621,417.707 621.874,420.702 627.408,425.973C633.754,432.016 634,434.06 634,480.782L634,522.2L637.376,525.35C639.233,527.083 642.046,529.661 643.626,531.081C645.207,532.501 647.988,535.538 649.806,537.831C651.625,540.124 653.725,542 654.474,542C656.786,542 665.382,546.024 667.695,548.19C668.902,549.321 673.173,551.878 677.186,553.873C685.688,558.1 686.965,560.02 686.985,568.615C687.002,575.451 688.614,578.362 694.345,581.904C696.166,583.03 698.184,585.108 698.828,586.522C699.711,588.46 699.999,636.154 699.996,779.797C699.993,967.175 699.958,970.556 698.04,973.701C696.967,975.462 694.74,977.6 693.091,978.453C691.443,979.305 688.729,981.986 687.061,984.411C685.393,986.836 682.44,989.801 680.5,991C678.56,992.199 675.635,995.124 674,997.5C672.365,999.876 669.45,1002.8 667.52,1003.99C665.591,1005.18 662.616,1008.1 660.908,1010.48C659.2,1012.86 655.824,1016.22 653.406,1017.96C648.648,1021.38 648.287,1022.26 647.725,1031.89C647.374,1037.9 647.111,1038.5 643.426,1041.7C641.267,1043.57 638.263,1046.24 636.75,1047.62L634,1050.13L634.037,1089.81C634.081,1137.76 634.469,1140.85 641.3,1147.82C647.205,1153.85 648,1156.17 648,1167.42C648,1178.9 649.128,1182.36 654.592,1187.68C656.954,1189.98 659.809,1193.67 660.937,1195.88C662.066,1198.09 664.972,1201.26 667.403,1202.93C669.832,1204.6 672.823,1207.6 674.051,1209.58C675.278,1211.57 678.414,1214.5 681.02,1216.11C683.625,1217.71 686.794,1220.54 688.061,1222.38C691.721,1227.73 693.447,1228.33 707,1228.98C713.875,1229.31 720.496,1230.13 721.712,1230.81C722.929,1231.48 725.276,1233.99 726.928,1236.39C728.579,1238.8 730.658,1241.04 731.547,1241.38C732.436,1241.72 751.368,1242 773.618,1242L814.071,1242L816.058,1239.75C817.151,1238.51 819.541,1235.74 821.369,1233.58C824.628,1229.74 824.856,1229.65 833.011,1229.06C841.029,1228.47 841.422,1228.32 843.914,1225.01C845.336,1223.12 848.016,1220.21 849.87,1218.54C851.723,1216.87 854.648,1214 856.37,1212.16C860.651,1207.6 864.211,1204.07 868.164,1200.45C869.999,1198.77 872.85,1195.84 874.5,1193.94C876.15,1192.03 879.063,1189.31 880.974,1187.88C884.332,1185.37 884.468,1185.01 885.057,1176.99C885.653,1168.88 885.754,1168.62 889.583,1165.29C891.738,1163.42 894.737,1160.76 896.25,1159.38L899,1156.87L899,1090.28L899,1023.69L894.75,1019.89C889.439,1015.15 887.853,1013.56 883.107,1008.25C879.389,1004.09 879.176,1004 872.905,1004C865.493,1003.99 860.998,1001.83 858.547,997.091C857.695,995.443 855.014,992.729 852.589,991.061C850.164,989.393 847.185,986.418 845.969,984.45C844.753,982.482 842.025,979.778 839.907,978.442C832.633,973.849 832.902,976.393 833.217,915.147L833.5,860.321L836.935,854.911C842.7,845.832 844.153,842.319 845.062,835.27C845.542,831.547 845.949,786.559 845.967,735.297C845.992,665.226 846.297,641.443 847.195,639.472C848.84,635.86 852.926,633.999 859.2,634.004C864.463,634.007 871,636.755 871,638.963C871,640.22 892.721,662 893.974,662C894.486,662 896.315,664.051 898.039,666.557C899.763,669.063 902.963,672.41 905.15,673.994C907.337,675.578 910.43,678.674 912.024,680.874C913.618,683.075 916.509,685.954 918.45,687.272C920.39,688.591 923.33,691.535 924.981,693.816C926.633,696.096 929.752,699.131 931.912,700.561C934.073,701.99 936.987,704.892 938.388,707.01C939.789,709.127 942.921,712.225 945.347,713.895C947.774,715.565 950.146,717.734 950.619,718.715C951.092,719.697 951.709,732.857 951.99,747.96L952.5,775.42L957.5,779.187C960.25,781.258 963.042,784.201 963.705,785.727C964.428,787.391 964.928,793.615 964.955,801.286C965.005,815.496 964.164,813.511 973.489,821.435C977.462,824.813 977.479,824.856 977.852,833.086L978.228,841.347L983.674,846.538C988.925,851.544 989.168,852.011 990.475,859.615C991.716,866.83 992.149,867.755 995.579,870.5C997.64,872.15 1000.49,874.806 1001.91,876.402C1003.34,877.998 1006.3,881.014 1008.5,883.104C1014.22,888.543 1015.63,889.984 1019.89,894.75C1023.59,898.885 1023.86,899 1029.89,899C1037.32,899 1041.04,900.707 1043.99,905.477C1048.18,912.266 1046.28,911.998 1090.47,912.023L1130.5,912.046L1136.16,905.773L1141.81,899.5L1156.55,899L1171.29,898.5L1173.89,895.059C1176.42,891.717 1179.71,888.302 1185.63,882.856C1187.21,881.401 1189.88,878.701 1191.57,876.856C1193.27,875.01 1196.42,871.874 1198.57,869.886C1200.73,867.899 1203.91,864.749 1205.63,862.886C1207.35,861.024 1210.28,858.091 1212.13,856.37C1213.98,854.648 1216.91,851.723 1218.63,849.87C1220.35,848.016 1223.39,845.101 1225.38,843.391L1229,840.283L1229.05,820.891C1229.07,808.061 1229.5,800.562 1230.3,798.727C1230.96,797.201 1233.75,794.258 1236.5,792.187L1241.5,788.42L1241.78,773.66L1242.05,758.9L1239.21,756.2C1237.64,754.715 1234.83,752.336 1232.96,750.914C1229.67,748.416 1229.54,748.062 1229.18,740.414C1228.77,731.882 1227.42,729.331 1221.78,726.395C1217.91,724.38 1216.69,721.533 1216.05,713.051L1215.5,705.602L1210.37,701.551C1203.97,696.505 1203,694.521 1203,686.516C1203,680.629 1202.75,679.904 1199.88,677.313C1196.81,674.541 1189.9,667.648 1185.79,663.25C1183.71,661.028 1183.36,661 1157.59,660.996C1133.24,660.993 1131.28,660.859 1128.21,658.987C1126.4,657.884 1123.99,655.399 1122.85,653.465C1121.71,651.531 1119.95,649.51 1118.95,648.974C1117.95,648.438 1111.69,648 1105.03,648C1090.96,648 1087.34,646.899 1084.08,641.631C1080.38,635.65 1077.52,634 1070.82,634C1063.8,634 1059.62,632.107 1057.47,627.951C1056.62,626.293 1053.75,623.377 1051.09,621.471C1048.44,619.566 1045.08,616.211 1043.63,614.018C1041.94,611.468 1039.1,609.075 1035.75,607.385C1032.86,605.931 1028.85,603.259 1026.83,601.447C1024.75,599.575 1020.65,597.389 1017.33,596.38C1010.06,594.167 1006.75,591.951 1003.95,587.418C1002.74,585.468 1000,582.763 997.851,581.406C995.703,580.05 992.572,576.709 990.894,573.982C989.216,571.256 986.522,568.084 984.907,566.934C981.097,564.221 979.401,560.785 978.522,554C977.645,547.23 976.26,544.963 970.634,541.092C968.216,539.428 965.315,536.504 964.188,534.593C963.06,532.683 960.343,529.932 958.149,528.48C955.955,527.028 952.994,524.079 951.57,521.926C950.145,519.774 947.15,516.857 944.913,515.445C939.944,512.309 938,508.026 938,500.219C938,495.131 937.644,494.042 935.25,491.809C933.737,490.399 931.449,488.703 930.165,488.042C926.955,486.388 925,481.17 925,474.255C925,467.63 923.705,465.217 918.386,461.93C912.088,458.037 912,457.381 912,414.455L912,375.846L909.178,373.173C907.626,371.703 904.853,369.358 903.016,367.963C899.816,365.532 899.65,365.074 899.06,357.053C898.454,348.798 898.39,348.637 894.559,345.59C892.422,343.891 889.509,341.207 888.087,339.626C884.785,335.958 880.042,331.215 876.374,327.913C874.793,326.491 872.109,323.578 870.41,321.441C867.363,317.61 867.202,317.546 858.947,316.94C850.926,316.35 850.468,316.184 848.037,312.984C846.642,311.147 844.297,308.374 842.827,306.822L840.154,304L800.978,304C757.895,304 757.147,303.904 753.632,297.953C750.292,292.301 748.109,291 741.961,291C733.979,291 730.31,289.452 727.412,284.861C726.058,282.716 722.824,279.43 720.225,277.558C717.626,275.687 714.682,272.763 713.683,271.06C712.683,269.357 709.518,266.23 706.65,264.11C703.781,261.991 700.238,258.69 698.778,256.775C697.317,254.86 694.857,252.826 693.311,252.255C691.765,251.684 688.316,250.438 685.647,249.486C682.79,248.467 679.295,246.149 677.147,243.846C675.141,241.696 671.458,238.615 668.961,237C666.465,235.384 663.397,232.676 662.144,230.981C660.89,229.285 657.703,226.568 655.061,224.942C652.419,223.317 649.07,220.193 647.62,218.002C646.17,215.81 643.186,212.828 640.99,211.375C638.795,209.922 636.066,207.225 634.928,205.383C631.357,199.606 628.464,198 621.615,197.996C614.487,197.992 609.96,195.757 607.52,191.039C606.653,189.361 604.169,186.869 602,185.5C596.79,182.211 595,178.49 595,170.95C595,164.41 594.409,163.484 585.658,156.326C582.312,153.589 582.272,150.561 585.546,147.714C586.946,146.496 589.849,143.7 591.998,141.5C598.249,135.099 599.265,134.114 603.75,130.107C607.911,126.389 608,126.176 608.004,119.905C608.008,112.493 610.17,107.998 614.909,105.547C616.557,104.695 619.271,102.014 620.939,99.5889C622.607,97.1643 625.56,94.1993 627.5,93C629.44,91.8007 632.385,88.8479 634.043,86.4382C635.7,84.0285 638.986,80.73 641.343,79.1081C643.7,77.4863 646.807,74.3789 648.247,72.2028C649.687,70.0267 652.477,67.2503 654.447,66.0329C656.416,64.8156 659.365,61.8757 661,59.5C662.635,57.1243 665.56,54.1993 667.5,53C669.44,51.8007 672.365,48.8757 674,46.5C675.635,44.1243 678.56,41.1993 680.5,40C682.44,38.8007 685.403,35.8206 687.084,33.3774C688.765,30.9343 691.909,27.7648 694.071,26.3342C696.233,24.9035 698.967,22.1717 700.146,20.2635C703.452,14.9138 707.394,13.0081 715.161,13.0037C721.37,13.0003 721.998,12.7909 724.411,9.92327C726.093,7.92452 727,5.64716 727,3.42327C727,0.666667 727.389,0 729,0C733.813,0 729.338,12.6628 723.555,15.407C721.708,16.2832 717.681,17 714.605,17L709.012,17L660.506,65.54L612,114.08L612,118.975C612,121.667 611.539,125.082 610.976,126.564C610.412,128.046 605.462,133.763 599.976,139.269C593.453,145.814 590,150.034 590,151.46C590,152.659 591.403,155.183 593.119,157.07C597.318,161.689 599,165.944 599,171.954C599,176.918 599.091,177.062 607.514,185.486C615.893,193.864 616.107,194 620.949,194C623.656,194 627.137,194.475 628.685,195.055C630.233,195.636 637.198,201.823 644.163,208.805C651.127,215.787 660.501,224.65 664.994,228.5C669.487,232.35 675.502,237.609 678.361,240.186C681.816,243.302 685.853,245.705 690.402,247.357C695.405,249.173 698.623,251.187 702.372,254.851C705.193,257.607 713.548,265.811 720.939,273.082L734.378,286.303L741.939,287.097C746.098,287.535 749.67,287.916 749.878,287.946C750.085,287.976 752.84,290.7 756,294L761.745,300L799.807,300C823.617,300 838.924,300.388 840.685,301.037C842.233,301.608 845.796,304.533 848.602,307.537C853.488,312.769 853.919,313 858.787,313C861.582,313 865.073,313.458 866.544,314.017C870.027,315.341 900.659,345.973 901.983,349.456C902.542,350.927 903,354.387 903,357.145C903,361.966 903.231,362.38 909,367.922C912.3,371.091 915.09,373.868 915.2,374.092C915.31,374.316 915.647,392.627 915.95,414.782L916.5,455.064L921.737,459.782C927.478,464.953 928.993,467.979 929.014,474.315C929.035,480.845 929.84,482.511 934.719,486.128C940.155,490.156 942,494.04 942,501.453L942,506.97L961.371,526.257C975.492,540.319 980.897,546.352 981.317,548.523C981.634,550.16 982.188,553.449 982.548,555.832C983.249,560.467 982.821,559.944 1002.95,580.782C1011.41,589.541 1013.69,591.328 1018.3,592.852C1021.29,593.836 1025.7,596.25 1028.11,598.216C1030.53,600.183 1034.23,602.508 1036.34,603.383C1038.71,604.365 1044.95,609.768 1052.62,617.487L1065.06,630L1070.06,630C1077.07,630 1080.89,631.907 1086.32,638.119L1091.03,643.5L1105.26,644.122C1113.09,644.464 1119.67,644.802 1119.88,644.872C1120.09,644.943 1122.84,647.7 1126,651L1131.74,657L1156.9,657C1185.39,657 1187.05,657.327 1191.8,663.888C1193.41,666.111 1197.02,669.738 1199.81,671.947C1205.22,676.224 1206.98,679.99 1206.99,687.316C1207,691.809 1208.39,694.732 1211.79,697.404C1214.04,699.18 1218.93,703.809 1219.05,704.295C1219.08,704.408 1219.48,708.077 1219.94,712.449C1220.63,719.035 1221.18,720.722 1223.14,722.287C1229.86,727.656 1230.98,728.812 1231.95,731.362C1232.53,732.884 1233,736.612 1233,739.645C1233,745.068 1233.1,745.253 1238.91,750.834C1245.98,757.621 1246.3,758.815 1245.83,776.487L1245.5,789.26L1239.5,794.708L1233.5,800.155L1232.91,820.828C1232.59,832.197 1232.25,841.623 1232.16,841.774C1230.63,844.384 1172.38,901.287 1170.51,901.998C1169.06,902.549 1162.69,903 1156.35,903L1144.83,903L1138.32,909.25L1131.81,915.5L1093.16,915.799C1071.9,915.964 1052.92,915.817 1051,915.474C1048.48,915.024 1046.05,913.302 1042.34,909.342C1037.94,904.642 1036.55,903.766 1032.84,903.366C1021.52,902.144 1022.57,902.83 1004.87,885.13C990.255,870.516 988.09,867.938 987.519,864.466C987.159,862.285 986.616,859.178 986.312,857.563C986.008,855.947 983.588,852.33 980.936,849.525C975.182,843.442 974,840.678 974,833.307C974,827.814 973.926,827.674 968,822C964.7,818.84 961.943,816.085 961.872,815.878C961.802,815.67 961.464,809.172 961.122,801.438L960.5,787.376L954.5,781.795L948.5,776.213L948,748.857L947.5,721.5L906.008,680.122C868.871,643.088 864.128,638.693 860.819,638.249C855.388,637.52 852.406,638.595 851.141,641.737C850.359,643.681 849.944,673.389 849.743,742C849.426,850.345 849.824,844.112 842.627,853.538C840.627,856.157 838.518,859.92 837.942,861.9C837.251,864.27 836.997,883.433 837.196,918L837.5,970.5L851.895,984.882L866.291,999.264L872.956,999.995C876.622,1000.4 880.494,1001.23 881.561,1001.84C885.088,1003.85 900.856,1020.49 901.938,1023.34C903.408,1027.2 903.411,1153.78 901.941,1157.68C901.359,1159.23 898.209,1162.99 894.941,1166.03C889.172,1171.41 889,1171.72 889,1176.72C889,1179.55 888.548,1183.06 887.996,1184.51C886.7,1187.92 843.874,1230.72 840.46,1232.02C839.035,1232.56 835.564,1233 832.745,1233C827.825,1233 827.418,1233.22 822.56,1238.45C819.777,1241.44 816.233,1244.37 814.685,1244.95C811.014,1246.32 734.504,1246.27 731,1244.89ZM266,1041.03C264.742,1040.19 264.823,1040.01 266.5,1039.9C267.6,1039.84 328.065,1039.64 400.867,1039.47C501.748,1039.24 532.957,1039.44 532.067,1040.33C530.529,1041.87 268.288,1042.56 266,1041.03ZM1021.5,1041.07C1015.81,1040.51 1015.67,1040.43 1018.87,1039.63C1022.94,1038.61 1060.2,1039.88 1062.13,1041.1C1063.64,1042.06 1031.25,1042.04 1021.5,1041.07ZM1388.37,773.25C1277.58,773.026 1261.08,772.802 1260.01,771.513C1258.99,770.287 1259.24,769.859 1261.46,769.017C1263.22,768.346 1309.9,768 1398.57,768L1533,768L1533,770.358C1533,772.509 1532.46,772.771 1526.85,773.358C1523.47,773.711 1519.54,773.889 1518.1,773.754C1516.67,773.618 1458.29,773.392 1388.37,773.25ZM0,770.494L0,767.988L340.75,768.244C541.229,768.395 682.077,768.872 682.901,769.403C684.062,770.15 683.986,770.537 682.46,771.653C680.924,772.776 624.092,773 340.309,773L0,773L0,770.494ZM863.54,771.653C862.014,770.537 861.938,770.15 863.099,769.403C863.869,768.906 879.149,768.365 897.054,768.2C930.738,767.89 936.562,768.413 933.986,771.517C932.243,773.617 866.4,773.744 863.54,771.653ZM1523.21,729.01C1518.03,726.658 1516,722.588 1516,714.548L1516,709.032L1421.34,614.367L1326.68,519.703L1319.59,518.965C1310.99,518.071 1309.98,517.683 1307.47,514.311C1306.39,512.857 1243.04,449.201 1166.7,372.855L1027.91,234.043L1027.08,226.668L1026.25,219.293L938.257,131.302L850.26,43.3114L843.88,42.0789C838.585,41.0559 836.735,40.1204 833,36.5759C830.525,34.2271 826.832,31.3117 824.792,30.0973C822.753,28.8828 819.123,25.6124 816.726,22.8297C812.374,17.7794 812.353,17.7689 804.715,17.0211C800.336,16.5922 795.946,15.5392 794.448,14.5582C789.504,11.3182 786.823,0 791,0C792.639,0 793,0.666667 793,3.69528C793,6.34301 793.762,8.18566 795.687,10.1953C798.012,12.6218 799.138,13 804.038,13C812.24,13 815.422,14.457 819.443,20.0535C821.371,22.7373 824.648,25.8161 826.724,26.8952C828.801,27.9744 832.58,30.8748 835.122,33.3407C839.099,37.1986 840.516,37.9205 845.277,38.5154C852.041,39.3605 856.411,41.8881 859.158,46.5426C860.301,48.4811 863.168,51.3957 865.528,53.0195C867.888,54.6433 870.801,57.5595 872,59.5C873.199,61.4405 876.124,64.3655 878.5,66C880.876,67.6345 883.801,70.5595 885,72.5C886.199,74.4405 889.152,77.3846 891.562,79.0425C893.971,80.7004 897.3,84.0285 898.957,86.4382C900.615,88.8479 903.56,91.8007 905.5,93C907.44,94.1993 910.365,97.1243 912,99.5C913.635,101.876 916.56,104.801 918.5,106C920.44,107.199 923.365,110.124 925,112.5C926.635,114.876 929.56,117.801 931.5,119C933.44,120.199 936.336,123.081 937.934,125.405C939.533,127.728 942.673,130.841 944.912,132.323C947.151,133.805 950.148,136.777 951.571,138.929C952.995,141.08 955.892,143.987 958.01,145.388C960.127,146.789 963.235,149.934 964.916,152.377C966.597,154.821 969.56,157.801 971.5,159C973.44,160.199 976.365,163.124 978,165.5C979.635,167.876 982.56,170.801 984.5,172C986.44,173.199 989.365,176.124 991,178.5C992.635,180.876 995.56,183.801 997.5,185C999.44,186.199 1002.34,189.081 1003.93,191.405C1005.53,193.728 1008.67,196.841 1010.91,198.323C1013.15,199.805 1016.17,202.814 1017.62,205.01C1019.08,207.205 1021.83,209.967 1023.74,211.146C1028.93,214.356 1030.99,218.439 1031,225.527C1031,232.356 1032.25,234.758 1037.51,238.008C1039.45,239.203 1042.37,242.124 1044,244.5C1045.63,246.876 1048.56,249.801 1050.5,251C1052.44,252.199 1055.4,255.179 1057.08,257.623C1058.77,260.066 1061.87,263.211 1063.99,264.612C1066.11,266.013 1069,268.92 1070.43,271.071C1071.85,273.223 1074.78,276.148 1076.93,277.571C1079.08,278.995 1082,281.92 1083.43,284.071C1084.85,286.223 1087.75,289.13 1089.87,290.531C1091.99,291.932 1095.13,295.051 1096.87,297.462C1098.6,299.872 1101.59,302.82 1103.52,304.013C1105.45,305.205 1108.4,308.179 1110.08,310.623C1111.77,313.066 1114.87,316.211 1116.99,317.612C1119.11,319.013 1122,321.92 1123.43,324.071C1124.85,326.223 1127.78,329.148 1129.93,330.571C1132.08,331.995 1135,334.92 1136.43,337.071C1137.85,339.223 1140.78,342.148 1142.93,343.571C1145.08,344.995 1147.99,347.892 1149.39,350.01C1150.79,352.127 1153.93,355.235 1156.38,356.916C1158.82,358.597 1161.8,361.56 1163,363.5C1164.2,365.44 1167.08,368.336 1169.4,369.934C1171.73,371.533 1174.84,374.673 1176.32,376.912C1177.8,379.151 1180.78,382.148 1182.93,383.571C1185.08,384.995 1188,387.92 1189.43,390.071C1190.85,392.223 1193.78,395.148 1195.93,396.571C1198.08,397.995 1201,400.92 1202.43,403.071C1203.85,405.223 1206.78,408.148 1208.93,409.571C1211.08,410.995 1213.99,413.892 1215.39,416.01C1216.79,418.127 1219.93,421.235 1222.38,422.916C1224.82,424.597 1227.8,427.55 1228.99,429.48C1230.18,431.409 1233.13,434.404 1235.54,436.135C1237.95,437.866 1241.07,441.015 1242.47,443.133C1243.87,445.25 1246.78,448.148 1248.93,449.571C1251.08,450.995 1254,453.92 1255.43,456.071C1256.85,458.223 1259.78,461.148 1261.93,462.571C1264.08,463.995 1266.99,466.892 1268.39,469.01C1269.79,471.127 1272.93,474.235 1275.38,475.916C1277.82,477.597 1280.8,480.56 1282,482.5C1283.2,484.44 1286.12,487.365 1288.5,489C1290.88,490.635 1293.81,493.568 1295.01,495.519C1296.22,497.47 1298.85,500.171 1300.85,501.52C1302.86,502.87 1306.32,506.342 1308.55,509.237L1312.6,514.5L1320.05,515.054C1328.83,515.708 1331.11,516.774 1334.45,521.775C1335.81,523.824 1338.86,526.886 1341.22,528.58C1343.57,530.274 1346.67,533.379 1348.1,535.48C1349.53,537.581 1352.44,540.483 1354.57,541.929C1356.7,543.374 1359.63,546.299 1361.07,548.429C1362.52,550.558 1365.42,553.47 1367.52,554.9C1369.62,556.33 1372.73,559.434 1374.42,561.797C1376.11,564.16 1378.95,566.956 1380.71,568.01C1382.48,569.064 1385.41,571.945 1387.21,574.413C1389.02,576.88 1392.43,580.286 1394.78,581.98C1397.14,583.674 1399.93,586.509 1400.99,588.28C1402.04,590.051 1404.84,592.886 1407.2,594.58C1409.57,596.274 1412.67,599.379 1414.1,601.48C1415.53,603.581 1418.44,606.483 1420.57,607.929C1422.7,609.374 1425.63,612.299 1427.07,614.429C1428.52,616.558 1431.42,619.47 1433.52,620.9C1435.62,622.33 1438.73,625.411 1440.42,627.746C1442.11,630.081 1445.35,633.3 1447.61,634.9C1449.87,636.5 1452.71,639.418 1453.93,641.385C1455.14,643.352 1458,646.212 1460.28,647.741C1462.56,649.27 1465.61,652.271 1467.06,654.41C1468.51,656.55 1471.44,659.483 1473.57,660.929C1475.7,662.374 1478.63,665.299 1480.07,667.429C1481.52,669.558 1484.42,672.47 1486.52,673.9C1488.62,675.33 1491.73,678.434 1493.42,680.797C1495.11,683.16 1497.96,685.962 1499.73,687.022C1501.51,688.083 1504.52,691.1 1506.41,693.726C1508.3,696.352 1511.26,699.333 1513,700.352C1518.01,703.295 1519.99,707.483 1520,715.161C1520,721.37 1520.21,721.998 1523.08,724.411C1525.08,726.093 1527.35,727 1529.58,727C1532.33,727 1533,727.389 1533,729C1533,731.637 1529.01,731.642 1523.21,729.01Z" fill-rule="evenodd" fill-opacity="0.607639" fill="#390C43"/>
</g>
</svg>
