<?xml version="1.0" encoding="UTF-8"?>
<svg width="512px" height="512px" viewBox="0 0 512 512" version="1.1" xmlns="http://www.w3.org/2000/svg" xmlns:xlink="http://www.w3.org/1999/xlink">
    <title>Greatape [2 color]</title>
    <g id="Greatape-[2-color]" stroke="none" stroke-width="1" fill="none" fill-rule="evenodd">
        <rect id="Rectangle" fill="#FFCC00" fill-rule="nonzero" x="0" y="0" width="512" height="512" rx="24"></rect>
        <path d="M292.08356,60.0774798 C285.218545,61.0458283 273.275069,62.6715267 258.53447,64.6435761 C254.308821,65.2087022 243.014814,66.729368 233.436677,68.0220364 C223.858539,69.3147048 213.601737,70.685251 210.643783,71.0679792 C187.374544,74.0780572 180.089013,75.0633134 155.876814,78.4776385 C154.0667,78.7327906 152.313952,79.2389961 151.981534,79.6022549 C143.529724,88.8456281 134.716814,98.5941821 131.515052,102.242653 C129.264446,104.806983 125.790194,108.634265 123.793639,110.747724 C121.797084,112.861183 117.780925,117.241808 114.868557,120.482445 C109.827486,126.091693 99.9717365,136.787589 96.6793158,140.222921 C95.834186,141.104681 92.7225719,144.449839 89.7646178,147.656661 C86.8066636,150.863995 82.7551628,155.226174 80.7611687,157.350905 C78.7671747,159.476148 75.6683656,162.828479 73.8756661,164.80104 C72.0824544,166.773602 69.0896707,170.00143 67.2242388,171.973992 C62.9893704,176.452988 57.3505622,182.509009 50.0691291,190.399256 C46.97032,193.75671 42.5408157,198.478049 40.2256723,200.890723 C37.9100168,203.302884 36.0087309,205.680205 36,206.172577 C35.9908039,206.665462 38.692146,209.784671 42.0019814,213.104723 C47.616204,218.73549 61.6520166,233.419035 69.2766236,241.638213 C71.1077381,243.6118 74.2403524,246.959007 76.2374196,249.076564 C78.2349991,251.19361 81.3338082,254.539792 83.1239467,256.512354 C84.9140852,258.484915 86.8522494,260.571732 87.4315474,261.149667 C88.0103333,261.727602 89.9623269,263.802635 91.769368,265.76085 C93.5764091,267.719066 97.3006142,271.742068 100.046005,274.70091 C102.791397,277.659753 108.446595,283.769571 112.612829,288.278283 C116.779062,292.786996 120.32912,296.591222 120.501219,296.73212 C120.673318,296.873017 125.621681,302.175878 131.49815,308.516255 C137.374106,314.856632 144.044485,322.013701 146.321213,324.420739 C156.979068,335.690471 193.156768,374.67444 208.795766,391.740941 C211.361375,394.540954 214.037107,397.433704 214.741382,398.168931 C215.445657,398.904671 219.248741,403.061397 223.19268,407.407181 C231.093875,416.11207 236.086799,421.558902 240.095787,425.845254 C241.545313,427.395124 246.377406,432.697984 250.834569,437.629389 C260.058776,447.835475 264.909309,453 265.270922,453 C265.408192,453 266.79318,450.290674 268.348731,446.979844 C269.904282,443.669014 272.047326,439.115215 273.110653,436.860858 C274.17398,434.606502 276.5931,429.303641 278.486703,425.076723 C280.380306,420.849805 283.040159,414.970546 284.397489,412.011704 C285.754819,409.052861 287.504493,405.133355 288.286622,403.301691 C290.092127,399.071186 290.424032,398.652081 291.757801,398.920554 C294.043749,399.380648 303.778619,401.433649 323.327751,405.57859 C343.303033,409.813706 348.660131,410.939347 360.206141,413.324866 C363.445805,413.994 368.747073,415.104783 371.986737,415.793386 C407.653774,423.374172 423.357309,426.806941 429.271681,428.314798 C431.844973,428.971124 433.08757,429.09665 433.209986,428.712385 C433.307816,428.403436 433.841016,426.536931 434.394192,424.564369 C435.98406,418.8962 440.593859,403.585534 443.187127,395.360208 C445.831615,386.972466 447.790267,380.694083 448.780861,377.427828 C451.271177,369.214798 457.285428,349.678239 458.796417,344.893368 C459.73067,341.934525 461.233464,336.811501 462.136985,333.508356 L463.779097,327.503059 L470.255352,327.360112 L476.731607,327.217165 L476.865804,308.47373 L477,289.730294 L475.452132,287.723404 C473.907849,285.720614 471.260288,282.633683 456.755813,265.922242 C452.530164,261.053345 448.49659,256.339178 447.792316,255.445633 C446.26135,253.5033 439.228846,245.141176 437.943737,243.734765 C436.745701,242.424164 436.777458,242.240229 438.554791,240.215919 C439.954121,238.621475 441.133717,236.344575 441.133717,235.236866 C441.133717,234.371501 438.298691,232.101774 428.840921,225.394551 C423.629287,221.698432 415.982656,216.236229 411.848179,213.25638 C407.713701,210.276531 401.414155,205.763719 397.849757,203.227568 C394.285358,200.691417 389.716023,197.399545 387.695907,195.912182 C385.676303,194.424819 383.447721,192.810905 382.743959,192.325706 C376.450047,187.985558 363.800759,178.229319 363.795637,177.710817 C363.778735,175.993919 373.184773,166.036325 379.593417,160.987079 L383.657211,157.784869 L386.330382,146.690874 C387.800395,140.589254 389.346727,134.213524 389.766219,132.522757 C390.18571,130.83199 390.976547,127.604161 391.522552,125.349805 C392.069069,123.095449 392.648879,120.732473 392.811247,120.098179 C393.032517,119.233326 392.885003,118.945384 392.220168,118.945384 C391.732554,118.945384 388.882162,118.354127 385.885792,117.631709 C382.889423,116.90929 377.211176,115.539256 373.267237,114.587303 C354.571942,110.075516 348.370226,108.582518 344.584045,107.680775 C335.730671,105.573464 329.657005,104.158343 328.104527,103.841709 C326.391218,103.492796 325.537381,101.968031 307.072064,66.3010403 L303.292542,59 L301.1454,59.0512354 C299.964267,59.0794148 295.886644,59.5410455 292.08356,60.0774798 Z M326.518118,111.897452 C328.304457,112.442169 337.356263,114.745441 346.632959,117.015436 C355.909654,119.28492 365.224683,121.595359 367.333023,122.149291 C369.441363,122.703735 373.426509,123.683099 376.188562,124.326623 L381.210755,125.496433 L380.885176,127.800729 C380.414442,131.130977 378.89337,137.658365 376.446674,146.848928 L374.305623,154.890158 L372.224883,155.389824 C371.080501,155.664742 369.158207,156.165431 367.953514,156.502807 C366.748821,156.840184 365.668329,157.021415 365.552818,156.905714 C365.437306,156.790012 365.158239,154.628551 364.932327,152.103092 L364.521903,147.510882 L351.488529,147.702864 C344.320174,147.808326 328.870259,148.038705 317.155556,148.214816 L295.855956,148.534786 L295.688822,170.021924 L295.521688,191.50855 L305.999499,194.179404 C311.762295,195.648194 322.227327,198.300106 329.255127,200.072484 L342.032944,203.295222 L365.00286,226.204562 C387.750953,248.89274 387.990665,249.111855 389.791826,248.873798 C390.792585,248.741714 397.705895,248.269182 405.155363,247.823272 C412.604831,247.377362 420.539855,246.834181 422.788751,246.615577 C425.037647,246.396974 427.107654,246.310454 427.388766,246.422572 C427.669878,246.534689 428.819881,247.808426 429.944329,249.252642 C431.068777,250.697371 432.908783,252.948936 434.033231,254.255949 C435.157679,255.563475 437.687687,258.550203 439.65547,260.893919 C441.623254,263.237124 446.419025,268.863988 450.31217,273.398347 C454.205827,277.932706 458.949464,283.485338 460.854381,285.737927 C462.759298,287.990516 464.920794,290.392082 465.65884,291.074514 L467,292.315998 L467,306.817039 L467,321.318592 L457.16108,321.319104 C451.74993,321.319616 418.383982,321.473201 383.014983,321.660064 L318.707294,322 L319.010384,318.971292 C319.177518,317.305912 319.767853,309.607689 320.322921,301.864415 C322.075016,277.419218 323.622665,257.161277 325.197914,238.045501 C325.466248,234.79051 325.395715,234.348695 324.56669,234.095791 C324.053022,233.938622 314.432858,231.374254 303.188379,228.397253 C291.9439,225.41974 279.868862,222.215432 276.354962,221.276 C272.841062,220.336568 267.091044,218.815047 263.577145,217.894557 C260.063245,216.974068 256.899457,215.994191 256.546789,215.717737 C256.038743,215.319439 255.932432,205.620508 256.035677,169.144438 L256.16601,123.073876 L274.821624,119.34277 C285.082212,117.290354 297.272249,114.903634 301.910597,114.038947 C306.548945,113.174772 312.068962,112.138069 314.177302,111.735675 C319.555741,110.709211 322.760929,110.751191 326.518118,111.897452 Z M169.799239,170.27447 C186.594331,177.525885 191.014414,179.400089 191.322057,179.400089 C191.491159,179.400089 193.078274,180.055006 194.848751,180.856031 C196.619229,181.656542 199.042176,182.733837 200.232512,183.249333 L202.397222,184.186692 L202.397222,190.2821 L202.397222,196.377507 L185.327594,196.377507 L168.257966,196.377507 L168.391923,214.512477 L168.525881,232.647446 L174.001323,232.793555 L179.476765,232.939663 L179.476765,225.462397 L179.476765,217.98513 L193.738383,217.98513 L208,217.98513 L208,238.492308 L208,259 L176.802712,258.791126 C159.644458,258.675886 145.347696,258.494793 145.032413,258.388813 C144.717638,258.282318 144.298449,257.077436 144.101333,255.711011 C143.904217,254.344072 142.944614,249.05895 141.968712,243.965725 C140.993319,238.872499 139.775988,232.505967 139.264098,229.817876 C137.173243,218.842747 133.993921,203.344937 132.034477,194.578415 L131,189.949754 L134.422788,186.861407 C136.305322,185.162636 142.571265,179.694879 148.34722,174.71072 C156.909793,167.321942 159.036302,165.720406 159.867042,166.037318 C160.427319,166.251336 164.896808,168.157952 169.799239,170.27447 Z" id="Shape" fill="#000000"></path>
    </g>
</svg>