<?xml version="1.0" encoding="UTF-8"?>
<svg width="512px" height="512px" viewBox="0 0 512 512" version="1.1" xmlns="http://www.w3.org/2000/svg" xmlns:xlink="http://www.w3.org/1999/xlink">
    <title>kepi [2 color]</title>
    <g id="kepi-[2-color]" stroke="none" stroke-width="1" fill="none" fill-rule="evenodd">
        <g id="kepi" transform="translate(-0.028375, 27.994720)" fill-rule="nonzero">
            <path d="M186.94615,453.648237 C130.859509,452.659394 68.9440087,446.964627 25.3469288,406.898407 C8.58292973,389.727585 -5.67250308,362.023249 8.04260105,338.780406 C24.6108789,315.835698 54.538876,332.683724 72.0055226,345.484184 C82.3694406,354.292493 93.7190551,360.351201 87.3900702,341.192244 C85.6088901,286.97439 85.6720771,232.530132 76.9768254,178.862808 C71.263977,138.443275 57.674912,99.1790791 55.8079851,58.1654711 C60.8744745,35.2862701 87.3707674,27.3000087 106.714948,20.7625263 C187.273081,-1.81196741 272.205633,-0.828414817 354.557837,9.7632201 C390.177361,17.8143411 430.093952,21.5085275 458.667367,46.7552874 C472.107303,134.901753 421.327454,244.159154 451.594792,324.198281 C466.148538,312.592176 488.980587,301.665844 504.899144,316.089622 C517.046812,339.094922 503.595243,369.412382 480.430802,378.799037 C444.119532,396.761512 405.047175,407.679777 367.006509,421.058642 C321.115828,435.275821 273.87933,445.318004 226.265549,451.348958 C213.151585,451.95193 200.038537,452.867177 186.94615,453.648237 Z M265.505509,331.402455 C290.676123,288.903971 332.409685,260.512164 363.341132,223.548221 C379.584518,203.486507 389.814075,177.858788 386.390111,151.45155 C384.212417,113.475524 346.927797,82.4099589 309.7938,87.8412528 C288.034293,88.2073751 268.109855,102.245304 256.554828,120.375907 C241.532186,98.2920974 214.210671,86.1773488 187.915336,90.709201 C151.412587,94.9465195 122.582835,132.872736 128.557696,170.129877 C129.718387,207.369628 156.921087,236.249716 183.778057,258.23668 C209.800072,280.87265 237.28234,302.882337 256.973879,331.783378 L261.103979,332.456766 L265.505509,331.402455 Z" id="path817" fill="#000000"></path>
            <path d="M229.887366,0.292157627 C268.861364,-0.880867512 309.712096,1.49774518 353.551763,7.07924542 L354.999876,7.26463112 L355.879014,7.46266827 L356.486297,7.59840374 L357.244963,7.76670653 L358.972082,8.14455007 C362.619491,8.93481815 366.610388,9.75179998 372.538432,10.9379331 L381.540442,12.7423625 L383.951697,13.2351591 L385.07879,13.4678985 C401.851019,16.9375507 413.56477,19.993339 424.743358,24.1833516 C438.687449,29.4099435 450.392631,36.0617357 460.345594,44.8559271 L461.034423,45.4645588 L461.172973,46.3732506 C463.807361,63.6510063 464.151376,82.4591424 462.56548,104.070983 L462.516833,104.726746 C461.261451,121.468239 459.19691,137.427356 455.158364,163.857753 L452.654289,180.150392 C450.925097,191.452316 449.863754,198.653268 448.929739,205.589411 L448.822139,206.391491 L448.715492,207.192527 C448.517188,208.687644 448.322882,210.184221 448.127119,211.720982 L448.043115,212.382167 C446.190729,227.000286 445.033615,239.699982 444.564708,251.586577 C443.524904,277.945168 445.937118,300.110445 452.631127,319.601699 L452.796554,320.079986 L452.872139,320.024032 C460.572417,314.343898 468.873856,310.036137 476.848674,307.992649 L477.120414,307.923863 C488.402399,305.103235 498.548712,306.915239 506.600996,314.211401 L506.931917,314.511248 L507.140433,314.906137 C513.319731,326.608513 513.511482,340.610331 508.254078,353.508039 C503.185345,365.942889 493.529955,376.100038 481.740578,381.001164 L481.473954,381.110381 L481.01952,381.33494 C469.413724,387.050303 457.018791,392.318028 442.991957,397.606886 L442.343403,397.851003 C440.981952,398.362578 439.629521,398.866092 438.272342,399.366504 L437.300964,399.723837 L435.576063,400.354292 C426.437006,403.680925 416.682028,407.015072 402.219382,411.830354 L394.172874,414.506835 L388.624309,416.356799 C380.450011,419.089295 374.349257,421.166418 368.311754,423.286466 L367.802274,423.465521 L367.75656,423.479683 C322.666595,437.448796 275.817644,447.543667 228.032367,453.678733 L226.483351,453.876186 L225.202301,453.935723 C224.812231,453.954085 224.424888,453.97254 224.039007,453.991157 L221.677796,454.108058 C217.446492,454.322995 213.078855,454.574437 206.896323,454.953486 L189.18617,456.052767 L186.999359,456.184134 L186.901471,456.184134 C151.853017,455.564481 125.58388,453.190375 100.883978,447.394889 C70.2531821,440.207802 44.8118673,428.00443 24.253375,409.332391 L23.5813305,408.71813 L23.5333658,408.669002 C14.1658403,399.074149 6.67724225,387.50612 2.8577459,375.909294 C-1.65502594,362.207531 -0.945162275,349.024528 5.85973361,337.492342 L5.91922615,337.391521 L5.98775897,337.296613 C14.2276823,325.885491 26.1047584,322.707726 40.3038442,326.269456 C50.7499168,328.889772 61.8052121,334.908337 73.1595688,343.188232 L73.5773614,343.493789 L73.9760637,343.831369 C79.2810188,348.298779 83.7892894,351.091285 86.0554014,351.291526 L86.3168797,351.311299 C86.4862963,351.322075 86.5221457,351.302194 86.5566783,351.119533 L86.6145486,350.762011 C86.8762252,349.21306 86.4017013,346.322027 85.0422248,342.166142 L84.8688638,341.640479 L84.7810011,338.938146 L84.6598607,335.071803 L84.3803683,325.475082 C84.28672,322.1275 84.1820148,318.282823 84.055837,313.594655 L83.8357901,305.456019 L83.7017809,300.610748 C82.9777419,274.8268 82.2948606,257.876427 81.1479868,240.491915 L81.0466838,238.97543 C79.5970606,217.542976 77.5292056,198.271819 74.5793658,179.915662 L74.4672038,179.217515 L74.3552061,178.430728 C72.5180247,165.616313 70.2791515,154.501881 65.3871868,132.476499 L64.0825518,126.596413 C61.5774696,115.269143 60.0269895,107.964439 58.7049336,100.999621 L58.4752987,99.7810433 L58.3209436,98.9517945 C58.0496351,97.4869161 57.785336,96.0210481 57.521198,94.5194613 L57.3105279,93.3113488 C55.1597789,80.8676671 53.8205301,69.6591199 53.3005626,58.8056203 L53.2607741,57.9453046 L53.3333695,57.6174793 C55.2469038,48.9763603 60.0690092,41.8929051 67.4584038,36.0207824 C73.3782296,31.3164804 80.6735599,27.5352431 90.0618122,23.9127677 L90.3901594,23.7864655 C92.7343297,22.8875287 95.1771888,22.0075316 98.0204951,21.0273544 L99.8868577,20.3887973 L105.966734,18.3399957 L106.031042,18.3219751 C144.832498,7.4487931 186.002986,1.61297366 229.887366,0.292157627 Z M352.912646,12.1079233 C309.761473,6.61403943 269.551003,4.24256244 231.212897,5.32478388 L230.039865,5.35899229 C186.98487,6.65484581 146.60059,12.3311513 108.551153,22.8818662 L107.459371,23.1859999 L101.760634,25.1059364 C101.24293,25.2815934 100.759094,25.4465766 100.283039,25.6098314 L99.0702339,26.0279518 C96.533136,26.9076347 94.3232503,27.7072838 92.2051786,28.5195168 L91.5733195,28.7633219 C82.7755198,32.1791898 75.9983091,35.70919 70.6121464,39.9894065 C64.2155367,45.0725939 60.0953593,51.0386858 58.3843453,58.2691955 L58.3557168,58.391174 L58.3639394,58.5641847 C58.8813936,69.3636284 60.2311204,80.5546709 62.4093245,93.0454691 L62.5136747,93.6412551 C62.7054949,94.7317257 62.8974761,95.8035322 63.0923043,96.8702849 L63.1988727,97.4517305 L63.4509969,98.8111711 C64.9118738,106.623236 66.6134084,114.607888 69.6138018,128.127329 L70.9680644,134.230645 C74.8780821,151.915279 77.0069607,162.382083 78.6674718,172.999562 L78.788596,173.779682 C78.9891305,175.080695 79.1831296,176.386667 79.3730005,177.711111 L79.4824707,178.480478 L79.5841842,179.110762 C82.560179,197.629495 84.6440786,217.048546 86.1035268,238.622545 L86.2061209,240.158225 C87.3816427,257.976988 88.0709462,275.318294 88.8133586,302.060387 L89.5598417,329.293263 L89.7516247,335.729665 L89.8599154,339.161375 L89.9113994,340.747259 L90.0646705,341.225694 C91.4832488,345.710809 92.0086033,349.071938 91.6304078,351.4983 L91.6128536,351.606415 C91.074538,354.792884 88.844407,356.556809 85.7904991,356.354987 C82.0810345,356.109841 76.9265364,352.94398 70.7439341,347.736812 L70.4355335,347.476009 L70.1776314,347.287525 C59.4113478,339.436284 48.9738823,333.733186 39.3644112,331.260929 L39.0705029,331.186258 C26.8609451,328.123586 17.2012812,330.644778 10.3055582,339.979249 L10.1662097,340.169676 L10.0468756,340.374311 C4.26550051,350.379783 3.64272283,361.817844 7.5513887,373.951869 L7.67245656,374.323535 C11.1973645,385.025927 18.1617488,395.836748 26.8952991,404.85508 L27.1122684,405.078162 L27.6625819,405.580936 C47.3304437,423.443383 71.7007314,435.217803 101.13917,442.246117 L102.04193,442.459788 C126.078922,448.099732 151.752637,450.454702 185.951872,451.095181 L186.894354,451.112189 L198.387127,450.403333 L205.27072,449.974734 C212.86379,449.506596 217.784692,449.2238 222.768978,448.977948 L224.96378,448.872207 L226.045287,448.821626 L227.386694,448.650893 C274.405557,442.614234 320.507669,432.721658 364.898102,419.057083 L366.210089,418.651736 L368.725603,417.771168 C374.757384,415.668046 381.070613,413.530744 389.611366,410.683169 L402.219187,406.487341 C419.261241,400.805275 429.629021,397.213337 440.560366,393.105811 L441.841876,392.622616 C455.461904,387.469354 467.508853,382.33786 478.779254,376.787712 L479.391523,376.485423 L479.478931,376.450004 C490.122266,372.13713 498.941494,362.924812 503.55995,351.594604 C508.180238,340.259901 508.10901,328.084622 502.978304,317.894489 L502.864536,317.671575 L502.79383,317.609601 C496.237968,311.906326 488.07217,310.481999 478.641971,312.769691 L478.349913,312.841627 C470.08327,314.908385 461.213612,319.769424 453.175057,326.179891 L450.454765,328.349229 L449.224075,325.094783 C441.247703,304.002018 438.368643,280.05398 439.499518,251.386763 C439.968485,239.498649 441.113667,226.84003 442.939796,212.334007 L443.140817,210.749643 C444.334651,201.402962 445.486758,193.457599 447.822074,178.217275 L449.89808,164.720707 L450.269162,162.29441 C454.208943,136.461066 456.231392,120.757421 457.461895,104.347696 C459.028508,83.4556945 458.776037,65.2839467 456.387873,48.6643898 L456.298546,48.0506948 L456.133592,47.9082123 C446.957983,40.0035781 436.185009,33.9276807 423.365474,29.0810559 L422.964196,28.9299983 C412.299932,24.9327671 401.048907,21.9733862 385.038123,18.636694 L382.002755,18.0097728 L377.945583,17.1891718 L369.695768,15.5380871 C364.88738,14.572309 361.402714,13.8555814 358.203344,13.1646581 L357.380843,12.9862349 L356.302162,12.7497633 L355.995486,12.6820131 C355.552761,12.5840408 355.110896,12.4855394 354.666932,12.3858726 L354.117347,12.2621089 L352.912646,12.1079233 Z M388.913727,151.206358 L388.999343,151.892368 C392.005782,176.945646 383.261415,202.669947 365.846774,224.476811 L365.310967,225.14314 L365.28492,225.174784 C359.898441,231.611777 353.956856,238.075776 347.029505,245.120051 L346.636335,245.519407 C346.255052,245.906255 345.876627,246.28922 345.499284,246.670059 L344.6917,247.483528 L343.721503,248.45651 L343.1362,249.041217 L341.861162,250.309126 C338.1526,253.985602 334.026211,257.979337 327.937828,263.8183 L322.889911,268.658298 C311.646252,279.454805 304.879855,286.134 298.575837,292.840449 L297.954952,293.502651 L297.463755,294.028921 C296.318872,295.25801 295.181521,296.496182 294.027183,297.768749 C283.269238,309.628528 274.671278,320.900477 267.686281,332.694063 L267.139455,333.617333 L261.198942,335.040281 L255.492014,334.109801 L254.87929,333.210513 C247.255283,322.020848 238.095842,311.330695 226.860104,300.177987 L226.335034,299.657763 C217.850776,291.26747 209.534606,283.80581 194.971171,271.248508 L187.13073,264.493177 C185.949021,263.473321 184.879924,262.548865 183.864075,261.668186 L182.144693,260.175104 L181.695646,259.806773 C166.153039,247.037024 154.009993,234.815999 144.742612,221.762722 L144.459814,221.362871 C133.094668,205.231789 126.711953,188.487197 126.042886,170.746731 L126.029453,170.36188 L125.880603,169.376031 C120.529138,131.633443 149.293807,93.3536083 186.48206,88.3347552 L187.550755,88.2004229 L188.298347,88.076426 C213.798584,84.0050353 240.302521,94.9233015 256.20464,115.573305 L256.481032,115.936811 L256.794107,115.495253 C269.521006,97.6966591 289.048622,85.9012757 309.104036,85.3218415 L309.593551,85.3104819 L310.584433,85.1753806 C348.396284,80.3820493 385.920815,111.580967 388.842606,150.135893 L388.913727,151.206358 Z" id="path817" fill="#07F9FE"></path>
        </g>
    </g>
</svg>