<?xml version="1.0" encoding="UTF-8"?>
<!DOCTYPE svg PUBLIC "-//W3C//DTD SVG 1.1//EN" "http://www.w3.org/Graphics/SVG/1.1/DTD/svg11.dtd">
<svg xmlns="http://www.w3.org/2000/svg" version="1.1" width="284px" height="285px" style="shape-rendering:geometricPrecision; text-rendering:geometricPrecision; image-rendering:optimizeQuality; fill-rule:evenodd; clip-rule:evenodd" xmlns:xlink="http://www.w3.org/1999/xlink">
<g><path style="opacity:1" fill="#f24fd7" d="M 227.5,31.5 C 223.69,31.621 220.523,30.2876 218,27.5C 215.908,27.0711 213.908,25.7378 212,23.5C 211.667,23.8333 211.333,24.1667 211,24.5C 179.232,5.3665 143.732,0.53317 104.5,10C 98.4637,11.9318 92.297,14.4318 86,17.5C 84.984,16.3659 84.3173,16.6992 84,18.5C 83.6667,18.1667 83.3333,17.8333 83,17.5C 81.3333,18.8333 79.6667,20.1667 78,21.5C 75.6013,21.0276 73.6013,22.0276 72,24.5C 71.6667,24.1667 71.3333,23.8333 71,23.5C 69.3333,25.1667 67.6667,26.8333 66,28.5C 64.6361,27.7417 63.4695,28.2417 62.5,30C 60.1873,30.662 57.854,31.162 55.5,31.5C 88.624,6.05304 125.957,-3.11363 167.5,4C 190,8.08919 210,17.2559 227.5,31.5 Z"/></g>
<g><path style="opacity:1" fill="#fd52e0" d="M 227.5,31.5 C 238.206,39.8719 247.539,49.5386 255.5,60.5C 255.19,61.7383 254.69,61.7383 254,60.5C 254.432,65.0363 256.599,68.8696 260.5,72C 260.167,72.3333 259.833,72.6667 259.5,73C 278.633,104.768 283.467,140.268 274,179.5C 272.068,185.536 269.568,191.703 266.5,198C 267.634,199.016 267.301,199.683 265.5,200C 265.833,200.333 266.167,200.667 266.5,201C 265.167,202.667 263.833,204.333 262.5,206C 262.972,208.399 261.972,210.399 259.5,212C 259.833,212.333 260.167,212.667 260.5,213C 258.833,214.667 257.167,216.333 255.5,218C 255.833,218.333 256.167,218.667 256.5,219C 253.679,220.621 253.013,222.788 254.5,225.5C 247.803,234.706 240.136,243.206 231.5,251C 229.266,252.75 226.932,254.25 224.5,255.5C 221.788,254.013 219.621,254.679 218,257.5C 217.667,257.167 217.333,256.833 217,256.5C 215.333,258.167 213.667,259.833 212,261.5C 211.667,261.167 211.333,260.833 211,260.5C 179.232,279.633 143.732,284.467 104.5,275C 96.8329,272.947 89.9996,270.114 84,266.5C 83.6667,266.833 83.3333,267.167 83,267.5C 81.3333,266.167 79.6667,264.833 78,263.5C 75.6013,263.972 73.6013,262.972 72,260.5C 71.6667,260.833 71.3333,261.167 71,261.5C 67.8696,257.599 64.0363,255.432 59.5,255C 60.7383,255.69 60.7383,256.19 59.5,256.5C 48.5386,248.539 38.8719,239.206 30.5,228.5C 30.33,227.178 30.6634,226.011 31.5,225C 28.1769,220.966 25.1769,216.966 22.5,213C 22.8333,212.667 23.1667,212.333 23.5,212C 4.3665,180.232 -0.46683,144.732 9,105.5C 10.9318,99.4637 13.4318,93.297 16.5,87C 15.3659,85.984 15.6992,85.3173 17.5,85C 17.1667,84.6667 16.8333,84.3333 16.5,84C 17.8333,82.3333 19.1667,80.6667 20.5,79C 20.0276,76.6013 21.0276,74.6013 23.5,73C 23.1667,72.6667 22.8333,72.3333 22.5,72C 24.1667,70.3333 25.8333,68.6667 27.5,67C 26.7417,65.6361 27.2417,64.4695 29,63.5C 29.662,61.1873 30.162,58.854 30.5,56.5C 37.8333,47.1667 46.1667,38.8333 55.5,31.5C 57.854,31.162 60.1873,30.662 62.5,30C 63.4695,28.2417 64.6361,27.7417 66,28.5C 67.6667,26.8333 69.3333,25.1667 71,23.5C 71.3333,23.8333 71.6667,24.1667 72,24.5C 73.6013,22.0276 75.6013,21.0276 78,21.5C 79.6667,20.1667 81.3333,18.8333 83,17.5C 83.3333,17.8333 83.6667,18.1667 84,18.5C 84.3173,16.6992 84.984,16.3659 86,17.5C 92.297,14.4318 98.4637,11.9318 104.5,10C 143.732,0.53317 179.232,5.3665 211,24.5C 211.333,24.1667 211.667,23.8333 212,23.5C 213.908,25.7378 215.908,27.0711 218,27.5C 220.523,30.2876 223.69,31.621 227.5,31.5 Z M 218.5,76.5 C 243.45,109.656 248.283,145.656 233,184.5C 230.155,189.527 227.321,194.527 224.5,199.5C 217.847,209.153 209.847,217.486 200.5,224.5C 168.537,244.836 134.871,248.003 99.5,234C 90.9458,229.898 82.9458,225.065 75.5,219.5C 38.8276,182.316 31.661,139.983 54,92.5C 79.1403,53.2098 114.974,37.0431 161.5,44C 183.819,49.1555 202.819,59.9889 218.5,76.5 Z"/></g>
<g><path style="opacity:1" fill="#f24fd6" d="M 30.5,56.5 C 30.162,58.854 29.662,61.1873 29,63.5C 27.2417,64.4695 26.7417,65.6361 27.5,67C 25.8333,68.6667 24.1667,70.3333 22.5,72C 22.8333,72.3333 23.1667,72.6667 23.5,73C 21.0276,74.6013 20.0276,76.6013 20.5,79C 19.1667,80.6667 17.8333,82.3333 16.5,84C 16.8333,84.3333 17.1667,84.6667 17.5,85C 15.6992,85.3173 15.3659,85.984 16.5,87C 13.4318,93.297 10.9318,99.4637 9,105.5C -0.46683,144.732 4.3665,180.232 23.5,212C 23.1667,212.333 22.8333,212.667 22.5,213C 25.1769,216.966 28.1769,220.966 31.5,225C 30.6634,226.011 30.33,227.178 30.5,228.5C 5.05304,195.376 -4.11363,158.043 3,116.5C 7.08919,93.9997 16.2559,73.9997 30.5,56.5 Z"/></g>
<g><path style="opacity:1" fill="#f44fd8" d="M 255.5,60.5 C 277.437,90.9131 285.937,124.913 281,162.5C 277.68,185.997 268.847,206.997 254.5,225.5C 253.013,222.788 253.679,220.621 256.5,219C 256.167,218.667 255.833,218.333 255.5,218C 257.167,216.333 258.833,214.667 260.5,213C 260.167,212.667 259.833,212.333 259.5,212C 261.972,210.399 262.972,208.399 262.5,206C 263.833,204.333 265.167,202.667 266.5,201C 266.167,200.667 265.833,200.333 265.5,200C 267.301,199.683 267.634,199.016 266.5,198C 269.568,191.703 272.068,185.536 274,179.5C 283.467,140.268 278.633,104.768 259.5,73C 259.833,72.6667 260.167,72.3333 260.5,72C 256.599,68.8696 254.432,65.0363 254,60.5C 254.69,61.7383 255.19,61.7383 255.5,60.5 Z"/></g>
<g><path style="opacity:1" fill="#ef4ed4" d="M 224.5,199.5 C 227.321,194.527 230.155,189.527 233,184.5C 248.283,145.656 243.45,109.656 218.5,76.5C 218.897,75.475 219.563,75.3083 220.5,76C 222.833,79.6667 225.833,82.6667 229.5,85C 229.167,85.3333 228.833,85.6667 228.5,86C 243.54,108.514 248.707,133.68 244,161.5C 241.57,175.698 236.404,188.198 228.5,199C 229.604,200.131 229.271,200.965 227.5,201.5C 226.482,200.807 225.482,200.141 224.5,199.5 Z"/></g>
<g><path style="opacity:1" fill="#ef4ed5" d="M 75.5,219.5 C 82.9458,225.065 90.9458,229.898 99.5,234C 134.871,248.003 168.537,244.836 200.5,224.5C 199.587,226.086 199.587,227.586 200.5,229C 199.747,230.487 198.914,230.654 198,229.5C 175.486,244.54 150.32,249.707 122.5,245C 104.308,241.364 88.4744,233.531 75,221.5C 74.3083,220.563 74.475,219.897 75.5,219.5 Z"/></g>
<g><path style="opacity:1" fill="#f34fd8" d="M 224.5,255.5 C 200.178,274.273 172.511,283.273 141.5,282.5C 111.037,283.233 83.7039,274.566 59.5,256.5C 60.7383,256.19 60.7383,255.69 59.5,255C 64.0363,255.432 67.8696,257.599 71,261.5C 71.3333,261.167 71.6667,260.833 72,260.5C 73.6013,262.972 75.6013,263.972 78,263.5C 79.6667,264.833 81.3333,266.167 83,267.5C 83.3333,267.167 83.6667,266.833 84,266.5C 89.9996,270.114 96.8329,272.947 104.5,275C 143.732,284.467 179.232,279.633 211,260.5C 211.333,260.833 211.667,261.167 212,261.5C 213.667,259.833 215.333,258.167 217,256.5C 217.333,256.833 217.667,257.167 218,257.5C 219.621,254.679 221.788,254.013 224.5,255.5 Z"/></g>
</svg>
