<?xml version="1.0" encoding="UTF-8"?>
<svg width="512px" height="512px" viewBox="0 0 512 512" version="1.1" xmlns="http://www.w3.org/2000/svg" xmlns:xlink="http://www.w3.org/1999/xlink">
    <title>Libervia</title>
    <g id="Libervia" stroke="none" stroke-width="1" fill="none" fill-rule="evenodd">
        <g transform="translate(0.000000, 45.000000)">
            <path d="M94.2880889,288.937823 C107.397009,295.194983 120.840969,300.748046 134.544232,305.565304 C153.187087,312.118994 172.281798,317.302743 191.427855,322.192786 C208.291534,326.500039 225.212977,330.584446 242.185768,334.444594 C219.313193,352.007876 191.295637,362.784353 162.548951,365.074435 C142.053748,366.707273 121.250462,364.083397 101.727003,357.635778 C93.6513846,354.968808 85.6438012,351.565906 79.2048722,346.009634 C75.9855361,343.231498 73.1927663,339.927311 71.2008831,336.170499 C69.2088715,332.413687 68.0345622,328.195521 68.0345622,323.943209 C68.0345622,318.387065 70.0297836,312.979315 72.847842,308.191196 C77.7970626,299.781308 85.3964364,292.957789 94.2891159,288.938593" id="path5722" fill="#C11616"></path>
            <path d="M255.994455,63 C230.958569,63.6839879 182.830586,77.6813485 155.585501,94.071352 C128.340416,110.461355 109.957773,122.007604 94.7126294,144.942321 C63.9684698,146.638789 25.7607289,144.648142 3.4558911,178.707498 C-15.3588473,223.024775 79.1418114,236.363059 109.573119,273.496801 C94.8357189,292.073934 61.9221074,300.485083 67.9740063,330.585375 C93.8510031,376.898648 196.099888,377.124416 240.247978,335.150383 L254.391727,335.884963 L255.73789,335.954875 L255.73789,335.910106 L256.253648,335.919085 L256.253648,335.954875 L262.704562,335.622636 L262.76585,335.850098 L262.76585,335.614131 L271.743047,335.150665 C315.896266,377.124313 418.129764,376.898545 444.017018,330.585657 C450.069302,300.485365 417.164281,292.074216 402.426881,273.497083 C432.858189,236.364624 527.358847,223.02634 508.544109,178.70778 C486.237989,144.648848 448.03153,146.639713 417.287371,144.942603 C402.042227,122.009169 383.650608,110.461638 356.405523,94.0716342 C329.7605,78.043373 283.20319,64.3343672 257.744184,63.0964903 L257.744184,63 L257.717387,63.0964903 C257.152406,63.0696803 256.538997,63.0150341 255.995416,63 L255.994455,63 Z" id="path4229-path" fill="#E52E2E"></path>
            <path d="M417.081763,288.655414 C403.972843,294.912574 390.528883,300.465637 376.82562,305.282895 C358.182765,311.836585 339.088054,317.020333 319.941996,321.910377 C303.078318,326.21763 286.156875,330.302036 269.184084,334.162185 C292.056659,351.725467 320.074215,362.501944 348.820901,364.792026 C369.316104,366.424864 390.11939,363.800988 409.642849,357.353368 C417.718467,354.686399 425.726051,351.283497 432.16498,345.727225 C435.384316,342.949089 438.176957,339.644902 440.168969,335.88809 C442.16098,332.131278 443.33529,327.913112 443.33529,323.6608 C443.33529,318.104656 441.340068,312.696906 438.52201,307.908787 C433.572789,299.498899 425.973415,292.67538 417.080736,288.656184" id="path6020" fill="#C11616"></path>
            <path d="M94.2880889,288.937823 C107.397009,295.194983 120.840969,300.748046 134.544232,305.565304 C153.187087,312.118994 172.281798,317.302743 191.427855,322.192786 C208.291534,326.500039 225.212977,330.584446 242.185768,334.444594 C219.313193,352.007876 191.295637,362.784353 162.548951,365.074435 C142.053748,366.707273 121.250462,364.083397 101.727003,357.635778 C93.6513846,354.968808 85.6438012,351.565906 79.2048722,346.009634 C75.9855361,343.231498 73.1927663,339.927311 71.2008831,336.170499 C69.2088715,332.413687 68.0345622,328.195521 68.0345622,323.943209 C68.0345622,318.387065 70.0297836,312.979315 72.847842,308.191196 C77.7970626,299.781308 85.3964364,292.957789 94.2891159,288.938593" id="path6253" fill="#C11616"></path>
            <path d="M97.9432145,150.231122 C101.82622,163.704487 104.130955,177.62092 104.796817,191.613965 C105.434663,205.018379 104.569251,218.490467 102.221499,231.707184 C87.2244387,236.61107 70.8512052,237.33377 55.4703673,233.770964 C40.0895293,230.20803 25.7476054,222.370189 14.518547,211.390265 C10.8360878,207.789791 7.45354398,203.816732 5.10875119,199.252106 C2.76395841,194.68748 1.50072164,189.479448 2.18557791,184.404846 C3.02032724,178.219765 6.6981346,172.654596 11.4288115,168.520781 C16.1596177,164.387604 21.8981963,161.547881 27.7322672,159.160419 C49.7898076,150.134337 74.2908635,147.017791 97.9416639,150.229335" id="path4245" fill="#DA1616"></path>
            <g id="left-side-spots" transform="translate(6.000000, 151.000000)" fill="#C11616" fill-rule="nonzero">
                <path d="M51.1177636,48.11378 C51.9505703,48.8220294 52.9548276,49.2949802 53.8537531,49.9173819 C54.7546844,50.5411934 55.5674834,51.3255003 56.5896131,51.7209839 C57.2917481,51.9926752 58.0678058,52.0643356 58.8107846,51.9430134 C59.553867,51.8217042 60.2628352,51.5094299 60.8644915,51.0570939 C62.0678299,50.1524089 62.8085827,48.7000993 62.9659529,47.203521 C63.1233749,45.7069426 62.725161,44.1788083 61.9729936,42.8751867 C61.2208262,41.571565 60.128294,40.483791 58.8970276,39.6175551 C57.4810842,38.6215002 55.7911664,37.8894805 54.0641063,38.0137642 C52.9461567,38.094206 51.8592412,38.5400109 50.9993995,39.2585936 C50.1396095,39.9771633 49.5096887,40.9637773 49.2086665,42.042757 C48.9075407,43.1216591 48.9347699,44.2880125 49.2745394,45.3554821 C49.6143477,46.4228482 50.2640821,47.3879938 51.1176859,48.1139093" id="path5728"></path>
                <path d="M44.8380591,71.7381892 C44.0481973,72.3380141 43.1013079,72.7071693 42.1455482,72.9952823 C41.1898388,73.2834322 40.2107851,73.4986847 39.2704793,73.8318826 C37.3955218,74.4962759 35.6738477,75.628274 33.7028996,75.9255637 C32.0910367,76.1687638 30.3919782,75.8099647 29.0264995,74.9379968 C27.6610208,74.0660535 26.6419375,72.68916 26.2216645,71.1482903 C25.8014419,69.6075434 25.9840125,67.9172918 26.7241577,66.4963208 C27.4642904,65.0753498 28.7550371,63.9369268 30.2766889,63.3631086 C32.4606005,61.113289 35.6737723,59.8565643 38.8422156,60.0130714 C40.2911206,60.0846912 41.7324872,60.4420408 43.0070009,61.1196033 C44.2815147,61.7971781 45.3838988,62.8006414 46.102823,64.0326737 C46.8217096,65.2647061 47.1449366,66.7260938 46.9387453,68.1301119 C46.7325665,69.5341301 45.9838148,70.8678798 44.8381345,71.7378821" id="path5732"></path>
                <path d="M59.0244759,7.68539924 L60.4740398,8.9659758 C60.8737178,9.47606045 61.3676478,9.91240765 61.9236037,10.2464851 C63.3299031,11.0916019 65.1365004,11.2366566 66.6601936,10.6267897 C68.1838867,10.0169228 69.3889588,8.66637367 69.8197172,7.08593951 C70.2504756,5.50550535 69.8968116,3.73212215 68.8925624,2.4364727 C67.8882862,1.14085015 66.2567956,0.353160901 64.6151696,0.37158182 C63.3379764,-0.170383126 61.8210358,-0.116680097 60.5855033,0.514256543 C59.3380157,1.15133797 58.401925,2.36522274 58.1044645,3.7314633 C57.8070579,5.09770385 58.1541985,6.58952936 59.0244086,7.6855068" id="path5736"></path>
                <path d="M84.6291467,76.1703667 L82.2345107,77.0821282 C81.6225104,77.7080634 80.7218658,78.0509724 79.8398746,77.9938364 C79.2094791,77.9530346 78.5940009,77.713477 78.1063244,77.3192057 C77.6187294,76.9249344 77.2613953,76.3778828 77.0999143,75.7784688 C76.9384332,75.1790015 76.9735662,74.5301053 77.1989549,73.9507856 C77.4243164,73.3715059 77.8387517,72.8647361 78.3662075,72.5235206 C78.7685243,71.961255 79.3392373,71.516568 79.9884898,71.259503 C80.6376881,71.0024513 81.3631028,70.9339548 82.0502734,71.0648008 C83.148415,71.2738903 84.1298544,72.0077904 84.6266877,72.9914219 C85.123521,73.9750667 85.1244448,75.1860552 84.6294048,76.1703667" id="path5744"></path>
                <path d="M81.5218488,33.0388627 L79.0407233,35.7709735 C77.9372717,36.1473276 76.7037174,36.0566797 75.6575441,35.5223669 C74.4341839,34.8975715 73.489506,33.667116 73.1468556,32.252017 C72.8041796,30.8369181 73.0698898,29.2638052 73.8531691,28.0710554 C74.3443226,27.3100815 75.0422387,26.707094 75.8370756,26.3570113 C76.6319379,26.0068872 77.5208921,25.9108804 78.3640747,26.0840895 C79.7238451,26.3634035 80.9400057,27.3652555 81.5499973,28.7084698 C82.1599126,30.0517255 82.1491705,31.7046718 81.521836,33.0386285 L81.521836,33.0388214" id="path5748"></path>
                <path d="M20.7794057,21.7761409 L15.2852893,23.848263 C14.6479356,24.6413546 13.7895426,25.261897 12.8285403,25.624333 C11.8674636,25.9868176 10.8062323,26.0902474 9.79117285,25.9203852 C8.57311386,25.7165408 7.4275361,25.1162782 6.57774768,24.236596 C5.72797167,23.3569015 5.17870881,22.2026506 5.03711873,20.9989887 C4.89547906,19.7952539 5.16223129,18.5487466 5.785364,17.5024118 C6.40850911,16.4560528 7.38451354,15.6157023 8.52330937,15.1451799 C9.05836363,13.9383083 9.95421221,12.8877668 11.0708148,12.1577885 C12.1874051,11.4278101 13.5208687,11.0209481 14.8626268,11.0007898 C16.1421448,10.9815798 17.4252583,11.3132312 18.5288426,11.9484243 C19.6324269,12.5836294 20.5532583,13.5204796 21.1599135,14.6254169 C21.7665935,15.730269 22.0573243,16.9999134 21.9906331,18.2530591 C21.9239296,19.5062049 21.5000149,20.739168 20.7793437,21.7761409" id="path5752"></path>
                <path d="M9.98828583,50.6624123 L7.40560283,54.7028162 C6.50766621,55.6203654 5.17719976,56.104498 3.89281563,55.9809831 C3.03334914,55.8983246 2.20149385,55.5528069 1.53986209,55.003547 C0.878134829,54.4542736 0.389359479,53.7036215 0.157256328,52.8802247 C-0.0748741073,52.0567602 -0.0493501273,51.1639816 0.229421937,50.3548203 C0.508221284,49.545686 1.03910916,48.8236133 1.73112141,48.3122655 C2.2229389,47.3906509 3.0612741,46.65545 4.04464988,46.283352 C5.0280666,45.9112135 6.1479568,45.9054058 7.13535695,46.2672795 C8.02022463,46.5916464 8.7933925,47.207006 9.30359927,47.9928419 C9.81373782,48.7787184 10.0579277,49.7306951 9.98836768,50.6623583" id="path5756"></path>
                <path d="M22.4017035,38.4800216 L27.056536,40.6578893 C27.457353,41.5327038 28.160505,42.249983 29.0041805,42.6447159 C29.8478073,43.0394361 30.825214,43.1084281 31.7114901,42.8357953 C32.7274632,42.5232547 33.6006894,41.7735689 34.1653349,40.831973 C34.7299683,39.8903261 34.9956324,38.7678354 35,37.6545583 C35.0084515,35.4281317 34.0122111,33.3255303 32.785714,31.5107045 C32.1157335,30.5193485 31.3654123,29.5789539 30.4739114,28.8043113 C29.5823984,28.029592 28.542792,27.4233211 27.4148375,27.1548413 C26.0737587,26.8357453 24.6306136,27.0139949 23.3962184,27.6511646 C22.1619448,28.2883471 21.1450482,29.3799901 20.5648496,30.6909532 C19.9845782,32.0019163 19.8449053,33.5230884 20.1759283,34.9265691 C20.5069513,36.3300497 21.3063859,37.6062549 22.4019465,38.4800599" id="path5809"></path>
                <path d="M51.1177636,48.11378 C51.9505703,48.8220294 52.9548276,49.2949802 53.8537531,49.9173819 C54.7546844,50.5411934 55.5674834,51.3255003 56.5896131,51.7209839 C57.2917481,51.9926752 58.0678058,52.0643356 58.8107846,51.9430134 C59.553867,51.8217042 60.2628352,51.5094299 60.8644915,51.0570939 C62.0678299,50.1524089 62.8085827,48.7000993 62.9659529,47.203521 C63.1233749,45.7069426 62.725161,44.1788083 61.9729936,42.8751867 C61.2208262,41.571565 60.128294,40.483791 58.8970276,39.6175551 C57.4810842,38.6215002 55.7911664,37.8894805 54.0641063,38.0137642 C52.9461567,38.094206 51.8592412,38.5400109 50.9993995,39.2585936 C50.1396095,39.9771633 49.5096887,40.9637773 49.2086665,42.042757 C48.9075407,43.1216591 48.9347699,44.2880125 49.2745394,45.3554821 C49.6143477,46.4228482 50.2640821,47.3879938 51.1176859,48.1139093" id="path4676"></path>
                <path d="M44.8380591,71.7381892 C44.0481973,72.3380141 43.1013079,72.7071693 42.1455482,72.9952823 C41.1898388,73.2834322 40.2107851,73.4986847 39.2704793,73.8318826 C37.3955218,74.4962759 35.6738477,75.628274 33.7028996,75.9255637 C32.0910367,76.1687638 30.3919782,75.8099647 29.0264995,74.9379968 C27.6610208,74.0660535 26.6419375,72.68916 26.2216645,71.1482903 C25.8014419,69.6075434 25.9840125,67.9172918 26.7241577,66.4963208 C27.4642904,65.0753498 28.7550371,63.9369268 30.2766889,63.3631086 C32.4606005,61.113289 35.6737723,59.8565643 38.8422156,60.0130714 C40.2911206,60.0846912 41.7324872,60.4420408 43.0070009,61.1196033 C44.2815147,61.7971781 45.3838988,62.8006414 46.102823,64.0326737 C46.8217096,65.2647061 47.1449366,66.7260938 46.9387453,68.1301119 C46.7325665,69.5341301 45.9838148,70.8678798 44.8381345,71.7378821" id="path4680"></path>
                <path d="M59.0244759,7.68539924 L60.4740398,8.9659758 C60.8737178,9.47606045 61.3676478,9.91240765 61.9236037,10.2464851 C63.3299031,11.0916019 65.1365004,11.2366566 66.6601936,10.6267897 C68.1838867,10.0169228 69.3889588,8.66637367 69.8197172,7.08593951 C70.2504756,5.50550535 69.8968116,3.73212215 68.8925624,2.4364727 C67.8882862,1.14085015 66.2567956,0.353160901 64.6151696,0.37158182 C63.3379764,-0.170383126 61.8210358,-0.116680097 60.5855033,0.514256543 C59.3380157,1.15133797 58.401925,2.36522274 58.1044645,3.7314633 C57.8070579,5.09770385 58.1541985,6.58952936 59.0244086,7.6855068" id="path4684"></path>
                <path d="M84.6291467,76.1703667 L82.2345107,77.0821282 C81.6225104,77.7080634 80.7218658,78.0509724 79.8398746,77.9938364 C79.2094791,77.9530346 78.5940009,77.713477 78.1063244,77.3192057 C77.6187294,76.9249344 77.2613953,76.3778828 77.0999143,75.7784688 C76.9384332,75.1790015 76.9735662,74.5301053 77.1989549,73.9507856 C77.4243164,73.3715059 77.8387517,72.8647361 78.3662075,72.5235206 C78.7685243,71.961255 79.3392373,71.516568 79.9884898,71.259503 C80.6376881,71.0024513 81.3631028,70.9339548 82.0502734,71.0648008 C83.148415,71.2738903 84.1298544,72.0077904 84.6266877,72.9914219 C85.123521,73.9750667 85.1244448,75.1860552 84.6294048,76.1703667" id="path4688"></path>
                <path d="M81.5218488,33.0388627 L79.0407233,35.7709735 C77.9372717,36.1473276 76.7037174,36.0566797 75.6575441,35.5223669 C74.4341839,34.8975715 73.489506,33.667116 73.1468556,32.252017 C72.8041796,30.8369181 73.0698898,29.2638052 73.8531691,28.0710554 C74.3443226,27.3100815 75.0422387,26.707094 75.8370756,26.3570113 C76.6319379,26.0068872 77.5208921,25.9108804 78.3640747,26.0840895 C79.7238451,26.3634035 80.9400057,27.3652555 81.5499973,28.7084698 C82.1599126,30.0517255 82.1491705,31.7046718 81.521836,33.0386285 L81.521836,33.0388214" id="path4693"></path>
                <path d="M20.7794057,21.7761409 L15.2852893,23.848263 C14.6479356,24.6413546 13.7895426,25.261897 12.8285403,25.624333 C11.8674636,25.9868176 10.8062323,26.0902474 9.79117285,25.9203852 C8.57311386,25.7165408 7.4275361,25.1162782 6.57774768,24.236596 C5.72797167,23.3569015 5.17870881,22.2026506 5.03711873,20.9989887 C4.89547906,19.7952539 5.16223129,18.5487466 5.785364,17.5024118 C6.40850911,16.4560528 7.38451354,15.6157023 8.52330937,15.1451799 C9.05836363,13.9383083 9.95421221,12.8877668 11.0708148,12.1577885 C12.1874051,11.4278101 13.5208687,11.0209481 14.8626268,11.0007898 C16.1421448,10.9815798 17.4252583,11.3132312 18.5288426,11.9484243 C19.6324269,12.5836294 20.5532583,13.5204796 21.1599135,14.6254169 C21.7665935,15.730269 22.0573243,16.9999134 21.9906331,18.2530591 C21.9239296,19.5062049 21.5000149,20.739168 20.7793437,21.7761409" id="path4697"></path>
                <path d="M9.98828583,50.6624123 L7.40560283,54.7028162 C6.50766621,55.6203654 5.17719976,56.104498 3.89281563,55.9809831 C3.03334914,55.8983246 2.20149385,55.5528069 1.53986209,55.003547 C0.878134829,54.4542736 0.389359479,53.7036215 0.157256328,52.8802247 C-0.0748741073,52.0567602 -0.0493501273,51.1639816 0.229421937,50.3548203 C0.508221284,49.545686 1.03910916,48.8236133 1.73112141,48.3122655 C2.2229389,47.3906509 3.0612741,46.65545 4.04464988,46.283352 C5.0280666,45.9112135 6.1479568,45.9054058 7.13535695,46.2672795 C8.02022463,46.5916464 8.7933925,47.207006 9.30359927,47.9928419 C9.81373782,48.7787184 10.0579277,49.7306951 9.98836768,50.6623583" id="path4702"></path>
                <path d="M22.4017035,38.4800216 L27.056536,40.6578893 C27.457353,41.5327038 28.160505,42.249983 29.0041805,42.6447159 C29.8478073,43.0394361 30.825214,43.1084281 31.7114901,42.8357953 C32.7274632,42.5232547 33.6006894,41.7735689 34.1653349,40.831973 C34.7299683,39.8903261 34.9956324,38.7678354 35,37.6545583 C35.0084515,35.4281317 34.0122111,33.3255303 32.785714,31.5107045 C32.1157335,30.5193485 31.3654123,29.5789539 30.4739114,28.8043113 C29.5823984,28.029592 28.542792,27.4233211 27.4148375,27.1548413 C26.0737587,26.8357453 24.6306136,27.0139949 23.3962184,27.6511646 C22.1619448,28.2883471 21.1450482,29.3799901 20.5648496,30.6909532 C19.9845782,32.0019163 19.8449053,33.5230884 20.1759283,34.9265691 C20.5069513,36.3300497 21.3063859,37.6062549 22.4019465,38.4800599" id="path4706"></path>
            </g>
            <path d="M426.683674,147.052892 C423.84328,147.005011 417.718082,147.770956 414.879228,147.881724 C412.029848,162.338506 409.903692,176.212498 408.673415,190.896491 C407.527617,204.571513 409.877415,218.695822 410.148875,232.415773 C425.010015,237.404402 441.83775,237.806707 457.112235,234.276079 C472.38672,230.745451 486.632978,222.903719 497.797126,211.899004 C501.463824,208.284808 504.8381,204.298603 507.169773,199.708427 C509.501445,195.118251 510.746228,189.871089 510.048934,184.770266 C509.200346,178.561886 505.52705,172.993547 500.825066,168.851375 C496.123081,164.709459 490.433564,161.850323 484.669978,159.391181 C466.37885,151.586804 446.566563,147.388278 426.683674,147.051826 L426.683674,147.052892 Z" id="path5966" fill="#DA1616"></path>
            <path d="M246.345602,120.614003 C245.271449,120.614003 244.199044,120.654329 243.125115,120.675388 L236.500432,120.675388 C236.508946,120.754248 236.518355,120.83266 236.526868,120.91152 C203.006915,122.716382 169.979837,133.629925 142.127942,152.390076 C132.701043,158.740093 123.815858,165.998343 116.46889,174.671144 C109.121923,183.343944 103.3414,193.49044 100.602809,204.521869 C98.2679727,213.926365 98.217565,224.059418 101.626734,233.130103 C103.995534,239.432625 107.978543,245.079624 112.854865,249.722502 C117.730739,254.365381 123.490203,258.026543 129.604984,260.845338 C141.834099,266.482927 155.315563,268.732675 168.653198,270.585436 C197.524895,274.59636 226.61525,277.003559 255.7531,277.796639 L255.709189,274.611191 L255.796697,274.611191 L255.752786,277.796639 C284.891084,277.003559 313.99264,274.596494 342.861649,270.585436 C356.199732,268.732496 369.680748,266.482613 381.909863,260.845338 C388.024644,258.026588 393.78366,254.365381 398.659982,249.722502 C403.535856,245.079624 407.510217,239.432625 409.879152,233.130103 C413.288321,224.059418 413.237913,213.926813 410.903076,204.521869 C408.164351,193.49044 402.392476,183.343944 395.045508,174.671144 C387.698541,165.998343 378.804843,158.740093 369.377944,152.390076 C341.04796,133.307316 307.365359,122.322037 273.253956,120.806672 L273.253956,120.675388 L268.195719,120.675388 C266.171348,120.639543 264.146978,120.644023 262.12216,120.675388 L249.380007,120.675388 C248.367643,120.657465 247.355682,120.614003 246.343272,120.614003 L246.345602,120.614003 Z" id="path4239" fill="#D41C1C"></path>
            <g id="eyes" transform="translate(152.000000, 157.000000)" fill="#930000">
                <path d="M71.0094438,42.5531838 C79.3270171,35.4314608 60.4400191,-0.176373187 35.5119312,0.00065781739 C15.203872,0.849313211 -9.19494511,37.4752577 3.5029117,43.2183517 C16.2010264,48.9614458 27.7057026,21.0647439 41.123182,24.3228954 C50.0988618,28.8548891 64.8346176,47.8393816 71.0094438,42.5531838 L71.0094438,42.5531838 Z" id="path4243"></path>
                <path d="M135.990556,42.5531838 C127.672983,35.4314608 146.559981,-0.176373187 171.488069,0.00065781739 C191.796128,0.849313211 216.194945,37.4752577 203.497088,43.2183517 C190.798974,48.9614458 179.294297,21.0647439 165.876818,24.3228954 C156.901138,28.8548891 142.165382,47.8393816 135.990556,42.5531838 L135.990556,42.5531838 Z" id="path5960"></path>
                <path d="M71.0094438,42.5531838 C79.3270171,35.4314608 60.4400191,-0.176373187 35.5119312,0.00065781739 C15.203872,0.849313211 -9.19494511,37.4752577 3.5029117,43.2183517 C16.2010264,48.9614458 27.7057026,21.0647439 41.123182,24.3228954 C50.0988618,28.8548891 64.8346176,47.8393816 71.0094438,42.5531838 L71.0094438,42.5531838 Z" id="path4357"></path>
                <path d="M135.990556,42.5531838 C127.672983,35.4314608 146.559981,-0.176373187 171.488069,0.00065781739 C191.796128,0.849313211 216.194945,37.4752577 203.497088,43.2183517 C190.798974,48.9614458 179.294297,21.0647439 165.876818,24.3228954 C156.901138,28.8548891 142.165382,47.8393816 135.990556,42.5531838 L135.990556,42.5531838 Z" id="path4359"></path>
                <path d="M71.0094438,42.5531838 C79.3270171,35.4314608 60.4400191,-0.176373187 35.5119312,0.00065781739 C15.203872,0.849313211 -9.19494511,37.4752577 3.5029117,43.2183517 C16.2010264,48.9614458 27.7057026,21.0647439 41.123182,24.3228954 C50.0988618,28.8548891 64.8346176,47.8393816 71.0094438,42.5531838 L71.0094438,42.5531838 Z" id="path4558"></path>
                <path d="M135.990556,42.5531838 C127.672983,35.4314608 146.559981,-0.176373187 171.488069,0.00065781739 C191.796128,0.849313211 216.194945,37.4752577 203.497088,43.2183517 C190.798974,48.9614458 179.294297,21.0647439 165.876818,24.3228954 C156.901138,28.8548891 142.165382,47.8393816 135.990556,42.5531838 L135.990556,42.5531838 Z" id="path4560"></path>
                <path d="M71.0094438,42.5531838 C79.3270171,35.4314608 60.4400191,-0.176373187 35.5119312,0.00065781739 C15.203872,0.849313211 -9.19494511,37.4752577 3.5029117,43.2183517 C16.2010264,48.9614458 27.7057026,21.0647439 41.123182,24.3228954 C50.0988618,28.8548891 64.8346176,47.8393816 71.0094438,42.5531838 L71.0094438,42.5531838 Z" id="path4562"></path>
                <path d="M135.990556,42.5531838 C127.672983,35.4314608 146.559981,-0.176373187 171.488069,0.00065781739 C191.796128,0.849313211 216.194945,37.4752577 203.497088,43.2183517 C190.798974,48.9614458 179.294297,21.0647439 165.876818,24.3228954 C156.901138,28.8548891 142.165382,47.8393816 135.990556,42.5531838 L135.990556,42.5531838 Z" id="path4564"></path>
            </g>
            <path d="M229.882998,70.6997234 C234.996401,66.5218649 239.25205,61.2989642 242.310927,55.4470612 C246.34527,47.7292039 248.270273,38.9222741 247.82381,30.2240719 C247.377385,21.5268966 244.560701,12.9624536 239.757306,5.6981197 C247.925991,8.31078956 255.116513,13.8718111 259.700528,21.1202274 C262.921789,26.2148887 264.866946,32.1095381 265.310586,38.121259 C267.248041,35.6263024 268.490128,32.5969507 268.861752,29.4600267 C269.235328,26.3065433 268.728032,23.0534465 267.412095,20.1635022 C266.096068,17.2735578 263.975304,14.7551099 261.351337,12.9666897 C268.289232,16.2639451 274.240748,21.6050726 278.266363,28.1474659 C282.18479,34.5155359 284.268071,41.9983517 284.203759,49.4757762 C284.139575,56.9525588 281.928054,64.3985331 277.900771,70.6988248 L229.882998,70.6988248" id="path4231" fill="#E52E2E"></path>
            <path d="M231.330911,0 L239.086147,1.58819399 C244.568156,2.71085397 249.829362,4.90747173 254.502343,8.02467055 C256.566635,9.40160217 258.51241,10.9575762 260.316788,12.6669535 L260.687493,13.023885 L260.558874,3.79596873 L267.69295,8.90684088 C278.582319,16.7080164 286.164136,29.0363335 288.285669,42.3921495 C289.060403,47.2691121 289.173596,52.3895527 288.776336,58.3181736 C288.451181,63.1709195 287.826169,68.0028646 286.906155,72.776449 L278.178515,71.0436285 C279.027214,66.6400673 279.603824,62.1823181 279.903774,57.7057279 C280.258704,52.4088299 280.160053,47.9461948 279.505994,43.8288832 C278.290748,36.1784699 274.870287,28.9036527 269.875871,23.0306824 L269.71813,22.8478335 L270.035582,45.4886441 L266.224102,38.1101586 C265.319653,39.5119413 264.242566,40.8022968 263.020106,41.9376338 C263.392142,39.5632145 263.375428,37.1284625 262.970813,34.7594347 C262.604644,32.6154357 261.92138,30.5259929 260.950175,28.5798087 L261.255,28.5 L261.108884,28.2229233 C258.37253,23.1417288 254.385473,18.747608 249.618138,15.5676825 C248.566934,14.8664572 247.477684,14.2234183 246.357362,13.6414774 L245.506494,13.2126579 L246.539495,16.1054976 C248.92186,22.7786469 250.180266,27.5595287 250.55159,32.586986 L250.590512,33.1682932 C250.935599,38.9110966 250.078215,44.8609823 248.187325,50.8878712 C245.399849,59.7724066 240.751704,68.0426986 234.635717,75 L228,68.9907489 C233.283611,62.9803246 237.305438,55.8244205 239.713536,48.1490786 C241.288534,43.1290389 241.987856,38.2760341 241.71395,33.7177839 C241.462657,29.5359481 240.385586,25.3629254 238.17841,19.1804916 L231.330911,0 Z" id="path4853" fill="#930000" fill-rule="nonzero"></path>
            <g id="top-spots" transform="translate(182.000000, 42.000000)" fill="#D61616" fill-rule="nonzero">
                <path d="M91.0835411,25.5392056 C90.496038,26.3061755 89.6633767,26.8356399 88.796622,27.2285574 C87.9299172,27.6215782 87.0166726,27.8926203 86.1325653,28.2416653 C84.5910578,28.8502423 83.1117198,29.703654 81.4770826,29.937598 C79.8687864,30.167787 78.1823411,29.7548171 76.8449447,28.8032857 C75.5075484,27.8517543 74.532184,26.3709391 74.1659074,24.7360409 C73.7996683,23.1010137 74.0460623,21.3277878 74.8428575,19.8655411 C75.6395902,18.4032943 76.9788467,17.2662206 78.521353,16.7423306 C80.7524692,15.9630377 83.179707,15.792709 85.4920932,16.2531515 C86.5336719,16.4605397 87.5566746,16.7958035 88.4912167,17.3145063 C89.4257214,17.8332219 90.2707916,18.5397122 90.9003529,19.4220669 C91.5299391,20.3044474 91.9374499,21.3667828 91.9935149,22.4616613 C92.0495675,23.556527 91.7419276,24.6795485 91.0834787,25.5391927" id="path5793"></path>
                <path d="M5.29200413,57.872968 L3.73276705,59.8694992 C3.10858679,60.0723051 2.42148009,60.03768 1.81712563,59.7729712 C1.35635485,59.5711237 0.944803634,59.2381231 0.634667982,58.8162057 C0.324519554,58.3942883 0.116514824,57.8844263 0.0369944997,57.3513421 C-0.042461953,56.8181884 0.00671929185,56.262993 0.178304352,55.7562004 C0.349927735,55.2493524 0.6436228,54.7920182 1.022114,54.4422121 C1.43567078,53.6699608 2.1936879,53.1277932 3.00967501,53.020543 C3.54802441,52.9498484 4.10554811,53.0629042 4.58424131,53.3397796 C5.06297282,53.6166968 5.46072774,54.0562531 5.70761758,54.5811707 C5.95449466,55.1060882 6.0493953,55.7140337 5.97562343,56.298118 C5.90191544,56.8822163 5.6597521,57.4398283 5.29186361,57.8729819 L5.29186361,57.8730791" id="path5797"></path>
                <path d="M71.2891211,9.60050248 L73.9922715,11.2951653 C74.5311124,12.2453598 75.5813238,12.903686 76.695422,12.9896946 C77.2629308,13.0335002 77.8397433,12.9364067 78.3645737,12.7221598 C78.8893353,12.5079531 79.3618946,12.1780087 79.7485603,11.772553 C80.5219192,10.9616417 80.9361243,9.86099896 80.9928545,8.75744477 C81.0495573,7.65393065 80.7648326,6.54926797 80.2794739,5.54975211 C79.7941151,4.55028967 79.1131183,3.64995079 78.3590135,2.82218499 C77.2338087,1.58709376 75.8602406,0.461489861 74.2003099,0.11091141 C72.9541026,-0.152269503 71.6083628,0.0580241463 70.5102295,0.687489425 C69.4121511,1.31696806 68.5728409,2.35931459 68.2089526,3.54540496 C67.8450643,4.73158882 67.9602589,6.04953675 68.524795,7.15936796 C69.089331,8.2691324 70.0974695,9.15946811 71.2891899,9.60046241" id="path5801"></path>
                <path d="M74.7521865,44.6390727 L77.1410864,45.8189013 C77.7519561,46.537829 78.6331916,46.9730459 79.5299864,46.9987718 C80.3041579,47.0209782 81.0827203,46.7413036 81.6942409,46.2213673 C82.3057742,45.701431 82.7457985,44.9449899 82.9173969,44.1186057 C83.0889954,43.2922774 82.9909173,42.4020115 82.6447974,41.644062 C82.2986519,40.8860148 81.7069665,40.2656471 81.0000354,39.9196467 C80.6159428,39.261193 80.058503,38.7253491 79.4122007,38.3934127 C78.7659621,38.0614764 78.0330564,37.934551 77.3247851,38.0318819 C76.6695608,38.1219643 76.0370307,38.4029377 75.5100074,38.8382105 C74.982882,39.2734833 74.5624377,39.8619521 74.3035976,40.5267325 C74.0447576,41.191499 73.9481473,41.9309013 74.0264158,42.6484882 C74.1046588,43.3659774 74.3576146,44.0597798 74.7521737,44.6392403" id="path5805"></path>
                <path d="M48.1007799,49.3276477 L51.5454007,50.6597036 C52.4088493,51.5673953 53.7126134,52.0715778 54.9900216,51.9917596 C55.7340537,51.94521 56.4643122,51.7083591 57.0852175,51.3120034 C57.7061912,50.9156477 58.2164151,50.3608129 58.5492395,49.7199796 C58.8820365,49.0791725 59.0365851,48.3539976 58.9926905,47.639053 C58.9487411,46.9242005 58.7065812,46.2215246 58.2976736,45.6226911 C57.665692,44.5868696 56.6567586,43.7679379 55.4879233,43.3422849 C54.3191564,42.9165135 52.9985518,42.8868217 51.8102747,43.2595738 C50.5414647,43.6575864 49.4345419,44.5133633 48.7587341,45.6188777 C48.0829263,46.7243658 47.8442166,48.0697029 48.1006156,49.3277266" id="path6349"></path>
                <path d="M122.779638,57.3803628 L121.453897,59.8059034 C120.502502,60.1088179 119.443071,60.0553736 118.526653,59.6582229 C117.278185,59.117148 116.328653,57.9298591 116.071797,56.5889363 C115.815035,55.2480271 116.25843,53.7918213 117.218035,52.8243715 C117.545656,52.2548862 118.029685,51.777196 118.602386,51.4582251 C119.175114,51.1391864 119.834918,50.9796941 120.489511,51.00207 C121.210545,51.0267512 121.922613,51.2729803 122.505739,51.6994502 C123.088946,52.1259065 123.540943,52.7307999 123.785632,53.4123543 C124.030334,54.0938815 124.066742,54.8492897 123.888671,55.5513485 C123.710654,56.2534208 123.318955,56.8993095 122.779476,57.3803357 L122.779476,57.3804849" id="path6353"></path>
                <path d="M143.679458,67.6830836 L142.770833,69.3406345 C142.312312,69.8131664 141.570313,70.064415 140.865626,69.985739 C140.429598,69.9370772 140.012366,69.767834 139.689014,69.5085117 C139.365663,69.2491771 139.137719,68.900995 139.046191,68.5265917 C138.954733,68.1521884 139,67.7533444 139.174064,67.4018207 C139.348085,67.0503091 139.650008,66.7477887 140.025461,66.5486899 C140.088627,66.0371432 140.42817,65.5566595 140.924044,65.2768967 C141.419919,64.997134 142.062266,64.9237022 142.624206,65.0825178 C143.20434,65.2464557 143.685985,65.6551662 143.889167,66.1559317 C144.092363,66.6566972 144.012558,67.2381633 143.679388,67.6831079" id="path6357"></path>
                <path d="M26.0251416,42.6320485 L23.4925808,43.8129228 C22.8446527,44.5051145 21.9164727,44.9378637 20.9600199,44.9937332 C20.0779232,45.0452206 19.1801396,44.7777547 18.4763175,44.2537464 C17.7725476,43.7297382 17.2686281,42.9535314 17.0823537,42.1064815 C16.8960402,41.2594573 17.0289352,40.3485018 17.4497822,39.586668 C17.8707074,38.8247832 18.5762623,38.2181013 19.4016442,37.9085384 C19.8031433,37.2718585 20.389614,36.7487318 21.0739057,36.4169387 C21.7581974,36.0850944 22.5380954,35.9455931 23.2978115,36.0191574 C24.0388833,36.0909586 24.7584834,36.3649786 25.3546866,36.802506 C25.9508898,37.2400207 26.4219633,37.8397524 26.7010949,38.516664 C26.9802915,39.1936267 27.0668035,39.9457891 26.9483707,40.6667396 C26.8299378,41.3876646 26.5068989,42.0751675 26.0250374,42.6319463" id="path6394"></path>
                <path d="M113.439619,41.3861181 L110.195971,42.6901716 C109.36701,43.5702703 108.150348,44.0593614 106.952322,43.994225 C106.073578,43.9464421 105.212442,43.6079551 104.531324,43.042628 C103.850112,42.4773008 103.352346,41.6880573 103.131737,40.8234982 C102.911194,39.9590204 102.969007,39.0238563 103.294306,38.1940853 C103.619591,37.364355 104.210667,36.6444576 104.956149,36.1698773 C105.497655,35.3766542 106.268562,34.7468133 107.14784,34.3791693 C108.027077,34.0115523 109.011511,33.9075129 109.946481,34.0834026 C111.470126,34.3700188 112.83423,35.4246807 113.510946,36.8393793 C114.187649,38.2540508 114.160396,39.993998 113.439713,41.386064" id="path6398"></path>
                <path d="M76.9380224,60.6086057 L75.3582086,62.9226939 C74.9043528,63.3707061 74.3349797,63.6994741 73.7213303,63.8678501 C73.107668,64.0362391 72.4510917,64.0438614 71.8337022,63.8898128 C70.6615143,63.5972703 69.6566387,62.698016 69.2318677,61.5615134 C68.8070839,60.4250238 68.974319,59.0830929 69.664877,58.0870221 C70.1540641,57.1524984 71.0354541,56.4337512 72.0461648,56.1452654 C73.0567598,55.856857 74.1824863,56.0027924 75.0871649,56.5394949 C75.7672997,56.9429747 76.3200931,57.559828 76.6484713,58.2817791 C76.976888,59.0037302 77.0794499,59.8275621 76.9381509,60.6085282" id="path6402"></path>
                <path d="M91.0835411,25.5392056 C90.496038,26.3061755 89.6633767,26.8356399 88.796622,27.2285574 C87.9299172,27.6215782 87.0166726,27.8926203 86.1325653,28.2416653 C84.5910578,28.8502423 83.1117198,29.703654 81.4770826,29.937598 C79.8687864,30.167787 78.1823411,29.7548171 76.8449447,28.8032857 C75.5075484,27.8517543 74.532184,26.3709391 74.1659074,24.7360409 C73.7996683,23.1010137 74.0460623,21.3277878 74.8428575,19.8655411 C75.6395902,18.4032943 76.9788467,17.2662206 78.521353,16.7423306 C80.7524692,15.9630377 83.179707,15.792709 85.4920932,16.2531515 C86.5336719,16.4605397 87.5566746,16.7958035 88.4912167,17.3145063 C89.4257214,17.8332219 90.2707916,18.5397122 90.9003529,19.4220669 C91.5299391,20.3044474 91.9374499,21.3667828 91.9935149,22.4616613 C92.0495675,23.556527 91.7419276,24.6795485 91.0834787,25.5391927" id="path4579"></path>
                <path d="M5.29200413,57.872968 L3.73276705,59.8694992 C3.10858679,60.0723051 2.42148009,60.03768 1.81712563,59.7729712 C1.35635485,59.5711237 0.944803634,59.2381231 0.634667982,58.8162057 C0.324519554,58.3942883 0.116514824,57.8844263 0.0369944997,57.3513421 C-0.042461953,56.8181884 0.00671929185,56.262993 0.178304352,55.7562004 C0.349927735,55.2493524 0.6436228,54.7920182 1.022114,54.4422121 C1.43567078,53.6699608 2.1936879,53.1277932 3.00967501,53.020543 C3.54802441,52.9498484 4.10554811,53.0629042 4.58424131,53.3397796 C5.06297282,53.6166968 5.46072774,54.0562531 5.70761758,54.5811707 C5.95449466,55.1060882 6.0493953,55.7140337 5.97562343,56.298118 C5.90191544,56.8822163 5.6597521,57.4398283 5.29186361,57.8729819 L5.29186361,57.8730791" id="path4583"></path>
                <path d="M71.2891211,9.60050248 L73.9922715,11.2951653 C74.5311124,12.2453598 75.5813238,12.903686 76.695422,12.9896946 C77.2629308,13.0335002 77.8397433,12.9364067 78.3645737,12.7221598 C78.8893353,12.5079531 79.3618946,12.1780087 79.7485603,11.772553 C80.5219192,10.9616417 80.9361243,9.86099896 80.9928545,8.75744477 C81.0495573,7.65393065 80.7648326,6.54926797 80.2794739,5.54975211 C79.7941151,4.55028967 79.1131183,3.64995079 78.3590135,2.82218499 C77.2338087,1.58709376 75.8602406,0.461489861 74.2003099,0.11091141 C72.9541026,-0.152269503 71.6083628,0.0580241463 70.5102295,0.687489425 C69.4121511,1.31696806 68.5728409,2.35931459 68.2089526,3.54540496 C67.8450643,4.73158882 67.9602589,6.04953675 68.524795,7.15936796 C69.089331,8.2691324 70.0974695,9.15946811 71.2891899,9.60046241" id="path4587"></path>
                <path d="M74.7521865,44.6390727 L77.1410864,45.8189013 C77.7519561,46.537829 78.6331916,46.9730459 79.5299864,46.9987718 C80.3041579,47.0209782 81.0827203,46.7413036 81.6942409,46.2213673 C82.3057742,45.701431 82.7457985,44.9449899 82.9173969,44.1186057 C83.0889954,43.2922774 82.9909173,42.4020115 82.6447974,41.644062 C82.2986519,40.8860148 81.7069665,40.2656471 81.0000354,39.9196467 C80.6159428,39.261193 80.058503,38.7253491 79.4122007,38.3934127 C78.7659621,38.0614764 78.0330564,37.934551 77.3247851,38.0318819 C76.6695608,38.1219643 76.0370307,38.4029377 75.5100074,38.8382105 C74.982882,39.2734833 74.5624377,39.8619521 74.3035976,40.5267325 C74.0447576,41.191499 73.9481473,41.9309013 74.0264158,42.6484882 C74.1046588,43.3659774 74.3576146,44.0597798 74.7521737,44.6392403" id="path4591"></path>
                <path d="M48.1007799,49.3276477 L51.5454007,50.6597036 C52.4088493,51.5673953 53.7126134,52.0715778 54.9900216,51.9917596 C55.7340537,51.94521 56.4643122,51.7083591 57.0852175,51.3120034 C57.7061912,50.9156477 58.2164151,50.3608129 58.5492395,49.7199796 C58.8820365,49.0791725 59.0365851,48.3539976 58.9926905,47.639053 C58.9487411,46.9242005 58.7065812,46.2215246 58.2976736,45.6226911 C57.665692,44.5868696 56.6567586,43.7679379 55.4879233,43.3422849 C54.3191564,42.9165135 52.9985518,42.8868217 51.8102747,43.2595738 C50.5414647,43.6575864 49.4345419,44.5133633 48.7587341,45.6188777 C48.0829263,46.7243658 47.8442166,48.0697029 48.1006156,49.3277266" id="path4595"></path>
                <path d="M122.779638,57.3803628 L121.453897,59.8059034 C120.502502,60.1088179 119.443071,60.0553736 118.526653,59.6582229 C117.278185,59.117148 116.328653,57.9298591 116.071797,56.5889363 C115.815035,55.2480271 116.25843,53.7918213 117.218035,52.8243715 C117.545656,52.2548862 118.029685,51.777196 118.602386,51.4582251 C119.175114,51.1391864 119.834918,50.9796941 120.489511,51.00207 C121.210545,51.0267512 121.922613,51.2729803 122.505739,51.6994502 C123.088946,52.1259065 123.540943,52.7307999 123.785632,53.4123543 C124.030334,54.0938815 124.066742,54.8492897 123.888671,55.5513485 C123.710654,56.2534208 123.318955,56.8993095 122.779476,57.3803357 L122.779476,57.3804849" id="path4599"></path>
                <path d="M143.679458,67.6830836 L142.770833,69.3406345 C142.312312,69.8131664 141.570313,70.064415 140.865626,69.985739 C140.429598,69.9370772 140.012366,69.767834 139.689014,69.5085117 C139.365663,69.2491771 139.137719,68.900995 139.046191,68.5265917 C138.954733,68.1521884 139,67.7533444 139.174064,67.4018207 C139.348085,67.0503091 139.650008,66.7477887 140.025461,66.5486899 C140.088627,66.0371432 140.42817,65.5566595 140.924044,65.2768967 C141.419919,64.997134 142.062266,64.9237022 142.624206,65.0825178 C143.20434,65.2464557 143.685985,65.6551662 143.889167,66.1559317 C144.092363,66.6566972 144.012558,67.2381633 143.679388,67.6831079" id="path4603"></path>
                <path d="M26.0251416,42.6320485 L23.4925808,43.8129228 C22.8446527,44.5051145 21.9164727,44.9378637 20.9600199,44.9937332 C20.0779232,45.0452206 19.1801396,44.7777547 18.4763175,44.2537464 C17.7725476,43.7297382 17.2686281,42.9535314 17.0823537,42.1064815 C16.8960402,41.2594573 17.0289352,40.3485018 17.4497822,39.586668 C17.8707074,38.8247832 18.5762623,38.2181013 19.4016442,37.9085384 C19.8031433,37.2718585 20.389614,36.7487318 21.0739057,36.4169387 C21.7581974,36.0850944 22.5380954,35.9455931 23.2978115,36.0191574 C24.0388833,36.0909586 24.7584834,36.3649786 25.3546866,36.802506 C25.9508898,37.2400207 26.4219633,37.8397524 26.7010949,38.516664 C26.9802915,39.1936267 27.0668035,39.9457891 26.9483707,40.6667396 C26.8299378,41.3876646 26.5068989,42.0751675 26.0250374,42.6319463" id="path4710"></path>
                <path d="M113.439619,41.3861181 L110.195971,42.6901716 C109.36701,43.5702703 108.150348,44.0593614 106.952322,43.994225 C106.073578,43.9464421 105.212442,43.6079551 104.531324,43.042628 C103.850112,42.4773008 103.352346,41.6880573 103.131737,40.8234982 C102.911194,39.9590204 102.969007,39.0238563 103.294306,38.1940853 C103.619591,37.364355 104.210667,36.6444576 104.956149,36.1698773 C105.497655,35.3766542 106.268562,34.7468133 107.14784,34.3791693 C108.027077,34.0115523 109.011511,33.9075129 109.946481,34.0834026 C111.470126,34.3700188 112.83423,35.4246807 113.510946,36.8393793 C114.187649,38.2540508 114.160396,39.993998 113.439713,41.386064" id="path4714"></path>
                <path d="M76.9380224,60.6086057 L75.3582086,62.9226939 C74.9043528,63.3707061 74.3349797,63.6994741 73.7213303,63.8678501 C73.107668,64.0362391 72.4510917,64.0438614 71.8337022,63.8898128 C70.6615143,63.5972703 69.6566387,62.698016 69.2318677,61.5615134 C68.8070839,60.4250238 68.974319,59.0830929 69.664877,58.0870221 C70.1540641,57.1524984 71.0354541,56.4337512 72.0461648,56.1452654 C73.0567598,55.856857 74.1824863,56.0027924 75.0871649,56.5394949 C75.7672997,56.9429747 76.3200931,57.559828 76.6484713,58.2817791 C76.976888,59.0037302 77.0794499,59.8275621 76.9381509,60.6085282" id="path4718"></path>
            </g>
            <g id="right-side-spots" transform="translate(423.000000, 155.000000)" fill="#C11616" fill-rule="nonzero">
                <path d="M49.0568699,35.2607114 C48.2583533,36.0726975 47.2609829,36.7036715 46.1683392,37.0881289 C45.4979967,38.0222529 44.4391284,38.6921312 43.2799451,38.9155463 C41.8060989,39.199539 40.2203514,38.7508088 39.074558,37.8173662 C37.9288192,36.8839105 37.2201926,35.4997459 37.045304,34.0676618 C36.8704974,32.6357087 37.210806,31.1653623 37.9064663,29.8872446 C38.6021266,28.6091138 39.6419621,27.5183896 40.8437746,26.6522467 C41.5772272,26.1235719 42.3773287,25.6724962 43.2408411,25.3749676 C44.1043124,25.0774259 45.0335856,24.9364713 45.9461487,25.0272787 C47.0890729,25.1410173 48.1847225,25.6229518 49.0385339,26.3605622 C49.8922361,27.0981727 50.5029525,28.0855101 50.7949344,29.1513507 C51.086889,30.2171782 51.062473,31.357591 50.7512123,32.4183213 C50.4399516,33.479117 49.8452075,34.4590641 49.0568426,35.2607377" id="path5970"></path>
                <path d="M27.5578465,69.6713583 C28.2732697,71.6703753 29.6948824,73.4192254 31.548267,74.3086502 C32.6297442,74.8276401 33.8345671,75.0488762 35.0229022,74.9910275 C36.2112496,74.9332175 37.382359,74.5997604 38.454627,74.0601314 C40.6840001,72.9381404 42.477384,70.8982186 43.3612889,68.4792098 C44.2452061,66.0600722 44.2101892,63.2876368 43.2655089,60.8938636 C42.1821875,59.3271987 40.6268272,58.124132 38.8784439,57.5001956 C37.1300606,56.8763493 35.1967569,56.8347235 33.4253815,57.382773 C31.0728101,58.1106515 29.0356115,59.8937113 27.9374006,62.1907912 C26.8392142,64.487871 26.6970567,67.2658428 27.5578711,69.6713326" id="path5975"></path>
                <path d="M23.975383,7.68538807 L22.5258207,8.96596411 C22.1261566,9.47604856 21.6322272,9.91239557 21.0763931,10.2464729 C19.6700953,11.0916028 17.8634999,11.2366574 16.3398084,10.6267908 C14.8161169,10.0169242 13.6110461,8.66637555 13.1802882,7.08594204 C12.7495168,5.50550852 13.1031938,3.73212605 14.1074555,2.43647713 C15.1117441,1.14085511 16.7432194,0.353166183 18.3848437,0.371587094 C19.6620354,-0.170391076 21.1789744,-0.116674623 22.4145056,0.514261758 C23.6619918,1.15134293 24.5980816,2.3652272 24.8955417,3.7314672 C25.1929345,5.09770719 24.8458078,6.58953209 23.9755582,7.68550909" id="path5979"></path>
                <path d="M14.0105569,37.1585561 L17.9211236,40.947613 C19.7154656,41.1687187 21.5875788,40.6832202 23.047737,39.6180976 C24.1719753,38.7980319 25.04956,37.6449149 25.5401065,36.3434337 C26.0305982,35.0419388 26.1321245,33.5968181 25.828434,32.23976 C24.9783768,31.2972752 23.8581842,30.6007212 22.6363969,30.2549705 C21.4146096,29.9091787 20.0952325,29.9152553 18.8765888,30.2723126 C17.4203944,30.6989707 16.1174189,31.6296574 15.2421168,32.8681743 C14.3669104,34.1067322 13.9252956,35.644968 14.0103519,37.1586517" id="path5984"></path>
                <path d="M61.2205943,17.7761409 L66.7147107,19.848263 C67.3520644,20.6413546 68.2104574,21.261897 69.1714597,21.624333 C70.1325364,21.9868176 71.1937677,22.0902474 72.2088272,21.9203852 C73.4268861,21.7165408 74.5724639,21.1162782 75.4222523,20.236596 C76.2720283,19.3569015 76.8212912,18.2026506 76.9628813,16.9989887 C77.1045209,15.7952539 76.8377687,14.5487466 76.214636,13.5024118 C75.5914909,12.4560528 74.6154865,11.6157023 73.4766906,11.1451799 C72.9416364,9.93830831 72.0457878,8.88776683 70.9291852,8.15778847 C69.8125949,7.42781011 68.4791313,7.02094809 67.1373732,7.00078979 C65.8578552,6.98157984 64.5747417,7.31323123 63.4711574,7.94842426 C62.3675731,8.58362945 61.4467417,9.52047959 60.8400865,10.6254169 C60.2334065,11.730269 59.9426757,12.9999134 60.0093669,14.2530591 C60.0760704,15.5062049 60.4999851,16.739168 61.2206563,17.7761409" id="path5992"></path>
                <path d="M64.0117142,56.6624315 L66.5943998,60.7028285 C67.4923373,61.6203626 68.8228051,62.1045079 70.1071906,61.9809797 C70.9666579,61.8983214 71.7985141,61.5528043 72.4601465,61.0035318 C73.1218608,60.4542728 73.6106366,59.703622 73.8427537,58.880213 C74.0748707,58.0567635 74.0493467,57.1639729 73.770588,56.3548129 C73.4917883,55.5456801 72.9608999,54.8236085 72.268887,54.3122616 C71.7770826,53.3906486 70.9387466,52.6554489 69.9553562,52.2833515 C68.9719384,51.9112136 67.8520471,51.9054059 66.864646,52.2672791 C65.9797774,52.5916319 65.2066087,53.207004 64.6964014,53.9928386 C64.1862624,54.7787272 63.9420723,55.7306888 64.0116323,56.6623504" id="path5996"></path>
                <path d="M0.371279191,53.1836321 L2.44616312,56 C3.42735987,55.9562867 4.39209793,55.6057646 5.16633677,55.0117714 C5.98072939,54.3869783 6.57933626,53.4953067 6.84349154,52.5136953 C7.1075652,51.5320705 7.03558221,50.4661204 6.6418113,49.5274202 C6.23900851,48.9637055 5.66759249,48.5178831 5.0175692,48.2601616 C4.36757311,48.0024535 3.64129572,47.9337822 2.953295,48.0649756 C1.85382688,48.2746124 0.871201894,49.0103865 0.373768399,49.9965164 C-0.123665096,50.9826729 -0.12460365,52.1967537 0.371047953,53.1835786" id="path6406"></path>
                <path d="M49.0568699,35.2607114 C48.2583533,36.0726975 47.2609829,36.7036715 46.1683392,37.0881289 C45.4979967,38.0222529 44.4391284,38.6921312 43.2799451,38.9155463 C41.8060989,39.199539 40.2203514,38.7508088 39.074558,37.8173662 C37.9288192,36.8839105 37.2201926,35.4997459 37.045304,34.0676618 C36.8704974,32.6357087 37.210806,31.1653623 37.9064663,29.8872446 C38.6021266,28.6091138 39.6419621,27.5183896 40.8437746,26.6522467 C41.5772272,26.1235719 42.3773287,25.6724962 43.2408411,25.3749676 C44.1043124,25.0774259 45.0335856,24.9364713 45.9461487,25.0272787 C47.0890729,25.1410173 48.1847225,25.6229518 49.0385339,26.3605622 C49.8922361,27.0981727 50.5029525,28.0855101 50.7949344,29.1513507 C51.086889,30.2171782 51.062473,31.357591 50.7512123,32.4183213 C50.4399516,33.479117 49.8452075,34.4590641 49.0568426,35.2607377" id="path4607"></path>
                <path d="M27.5578465,69.6713583 C28.2732697,71.6703753 29.6948824,73.4192254 31.548267,74.3086502 C32.6297442,74.8276401 33.8345671,75.0488762 35.0229022,74.9910275 C36.2112496,74.9332175 37.382359,74.5997604 38.454627,74.0601314 C40.6840001,72.9381404 42.477384,70.8982186 43.3612889,68.4792098 C44.2452061,66.0600722 44.2101892,63.2876368 43.2655089,60.8938636 C42.1821875,59.3271987 40.6268272,58.124132 38.8784439,57.5001956 C37.1300606,56.8763493 35.1967569,56.8347235 33.4253815,57.382773 C31.0728101,58.1106515 29.0356115,59.8937113 27.9374006,62.1907912 C26.8392142,64.487871 26.6970567,67.2658428 27.5578711,69.6713326" id="path4611"></path>
                <path d="M23.975383,7.68538807 L22.5258207,8.96596411 C22.1261566,9.47604856 21.6322272,9.91239557 21.0763931,10.2464729 C19.6700953,11.0916028 17.8634999,11.2366574 16.3398084,10.6267908 C14.8161169,10.0169242 13.6110461,8.66637555 13.1802882,7.08594204 C12.7495168,5.50550852 13.1031938,3.73212605 14.1074555,2.43647713 C15.1117441,1.14085511 16.7432194,0.353166183 18.3848437,0.371587094 C19.6620354,-0.170391076 21.1789744,-0.116674623 22.4145056,0.514261758 C23.6619918,1.15134293 24.5980816,2.3652272 24.8955417,3.7314672 C25.1929345,5.09770719 24.8458078,6.58953209 23.9755582,7.68550909" id="path4615"></path>
                <path d="M14.0105569,37.1585561 L17.9211236,40.947613 C19.7154656,41.1687187 21.5875788,40.6832202 23.047737,39.6180976 C24.1719753,38.7980319 25.04956,37.6449149 25.5401065,36.3434337 C26.0305982,35.0419388 26.1321245,33.5968181 25.828434,32.23976 C24.9783768,31.2972752 23.8581842,30.6007212 22.6363969,30.2549705 C21.4146096,29.9091787 20.0952325,29.9152553 18.8765888,30.2723126 C17.4203944,30.6989707 16.1174189,31.6296574 15.2421168,32.8681743 C14.3669104,34.1067322 13.9252956,35.644968 14.0103519,37.1586517" id="path4619"></path>
                <path d="M61.2205943,17.7761409 L66.7147107,19.848263 C67.3520644,20.6413546 68.2104574,21.261897 69.1714597,21.624333 C70.1325364,21.9868176 71.1937677,22.0902474 72.2088272,21.9203852 C73.4268861,21.7165408 74.5724639,21.1162782 75.4222523,20.236596 C76.2720283,19.3569015 76.8212912,18.2026506 76.9628813,16.9989887 C77.1045209,15.7952539 76.8377687,14.5487466 76.214636,13.5024118 C75.5914909,12.4560528 74.6154865,11.6157023 73.4766906,11.1451799 C72.9416364,9.93830831 72.0457878,8.88776683 70.9291852,8.15778847 C69.8125949,7.42781011 68.4791313,7.02094809 67.1373732,7.00078979 C65.8578552,6.98157984 64.5747417,7.31323123 63.4711574,7.94842426 C62.3675731,8.58362945 61.4467417,9.52047959 60.8400865,10.6254169 C60.2334065,11.730269 59.9426757,12.9999134 60.0093669,14.2530591 C60.0760704,15.5062049 60.4999851,16.739168 61.2206563,17.7761409" id="path4623"></path>
                <path d="M64.0117142,56.6624315 L66.5943998,60.7028285 C67.4923373,61.6203626 68.8228051,62.1045079 70.1071906,61.9809797 C70.9666579,61.8983214 71.7985141,61.5528043 72.4601465,61.0035318 C73.1218608,60.4542728 73.6106366,59.703622 73.8427537,58.880213 C74.0748707,58.0567635 74.0493467,57.1639729 73.770588,56.3548129 C73.4917883,55.5456801 72.9608999,54.8236085 72.268887,54.3122616 C71.7770826,53.3906486 70.9387466,52.6554489 69.9553562,52.2833515 C68.9719384,51.9112136 67.8520471,51.9054059 66.864646,52.2672791 C65.9797774,52.5916319 65.2066087,53.207004 64.6964014,53.9928386 C64.1862624,54.7787272 63.9420723,55.7306888 64.0116323,56.6623504" id="path4627"></path>
                <path d="M0.371279191,53.1836321 L2.44616312,56 C3.42735987,55.9562867 4.39209793,55.6057646 5.16633677,55.0117714 C5.98072939,54.3869783 6.57933626,53.4953067 6.84349154,52.5136953 C7.1075652,51.5320705 7.03558221,50.4661204 6.6418113,49.5274202 C6.23900851,48.9637055 5.66759249,48.5178831 5.0175692,48.2601616 C4.36757311,48.0024535 3.64129572,47.9337822 2.953295,48.0649756 C1.85382688,48.2746124 0.871201894,49.0103865 0.373768399,49.9965164 C-0.123665096,50.9826729 -0.12460365,52.1967537 0.371047953,53.1835786" id="path4723"></path>
            </g>
            <g id="bottom-spots" transform="translate(68.000000, 295.000000)" fill="#B31616" fill-rule="nonzero">
                <path d="M256.27632,53.8052932 L254.05202,57.6430562 C252.646402,58.1125331 251.082321,58.1191163 249.672647,57.6614893 C248.505751,57.2826899 247.447941,56.5904758 246.646971,55.6815153 C245.845948,54.7725153 245.303955,53.6492705 245.096681,52.468633 C244.889368,51.2879692 245.017315,50.0532438 245.462661,48.9365954 C245.908008,47.8200655 246.669524,46.8249567 247.640855,46.090136 C248.136621,45.1955006 248.875017,44.4297123 249.760775,43.8917303 C250.646506,43.3536824 251.677477,43.044639 252.720604,43.0044681 C254.029048,42.9540405 255.351067,43.3319446 256.423939,44.0629602 C257.496879,44.793989 258.314412,45.8738767 258.714221,47.0882203 C259.114016,48.3024982 259.093694,49.6440957 258.657298,50.8463262 C258.220902,52.0485962 257.37096,53.1046394 256.276293,53.8044373 L256.276293,53.805438 L256.276293,53.8053853" id="path6000"></path>
                <path d="M316.67742,45.3509059 L313.632212,49.0779683 C312.888384,50.2289796 311.786373,51.1262125 310.532442,51.6017473 C309.278511,52.0773073 307.879003,52.1287468 306.595787,51.7464643 C304.564271,51.1412646 302.87689,49.4157255 302.26323,47.3158778 C301.649534,45.2160301 302.12876,42.8078229 303.493708,41.1325374 C303.965497,39.4727707 305.03855,38.0052872 306.451668,37.0876526 C307.864664,36.1699171 309.605027,35.810055 311.248905,36.0958553 C313.194509,36.4340541 314.975457,37.6850929 316.001544,39.4344403 C317.027632,41.1837876 317.280872,43.4008473 316.677481,45.3509311" id="path6004"></path>
                <path d="M340.272755,39.8393653 L344.698585,36.3537151 C346.11463,35.8149465 347.772338,35.895543 349.124414,36.5689008 C350.56299,37.2853755 351.624186,38.6627106 351.916273,40.1927826 C352.208333,41.7228546 351.724901,43.3717234 350.644367,44.5311185 C350.370586,45.7598867 349.655455,46.8939265 348.64817,47.6966737 C347.640899,48.499408 346.347951,48.9656501 345.039192,48.9981616 C343.92737,49.0257049 342.809111,48.7431153 341.855604,48.1935352 C340.902164,47.6439552 340.116761,46.8292382 339.619891,45.874359 C339.122927,44.9194412 338.916052,43.8275273 339.030956,42.7658211 C339.145886,41.7041277 339.582166,40.6762586 340.27301,39.83979 L340.27301,39.8394297" id="path6008"></path>
                <path d="M353.961877,9.39991766 L348.619566,6.39641987 C347.011311,5.82410275 345.181975,5.87346783 343.608307,6.53162755 C342.309312,7.07489178 341.196177,8.01742219 340.412194,9.16873611 C339.628236,10.319988 339.16973,11.6738651 339.039463,13.052015 C338.778828,15.8083149 339.831314,18.5839834 341.542813,20.7861677 C342.8674,22.4903557 344.628828,23.9217693 346.706612,24.5875026 C348.685194,25.2215013 350.899047,25.1211322 352.809467,24.3108297 C354.719888,23.5005272 356.309772,21.9875917 357.19245,20.1400017 C358.075052,18.2924116 358.242441,16.1268538 357.653883,14.170005 C357.065326,12.2132804 355.726105,10.4827711 353.962016,9.39974384 L353.962016,9.39991766" id="path6016"></path>
                <path d="M284.384522,56.4962674 L281.339544,55.0510951 C280.362626,54.9001646 279.341246,55.0862691 278.469599,55.574142 C277.409063,56.1676821 276.582835,57.2088038 276.217301,58.4122545 C275.851731,59.6157316 275.951017,60.9676533 276.487949,62.0978471 C277.059939,62.8569691 277.845339,63.436043 278.718871,63.7428231 C279.592467,64.0495767 280.551064,64.0828994 281.442074,63.8375017 C282.852527,63.4489886 284.067073,62.3422133 284.633291,60.9293058 C285.199597,59.5163984 285.104913,57.8292401 284.384497,56.4963335" id="path6024"></path>
                <path d="M30.3845552,1.49626523 L27.3394445,0.0510900166 C26.3625496,-0.0998275849 25.3412675,0.086264013 24.4696192,0.574124697 C23.4090802,1.16766605 22.5828502,2.2087899 22.2173162,3.41224306 C21.8517319,4.61570944 21.9510058,5.96764711 22.4879396,7.09784315 C23.0599305,7.85697998 23.8453319,8.43604181 24.7188663,8.74282253 C25.5924637,9.0495768 26.551063,9.08289954 27.4420757,8.83750141 C28.8525314,8.44898743 30.06708,7.34220986 30.6332993,5.92929952 C31.1995941,4.51638918 31.1049099,2.82922745 30.3845049,1.49631812" id="path5765"></path>
                <path d="M108.790157,53.7583801 L106.363976,57.580511 C104.839663,58.1333877 103.115724,58.1400097 101.587126,57.598869 C100.45643,57.1985995 99.4354154,56.5052318 98.6563222,55.6084708 C97.8771353,54.711723 97.3416242,53.6137454 97.1190224,52.4565372 C96.8964741,51.2993814 96.9874107,50.0858667 97.380117,48.9728487 C97.7727966,47.8599094 98.4662685,46.8502731 99.370761,46.0745174 C99.9229813,45.1269442 100.740166,44.3291983 101.709647,43.7915718 C102.679022,43.2539322 103.797895,42.9778282 104.911574,43.001392 C106.166344,43.0280111 107.409921,43.4370137 108.426665,44.1576561 C109.443395,44.8782985 110.228795,45.9073025 110.646792,47.0663465 C111.064737,48.2253774 111.113351,49.5092688 110.784215,50.6954564 C110.455078,51.8816309 109.749624,52.9648958 108.790224,53.7573048 L108.790224,53.7582621" id="path5769"></path>
                <path d="M50.5216325,59.6768155 L56.0064788,63.3369262 C56.5076937,64.3981999 57.294235,65.3141217 58.2549774,65.9551775 C59.2156826,66.5962716 60.3477669,66.9607244 61.4913251,66.9970113 C62.8829286,67.0412044 64.2849292,66.5939087 65.4095498,65.7469716 C66.53422,64.9000346 67.3746034,63.6586547 67.7583063,62.2775556 C68.1420215,60.8964565 68.0666796,59.3841829 67.5477277,58.050981 C67.0287634,56.717779 66.0694816,55.5719508 64.8665113,54.8485119 C64.4046569,53.0021076 63.2610244,51.3466535 61.7201481,50.2939374 C60.1793956,49.2412596 58.2558067,48.8013336 56.4282672,49.0835565 C54.1852147,49.4299745 52.1262158,50.8792536 50.9951589,52.9077949 C49.8640277,54.9363361 49.6845043,57.5015812 50.5215211,59.6767517" id="path5773"></path>
                <path d="M134.187896,42.105551 C133.545385,42.3626927 132.922089,42.667148 132.324799,43.0155729 C131.725555,43.3651615 131.137737,43.765234 130.461702,43.9255948 C129.732902,44.0984762 128.935868,43.9663939 128.303113,43.5678597 C127.670399,43.1693523 127.210439,42.50969 127.057532,41.7815254 C126.904612,41.0532804 127.060227,40.2660707 127.480384,39.6498027 C127.900002,39.033508 128.577545,38.5962213 129.315184,38.4656239 C129.607955,37.985906 130.037207,37.5892981 130.540163,37.3338017 C131.04312,37.0782919 131.618245,36.964683 132.181472,37.0095888 C132.750669,37.0549361 133.305852,37.2622092 133.764168,37.600374 C134.222471,37.9385389 134.582438,38.406552 134.79032,38.9345467 C134.998202,39.4625413 135.053352,40.0488185 134.947525,40.6058407 C134.841751,41.1629165 134.575229,41.6889982 134.187909,42.1055108" id="path5781"></path>
                <path d="M14.4390157,35.9782945 L8.9882942,40.5363086 C7.244575,41.2423453 5.20256862,41.1370088 3.53757264,40.2551311 C1.7681454,39.3179313 0.462939105,37.5171356 0.10327242,35.5166836 C-0.256381965,33.5162316 0.337375578,31.3601904 1.66568221,29.8434455 C2.00358931,28.2358566 2.88472349,26.7524881 4.12529064,25.7028876 C5.36579629,24.6532244 6.95772729,24.0439793 8.56897007,24.0023215 C9.93653991,23.9669375 11.3119821,24.3368637 12.484712,25.0554353 C13.6574541,25.774007 14.6236463,26.8388151 15.2354733,28.0870429 C15.8472756,29.3352205 16.1026587,30.7625517 15.962556,32.1506845 C15.8224532,33.5388172 15.2873322,34.883159 14.4390157,35.9780561 L14.4390157,35.978282" id="path5789"></path>
                <path d="M52.4138289,24.6789603 L55.4362403,22.3643276 C55.9976081,21.1520175 57.1663484,20.2570331 58.4587774,20.0496948 C59.195066,19.9315842 59.9599301,20.0272589 60.6553411,20.3021111 C61.3507772,20.5769633 61.9764209,21.0284785 62.4804493,21.5917861 C63.4884937,22.7183112 63.9862516,24.2684873 63.9996974,25.797865 C64.0132688,27.3271137 63.5692815,28.8354739 62.8872534,30.1952933 C62.2052254,31.5551126 61.2904722,32.7781248 60.3187315,33.9376977 C59.0237894,35.4826773 57.5465123,36.9774986 55.6687518,37.6412906 C53.9670433,38.2427779 52.0235618,38.0812011 50.4384672,37.2064733 C48.8533725,36.3317585 47.6505402,34.7569675 47.2014259,32.9686749 C46.7523492,31.1802533 47.0638013,29.205124 48.0395758,27.6533105 C49.0153376,26.1014969 50.6407697,24.9963375 52.413854,24.6791408" id="path5813"></path>
                <path d="M256.27632,53.8052932 L254.05202,57.6430562 C252.646402,58.1125331 251.082321,58.1191163 249.672647,57.6614893 C248.505751,57.2826899 247.447941,56.5904758 246.646971,55.6815153 C245.845948,54.7725153 245.303955,53.6492705 245.096681,52.468633 C244.889368,51.2879692 245.017315,50.0532438 245.462661,48.9365954 C245.908008,47.8200655 246.669524,46.8249567 247.640855,46.090136 C248.136621,45.1955006 248.875017,44.4297123 249.760775,43.8917303 C250.646506,43.3536824 251.677477,43.044639 252.720604,43.0044681 C254.029048,42.9540405 255.351067,43.3319446 256.423939,44.0629602 C257.496879,44.793989 258.314412,45.8738767 258.714221,47.0882203 C259.114016,48.3024982 259.093694,49.6440957 258.657298,50.8463262 C258.220902,52.0485962 257.37096,53.1046394 256.276293,53.8044373 L256.276293,53.805438 L256.276293,53.8053853" id="path4631"></path>
                <path d="M316.67742,45.3509059 L313.632212,49.0779683 C312.888384,50.2289796 311.786373,51.1262125 310.532442,51.6017473 C309.278511,52.0773073 307.879003,52.1287468 306.595787,51.7464643 C304.564271,51.1412646 302.87689,49.4157255 302.26323,47.3158778 C301.649534,45.2160301 302.12876,42.8078229 303.493708,41.1325374 C303.965497,39.4727707 305.03855,38.0052872 306.451668,37.0876526 C307.864664,36.1699171 309.605027,35.810055 311.248905,36.0958553 C313.194509,36.4340541 314.975457,37.6850929 316.001544,39.4344403 C317.027632,41.1837876 317.280872,43.4008473 316.677481,45.3509311" id="path4635"></path>
                <path d="M340.272755,39.8393653 L344.698585,36.3537151 C346.11463,35.8149465 347.772338,35.895543 349.124414,36.5689008 C350.56299,37.2853755 351.624186,38.6627106 351.916273,40.1927826 C352.208333,41.7228546 351.724901,43.3717234 350.644367,44.5311185 C350.370586,45.7598867 349.655455,46.8939265 348.64817,47.6966737 C347.640899,48.499408 346.347951,48.9656501 345.039192,48.9981616 C343.92737,49.0257049 342.809111,48.7431153 341.855604,48.1935352 C340.902164,47.6439552 340.116761,46.8292382 339.619891,45.874359 C339.122927,44.9194412 338.916052,43.8275273 339.030956,42.7658211 C339.145886,41.7041277 339.582166,40.6762586 340.27301,39.83979 L340.27301,39.8394297" id="path4639"></path>
                <path d="M353.961877,9.39991766 L348.619566,6.39641987 C347.011311,5.82410275 345.181975,5.87346783 343.608307,6.53162755 C342.309312,7.07489178 341.196177,8.01742219 340.412194,9.16873611 C339.628236,10.319988 339.16973,11.6738651 339.039463,13.052015 C338.778828,15.8083149 339.831314,18.5839834 341.542813,20.7861677 C342.8674,22.4903557 344.628828,23.9217693 346.706612,24.5875026 C348.685194,25.2215013 350.899047,25.1211322 352.809467,24.3108297 C354.719888,23.5005272 356.309772,21.9875917 357.19245,20.1400017 C358.075052,18.2924116 358.242441,16.1268538 357.653883,14.170005 C357.065326,12.2132804 355.726105,10.4827711 353.962016,9.39974384 L353.962016,9.39991766" id="path4643"></path>
                <path d="M284.384522,56.4962674 L281.339544,55.0510951 C280.362626,54.9001646 279.341246,55.0862691 278.469599,55.574142 C277.409063,56.1676821 276.582835,57.2088038 276.217301,58.4122545 C275.851731,59.6157316 275.951017,60.9676533 276.487949,62.0978471 C277.059939,62.8569691 277.845339,63.436043 278.718871,63.7428231 C279.592467,64.0495767 280.551064,64.0828994 281.442074,63.8375017 C282.852527,63.4489886 284.067073,62.3422133 284.633291,60.9293058 C285.199597,59.5163984 285.104913,57.8292401 284.384497,56.4963335" id="path4647"></path>
                <path d="M30.3845552,1.49626523 L27.3394445,0.0510900166 C26.3625496,-0.0998275849 25.3412675,0.086264013 24.4696192,0.574124697 C23.4090802,1.16766605 22.5828502,2.2087899 22.2173162,3.41224306 C21.8517319,4.61570944 21.9510058,5.96764711 22.4879396,7.09784315 C23.0599305,7.85697998 23.8453319,8.43604181 24.7188663,8.74282253 C25.5924637,9.0495768 26.551063,9.08289954 27.4420757,8.83750141 C28.8525314,8.44898743 30.06708,7.34220986 30.6332993,5.92929952 C31.1995941,4.51638918 31.1049099,2.82922745 30.3845049,1.49631812" id="path4651"></path>
                <path d="M108.790157,53.7583801 L106.363976,57.580511 C104.839663,58.1333877 103.115724,58.1400097 101.587126,57.598869 C100.45643,57.1985995 99.4354154,56.5052318 98.6563222,55.6084708 C97.8771353,54.711723 97.3416242,53.6137454 97.1190224,52.4565372 C96.8964741,51.2993814 96.9874107,50.0858667 97.380117,48.9728487 C97.7727966,47.8599094 98.4662685,46.8502731 99.370761,46.0745174 C99.9229813,45.1269442 100.740166,44.3291983 101.709647,43.7915718 C102.679022,43.2539322 103.797895,42.9778282 104.911574,43.001392 C106.166344,43.0280111 107.409921,43.4370137 108.426665,44.1576561 C109.443395,44.8782985 110.228795,45.9073025 110.646792,47.0663465 C111.064737,48.2253774 111.113351,49.5092688 110.784215,50.6954564 C110.455078,51.8816309 109.749624,52.9648958 108.790224,53.7573048 L108.790224,53.7582621" id="path4655"></path>
                <path d="M50.5216325,59.6768155 L56.0064788,63.3369262 C56.5076937,64.3981999 57.294235,65.3141217 58.2549774,65.9551775 C59.2156826,66.5962716 60.3477669,66.9607244 61.4913251,66.9970113 C62.8829286,67.0412044 64.2849292,66.5939087 65.4095498,65.7469716 C66.53422,64.9000346 67.3746034,63.6586547 67.7583063,62.2775556 C68.1420215,60.8964565 68.0666796,59.3841829 67.5477277,58.050981 C67.0287634,56.717779 66.0694816,55.5719508 64.8665113,54.8485119 C64.4046569,53.0021076 63.2610244,51.3466535 61.7201481,50.2939374 C60.1793956,49.2412596 58.2558067,48.8013336 56.4282672,49.0835565 C54.1852147,49.4299745 52.1262158,50.8792536 50.9951589,52.9077949 C49.8640277,54.9363361 49.6845043,57.5015812 50.5215211,59.6767517" id="path4660"></path>
                <path d="M134.187896,42.105551 C133.545385,42.3626927 132.922089,42.667148 132.324799,43.0155729 C131.725555,43.3651615 131.137737,43.765234 130.461702,43.9255948 C129.732902,44.0984762 128.935868,43.9663939 128.303113,43.5678597 C127.670399,43.1693523 127.210439,42.50969 127.057532,41.7815254 C126.904612,41.0532804 127.060227,40.2660707 127.480384,39.6498027 C127.900002,39.033508 128.577545,38.5962213 129.315184,38.4656239 C129.607955,37.985906 130.037207,37.5892981 130.540163,37.3338017 C131.04312,37.0782919 131.618245,36.964683 132.181472,37.0095888 C132.750669,37.0549361 133.305852,37.2622092 133.764168,37.600374 C134.222471,37.9385389 134.582438,38.406552 134.79032,38.9345467 C134.998202,39.4625413 135.053352,40.0488185 134.947525,40.6058407 C134.841751,41.1629165 134.575229,41.6889982 134.187909,42.1055108" id="path4664"></path>
                <path d="M14.4390157,35.9782945 L8.9882942,40.5363086 C7.244575,41.2423453 5.20256862,41.1370088 3.53757264,40.2551311 C1.7681454,39.3179313 0.462939105,37.5171356 0.10327242,35.5166836 C-0.256381965,33.5162316 0.337375578,31.3601904 1.66568221,29.8434455 C2.00358931,28.2358566 2.88472349,26.7524881 4.12529064,25.7028876 C5.36579629,24.6532244 6.95772729,24.0439793 8.56897007,24.0023215 C9.93653991,23.9669375 11.3119821,24.3368637 12.484712,25.0554353 C13.6574541,25.774007 14.6236463,26.8388151 15.2354733,28.0870429 C15.8472756,29.3352205 16.1026587,30.7625517 15.962556,32.1506845 C15.8224532,33.5388172 15.2873322,34.883159 14.4390157,35.9780561 L14.4390157,35.978282" id="path4668"></path>
                <path d="M52.4138289,24.6789603 L55.4362403,22.3643276 C55.9976081,21.1520175 57.1663484,20.2570331 58.4587774,20.0496948 C59.195066,19.9315842 59.9599301,20.0272589 60.6553411,20.3021111 C61.3507772,20.5769633 61.9764209,21.0284785 62.4804493,21.5917861 C63.4884937,22.7183112 63.9862516,24.2684873 63.9996974,25.797865 C64.0132688,27.3271137 63.5692815,28.8354739 62.8872534,30.1952933 C62.2052254,31.5551126 61.2904722,32.7781248 60.3187315,33.9376977 C59.0237894,35.4826773 57.5465123,36.9774986 55.6687518,37.6412906 C53.9670433,38.2427779 52.0235618,38.0812011 50.4384672,37.2064733 C48.8533725,36.3317585 47.6505402,34.7569675 47.2014259,32.9686749 C46.7523492,31.1802533 47.0638013,29.205124 48.0395758,27.6533105 C49.0153376,26.1014969 50.6407697,24.9963375 52.413854,24.6791408" id="path4672"></path>
            </g>
            <g id="top-glare" transform="translate(282.000000, 82.000000)" fill="#F05959">
                <path d="M5.15841203,0 L0,15.1274255 C8.72426163,17.545544 17.2997548,20.5113241 25.6606438,24.002199 C35.2273737,27.9963758 44.5131533,32.6781276 53.4239497,38 L60,23.7146348 C51.7141332,19.2132875 43.2412214,15.0641098 34.6111202,11.2815442 C24.9752372,7.05834764 15.143633,3.29241691 5.15853962,0" id="path6316" fill-rule="nonzero" opacity="0.55"></path>
                <polyline id="path6320" opacity="0.505" transform="translate(71.758702, 39.188399) rotate(0.463569) translate(-71.758702, -39.188399) " points="66.2828734 27.4973829 59.705731 42.9071639 79.7029682 50.879415 83.8116721 35.0523251 66.2828734 27.4973829"></polyline>
            </g>
            <path d="M101.367488,232.430584 L46.6718505,233.804584 L82.911127,252.287381 L108.360034,273.386894 L94.2965301,288.789225 C113.387355,299.339878 133.2968,308.418628 153.777532,315.918387 C173.349134,323.084336 193.512186,328.823188 214.145708,331.775955 C242.429989,334.618856 270.853171,335.432861 297.065138,331.775955 C317.696868,328.823323 337.860368,323.084336 357.433314,315.918387 C377.915838,308.418628 397.824835,299.339878 416.914316,288.789225 L402.859773,273.386894 L428.299719,252.287381 L464.538995,233.804584 L410.174928,232.430584 C392.726719,247.131734 372.183706,258.122837 350.281703,264.51318 C323.179426,272.420233 294.604797,273.218242 266.416851,274.795888 C258.978029,275.630639 251.710369,275.196909 244.792202,274.795888 C216.604256,273.218062 188.030972,272.419964 160.92735,264.51318 C139.024899,258.123285 118.813905,247.131734 101.365696,232.430584 L101.367488,232.430584 Z" id="path4235" fill="#B00202"></path>
            <path d="M238.149884,65.1542344 C212.41214,65.8631199 179.285545,77.563293 151.870034,94.1897474 C126.211878,109.750492 107.965678,121.530806 92.9248229,143.394409 C78.6387702,144.114104 62.4682783,144.163923 46.7432226,148.053262 C30.3468033,152.108401 14.4253448,160.634334 2.96851853,178.271043 L2.75658329,178.59589 L2.60379993,178.954794 C-2.49843508,191.071045 0.301395038,202.372932 7.49397133,211.113495 C14.686676,219.854316 25.7581421,226.787204 38.0814511,233.484152 C61.2544067,246.076905 88.5839116,258.087125 103.061232,273.284589 C96.3251319,280.153037 85.9459533,286.647677 76.8806192,294.304817 C71.7551496,298.634277 67.1532922,303.47323 64.6084006,309.589571 C62.0635089,315.705526 61.929878,323.032247 65.1593038,330.824172 C70.6449735,344.058893 81.9074509,353.612025 95.864882,359.794218 C109.822313,365.97654 126.59485,368.934262 144.029765,369.069177 C178.120402,369.33219 214.643609,358.7968 237.435312,338.047814 C250.084162,339.272918 262.407984,338.660321 274.184446,338.047814 C296.976149,358.797185 333.50064,369.333614 367.591277,369.069177 C385.026192,368.934314 401.798729,365.97654 415.75616,359.794218 C429.713591,353.611896 440.976582,344.058893 446.461738,330.824172 C449.691087,323.032632 449.557456,315.706296 447.012629,309.589571 C444.467609,303.473615 439.865751,298.634663 434.74041,294.304817 C425.675589,286.647806 415.296539,280.15355 408.559797,273.284589 C423.037118,258.085841 450.366622,246.07575 473.539578,233.484152 C485.863015,226.787461 496.93461,219.854059 504.127058,211.113495 C511.319762,202.372932 514.119464,191.071431 509.017229,178.954794 L508.865332,178.59589 L508.653846,178.271043 C497.196378,160.633307 481.275561,152.108401 464.879142,148.053262 C449.154086,144.163974 432.98231,144.114168 418.697541,143.394409 C403.655402,121.530806 385.410487,109.751776 359.75233,94.1897474 C332.336819,77.5622661 304.676125,66.2787363 278.937097,65.5701461 C277.187958,73.5716962 278.085993,69.5869029 277.187958,73.5716962 C308.378766,74.111393 325.800844,89.1311575 355.276659,101.695798 C381.661377,117.698128 398.662408,128.465619 412.925355,150.096878 L414.128777,151.917646 L416.29845,152.045757 C431.395787,152.885578 447.832,152.852639 462.818941,156.559298 C477.658259,160.229462 490.935341,167.329356 501.067411,182.665458 C504.911257,192.03605 503.162502,198.579214 497.448466,205.523912 C491.669219,212.547043 481.41276,219.266969 469.42064,225.782918 C445.437684,238.816101 414.757779,250.89166 398.770853,270.558891 L396.558819,273.28568 L398.728492,276.055344 C406.782545,286.290879 419.960526,293.234807 429.1722,301.016463 C433.778037,304.907163 437.303402,308.878092 439.011977,312.984193 C440.720552,317.090166 440.970099,321.394466 438.461125,327.447393 C434.030254,338.137735 424.804075,346.234021 412.27281,351.784645 C399.740646,357.335654 384.016489,360.1885 367.523794,360.315841 C334.535837,360.570792 298.573597,349.742056 278.414717,330.422831 L277.067112,329.132092 C262.566685,329.891657 248.391029,329.796216 234.555547,329.132092 L233.207942,330.422831 C213.049063,349.742185 177.086823,360.571292 144.098865,360.315841 C127.604886,360.188628 111.881114,357.335654 99.3498496,351.784645 C86.8176862,346.233636 77.5915072,338.137864 73.1615344,327.447393 C70.6525857,321.393953 70.9021327,317.089652 72.6106825,312.984193 C74.3192579,308.878092 77.8446228,304.907163 82.4504596,301.016463 C91.662133,293.23532 104.839088,286.291392 112.894167,276.055344 L115.06384,273.28568 L112.851806,270.558891 C96.8635963,250.89166 66.1849754,238.816101 42.202019,225.782918 C30.2102841,219.266455 19.9533116,212.546914 14.1741932,205.523912 C8.46015726,198.579984 6.7114027,192.036307 10.5552482,182.665458 C20.6883457,167.329356 33.9644005,160.229333 48.8037183,156.559298 C63.7906592,152.852549 80.2281562,152.88554 95.3242096,152.045757 L97.4938822,151.917646 L98.6973432,150.096878 C112.96029,128.466903 129.962605,117.698128 156.346039,101.695798 C185.904009,89.1008627 202.685532,75.1454855 234.034233,74.6243122 C234.034233,74.6243122 234.566086,70.8619803 238.15009,65.1542344 L238.149884,65.1542344 Z" id="path4742" fill="#930000"></path>
        </g>
    </g>
</svg>