<?xml version="1.0" encoding="UTF-8"?>
<!DOCTYPE svg PUBLIC "-//W3C//DTD SVG 1.1//EN" "http://www.w3.org/Graphics/SVG/1.1/DTD/svg11.dtd">
<svg xmlns="http://www.w3.org/2000/svg" version="1.1" width="384px" height="384px" style="shape-rendering:geometricPrecision; text-rendering:geometricPrecision; image-rendering:optimizeQuality; fill-rule:evenodd; clip-rule:evenodd" xmlns:xlink="http://www.w3.org/1999/xlink">
<g><path style="opacity:0.022" fill="#000000" d="M 82.5,86.5 C 96.2405,84.8134 108.907,87.6467 120.5,95C 132.306,105.295 142.973,116.629 152.5,129C 155.993,131.136 159.326,130.969 162.5,128.5C 171.649,118.183 180.982,108.017 190.5,98C 205.607,86.7443 222.273,83.7443 240.5,89C 246.982,92.3251 253.482,95.4917 260,98.5C 266.908,94.63 274.075,91.13 281.5,88C 308.26,81.7995 327.426,90.9662 339,115.5C 341.825,125.073 342.159,134.74 340,144.5C 337.542,150.412 335.375,156.412 333.5,162.5C 337.435,171.473 340.268,180.807 342,190.5C 342.667,214.833 342.667,239.167 342,263.5C 339.851,286.313 327.684,300.48 305.5,306C 290.341,308.611 276.675,305.277 264.5,296C 261.833,295.333 259.167,295.333 256.5,296C 238.088,308.021 218.755,309.688 198.5,301C 192.042,296.876 186.542,291.71 182,285.5C 178.83,279.316 175.664,273.149 172.5,267C 164.627,267.045 156.794,266.878 149,266.5C 146.833,266.667 144.667,266.833 142.5,267C 129.541,300.813 105.541,312.813 70.5,303C 54.5709,294.994 45.0709,282.16 42,264.5C 40.3848,222.523 40.0515,180.523 41,138.5C 42.2784,110.86 56.1117,93.5272 82.5,86.5 Z"/></g>
<g><path style="opacity:1" fill="#94ce3c" d="M 115.5,109.5 C 115.586,110.496 115.252,111.329 114.5,112C 96.3634,123.971 78.3634,136.138 60.5,148.5C 59.5025,140.862 59.1692,133.196 59.5,125.5C 64.5552,105.287 77.5552,96.4534 98.5,99C 105.507,100.495 111.174,103.995 115.5,109.5 Z"/></g>
<g><path style="opacity:0.997" fill="#91cb45" d="M 322.5,117.5 C 322.657,118.873 322.49,120.207 322,121.5C 304.667,137.5 287.333,137.5 270,121.5C 269.51,120.207 269.343,118.873 269.5,117.5C 273.615,105.064 282.282,98.731 295.5,98.5C 309.247,98.2665 318.247,104.6 322.5,117.5 Z"/></g>
<g><path style="opacity:0.998" fill="#8dbf03" d="M 255.5,125.5 C 255.5,128.5 255.5,131.5 255.5,134.5C 229.661,134.831 203.995,134.498 178.5,133.5C 186.252,123.575 194.586,114.075 203.5,105C 220.783,94.6022 236.283,96.7689 250,111.5C 252.917,115.751 254.75,120.418 255.5,125.5 Z"/></g>
<g><path style="opacity:1" fill="#83be35" d="M 269.5,117.5 C 269.343,118.873 269.51,120.207 270,121.5C 287.333,137.5 304.667,137.5 322,121.5C 322.49,120.207 322.657,118.873 322.5,117.5C 327.162,133.638 321.829,145.471 306.5,153C 287.262,157.802 274.429,150.968 268,132.5C 267.333,128.5 267.333,124.5 268,120.5C 268.232,119.263 268.732,118.263 269.5,117.5 Z"/></g>
<g><path style="opacity:1" fill="#92cc2e" d="M 115.5,109.5 C 122.49,117.459 129.49,125.459 136.5,133.5C 135.636,134.688 134.636,135.855 133.5,137C 120.075,145.462 106.908,154.295 94,163.5C 93.3333,162.833 92.6667,162.167 92,161.5C 89.3201,164.562 86.1535,165.228 82.5,163.5C 72.8734,159.136 65.3734,161.469 60,170.5C 59.5001,186.83 59.3334,203.163 59.5,219.5C 59.5,230.833 59.5,242.167 59.5,253.5C 59.5,254.5 59.5,255.5 59.5,256.5C 58.1667,212.833 58.1667,169.167 59.5,125.5C 59.1692,133.196 59.5025,140.862 60.5,148.5C 78.3634,136.138 96.3634,123.971 114.5,112C 115.252,111.329 115.586,110.496 115.5,109.5 Z"/></g>
<g><path style="opacity:1" fill="#92cb22" d="M 136.5,133.5 C 141.833,139.5 147.167,145.5 152.5,151.5C 152.733,153.062 153.4,154.395 154.5,155.5C 154.063,157.074 153.063,158.241 151.5,159C 137.726,167.775 124.226,176.942 111,186.5C 109.27,184.398 107.437,184.565 105.5,187C 115.251,198.642 124.418,210.809 133,223.5C 134.741,226.309 135.908,229.309 136.5,232.5C 137.5,232.5 138.5,232.5 139.5,232.5C 139.448,234.903 139.781,237.236 140.5,239.5C 136.07,236.016 132.07,232.016 128.5,227.5C 126.745,224.32 124.745,221.32 122.5,218.5C 109.411,199.99 96.078,181.656 82.5,163.5C 86.1535,165.228 89.3201,164.562 92,161.5C 92.6667,162.167 93.3333,162.833 94,163.5C 106.908,154.295 120.075,145.462 133.5,137C 134.636,135.855 135.636,134.688 136.5,133.5 Z"/></g>
<g><path style="opacity:1" fill="#87bb0a" d="M 178.5,133.5 C 203.995,134.498 229.661,134.831 255.5,134.5C 255.667,146.505 255.5,158.505 255,170.5C 250.212,161.587 243.045,159.087 233.5,163C 224.205,173.781 215.539,184.947 207.5,196.5C 207.565,196.062 207.399,195.728 207,195.5C 201.623,199.275 196.123,199.442 190.5,196C 178.263,182.603 166.263,169.103 154.5,155.5C 153.4,154.395 152.733,153.062 152.5,151.5C 155.803,152.826 159.136,152.826 162.5,151.5C 167.851,145.427 173.184,139.427 178.5,133.5 Z"/></g>
<g><path style="opacity:1" fill="#739e01" d="M 255.5,125.5 C 256.665,168.998 256.831,212.665 256,256.5C 255.344,262.807 252.844,268.141 248.5,272.5C 249.912,251.692 251.245,230.859 252.5,210C 252.376,202.807 251.876,195.64 251,188.5C 247.147,176.885 240.314,174.719 230.5,182C 215.266,199.658 202.432,218.825 192,239.5C 191.501,244.823 191.334,250.156 191.5,255.5C 190.506,246.348 190.173,237.015 190.5,227.5C 188.435,227.517 186.435,227.85 184.5,228.5C 192.167,217.833 199.833,207.167 207.5,196.5C 215.539,184.947 224.205,173.781 233.5,163C 243.045,159.087 250.212,161.587 255,170.5C 255.5,158.505 255.667,146.505 255.5,134.5C 255.5,131.5 255.5,128.5 255.5,125.5 Z"/></g>
<g><path style="opacity:1" fill="#7aa500" d="M 248.5,272.5 C 240.12,282.351 229.454,286.185 216.5,284C 201.878,279.885 193.544,270.385 191.5,255.5C 191.334,250.156 191.501,244.823 192,239.5C 202.432,218.825 215.266,199.658 230.5,182C 240.314,174.719 247.147,176.885 251,188.5C 251.876,195.64 252.376,202.807 252.5,210C 251.245,230.859 249.912,251.692 248.5,272.5 Z"/></g>
<g><path style="opacity:1" fill="#9fd809" d="M 82.5,163.5 C 96.078,181.656 109.411,199.99 122.5,218.5C 101.673,219.497 80.6733,219.831 59.5,219.5C 59.3334,203.163 59.5001,186.83 60,170.5C 65.3734,161.469 72.8734,159.136 82.5,163.5 Z"/></g>
<g><path style="opacity:1" fill="#92cb0e" d="M 154.5,155.5 C 166.263,169.103 178.263,182.603 190.5,196C 196.123,199.442 201.623,199.275 207,195.5C 207.399,195.728 207.565,196.062 207.5,196.5C 199.833,207.167 192.167,217.833 184.5,228.5C 176.506,242.658 164.506,247.825 148.5,244C 145.609,242.726 142.942,241.226 140.5,239.5C 139.781,237.236 139.448,234.903 139.5,232.5C 138.5,232.5 137.5,232.5 136.5,232.5C 135.908,229.309 134.741,226.309 133,223.5C 124.418,210.809 115.251,198.642 105.5,187C 107.437,184.565 109.27,184.398 111,186.5C 124.226,176.942 137.726,167.775 151.5,159C 153.063,158.241 154.063,157.074 154.5,155.5 Z"/></g>
<g><path style="opacity:1" fill="#8fc73a" d="M 323.5,182.5 C 323.5,188.833 323.5,195.167 323.5,201.5C 305.167,201.5 286.833,201.5 268.5,201.5C 268.5,195.167 268.5,188.833 268.5,182.5C 272.145,168.405 281.311,160.738 296,159.5C 306.179,159.921 314.179,164.254 320,172.5C 321.868,175.605 323.035,178.938 323.5,182.5 Z"/></g>
<g><path style="opacity:1" fill="#9bd105" d="M 122.5,218.5 C 124.745,221.32 126.745,224.32 128.5,227.5C 126.901,227.232 125.568,227.566 124.5,228.5C 123.507,236.65 123.174,244.983 123.5,253.5C 102.167,253.5 80.8333,253.5 59.5,253.5C 59.5,242.167 59.5,230.833 59.5,219.5C 80.6733,219.831 101.673,219.497 122.5,218.5 Z"/></g>
<g><path style="opacity:1" fill="#86bb23" d="M 268.5,182.5 C 268.5,188.833 268.5,195.167 268.5,201.5C 286.833,201.5 305.167,201.5 323.5,201.5C 323.5,195.167 323.5,188.833 323.5,182.5C 324.495,194.322 324.828,206.322 324.5,218.5C 323.509,225.313 323.175,232.313 323.5,239.5C 305.167,239.5 286.833,239.5 268.5,239.5C 268.824,232.646 268.491,225.979 267.5,219.5C 267.171,206.989 267.505,194.655 268.5,182.5 Z"/></g>
<g><path style="opacity:1" fill="#96ca02" d="M 124.5,228.5 C 124.666,237.173 124.5,245.84 124,254.5C 119.83,276.339 106.663,286.172 84.5,284C 70.0737,280.28 61.7403,271.113 59.5,256.5C 59.5,255.5 59.5,254.5 59.5,253.5C 80.8333,253.5 102.167,253.5 123.5,253.5C 123.174,244.983 123.507,236.65 124.5,228.5 Z"/></g>
<g><path style="opacity:1" fill="#7eaf0f" d="M 324.5,218.5 C 324.667,233.17 324.5,247.837 324,262.5C 317.49,281.007 304.657,287.84 285.5,283C 276.416,278.918 270.583,272.085 268,262.5C 267.5,248.171 267.333,233.837 267.5,219.5C 268.491,225.979 268.824,232.646 268.5,239.5C 286.833,239.5 305.167,239.5 323.5,239.5C 323.175,232.313 323.509,225.313 324.5,218.5 Z"/></g>
</svg>
