<?xml version="1.0" encoding="UTF-8" standalone="no"?>
<!DOCTYPE svg PUBLIC "-//W3C//DTD SVG 1.1//EN" "http://www.w3.org/Graphics/SVG/1.1/DTD/svg11.dtd">
<svg width="100%" height="100%" viewBox="0 0 115 115" version="1.1" xmlns="http://www.w3.org/2000/svg" xmlns:xlink="http://www.w3.org/1999/xlink" xml:space="preserve" xmlns:serif="http://www.serif.com/" style="fill-rule:evenodd;clip-rule:evenodd;stroke-linejoin:round;stroke-miterlimit:2;">
    <g id="_WTrHMt3eZfxcQKrYJirRK" transform="matrix(0.952942,0,0,0.952942,-41.7412,-186.453)">
        <g id="_1MYZsbAYvxe5D-50H3pho" transform="matrix(1.26028,0,0,1.26028,41.3164,192.797)">
            <path d="M82.1,74L75,81.1L82.1,74L74,65.9L82.1,74Z" style="fill-rule:nonzero;"/>
        </g>
        <g id="_sK1htog-8Op55rgRI5hDg" transform="matrix(1.26028,0,0,1.26028,41.3166,192.734)">
            <path d="M61.1,52.9L56.2,57.8C58.7,59 60.5,61.6 60.5,64.7C60.5,68.9 57.1,72.3 52.9,72.3C49.9,72.3 47.3,70.5 46,68L40,74L61,95L69.1,86.9C65.9,86.9 63.2,84.3 63.2,81C63.2,77.7 65.8,75.1 69.1,75.1C72.3,75.1 75,77.7 75,81L82.1,73.9L74,65.9L73.4,65.3L73.8,65.3C77,65.3 79.7,62.7 79.7,59.4C79.7,57.9 79.1,56.6 78.2,55.5C77.2,54.6 75.8,54 74.3,54C71.1,54 68.4,56.6 68.4,59.9L68.4,60.3L68,59.9L61.1,52.9Z" style="fill:rgb(8,59,102);fill-rule:nonzero;"/>
        </g>
        <g id="_OMWHsyuaoclMfPE9tvM7V" transform="matrix(1.26028,0,0,1.26028,41.3802,192.797)">
            <path d="M46.5,49.5C42.3,49.5 38.9,46.1 38.9,41.9C38.9,38.9 40.6,36.3 43.1,35.1L37.2,29.2L16.2,50.2L38.4,72.4L47.9,62.9C47.6,63.5 47.5,64.2 47.5,64.9C47.5,67.8 49.9,70.2 52.8,70.2C55.7,70.2 58.1,67.8 58.1,64.9C58.1,62 55.7,59.6 52.8,59.6C52.1,59.6 51.4,59.7 50.8,60L59.4,51.4L53.4,45.4C52.1,47.7 49.5,49.5 46.5,49.5Z" style="fill:rgb(141,202,255);fill-rule:nonzero;"/>
        </g>
        <g id="_jAk8zpl6O80_21e1JT4hk" transform="matrix(1.26028,0,0,1.26028,41.506,192.986)">
            <path d="M83.3,27.4L74.6,18.7L75,18.7C78.2,18.7 80.9,16.1 80.9,12.8C80.9,9.6 78.3,7 75,7C71.8,7 69.1,9.6 69.1,12.9L69.1,13.3L61,5.2L40,26.2L39.3,27L38.9,27.4L48.4,36.9C47.8,36.7 47.2,36.6 46.6,36.6C43.7,36.6 41.3,39 41.3,41.9C41.3,44.8 43.7,47.2 46.6,47.2C49.5,47.2 51.9,44.8 51.9,41.9C51.9,41.4 51.8,41 51.7,40.5C51.7,40.3 51.6,40.2 51.6,40L61.3,49.7L69.3,41.7C66.1,41.7 63.4,39.1 63.4,35.8C63.4,32.5 66,29.9 69.3,29.9C72.5,29.9 75.2,32.5 75.2,35.8L83.3,27.4Z" style="fill:rgb(192,217,180);fill-rule:nonzero;"/>
        </g>
        <g id="_TbX_b0jxU8J0Cb3YWVDy6_" serif:id="_TbX_b0jxU8J0Cb3YWVDy6" transform="matrix(1.26028,0,0,1.26028,41.5055,192.986)">
            <path d="M51.6,40.5L51.9,40.5L51.5,40C51.5,40.1 51.5,40.3 51.6,40.5Z" style="fill-rule:nonzero;"/>
        </g>
    </g>
</svg>
