<?xml version="1.0" encoding="UTF-8"?>
<svg width="512px" height="512px" viewBox="0 0 512 512" version="1.1" xmlns="http://www.w3.org/2000/svg" xmlns:xlink="http://www.w3.org/1999/xlink">
    <title>notestock [2 color]</title>
    <g id="notestock-[2-color]" stroke="none" stroke-width="1" fill="none" fill-rule="evenodd">
        <g id="notestock" transform="translate(256.000000, 256.000000) scale(-1, 1) rotate(-180.000000) translate(-256.000000, -256.000000) translate(69.000000, 0.000000)" fill-rule="nonzero">
            <g id="g48">
                <g id="g58" fill="#2EBACB">
                    <path d="M366.085547,103.644371 C360.810703,109.055348 354.448961,111.764118 347.000322,111.764118 L298.977809,111.764118 C291.52917,111.764118 285.167428,109.055348 279.892584,103.644371 C274.615553,98.2290191 271.978131,91.7765449 271.978131,84.2825727 L271.978131,25.9105458 C271.978131,18.4165736 272.428636,0 272.428636,0 L373.967196,0 C373.967196,0 374,18.4165736 374,25.9105458 L374,84.2825727 C374,91.7765449 371.360391,98.2290191 366.085547,103.644371 M211.011256,238.082952 L162.988744,238.082952 C155.540104,238.082952 149.178362,235.37637 143.903518,229.963205 C138.626487,224.547853 135.989065,218.097567 135.989065,210.603595 L135.989065,25.9105458 C135.989065,18.4165736 136.216505,0 136.216505,0 L237.755065,0 C237.755065,0 238.010935,18.4165736 238.010935,25.9105458 L238.010935,210.603595 C238.010935,218.097567 235.371326,224.547853 230.096482,229.963205 C224.821638,235.37637 218.459896,238.082952 211.011256,238.082952 M75.0221908,376.67002 L26.9996784,376.67002 C19.5510388,376.67002 13.189297,373.96125 7.91445295,368.550274 C2.63742201,363.132733 0,356.684635 0,349.188475 L0,25.9105458 C0,18.1080626 0.00437383418,0 0.00437383418,0 L101.545121,0 C101.545121,0 102.021869,18.0752423 102.021869,25.9105458 L102.021869,349.188475 C102.021869,356.684635 99.3822602,363.132733 94.1074162,368.550274 C88.8325722,373.96125 82.4708304,376.67002 75.0221908,376.67002" id="path60"></path>
                </g>
                <g id="g62" transform="translate(0.356467, 134.546669)" fill="#E02691">
                    <path d="M299.618576,102.963897 C292.191805,102.963897 285.801634,100.301075 280.434939,94.9776198 C275.072619,89.6541645 272.389271,83.2323225 272.389271,75.7142821 L272.389271,27.2496147 C272.389271,19.7315743 275.072619,13.3119204 280.434939,7.98846503 C285.801634,2.66282168 292.191805,0 299.618576,0 L347.549238,0 C354.976008,0 373.223644,0.0328203165 373.223644,0.0328203165 L373.223644,102.510976 C373.223644,102.510976 354.976008,102.963897 347.549238,102.963897 L299.618576,102.963897 Z M167.025793,240.209708 C159.599022,240.209708 153.206664,237.546886 147.839969,232.221243 C142.479835,226.897788 139.796488,220.478134 139.796488,212.960093 L139.796488,164.495426 C139.796488,156.979574 142.479835,150.557732 147.839969,145.232088 C153.206664,139.908633 159.599022,137.245811 167.025793,137.245811 L347.549238,137.245811 C354.976008,137.245811 373.223644,137.50181 373.223644,137.50181 L373.223644,239.979966 C373.223644,239.979966 354.976008,240.209708 347.549238,240.209708 L167.025793,240.209708 Z M347.549238,377.453331 L27.2293047,377.453331 C19.8047212,377.453331 13.4123625,374.792698 8.04566797,369.467054 C2.68334727,364.143599 0,357.723945 0,350.205905 L0,301.739049 C0,294.223197 2.68334727,287.803543 8.04566797,282.4779 C13.4123625,277.152256 19.8047212,274.491623 27.2293047,274.491623 L347.549238,274.491623 C355.312793,274.491623 373.223644,274.972987 373.223644,274.972987 L373.223644,377.451143 C373.223644,377.451143 355.282177,377.453331 347.549238,377.453331" id="path64"></path>
                </g>
            </g>
        </g>
    </g>
</svg>