<?xml version="1.0" encoding="UTF-8"?>
<svg width="512px" height="512px" viewBox="0 0 512 512" version="1.1" xmlns="http://www.w3.org/2000/svg" xmlns:xlink="http://www.w3.org/1999/xlink">
    <title>OLKi [full color light]</title>
    <defs>
        <linearGradient x1="50%" y1="0%" x2="77.135%" y2="77.109%" id="linearGradient-1">
            <stop stop-color="#FE7E1F" offset="0%"></stop>
            <stop stop-color="#FFCF7B" offset="100%"></stop>
        </linearGradient>
        <linearGradient x1="50%" y1="0%" x2="77.1440854%" y2="77.109%" id="linearGradient-2">
            <stop stop-color="#FFFFFF" stop-opacity="0.48" offset="0%"></stop>
            <stop stop-color="#FFFFFF" stop-opacity="0" offset="100%"></stop>
        </linearGradient>
    </defs>
    <g id="OLKi-[full-color-light]" stroke="none" stroke-width="1" fill="none" fill-rule="evenodd">
        <path d="M256,0 C114.608,0 0,114.608 0,256 C0,397.392 114.608,512 256,512 C397.392,512 512,397.392 512,256 C511.84,114.688 397.312,0.16 256,0 Z" id="Path" fill="url(#linearGradient-1)" fill-rule="nonzero"></path>
        <path d="M464.636037,398.711797 C444.213822,405.941625 422.704832,409.624128 401.040248,409.6 C295.993065,409.6 210.823529,324.4446 210.823529,219.414999 C210.823529,120.598105 286.212755,39.3733113 382.620929,30.1176471 C459.769659,73.60659 511.88904,156.273619 512,251.11248 C512,306.171003 494.452508,357.140551 464.636037,398.711797 Z" id="Path" fill="url(#linearGradient-2)" fill-rule="nonzero"></path>
    </g>
</svg>