<?xml version="1.0" encoding="UTF-8"?>
<svg width="512px" height="512px" viewBox="0 0 512 512" version="1.1" xmlns="http://www.w3.org/2000/svg" xmlns:xlink="http://www.w3.org/1999/xlink">
    <title>OStatus logo [1 color]</title>
    <g id="OStatus-logo-[1-color]" stroke="none" stroke-width="1" fill="none" fill-rule="evenodd">
        <path d="M256.557858,0 C302.540587,0 345.575705,11.7904433 385.663212,35.3713299 C423.982153,57.7731721 454.342545,88.1335636 476.744387,126.452504 C500.325273,166.540012 512.115717,209.57513 512.115717,255.557858 L512.115717,512 L256.557858,511.115717 C209.985607,511.115717 166.950489,499.620035 127.452504,476.62867 C88.5440415,453.637306 57.8888889,422.982153 35.4870466,384.663212 C12.4956822,345.165227 1,302.27749 1,256 C1,209.72251 12.4956822,166.540012 35.4870466,126.452504 C57.8888889,88.1335636 88.5440415,57.7731721 127.452504,35.3713299 C166.950489,11.7904433 209.985607,0 256.557858,0 Z M256.557858,112.303972 C230.029361,112.303972 205.858952,118.788716 184.046632,131.758204 C162.234312,144.727691 144.843408,162.118595 131.873921,183.930915 C118.904433,205.743235 112.419689,229.766264 112.419689,256 C112.419689,282.233736 118.904433,306.256765 131.873921,328.069085 C144.843408,349.881405 162.234312,367.272309 184.046632,380.241796 C205.858952,393.211284 229.88198,399.696028 256.115717,399.696028 C282.349453,399.696028 306.372481,393.211284 328.184801,380.241796 C349.997121,367.272309 367.388025,349.881405 380.357513,328.069085 C393.327001,306.256765 399.811744,282.233736 399.811744,256 C399.811744,229.766264 393.327001,205.743235 380.357513,183.930915 C367.388025,162.118595 349.997121,144.727691 328.184801,131.758204 C306.372481,118.788716 282.496834,112.303972 256.557858,112.303972 Z" id="OStatus" fill="#FF7C00" fill-rule="nonzero"></path>
    </g>
</svg>