<?xml version="1.0" encoding="UTF-8"?>
<svg width="512px" height="512px" viewBox="0 0 512 512" version="1.1" xmlns="http://www.w3.org/2000/svg" xmlns:xlink="http://www.w3.org/1999/xlink">
    <title>Pinetta [full color]</title>
    <defs>
        <linearGradient x1="77.8920432%" y1="0.250447095%" x2="23.3982155%" y2="100.967956%" id="linearGradient-1">
            <stop stop-color="#FFFFFF" offset="20%"></stop>
            <stop stop-color="#FAFAFA" offset="40%"></stop>
            <stop stop-color="#EEEEEE" offset="59%"></stop>
            <stop stop-color="#DADADA" offset="78%"></stop>
            <stop stop-color="#BEBEBE" offset="97%"></stop>
            <stop stop-color="#BABABA" offset="100%"></stop>
        </linearGradient>
        <linearGradient x1="14.6304045%" y1="14.6719225%" x2="85.3556485%" y2="85.3420136%" id="linearGradient-2">
            <stop stop-color="#48A1F9" offset="21%"></stop>
            <stop stop-color="#427FFB" offset="53%"></stop>
            <stop stop-color="#3A47FF" offset="100%"></stop>
        </linearGradient>
        <linearGradient x1="35.7817135%" y1="27.4364966%" x2="74.1821876%" y2="83.4654199%" id="linearGradient-3">
            <stop stop-color="#48A1F9" offset="0%"></stop>
            <stop stop-color="#427FFB" offset="53%"></stop>
            <stop stop-color="#3A47FF" offset="100%"></stop>
        </linearGradient>
    </defs>
    <g id="Pinetta-[full-color]" stroke="none" stroke-width="1" fill="none" fill-rule="evenodd">
        <g id="Pinetta" transform="translate(64.000000, 1.000000)" fill-rule="nonzero">
            <path d="M201.401906,224.969711 C199.08483,224.969711 196.782899,224.681968 194.556688,224.091337 C188.302098,222.455745 182.789577,218.593929 179.018649,213.187386 L144.89857,162.650602 L143.974768,162.771757 C140.597592,163.1958 137.144694,163.422966 133.722085,163.422966 C126.740569,163.422966 119.774197,162.529447 113.050133,160.7727 C69.4648735,149.368984 43.2652562,104.632496 54.6689046,61.0469812 C64.0735072,25.1093761 96.5882924,0 133.73723,0 C140.673313,0 147.624541,0.893518207 154.394038,2.66541024 C197.979297,14.0691257 224.178915,58.8056135 212.775266,102.391129 C210.125016,112.522717 205.627162,121.927374 199.387716,130.332503 L198.827377,131.089722 L226.208249,185.594333 C230.918123,195.347311 229.60057,206.569294 222.770496,214.883557 C217.48514,221.319917 209.685831,225 201.401906,225 L201.401906,224.969711 Z" id="Path" fill="#000000"></path>
            <path d="M379.685022,151 L53.3149784,151 C50.3795969,151 48,153.376248 48,156.307498 L48,505.692502 C48,508.623752 50.3795969,511 53.3149784,511 L379.685022,511 C382.620403,511 385,508.623752 385,505.692502 L385,156.307498 C385,153.376248 382.620403,151 379.685022,151 Z" id="Path" fill="#000000"></path>
            <path d="M332.5411,479 L5,479 C39.3079045,369.022889 52.6153048,279.655112 41.4170592,157 L356.773618,157 C356.773618,157 378.760417,363.01752 332.5411,479 Z" id="Path" fill="url(#linearGradient-1)"></path>
            <path d="M357.406019,151 L41.7687209,151 C38.6423036,151 36.1910692,153.684256 36.475163,156.796779 C47.0778729,272.959767 36.4288813,361.08168 0.244612358,477.104429 C-0.822331493,480.525522 1.73462694,484 5.31924222,484 L333.151928,484 C335.328367,484 337.284925,482.673629 338.090225,480.652279 C351.306936,447.477541 359.79163,405.44054 364.249058,356.55536 C369.127499,303.052885 368.904329,246.067489 365.54924,191.972141 L365.326009,188.448347 C364.818805,180.606074 364.279467,173.435261 363.736099,167.027866 L363.376856,162.90772 C363.214252,161.095423 363.061565,159.466494 362.921199,158.028812 L362.691586,155.750316 C362.403371,153.04901 360.123485,151 357.406019,151 Z M47.5733003,161.627821 L352.584056,161.627821 L352.928132,165.434071 L353.156653,168.086801 C353.689535,174.384051 354.218787,181.429839 354.717063,189.134064 C358.250657,243.769703 358.588967,301.554317 353.661853,355.590596 L353.472061,357.641513 C349.243734,402.669022 341.521609,441.572282 329.832267,472.545589 L329.516093,473.372179 L12.5240892,473.372179 L12.5581375,473.262024 C46.6927081,361.68977 57.1567191,274.703453 47.6804742,162.854427 L47.5733003,161.627821 Z" id="Path" fill="#000000"></path>
            <g id="Group" transform="translate(63.000000, 10.000000)">
                <path d="M134.828534,203.473292 C131.006313,202.472624 127.623951,200.092248 125.288149,196.741529 L87.3237871,140.52221 C76.1149723,143.160333 64.4966339,143.008717 53.2119814,140.067361 C15.2172845,130.136494 -7.60986875,91.1559473 2.32487235,53.1912295 C12.2596135,15.2113499 51.2553683,-7.60690101 89.2348976,2.32396569 C127.214427,12.2548324 150.056748,51.2353794 140.122007,89.2000972 C137.164336,100.480349 131.597847,110.684125 123.816897,119.159475 L154.273325,179.760505 C157.170326,185.764509 156.381613,192.66305 152.210539,197.742196 C147.993962,202.866826 141.168567,205.125909 134.828534,203.45813 L134.828534,203.473292 Z" id="Path" fill="#FFFFFF"></path>
                <g transform="translate(12.153441, 12.133539)">
                    <path d="M123.084617,177.663963 L47.5502494,65.8014679 C43.4246775,59.67617 45.0324372,51.3675975 51.1601248,47.2436345 C57.7580063,42.7254692 67.0557106,45.1664914 70.5897483,52.3227801 L131.199253,172.918374 C133.732233,178.149135 126.436644,182.4702 123.084617,177.663963 Z" id="Path" fill="#000000"></path>
                    <ellipse id="Oval" fill="url(#linearGradient-2)" cx="59.0775826" cy="59.0545432" rx="54.3756441" ry="54.3544383"></ellipse>
                    <path d="M59.0775826,0 C26.4499347,0 0,26.4396196 0,59.0545432 C0,91.6694668 26.4499347,118.109086 59.0775826,118.109086 C91.7052305,118.109086 118.155165,91.6694668 118.155165,59.0545432 C118.155165,26.4396196 91.7052305,0 59.0775826,0 Z M59.0775826,9.4002097 C86.5116126,9.4002097 108.751288,31.631212 108.751288,59.0545432 C108.751288,86.4778743 86.5116126,108.708877 59.0775826,108.708877 C31.6435526,108.708877 9.40387708,86.4778743 9.40387708,59.0545432 C9.40387708,31.631212 31.6435526,9.4002097 59.0775826,9.4002097 Z" id="Oval" fill="#000000"></path>
                </g>
            </g>
            <path d="M256.415984,282.664541 C256.415984,291.216236 248.678767,333.929139 248.678767,348.875618 C248.678767,355.817224 252.410836,360.358888 258.539925,360.358888 C267.066035,360.358888 276.942364,341.67579 276.942364,311.236011 C276.942364,270.649638 245.204605,256.508204 208.399729,256.508204 C166.269827,256.508204 119.057636,291.747868 119.057636,343.012467 C119.057636,386.272193 145.197291,408.691911 176.661971,408.691911 C189.466305,408.691911 205.729631,404.955291 213.466847,399.350362 C220.930985,402.555349 232.400271,407.902056 232.400271,419.370137 C232.400271,433.526761 211.069827,441 182.002167,441 C131.604064,441 86,407.355234 86,339.275847 C86,279.474744 142.527193,229 207.868744,229 C259.874975,229 310,253.561439 310,309.899334 C310,366.237229 282.267389,395.340331 245.462513,395.340331 C232.931256,395.340331 220.930985,387.867092 213.997833,376.383822 C206.260616,388.125313 193.456282,395.340331 176.130985,395.340331 C152.661429,395.340331 135.59404,372.905424 135.59404,343.012467 C135.59404,299.752741 177.99702,270.664828 208.126651,270.664828 C232.127193,270.664828 251.060616,276.80139 256.400813,282.679731 L256.415984,282.664541 Z M184.945344,346.217454 C184.945344,355.300781 188.404335,360.374078 193.213546,360.374078 C197.749678,360.374078 201.481747,356.105825 204.151846,344.895966 C206.290958,336.08605 208.687978,322.461059 208.687978,313.651143 C207.095022,312.846099 204.682831,312.314466 202.558889,312.314466 C192.424653,312.314466 184.960515,331.544386 184.960515,346.217454 L184.945344,346.217454 Z" id="Shape" fill="url(#linearGradient-3)"></path>
        </g>
    </g>
</svg>