<?xml version="1.0" encoding="UTF-8"?>
<svg width="512px" height="512px" viewBox="0 0 512 512" version="1.1" xmlns="http://www.w3.org/2000/svg" xmlns:xlink="http://www.w3.org/1999/xlink">
    <title>Post News [2 color]</title>
    <g id="Post-News-[2-color]" stroke="none" stroke-width="1" fill="none" fill-rule="evenodd">
        <g id="Post-News">
            <rect id="Rectangle" x="0" y="0" width="512" height="512"></rect>
            <path d="M420.921436,0.449156899 C448.411925,0.449156899 470.697369,22.7346012 470.697369,50.2250899 L470.697369,380.22109 C470.697369,407.711579 448.411925,429.997023 420.921436,429.997023 L157.022211,429.997023 L74.8295781,506.971678 C66.6548436,514.627382 53.8217337,514.206624 46.1660276,506.031887 C42.6468089,502.274077 40.6886146,497.318406 40.6886146,492.170005 L40.6886146,263.663293 C40.6886146,262.228798 40.8374141,260.814129 41.12991,259.434823 L41.1499621,259.243601 L41.1495029,50.2250878 C41.1495029,22.7346012 63.4349472,0.449156899 90.9254359,0.449156899 Z M357,283 C337.117749,283 321,299.117749 321,319 C321,338.882251 337.117749,355 357,355 C376.882251,355 393,338.882251 393,319 C393,299.117749 376.882251,283 357,283 Z M250.530864,85 L133,85 L133,87.7597845 C148.363512,90.5195691 156.045267,98.4922799 156.045267,111.677917 L156.045267,328.780967 C156.045267,342.886532 148.978052,350.859243 134.843621,352.6991 L134.843621,355 L245.460905,355 L245.460905,352.6991 C228.253772,348.406101 219.650206,340.433391 219.650206,328.780967 C219.650206,325.258787 219.512344,321.163077 219.503989,313.074794 L219.504086,311.435854 C219.508769,307.283038 219.547528,302.152814 219.650206,295.663553 C219.711672,291.778913 219.744022,286.362995 219.747257,279.415798 L219.746819,276.284012 C219.741756,269.14586 219.709552,260.580213 219.650206,250.587072 C232.626978,250.893715 242.920531,251.047036 250.530864,251.047036 C308.144033,251.047036 357,216.74703 357,171.473249 C357,91.8994613 277.263374,85 250.530864,85 Z M221,92.1359636 C267.95935,90.2929009 293.292683,107.187643 297,142.82019 L297,191.661353 C293.292683,229.751317 267.95935,246.646059 221,242.345579 Z" id="P" fill="#688EFA" fill-rule="nonzero"></path>
        </g>
    </g>
</svg>