<?xml version="1.0" encoding="UTF-8"?>
<svg width="512px" height="512px" viewBox="0 0 512 512" version="1.1" xmlns="http://www.w3.org/2000/svg" xmlns:xlink="http://www.w3.org/1999/xlink">
    <title>? [8 colors]</title>
    <g id="?-[8-colors]" stroke="none" stroke-width="1" fill="none" fill-rule="evenodd">
        <g id="Group" transform="translate(0.000000, 3.000000)">
            <path d="M256,505.594662 C397.384896,505.594662 512,402.255213 512,365.531276 C512,354.998054 507.215892,346.513985 497.647675,340.07907 L488.507358,333.157871 L13.6559242,340.07907 C4.55197474,347.777217 0,356.261285 0,365.531276 C0,402.255213 114.615104,505.594662 256,505.594662 Z" id="bottom" fill="#007947"></path>
            <path d="M256,437.271059 C397.384896,437.271059 512,402.255213 512,365.531276 C512,354.998054 507.215892,346.513985 497.647675,340.07907 L488.507358,333.157871 L13.6559242,340.07907 C4.55197474,347.777217 0,356.261285 0,365.531276 C0,402.255213 114.615104,437.271059 256,437.271059 Z" id="5" fill="#009F57"></path>
            <path d="M256,397.557965 C397.384896,397.557965 512,362.542118 512,325.818182 C512,315.28496 507.215892,306.800891 497.647675,300.365976 L488.507358,293.444777 L13.6559242,300.365976 C4.55197474,308.064122 0,316.548191 0,325.818182 C0,362.542118 114.615104,397.557965 256,397.557965 Z" id="4" fill="#1FBE86"></path>
            <path d="M256,362.115096 C397.384896,362.115096 512,327.099249 512,290.375313 C512,279.842091 507.215892,271.358022 497.647675,264.923106 L488.507358,258.001908 L13.6559242,264.923106 C4.55197474,272.621253 0,281.105322 0,290.375313 C0,327.099249 114.615104,362.115096 256,362.115096 Z" id="3" fill="#00B5AC"></path>
            <path d="M256,327.526272 C397.384896,327.526272 512,292.510425 512,255.786489 C512,245.253267 507.215892,236.769198 497.647675,230.334282 L488.507358,223.413084 L13.6559242,230.334282 C4.55197474,238.032429 0,246.516498 0,255.786489 C0,292.510425 114.615104,327.526272 256,327.526272 Z" id="2" fill="#2DB9E7"></path>
            <path d="M256,281.834862 C397.384896,281.834862 512,246.819016 512,210.095079 C512,201.573342 508.430767,194.106847 501.292301,187.695593 C488.97795,200.289095 22.9965596,200.611916 10.8692271,187.695593 C3.62307571,194.575128 0,202.041623 0,210.095079 C0,246.819016 114.615104,281.834862 256,281.834862 Z" id="1" fill="#0086C7"></path>
            <path d="M256,239.986656 C397.384896,239.986656 512,204.970809 512,168.246872 C512,119.993375 392.53774,0 256,0 C119.46226,0 0,119.993328 0,168.246872 C0,204.970809 114.615104,239.986656 256,239.986656 Z" id="top" fill="#3D46A2"></path>
            <path d="M235.160733,17.4825245 C234.165176,16.2613829 149.128336,59.73315 102.336296,115.635256 C82.3106743,139.559719 68.9555746,160.775082 62.2709967,179.281346 L62.269297,179.280732 C59.8316905,186.033968 63.3301992,193.484617 70.0834349,195.922224 C73.9241651,197.30855 78.1930844,196.809778 81.6107772,194.575391 C103.265728,180.413743 127.585776,158.587811 154.570163,129.096435 C210.954832,67.4733372 235.881211,18.3662568 235.160733,17.4825245 Z" id="shine" fill="#485DA7"></path>
        </g>
    </g>
</svg>