<?xml version="1.0" encoding="UTF-8"?>
<svg width="512px" height="512px" viewBox="0 0 512 512" version="1.1" xmlns="http://www.w3.org/2000/svg" xmlns:xlink="http://www.w3.org/1999/xlink">
    <title>Redaktor [2 color]</title>
    <g id="Redaktor-[2-color]" stroke="none" stroke-width="1" fill="none" fill-rule="evenodd">
        <g id="Redaktor">
            <path d="M384,24.6257295 L350.176166,89.0580739 C285.623489,60.2738651 225.492228,59.6096141 169.782383,87.065321 C86.2176166,128.248881 68.3108808,191.352724 68.3108808,221.908268 C68.3108808,242.278632 68.3108808,294.975875 68.3108808,380 L0,380 L0,0.0484435327 L68.3108808,0.0484435327 L68.3108808,87.7295719 C96.3772444,45.400423 140.149265,18.1661331 199.626943,6.02670229 C259.104621,-6.11272853 320.562307,0.086947212 384,24.6257295 Z" id="Path" fill="#FF8D23"></path>
            <circle id="Oval" fill="#4E454C" cx="255.5" cy="259.5" r="98.5"></circle>
            <path d="M512,156.62573 L478.176166,221.058074 C413.623489,192.273865 353.492228,191.609614 297.782383,219.065321 C214.217617,260.248881 196.310881,323.352724 196.310881,353.908268 C196.310881,374.278632 196.310881,426.975875 196.310881,512 L128,512 L128,132 L196.310881,132 L196.310881,219.729572 C224.377244,177.400423 268.149265,150.166133 327.626943,138.026702 C387.104621,125.887271 448.562307,132.086947 512,156.62573 Z" id="Path" fill="#4E454C" transform="translate(320.000000, 322.000000) rotate(-180.000000) translate(-320.000000, -322.000000) "></path>
        </g>
    </g>
</svg>