<?xml version="1.0" encoding="UTF-8"?>
<svg width="512px" height="512px" viewBox="0 0 512 512" version="1.1" xmlns="http://www.w3.org/2000/svg" xmlns:xlink="http://www.w3.org/1999/xlink">
    <title>reel2bits [2 color]</title>
    <g id="reel2bits-[2-color]" stroke="none" stroke-width="1" fill="none" fill-rule="evenodd">
        <g id="reel2bits" transform="translate(0.000000, 88.000000)" fill-rule="nonzero">
            <polygon id="tape-2" fill="#C728B6" points="416.12926 240 445 240 320 323 320 303.829829"></polygon>
            <path d="M70,243 C84.7704571,250.414904 101.170689,255.042113 118.516807,256.194911 L191,304.716718 L191,324 L70,243 L70,243 Z" id="tape-1" fill="#C728B6"></path>
            <path d="M306.666666,16 L493.333334,16 C503.642649,16 512,24.3573512 512,34.6666664 L512,221.333334 C512,231.642649 503.642649,240 493.333334,240 L306.666666,240 C296.357351,240 288,231.642649 288,221.333334 L288,34.6666664 C288,24.3573512 296.357351,16 306.666666,16 Z M454,128 L360,64 L360,192 L454,128 Z" id="Play" fill="#313DF2"></path>
            <path d="M34.7610537,150.95221 L71.6416535,158.32833 C61.1056151,138.775158 61.7803744,116.025619 71.6311081,97.6737784 L34.7610537,105.04779 C32.9568265,112.4021 32,120.08931 32,128 C32,135.91069 32.9568265,143.5979 34.7610612,150.952213 L34.7610537,150.95221 Z M154.744075,35.7745504 L129.921168,64.0199968 C150.739695,64.664932 170.778753,75.4553424 182.444278,94.3564056 L194.488778,58.75214 C183.441387,48.1422296 169.860581,40.1504616 154.744075,35.7745504 Z M194.488778,197.24786 L182.449208,161.658168 C177.065532,170.384513 169.50231,177.939464 160,183.425626 C150.49769,188.911787 140.173298,191.684254 129.924224,191.983481 L154.744075,220.22545 C169.860581,215.849538 183.441387,207.85777 194.488778,197.24786 L194.488778,197.24786 Z M96.0153784,128.002689 C96.0153784,145.67285 110.339874,159.997347 128.010036,159.997347 C145.680198,159.997347 160.004694,145.67285 160.004694,128.002689 C160.004694,110.332528 145.680198,96.0080312 128.010036,96.0080312 C110.339874,96.0080312 96.0153784,110.332528 96.0153784,128.002689 Z M128,256 C57.307552,256 0,198.692448 0,128 C0,57.307552 57.307552,0 128,0 C198.692448,0 256,57.307552 256,128 C256,198.692448 198.692448,256 128,256 Z" id="Reel" fill="#313DF2"></path>
            <path d="M207,272 L303,272 C311.836556,272 319,279.163444 319,288 L319,326 L303,336 L207,336 L191,326 L191,288 C191,279.163444 198.163444,272 207,272 Z" id="head" fill="#313DF2"></path>
        </g>
    </g>
</svg>