<?xml version="1.0" encoding="UTF-8"?>
<svg width="512px" height="512px" viewBox="0 0 512 512" version="1.1" xmlns="http://www.w3.org/2000/svg" xmlns:xlink="http://www.w3.org/1999/xlink">
    <title>Shuttlecraft [2 color]</title>
    <g id="Shuttlecraft-[2-color]" stroke="none" stroke-width="1" fill="none" fill-rule="evenodd">
        <g id="Shuttlecraft" transform="translate(125.000000, 0.000000)">
            <path d="M17.8236451,421.541641 L17.8236451,501.801601 C122.412904,501.801601 182.011556,501.801601 196.619601,501.801601 C218.512734,501.801601 241.991337,466.709247 250.188998,421.541641 C254.358441,398.568772 251.625888,376.410342 241.991337,355.066352 L101.752638,94.6607295 L241.991337,94.6607295 L241.991337,10.1983994 C211.743513,10.1983994 157.445062,10.1983994 79.0959825,10.1983994 C41.8468141,10.1983994 10.1983994,61.9023154 10.1983994,94.6607295 C10.1983994,118.431205 13.54089,134.923766 24.4668467,156.686718 C120.014097,333.256667 167.787723,421.541641 167.787723,421.541641 L17.8236451,421.541641 Z" id="Path-10" fill-opacity="0.98" fill="#67A8C4"></path>
            <path d="M252.516561,0 L79.1984869,0 C58.0933301,0 38.0308207,13.0865358 22.5037299,34.087165 C8.71224295,52.7403635 0,75.9177926 0,94.6607295 C0,120.514277 3.94150561,138.323312 15.0341478,160.58646 L15.442875,161.402511 L150.868458,411.343059 L7.63512759,411.343242 L7.63512759,512 L196.87441,512 C225.353812,512 251.57863,472.788364 260.560704,423.36284 C265.105527,398.35411 262.110338,374.097394 251.612276,350.870516 L251.465194,350.545099 L118.981666,104.859127 L252.516561,104.859129 L252.516561,0 Z M242.334872,10.1789264 L242.334872,94.6479478 L101.876547,94.6479478 L242.334872,355.0742 C251.984511,376.419882 254.721344,398.580067 250.545371,421.554756 C242.334872,466.72594 218.819499,501.821074 196.89208,501.821074 L17.8161139,501.821074 L17.8161139,421.554756 L168.015048,421.554756 L24.4697193,156.67885 C13.5266516,134.914175 10.1789264,118.420307 10.1789264,94.6479478 C10.1789264,61.8869385 41.8769052,10.1789264 79.1844091,10.1789264 L242.334872,10.1789264 Z" id="Path-10" fill="#FFFFFF" fill-rule="nonzero"></path>
        </g>
    </g>
</svg>