<svg class="mb-3 self-center lg:self-start" width="50" height="44" viewBox="0 0 70 62" fill="none" xmlns="http://www.w3.org/2000/svg"><path fill-rule="evenodd" clip-rule="evenodd" d="M43.0161 1.95417C43.0161 0.874911 42.1411 -5.87866e-06 41.0619 -5.87866e-06H35.6782C32.6533 -5.87866e-06 30.1743 2.48638 30.1743 5.52775V7.1557H22.8594C21.9948 7.1557 21.2266 7.70745 20.9505 8.52678L19.2222 13.6549H11.7083C5.24204 13.6549 0.000106812 18.8968 0.000106812 25.3631V30.0219C0.000106812 37.1604 2.97071 43.6052 7.74318 48.1874L4.26623 58.6094C3.83103 59.9139 4.80193 61.2613 6.17709 61.2613H10.2613C10.7953 61.2613 11.3075 61.0492 11.6852 60.6717L18.0586 54.3019C18.0896 54.2709 18.1195 54.2391 18.148 54.2067C20.3798 54.8545 22.7393 55.2017 25.18 55.2017H49.2268C60.6996 55.2017 70.0002 45.9012 70.0002 34.4283C70.0002 22.9555 60.6996 13.6549 49.2268 13.6549H46.7914V9.1701C46.7914 8.05758 45.8895 7.1557 44.777 7.1557H35.6782V6.59411C35.6782 5.64271 36.3634 4.82958 37.301 4.66823L41.3933 3.96404C42.3309 3.8027 43.0161 2.98956 43.0161 2.03817V1.95417ZM35.5563 28.2591C38.3181 28.2591 40.5569 30.498 40.5569 33.2598C40.5569 36.0216 38.3181 38.2605 35.5563 38.2605C32.7944 38.2605 30.5556 36.0216 30.5556 33.2598C30.5556 30.498 32.7944 28.2591 35.5563 28.2591ZM56.9416 33.2598C56.9416 30.498 54.7027 28.2591 51.9409 28.2591C49.1791 28.2591 46.9403 30.498 46.9403 33.2598C46.9403 36.0216 49.1791 38.2605 51.9409 38.2605C54.7027 38.2605 56.9416 36.0216 56.9416 33.2598ZM19.172 28.2591C21.9338 28.2591 24.1726 30.498 24.1726 33.2598C24.1726 36.0216 21.9338 38.2605 19.172 38.2605C16.4102 38.2605 14.1713 36.0216 14.1713 33.2598C14.1713 30.498 16.4102 28.2591 19.172 28.2591Z" fill="#E96E3A"></path></svg>