<?xml version="1.0" standalone="no"?>
<!DOCTYPE svg PUBLIC "-//W3C//DTD SVG 1.0//EN" "http://www.w3.org/TR/2001/REC-SVG-20010904/DTD/svg10.dtd">
<svg xmlns="http://www.w3.org/2000/svg" xmlns:xlink="http://www.w3.org/1999/xlink" id="body_1" width="192" height="192">

<defs>
    <clipPath  id="1">

    <path id=""  clip-rule="evenodd" transform="matrix(1 0 0 1 0 0)"  d="M0 144L0 0L0 0L144 0L144 0L144 144L144 144L0 144z" />    </clipPath>
</defs>

<g transform="matrix(1.3333 0 0 1.3333 0 0)">
	<g clip-path="url(#1)" >
    <path id=""  transform="matrix(1 0 0 -1 0 144)"  d="M60.75 127.854004C 50.493748 125.00925 42.19275 118.10175 38.94975 109.713745L38.94975 109.713745L38.94975 109.713745C 36.458252 103.2675 36.528 94.076996 39.111748 88.4655L39.111748 88.4655L39.111748 88.4655C 43.03275 79.95 48.529503 75.72075 64.31775 69.072L64.31775 69.072L64.31775 69.072C 77.335495 63.590256 80.31 62.06025 83.64825 59.12925L83.64825 59.12925L83.64825 59.12925C 87.53025 55.720497 89.253 51.891754 89.2335 46.7175L89.2335 46.7175L89.2335 46.7175C 89.19675 37.044754 83.238 31.143005 71.48625 29.14125L71.48625 29.14125L71.48625 29.14125C 64.044 27.873749 56.7075 29.5065 46.2825 34.74974L46.2825 34.74974L38.19 38.819992L38.19 38.819992L35.25525 33.472504L35.25525 33.472504L35.25525 33.472504C 33.64125 30.531754 32.24625 27.787506 32.15625 27.375L32.15625 27.375L32.15625 27.375C 31.91175 26.254501 39.303 22.03125 46.08975 19.413742L46.08975 19.413742L46.08975 19.413742C 62.6055 13.044754 80.10899 13.690491 91.6455 21.09375L91.6455 21.09375L91.6455 21.09375C 101.82525 27.625504 107.1465 40.126495 105.078 52.649246L105.078 52.649246L105.078 52.649246C 103.930504 59.598747 102.14325 63.56475 98.25975 67.77825L98.25975 67.77825L98.25975 67.77825C 93.882 72.526505 89.331 75.243744 77.44425 80.20351L77.44425 80.20351L77.44425 80.20351C 64.4865 85.611 61.476753 87.1575 58.03425 90.18075L58.03425 90.18075L58.03425 90.18075C 51.663002 95.77425 51.5505 105.29325 57.7935 110.54625L57.7935 110.54625L57.7935 110.54625C 64.84575 116.48025 76.131004 116.7555 90.284996 111.33825L90.284996 111.33825L90.284996 111.33825C 94.047005 109.89825 97.429504 108.642746 97.8015 108.5475L97.8015 108.5475L97.8015 108.5475C 98.433 108.386246 104.18175 118.158 104.229004 119.472L104.229004 119.472L104.229004 119.472C 104.26201 120.39975 92.3955 125.82075 87.375 127.17225L87.375 127.17225L87.375 127.17225C 80.88975 128.91824 65.964005 129.3 60.75 127.854004M0.35775 72C 0.35775 37.96875 0.45000002 24.046494 0.5625 41.0625L0.5625 41.0625L0.5625 41.0625C 0.67499995 58.077744 0.67499995 85.92149 0.5625 102.9375L0.5625 102.9375L0.5625 102.9375C 0.45000002 119.95275 0.35775 106.03125 0.35775 72M7.6260004 142.398C 5.7315 141.456 3.5437498 139.5225 2.376 137.7585L2.376 137.7585L0.375 134.7345L0.375 134.7345L0.375 72L0.375 72L0.375 9.265503L0.375 9.265503L2.388 6.2235107L2.388 6.2235107L2.388 6.2235107C 3.60675 4.382248 5.70825 2.5484924 7.71375 1.5780029L7.71375 1.5780029L11.0265 -0.025497437L11.0265 -0.025497437L72.881256 0.17474365L72.881256 0.17474365L134.73526 0.375L134.73526 0.375L137.7135 2.3467407L137.7135 2.3467407L137.7135 2.3467407C 139.56525 3.5715027 141.4605 5.7982483 142.72125 8.228241L142.72125 8.228241L144.75 12.138748L144.75 12.138748L144.75 73.31925L144.75 73.31925L144.75 73.31925C 144.75 106.96875 144.534 134.2845 144.27075 134.02051L144.27075 134.02051L144.27075 134.02051C 144.00674 133.75725 143.11426 134.91 142.287 136.58176L142.287 136.58176L142.287 136.58176C 141.4455 138.2835 139.4505 140.50426 137.75925 141.624L137.75925 141.624L134.73526 143.625L134.73526 143.625L72.80475 143.81924L72.80475 143.81924L10.875 144.01276L10.875 144.01276L7.6260004 142.398" stroke="none" fill="#443C5C" fill-rule="evenodd" />
    <path id=""  transform="matrix(1 0 0 -1 0 144)"  d="M62.29425 127.88475C 51.89325 125.51925 43.77525 119.4645 39.891 111.177L39.891 111.177L39.891 111.177C 38.103752 107.364 37.875 105.98025 37.875 99L37.875 99L37.875 99C 37.875 91.8975 38.071503 90.7575 39.88125 87.375L39.88125 87.375L39.88125 87.375C 43.95675 79.7565 50.415 74.93625 63.5325 69.723L63.5325 69.723L63.5325 69.723C 67.983 67.95375 73.3125 65.673004 75.375 64.6545L75.375 64.6545L75.375 64.6545C 86.97675 58.9245 91.20825 52.208252 89.17875 42.74475L89.17875 42.74475L89.17875 42.74475C 87.462746 34.7415 79.6785 29.316757 68.98125 28.668755L68.98125 28.668755L68.98125 28.668755C 61.65675 28.224747 55.67475 29.727005 46.5 34.313255L46.5 34.313255L46.5 34.313255C 42.581253 36.272255 39.15975 37.974747 38.897247 38.097L38.897247 38.097L38.897247 38.097C 38.394753 38.3295 32.25 28.069496 32.25 26.998505L32.25 26.998505L32.25 26.998505C 32.25 25.83075 47.6205 18.764252 53.625 17.17125L53.625 17.17125L53.625 17.17125C 61.62375 15.0494995 74.904755 14.868744 81.375 16.793999L81.375 16.793999L81.375 16.793999C 91.07851 19.680748 98.690254 25.961998 102.603 34.31024L102.603 34.31024L102.603 34.31024C 104.44951 38.251495 104.624245 39.405 104.613754 47.625L104.613754 47.625L104.613754 47.625C 104.60324 55.962746 104.446495 56.943756 102.48599 60.96L102.48599 60.96L102.48599 60.96C 98.222244 69.693756 92.33025 73.818 72.249 82.12425L72.249 82.12425L72.249 82.12425C 57.527252 88.2135 53.0355 92.409 53.0355 100.07175L53.0355 100.07175L53.0355 100.07175C 53.0355 105.75975 55.044 109.302 59.951996 112.269L59.951996 112.269L59.951996 112.269C 67.12275 116.60325 76.83675 116.52675 89.1015 112.03875L89.1015 112.03875L89.1015 112.03875C 93.102005 110.5755 96.89101 109.217255 97.520996 109.020004L97.520996 109.020004L97.520996 109.020004C 98.34149 108.76425 99.40425 110.18475 101.25525 114.011246L101.25525 114.011246L103.84275 119.3595L103.84275 119.3595L101.98425 120.766495L101.98425 120.766495L101.98425 120.766495C 99.69299 122.5005 89.415 126.4605 84.456 127.52025L84.456 127.52025L84.456 127.52025C 77.996254 128.90025 67.51875 129.07275 62.29425 127.88475" stroke="none" fill="#DBDADD" fill-rule="evenodd" />
    <path id=""  transform="matrix(1 0 0 -1 0 144)"  d="M73.3125 15.253494C 73.82851 15.044998 74.67226 15.044998 75.1875 15.253494L75.1875 15.253494L75.1875 15.253494C 75.70351 15.461258 75.28125 15.6315 74.25 15.6315L74.25 15.6315L74.25 15.6315C 73.21875 15.6315 72.79726 15.461258 73.3125 15.253494M62.0625 15.253494C 62.578503 15.044998 63.422253 15.044998 63.9375 15.253494L63.9375 15.253494L63.9375 15.253494C 64.45351 15.461258 64.03125 15.6315 63 15.6315L63 15.6315L63 15.6315C 61.96875 15.6315 61.547253 15.461258 62.0625 15.253494M95.9595 24.9375L95.9595 24.9375L95.9595 24.9375L93.375 22.125L93.375 22.125L96.1875 24.709503L96.1875 24.709503L96.1875 24.709503C 98.80501 27.115509 99.345 27.75 98.772 27.75L98.772 27.75L98.772 27.75C 98.64676 27.75 97.3815 26.483994 95.9595 24.9375M71.10976 28.737747C 71.6505 28.520996 72.29775 28.547997 72.546745 28.796997L72.546745 28.796997L72.546745 28.796997C 72.795746 29.045998 72.35325 29.223007 71.56275 29.19075L71.56275 29.19075L71.56275 29.19075C 70.688995 29.154755 70.511246 28.977005 71.10976 28.737747M62.109753 28.737747C 62.650497 28.520996 63.297752 28.547997 63.546745 28.796997L63.546745 28.796997L63.546745 28.796997C 63.795746 29.045998 63.35325 29.223007 62.56275 29.19075L62.56275 29.19075L62.56275 29.19075C 61.689 29.154755 61.51125 28.977005 62.109753 28.737747M89.39625 46.875C 89.41125 45.637505 89.579254 45.222 89.76975 45.95175L89.76975 45.95175L89.76975 45.95175C 89.96025 46.681503 89.9475 47.694 89.742 48.20175L89.742 48.20175L89.742 48.20175C 89.5365 48.709503 89.381256 48.112503 89.39625 46.875M105.225006 47.25C 105.225006 44.981255 105.36525 44.053505 105.537 45.1875L105.537 45.1875L105.537 45.1875C 105.708755 46.321495 105.708755 48.17775 105.537 49.3125L105.537 49.3125L105.537 49.3125C 105.36525 50.44725 105.225006 49.518753 105.225006 47.25M84 58.9665C 84 58.81125 84.590256 58.220245 85.3125 57.654L85.3125 57.654L85.3125 57.654C 86.502 56.72175 86.52825 56.748 85.596 57.9375L85.596 57.9375L85.596 57.9375C 84.61575 59.186996 84 59.583748 84 58.9665M98.25 67.2165C 98.25 67.06125 98.840256 66.470245 99.5625 65.904L99.5625 65.904L99.5625 65.904C 100.752 64.97175 100.77825 64.998 99.84601 66.1875L99.84601 66.1875L99.84601 66.1875C 98.86575 67.437 98.25 67.83375 98.25 67.2165M93.75 71.7165C 93.75 71.56125 94.340256 70.970245 95.0625 70.404L95.0625 70.404L95.0625 70.404C 96.252 69.47175 96.27825 69.498 95.346 70.6875L95.346 70.6875L95.346 70.6875C 94.36575 71.937 93.75 72.33375 93.75 71.7165M42 82.9665C 42 82.81125 42.591 82.220245 43.3125 81.654L43.3125 81.654L43.3125 81.654C 44.502 80.72175 44.528248 80.748 43.596 81.9375L43.596 81.9375L43.596 81.9375C 42.61575 83.187 42 83.58375 42 82.9665M56.625 90.75C 57.371254 89.925 58.151253 89.25 58.3575 89.25L58.3575 89.25L58.3575 89.25C 58.56375 89.25 58.121254 89.925 57.375 90.75L57.375 90.75L57.375 90.75C 56.628746 91.575 55.848747 92.25 55.6425 92.25L55.6425 92.25L55.6425 92.25C 55.43625 92.25 55.878746 91.575 56.625 90.75M52.55925 100.06275C 52.59525 99.188995 52.773 99.011246 53.01225 99.609L53.01225 99.609L53.01225 99.609C 53.229 100.1505 53.201996 100.797745 52.952995 101.04675L52.952995 101.04675L52.952995 101.04675C 52.704002 101.295746 52.527 100.85325 52.55925 100.06275M36.954 99C 36.954 97.14375 37.10025 96.38475 37.279503 97.3125L37.279503 97.3125L37.279503 97.3125C 37.458 98.24025 37.458 99.75975 37.279503 100.6875L37.279503 100.6875L37.279503 100.6875C 37.10025 101.61525 36.954 100.85625 36.954 99M56.154 109.6875C 55.22175 108.498 55.248 108.471756 56.4375 109.404L56.4375 109.404L56.4375 109.404C 57.687 110.38425 58.083748 111 57.4665 111L57.4665 111L57.4665 111C 57.31125 111 56.72025 110.409 56.154 109.6875M76.35976 114.98775C 76.9005 114.770996 77.54775 114.798004 77.796745 115.047L77.796745 115.047L77.796745 115.047C 78.045746 115.296005 77.60325 115.473 76.81275 115.44075L76.81275 115.44075L76.81275 115.44075C 75.938995 115.404755 75.761246 115.227005 76.35976 114.98775M68.10976 114.98775C 68.6505 114.770996 69.29775 114.798004 69.546745 115.047L69.546745 115.047L69.546745 115.047C 69.795746 115.296005 69.35325 115.473 68.56275 115.44075L68.56275 115.44075L68.56275 115.44075C 67.688995 115.404755 67.511246 115.227005 68.10976 114.98775M103.173 119.78025C 103.455 119.04075 103.874245 118.6245 104.105255 118.8555L104.105255 118.8555L104.105255 118.8555C 104.33626 119.08575 104.106 119.691 103.592995 120.20025L103.592995 120.20025L103.592995 120.20025C 102.852005 120.93525 102.7665 120.849 103.173 119.78025M77.0625 128.5035C 77.57851 128.295 78.42226 128.295 78.9375 128.5035L78.9375 128.5035L78.9375 128.5035C 79.45351 128.71124 79.03125 128.8815 78 128.8815L78 128.8815L78 128.8815C 76.96875 128.8815 76.54726 128.71124 77.0625 128.5035M65.10976 128.48775C 65.6505 128.271 66.29775 128.298 66.546745 128.547L66.546745 128.547L66.546745 128.547C 66.795746 128.796 66.35325 128.973 65.56275 128.94075L65.56275 128.94075L65.56275 128.94075C 64.688995 128.90475 64.511246 128.727 65.10976 128.48775" stroke="none" fill="#9C9CA4" fill-rule="evenodd" />
	</g>
</g>
</svg>