<?xml version="1.0" encoding="UTF-8" standalone="no"?>
<!-- Created with Inkscape (http://www.inkscape.org/) -->

<svg
   width="100"
   height="100"
   viewBox="0 0 100 100"
   version="1.1"
   id="svg5"
   sodipodi:docname="icon_rounded.svg"
   inkscape:version="1.2.1 (9c6d41e410, 2022-07-14)"
   xmlns:inkscape="http://www.inkscape.org/namespaces/inkscape"
   xmlns:sodipodi="http://sodipodi.sourceforge.net/DTD/sodipodi-0.dtd"
   xmlns="http://www.w3.org/2000/svg"
   xmlns:svg="http://www.w3.org/2000/svg">
  <sodipodi:namedview
     id="namedview7"
     pagecolor="#ffffff"
     bordercolor="#000000"
     borderopacity="0.25"
     inkscape:showpageshadow="2"
     inkscape:pageopacity="0.0"
     inkscape:pagecheckerboard="0"
     inkscape:deskcolor="#d1d1d1"
     inkscape:document-units="mm"
     showgrid="false"
     inkscape:zoom="4"
     inkscape:cx="31.75"
     inkscape:cy="33.375"
     inkscape:window-width="1536"
     inkscape:window-height="772"
     inkscape:window-x="0"
     inkscape:window-y="0"
     inkscape:window-maximized="1"
     inkscape:current-layer="layer1" />
  <defs
     id="defs2" />
  <g
     inkscape:label="Layer 1"
     inkscape:groupmode="layer"
     id="layer1">
    <rect
       style="fill:#3e365d;fill-opacity:1;stroke-width:0.141301"
       id="rect9118"
       width="100"
       height="100"
       x="0"
       y="0"
       rx="17.763779" />
    <text
       xml:space="preserve"
       style="font-size:98.6667px;font-family:'Andale Mono';-inkscape-font-specification:'Andale Mono';display:none;fill:#bfbfbf;stroke-width:0.264583"
       x="21.781322"
       y="85.47068"
       id="text1153"><tspan
         sodipodi:role="line"
         id="tspan1151"
         style="font-style:normal;font-variant:normal;font-weight:normal;font-stretch:normal;font-size:98.6667px;font-family:'Josefin Sans';-inkscape-font-specification:'Josefin Sans';fill:#ffffff;stroke-width:0.264583"
         x="21.781322"
         y="85.47068">S</tspan></text>
    <path
       d="m 68.944006,26.862659 q -3.650668,-1.874667 -7.992003,-3.256001 -4.341335,-1.381334 -8.485336,-1.381334 -5.722669,0 -9.176003,2.664001 -3.354668,2.664001 -3.354668,7.104003 0,3.354667 2.170667,5.722668 2.170668,2.269334 5.722669,3.946668 3.552001,1.677334 7.400003,3.157335 3.354667,1.282667 6.610669,2.861334 3.256001,1.578668 5.821335,3.946668 2.664001,2.368001 4.144002,5.821336 1.578667,3.453334 1.578667,8.584003 0,5.624002 -2.861335,10.261337 -2.762667,4.637335 -7.992002,7.301336 -5.229336,2.664001 -12.432005,2.664001 -4.736002,0 -9.077337,-1.085334 -4.242668,-1.085334 -7.893336,-2.762668 -3.650668,-1.776 -6.512002,-3.650668 l 4.242668,-7.498669 q 2.368001,1.677334 5.426669,3.256001 3.058667,1.480001 6.413335,2.466668 3.354668,0.888 6.512003,0.888 3.354668,0 6.610669,-1.184 3.354668,-1.282667 5.525335,-3.848002 2.170668,-2.565334 2.170668,-6.808002 0,-3.650668 -1.973335,-6.018669 -1.874667,-2.466668 -5.032001,-4.144001 -3.157335,-1.776001 -6.709336,-3.157335 -3.354668,-1.282667 -6.808003,-2.762668 -3.453334,-1.578667 -6.413335,-3.749334 -2.960001,-2.269334 -4.736002,-5.525336 -1.776001,-3.256001 -1.776001,-7.893336 0,-5.624002 2.664001,-9.768003 2.762668,-4.242668 7.49867,-6.610669 4.736002,-2.466668 10.853337,-2.664001 6.906669,0 12.136004,1.677334 5.328002,1.677334 9.373337,4.144001 z"
       style="font-size:98.6667px;font-family:'Josefin Sans';-inkscape-font-specification:'Josefin Sans';fill:#ffffff;stroke-width:0.264583"
       id="path294" />
  </g>
</svg>
