<svg width="1198" height="185" viewBox="0 0 1198 185" fill="none" xmlns="http://www.w3.org/2000/svg">
<path fill-rule="evenodd" clip-rule="evenodd" d="M643.877 50.6317L595.277 146.172C594.487 147.712 592.897 148.682 591.167 148.662H575.117C573.387 148.662 571.807 147.702 571.007 146.172L522.407 50.6317C521.597 49.0317 521.647 47.1317 522.527 45.5717L527.737 36.5617C528.747 34.8217 530.607 33.7417 532.627 33.7417H537.337C538.577 33.7217 539.727 34.4217 540.277 35.5317L581.127 116.732C581.717 117.882 583.127 118.332 584.267 117.742C584.707 117.522 585.057 117.162 585.277 116.732L626.107 35.5817C626.657 34.4717 627.797 33.7717 629.047 33.7917H633.727C635.747 33.7917 637.607 34.8617 638.617 36.6117L643.827 45.6017C644.717 47.1517 644.767 49.0417 643.957 50.6317" fill="white"/>
<path fill-rule="evenodd" clip-rule="evenodd" d="M404.427 50.6117L355.747 146.162C354.947 147.692 353.367 148.662 351.627 148.652H335.587C333.857 148.652 332.277 147.682 331.467 146.162L282.817 50.6117C282.007 49.0117 282.057 47.1117 282.947 45.5517L288.117 36.5417C289.117 34.8017 290.977 33.7317 292.987 33.7417H297.717C298.967 33.7117 300.107 34.4117 300.657 35.5317L341.547 116.742C342.137 117.892 343.547 118.342 344.697 117.752C345.137 117.532 345.487 117.172 345.707 116.742L386.597 35.5617C387.147 34.4417 388.287 33.7417 389.537 33.7717H394.257C396.237 33.7817 398.067 34.8417 399.067 36.5417L404.237 45.5817C405.127 47.1317 405.177 49.0217 404.367 50.6117" fill="white"/>
<path fill-rule="evenodd" clip-rule="evenodd" d="M473.687 35.0917C472.787 34.2217 471.557 33.7417 470.287 33.7417H462.807C460.727 33.7417 458.797 34.8117 457.757 36.5517L452.417 45.5417C451.927 46.3817 451.687 47.3217 451.707 48.2817V144.002C451.707 146.572 453.857 148.662 456.517 148.662H470.337C472.957 148.662 475.087 146.592 475.087 144.042V38.5117C475.087 37.2717 474.587 36.0817 473.677 35.2017" fill="white"/>
<path fill-rule="evenodd" clip-rule="evenodd" d="M698.117 36.5417C699.107 34.8017 700.957 33.7317 702.947 33.7417H772.117C774.097 33.7417 775.927 34.8017 776.907 36.5417L781.777 44.9617C782.477 46.1617 782.847 47.5317 782.847 48.9217V51.0217C782.827 52.7617 781.407 54.1517 779.677 54.1417H716.617C715.337 54.1417 714.307 55.1917 714.307 56.4717V78.4717C714.307 79.7417 715.317 80.7817 716.587 80.7917H759.397C761.477 80.8217 763.147 82.5117 763.157 84.6017V97.2317C763.157 99.3317 761.487 101.052 759.397 101.072H716.607C715.347 101.072 714.317 102.102 714.317 103.372V126.002C714.317 127.272 715.327 128.312 716.597 128.322H779.687C781.407 128.302 782.827 129.702 782.837 131.432V133.562C782.837 134.962 782.477 136.332 781.767 137.532L776.907 145.912C775.927 147.612 774.117 148.662 772.167 148.652H702.987C700.997 148.652 699.157 147.582 698.157 145.852L693.347 137.492C692.647 136.282 692.277 134.902 692.277 133.502V48.8917C692.277 47.4917 692.647 46.1217 693.347 44.9217L698.137 36.5417H698.117Z" fill="white"/>
<path fill-rule="evenodd" clip-rule="evenodd" d="M1113.03 36.5417C1114.03 34.8017 1115.88 33.7317 1117.87 33.7417H1187.05C1189.01 33.7417 1190.81 34.7817 1191.79 36.4817L1196.66 44.8917C1197.35 46.0917 1197.71 47.4617 1197.71 48.8517V50.9517C1197.73 52.6917 1196.34 54.1117 1194.6 54.1317H1131.5C1130.22 54.1317 1129.19 55.1817 1129.19 56.4617V78.4517C1129.19 79.7217 1130.2 80.7617 1131.47 80.7717H1174.24C1176.32 80.8017 1177.99 82.4917 1178 84.5817V97.2017C1178 99.3117 1176.3 101.022 1174.21 101.032H1131.48C1130.21 101.032 1129.19 102.062 1129.19 103.332V125.962C1129.19 127.232 1130.2 128.272 1131.47 128.282H1194.54C1196.26 128.282 1197.67 129.672 1197.68 131.402V133.512C1197.68 134.902 1197.32 136.272 1196.63 137.482L1191.76 145.922C1190.78 147.622 1188.97 148.662 1187.02 148.662H1117.87C1115.88 148.662 1114.03 147.592 1113.03 145.862L1108.23 137.502C1107.52 136.292 1107.15 134.922 1107.15 133.512V48.8817C1107.15 47.4817 1107.52 46.1117 1108.22 44.9117L1113.04 36.5417H1113.03Z" fill="white"/>
<path fill-rule="evenodd" clip-rule="evenodd" d="M851.337 54.0717H893.817C901.167 54.0717 904.547 58.9917 904.547 66.8817C904.547 76.2017 901.127 80.9317 893.807 80.9317H851.347V54.0717H851.337ZM924.427 131.862L907.487 98.5017C917.377 93.8517 925.017 83.6317 925.017 66.9717C925.017 54.3617 920.067 46.7917 915.907 42.6817C909.927 36.9917 902.007 33.8017 893.747 33.7417H839.387C837.387 33.7117 835.527 34.7417 834.497 36.4617L829.327 45.4617C828.857 46.2617 828.607 47.1717 828.607 48.1017V143.982C828.607 146.562 830.697 148.652 833.277 148.652H846.707C849.267 148.652 851.337 146.582 851.337 144.032V101.382H883.657L906.547 146.882C907.077 148.012 908.237 148.712 909.487 148.672H914.217C916.227 148.682 918.077 147.622 919.077 145.882L924.337 136.872C925.217 135.322 925.247 133.442 924.427 131.872V131.862Z" fill="white"/>
<path fill-rule="evenodd" clip-rule="evenodd" d="M1002.24 55.0317H1052.88C1054.59 55.0617 1056 53.7017 1056.03 51.9817V49.8417C1056.03 48.4417 1055.66 47.0617 1054.97 45.8517L1050.07 37.4717C1049.08 35.7617 1047.27 34.7117 1045.3 34.7217H1002.23C982.608 34.7217 971.768 50.6017 971.768 68.2017V68.4117C971.768 87.2117 983.828 101.892 1002.23 101.892H1029.95C1038.53 101.892 1040.09 109.372 1040.09 114.992V115.202C1040.09 120.812 1038.78 128.302 1029.95 128.302H979.338C977.658 128.242 976.248 129.552 976.188 131.232C976.188 131.262 976.188 131.292 976.188 131.322V133.442C976.188 134.842 976.548 136.222 977.248 137.432L982.148 145.922C983.138 147.632 984.948 148.682 986.918 148.672H1029.96C1048.36 148.672 1060.41 133.942 1060.41 115.192V114.982C1060.41 97.3817 1049.57 81.5017 1029.96 81.5017H1002.24C993.438 81.5017 992.088 74.0217 992.088 68.4017V68.1917C992.088 62.5217 993.648 55.0317 1002.24 55.0317Z" fill="white"/>
<path d="M217.018 119.092C208.438 78.1817 187.538 41.5117 156.578 13.0517C144.948 2.36173 133.178 0.001728 115.158 0.001728H109.598C106.258 0.001728 103.168 -0.028272 99.8678 0.161728C86.5778 0.931728 72.1378 3.46173 61.2478 13.4717C30.3778 41.8617 9.54778 78.4317 0.997776 119.222C-3.95222 142.812 9.93777 166.162 33.2978 173.532C80.8878 188.712 136.648 188.712 184.348 174.062C207.978 166.602 222.028 142.972 217.018 119.092ZM34.6678 169.182C13.5478 162.532 0.987776 141.452 5.44778 120.152C13.8078 80.2917 34.1678 44.5617 64.3278 16.8217C70.6578 11.0017 78.2278 7.41173 86.0778 6.04173C82.4578 7.95173 79.0078 10.3517 75.8478 13.2617C44.9378 41.6917 24.0778 78.3117 15.5078 119.162C11.0178 140.572 21.9478 161.772 41.3778 171.162C39.1278 170.542 36.8878 169.882 34.6678 169.182ZM49.5478 168.912C28.5678 162.302 16.0878 141.362 20.5278 120.212C28.8778 80.4117 49.2078 44.7317 79.3178 17.0317C85.5878 11.2617 93.0778 7.70173 100.858 6.33173C97.5878 8.16173 94.4778 10.3917 91.5978 13.0517C60.6478 41.5217 39.7478 78.1917 31.1778 119.102C26.7578 140.192 37.2078 161.082 55.9978 170.812C53.8378 170.212 51.6878 169.582 49.5578 168.912H49.5478ZM65.5678 168.642C45.7978 159.342 32.3378 141.272 36.7378 120.272C45.0678 80.5317 65.0978 44.9017 95.1678 17.2417C98.9178 13.5717 101.308 12.2117 101.308 12.2117C106.228 8.93173 112.048 8.76173 116.718 11.5117C119.468 13.1617 120.958 14.4817 123.208 16.5417C153.378 44.2717 172.918 80.2717 181.278 120.142C185.738 141.432 173.188 162.512 152.078 169.172C128.678 179.602 88.8478 179.602 65.5678 168.642ZM160.028 170.892C179.338 161.552 190.198 140.472 185.738 119.202C177.178 78.4017 156.338 41.8417 125.468 13.4617C122.568 10.8017 119.438 8.56173 116.158 6.74173C122.068 6.90173 131.108 11.6117 136.998 17.0217C167.128 44.7117 187.458 80.3917 195.808 120.192C200.248 141.332 187.768 162.272 166.798 168.892C164.558 169.602 162.308 170.262 160.038 170.882L160.028 170.892ZM182.638 168.622C180.488 169.302 178.318 169.942 176.148 170.542C194.818 160.862 205.208 140.102 200.818 119.142C192.248 78.2817 171.378 41.6717 140.458 13.2517C137.608 10.6317 134.528 8.42173 131.298 6.61173C139.038 7.96173 146.488 11.5017 152.738 17.2317C182.818 44.8817 203.128 80.5017 211.468 120.252C215.868 141.252 203.488 162.052 182.648 168.622H182.638Z" fill="url(#paint0_linear_1027_59)"/>
<defs>
<linearGradient id="paint0_linear_1027_59" x1="0.337776" y1="86.4717" x2="224.598" y2="98.6817" gradientUnits="userSpaceOnUse">
<stop offset="0.05" stop-color="#73EAFF"/>
<stop offset="0.25" stop-color="#00B2E2"/>
<stop offset="0.6" stop-color="#415FFB"/>
<stop offset="1" stop-color="#C961D9"/>
</linearGradient>
</defs>
</svg>