<?xml version="1.0" encoding="UTF-8"?>
<svg width="512px" height="512px" viewBox="0 0 512 512" version="1.1" xmlns="http://www.w3.org/2000/svg" xmlns:xlink="http://www.w3.org/1999/xlink">
    <title>Wildebeest</title>
    <g id="Wildebeest" stroke="none" stroke-width="1" fill="none" fill-rule="evenodd">
        <path d="M298.511959,0 L298.511822,102.187134 C303.322258,100.668474 308.094656,99.0983528 312.81303,97.4902462 C369.851947,78.0532556 435.257803,117.804954 435.257803,178.062169 L435.257803,362.888488 C435.257803,389.983246 416.262851,413.366785 389.743697,418.916122 L355.779846,426.026906 C360.30836,402.411217 357.029639,377.663399 346.099512,355.876288 C343.727131,357.243747 341.399271,358.706609 339.115934,360.264876 C344.983285,382.751617 343.205589,407.547137 333.833728,430.619023 L324.862565,432.498483 C324.935708,415.370271 321.033681,398.25796 313.210547,382.662573 C310.838165,384.030032 308.510306,385.492894 306.226968,387.051161 C310.322983,402.754672 310.695059,419.580771 307.352736,436.161999 L237.736381,450.733382 C235.322658,439.351676 231.360209,428.246641 225.858574,417.758553 C221.660794,417.055743 219.20891,418.044765 217.536158,420.627035 C225.721828,447.750415 224.176282,478.085731 212.966303,506.296717 C194.559676,515.385545 164.885828,511.575742 149.598915,508.697719 C167.894237,495.522416 182.176227,477.545108 190.387338,456.731118 C178.922948,453.331553 166.736667,451.499795 154.101987,451.499795 C149.465349,451.499795 144.885953,451.744665 140.382881,452.224866 C144.854152,454.311035 149.134615,456.661155 153.202009,459.262507 C150.298545,474.657544 145.391595,489.76319 138.605185,503.972037 C126.868559,477.964127 33.7739378,263.995856 98.9703806,159.349754 C98.3640167,158.725825 97.7618539,158.077475 97.1702403,157.410367 C87.2504424,145.78697 82.3190057,130.229745 82.3190057,110.45566 L82.2623993,110.45566 L82.2623993,0 L119.956868,23.39944 L119.956868,107.606259 C119.956868,117.338492 121.945809,124.696704 125.930192,129.653357 C133.094438,124.208534 141.168545,119.462578 150.231762,115.515257 C152.978494,114.316917 160.516885,114.142461 170.673717,114.333753 C171.364444,110.650403 171.7104,106.527261 171.7104,101.967878 L171.7104,50.7358882 L209.121519,50.7358882 L209.121519,101.967878 C209.121519,106.981597 209.530601,111.462528 210.350427,115.410117 C228.509878,115.696602 247.139976,115.333499 260.680812,112.642146 C260.809851,111.040835 260.87505,109.362187 260.87505,107.606259 L260.87505,23.4566824 L298.511959,0 Z M185.165555,230.559853 C173.749341,230.559853 164.494671,240.52642 164.494671,252.820804 C164.494671,265.115188 173.749341,275.081756 185.165555,275.081756 C196.581768,275.081756 205.836438,265.115188 205.836438,252.820804 C205.836438,240.52642 196.581768,230.559853 185.165555,230.559853 Z M369.778804,163.974167 C356.489016,161.741712 342.639524,161.445959 328.583324,163.357221 C286.249355,169.110087 251.073871,193.625755 230.307584,227.376537 C247.114602,209.287924 270.049742,196.685045 296.42579,193.101032 C307.778875,191.558666 318.963413,191.793996 329.696371,193.600314 C323.030806,222.749439 304.722764,248.0347 279.297578,263.512421 C325.186939,248.359074 359.236654,210.067057 369.778804,163.974167 Z" fill="#563ACC"></path>
    </g>
</svg>