<?xml version="1.0" encoding="UTF-8"?>
<svg width="512px" height="512px" viewBox="0 0 512 512" version="1.1" xmlns="http://www.w3.org/2000/svg" xmlns:xlink="http://www.w3.org/1999/xlink">
    <title>XMPP logo</title>
    <defs>
        <linearGradient x1="50.0298858%" y1="99.9992014%" x2="50.0298858%" y2="-0.000788332595%" id="linearGradient-1">
            <stop stop-color="#1B3967" offset="1.1%"></stop>
            <stop stop-color="#13B5EA" offset="46.7%"></stop>
            <stop stop-color="#002B5C" offset="99.45%"></stop>
        </linearGradient>
        <linearGradient x1="49.9700123%" y1="99.9992014%" x2="49.9700123%" y2="-0.000788332595%" id="linearGradient-2">
            <stop stop-color="#1B3967" offset="1.1%"></stop>
            <stop stop-color="#13B5EA" offset="46.7%"></stop>
            <stop stop-color="#002B5C" offset="99.45%"></stop>
        </linearGradient>
    </defs>
    <g id="XMPP-logo" stroke="none" stroke-width="1" fill="none" fill-rule="evenodd">
        <g id="Group" transform="translate(0.000000, 70.000000)" fill-rule="nonzero">
            <path d="M404.878334,41.5770493 C405.10373,45.4247137 399.647389,44.4137128 399.647389,48.2965424 C399.647389,161.267836 263.361817,333.621549 131.25636,366.92304 L131.25636,371.726027 C306.752048,355.550013 507.579896,173.042334 512,0 L404.866625,41.5799798 L404.878334,41.5770493 Z" id="Path" fill="url(#linearGradient-1)"></path>
            <path d="M351.776369,55.8453764 C351.998749,59.6928645 352.127495,63.5520738 352.127495,67.4405861 C352.127495,180.406704 262.30093,332.624268 130.254403,365.921304 L130.254403,370.72407 C303.019757,362.548525 439.8591,186.044607 439.8591,50.7349277 C439.8591,43.7754576 439.484566,36.8775239 438.773537,30.0587084 L351.782251,55.8395158 L351.776369,55.8453764 Z" id="Path" fill="#E96D1F"></path>
            <path d="M439.610678,28.0665141 L417.32933,36.0416954 C417.449263,38.8602569 417.522394,42.6456846 417.522394,45.4906152 C417.522394,166.258065 308.496633,333.218315 162.232875,359.341282 C152.740517,362.529011 140.18256,365.42668 130.254403,367.928812 L130.254403,372.727984 C321.136495,356.437754 455.245992,162.167928 439.625304,28.0547945 L439.610678,28.0665141 Z" id="Path" fill="#D9541E"></path>
            <path d="M107.121662,41.5770493 C106.896266,45.4247137 112.352606,44.4137128 112.352606,48.2965424 C112.352606,161.267836 248.638194,333.621549 380.74364,366.92304 L380.74364,371.726027 C205.247973,355.550013 4.4201041,173.042334 0,0 L107.133371,41.5799798 L107.121662,41.5770493 Z" id="Path" fill="url(#linearGradient-2)"></path>
            <path d="M160.223606,55.8453764 C160.001226,59.6928645 159.87248,63.5520738 159.87248,67.4405861 C159.87248,180.406704 249.699093,332.624268 381.745597,365.921304 L381.745597,370.72407 C208.980278,362.548525 72.1409002,186.044607 72.1409002,50.7349277 C72.1409002,43.7754576 72.5154338,36.8775239 73.2264626,30.0587084 L160.217754,55.8395158 L160.223606,55.8453764 Z" id="Path" fill="#A0CE67"></path>
            <path d="M72.3893178,28.0665141 L94.6706946,36.0416954 C94.5507607,38.8602569 94.4776302,42.6456846 94.4776302,45.4906152 C94.4776302,166.258065 203.503388,333.218315 349.767126,359.341282 C359.259455,362.529011 371.817411,365.42668 381.745597,367.928812 L381.745597,372.727984 C190.863526,356.437754 56.7540337,162.167928 72.3746917,28.0547945 L72.3893178,28.0665141 Z" id="Path" fill="#439639"></path>
        </g>
    </g>
</svg>