<?xml version="1.0" encoding="UTF-8"?>
<svg width="512px" height="512px" viewBox="0 0 512 512" version="1.1" xmlns="http://www.w3.org/2000/svg" xmlns:xlink="http://www.w3.org/1999/xlink">
    <title>yeet [2 color]</title>
    <g id="yeet-[2-color]" stroke="none" stroke-width="1" fill="none" fill-rule="evenodd">
        <g id="Group" transform="translate(256.000000, 256.000000) scale(-1, 1) rotate(-180.000000) translate(-256.000000, -256.000000) translate(0.000000, -0.000000)">
            <circle id="Oval" fill="#F999BE" cx="256" cy="256" r="256"></circle>
            <path d="M252.113357,462.445307 C251.659567,460.403249 247.877978,440.587726 243.642599,418.351986 C239.40722,396.116245 235.776895,377.359567 235.625632,376.754513 C235.398736,376.149458 234.037365,377.964621 232.222202,381.292419 C226.247292,392.334657 220.272383,398.990253 208.851986,407.536643 C204.919134,410.486282 199.927437,414.721661 197.734116,416.914982 C191.002888,424.024368 184.952347,434.764079 181.851444,445.352527 L180.490072,450.117329 L176.632852,450.117329 L172.775632,450.117329 L171.868051,444.898736 C169.145307,428.259747 172.321841,414.040975 182.834657,395.964982 C191.229783,381.443682 194.406318,373.199819 195.616426,362.762635 L196.070217,358.981047 L192.818051,357.014621 L189.565884,355.123827 L150.388628,381.216787 L111.211372,407.309747 L108.488628,404.587004 L105.765884,401.86426 L131.102527,364.502166 C145.018773,344.005957 156.666065,326.837545 156.968592,326.308123 C157.346751,325.627437 156.590433,325.703069 154.699639,326.535018 C145.472563,330.392238 128.757942,331.602347 115.219856,329.409025 C100.320397,326.988809 86.933574,329.030866 72.9416968,335.913357 L65.5297834,339.619314 L62.9583032,337.047834 L60.3111913,334.476354 L63.2608303,330.089711 C69.3113718,321.013899 79.5972924,312.694404 90.7151625,307.929603 C93.5135379,306.719495 100.849819,304.37491 107.051625,302.711011 C113.177798,300.97148 120.589711,298.626895 123.388087,297.416787 C128.531047,295.299097 138.211913,289.248556 139.951444,287.206498 C141.237184,285.618231 140.253971,279.340794 138.590072,278.887004 C137.455596,278.508845 47.8319495,260.281588 47.2268953,260.281588 C47.1512635,260.281588 47,258.61769 47,256.5 C47,253.247834 47.2268953,252.718412 48.7395307,252.340253 C49.6471119,252.188989 69.3113718,248.407401 92.3790614,244.020758 C115.446751,239.634116 134.959747,235.852527 135.791697,235.625632 C136.850542,235.247473 135.791697,234.415523 131.631949,232.14657 C120.665343,226.247292 113.934116,220.196751 105.463357,208.851986 C94.7236462,194.330686 82.6225632,185.859928 66.4373646,181.473285 L62.8826715,180.565704 L62.8826715,176.632852 L62.8826715,172.7 L67.6474729,171.868051 C74.4543321,170.657942 84.6646209,170.809206 91.3958484,172.246209 C99.3371841,173.834477 107.127256,177.086643 117.035018,182.834657 C131.556318,191.154152 139.573285,194.330686 150.237365,195.616426 L154.018953,196.145848 L155.834116,192.666787 L157.72491,189.263357 L131.707581,150.237365 L105.765884,111.211372 L108.337365,108.56426 C109.698736,107.127256 111.211372,106.068412 111.665162,106.295307 C112.043321,106.44657 128.455415,117.413177 147.968412,130.724368 C167.55704,144.03556 184.422924,155.455957 185.557401,156.212274 L187.599458,157.498014 L186.162455,153.86769 C182.456498,143.959928 181.397653,128.606679 183.590975,115.219856 C186.011191,100.320397 183.969134,86.933574 177.086643,72.9416968 L173.380686,65.5297834 L175.952166,62.9583032 L178.523646,60.3111913 L182.834657,63.1851986 C191.910469,69.2357401 200.91065,80.5805054 205.675451,92.1521661 C206.583032,94.3454874 208.549458,100.471661 209.986462,105.917148 C211.423466,111.287004 213.616787,118.472022 214.978159,121.875451 C217.17148,127.623466 223.373285,137.909386 225.793502,139.951444 C227.381769,141.312816 233.659206,140.253971 234.112996,138.590072 C234.339892,137.909386 238.272744,118.698917 242.886282,95.782491 C247.499819,72.9416968 251.659567,52.5967509 252.037726,50.6303249 L252.869675,47 L256.5,47 L260.130325,47 L260.886643,50.6303249 C261.340433,52.5967509 265.122022,72.4122744 269.357401,94.6480144 C273.59278,116.883755 277.223105,135.640433 277.374368,136.245487 C277.601264,136.850542 278.962635,135.035379 280.777798,131.707581 C286.601444,120.96787 292.878881,113.782852 303.013538,106.370939 C317.761733,95.7068592 326.005596,84.4377256 330.770397,68.7819495 L332.509928,62.8826715 L336.367148,62.8826715 L340.224368,62.8826715 L341.056318,67.7231047 C342.342058,74.3787004 342.190794,84.5889892 340.753791,91.3958484 C339.165523,99.3371841 335.913357,107.127256 330.240975,116.959386 C321.845848,131.329422 318.669314,139.648917 317.383574,150.237365 L316.854152,154.018953 L320.257581,155.834116 L323.736643,157.72491 L362.762635,131.707581 L401.788628,105.765884 L404.43574,108.261733 C405.872744,109.698736 406.931588,111.211372 406.704693,111.665162 C406.55343,112.043321 395.133032,129.060469 381.368051,149.405415 C367.527437,169.674729 356.409567,186.464982 356.56083,186.616245 C356.712094,186.767509 358.300361,186.464982 360.039892,185.784296 C369.79639,182.380866 384.847112,181.473285 397.780144,183.590975 C412.679603,186.011191 426.066426,183.969134 440.058303,177.086643 L447.470217,173.380686 L450.041697,175.952166 L452.613177,178.523646 L450.495487,181.775812 C441.268412,195.76769 427.730325,204.540975 406.55343,210.062094 C393.922924,213.465523 386.208484,216.566426 379.174729,221.255596 C372.292238,225.793502 371.989711,226.171661 372.594765,230.331408 C373.048556,233.054152 373.502347,233.886101 374.788087,234.188628 C375.620036,234.415523 395.813718,238.499639 419.486462,243.26444 C443.234838,248.029242 463.352888,252.113357 464.336101,252.340253 C465.773105,252.718412 466,253.247834 466,256.424368 C466,259.600903 465.773105,260.205957 464.336101,260.508484 C463.352888,260.735379 443.537365,264.516968 420.24278,268.979242 C396.948195,273.441516 377.359567,277.223105 376.754513,277.374368 C376.149458,277.601264 377.964621,278.962635 381.292419,280.777798 C392.03213,286.601444 399.217148,292.954513 406.629061,303.013538 C412.301444,310.80361 418.351986,317.156679 423.797473,320.862635 C429.545487,324.795487 438.848195,329.257762 445.125632,331.072924 L450.117329,332.509928 L450.117329,336.367148 L450.117329,340.3 L443.991155,341.207581 C428.108484,343.70343 413.511552,340.375632 395.964982,330.165343 C381.443682,321.770217 373.199819,318.593682 362.762635,317.383574 L358.981047,316.929783 L357.014621,320.181949 L355.123827,323.434116 L381.216787,362.611372 L407.309747,401.788628 L404.587004,404.511372 L401.86426,407.234116 L364.577798,381.897473 C344.005957,367.981227 326.837545,356.409567 326.308123,356.10704 C325.703069,355.728881 325.703069,356.409567 326.535018,358.300361 C330.392238,367.527437 331.602347,384.242058 329.409025,397.780144 C326.988809,412.679603 329.030866,426.066426 335.913357,440.058303 L339.619314,447.470217 L337.047834,450.041697 L334.476354,452.613177 L331.224188,450.495487 C317.081047,441.19278 308.23213,427.50343 303.013538,407.158484 C299.307581,392.485921 294.467148,381.670578 288.492238,374.636823 C286.450181,372.216606 286.147653,372.065343 282.819856,372.594765 C280.475271,372.972924 279.113899,373.577978 278.887004,374.409928 C278.660108,375.090614 274.575993,395.133032 269.811191,418.881408 C264.970758,442.705415 260.886643,463.050361 260.584116,464.109206 C260.130325,465.773105 259.752166,466 256.5,466 L252.869675,466 L252.113357,462.445307 Z" id="Path" fill="#00629E" fill-rule="nonzero"></path>
        </g>
    </g>
</svg>